<svg width="78" height="23" viewBox="0 0 78 23" fill="none" xmlns="http://www.w3.org/2000/svg">
<path d="M1.52375 20.1359L3.0475 17.2718L8.91686 17.1587C13.6568 17.0674 14.8515 16.942 15.1253 16.5073C15.3119 16.2112 15.4669 12.3768 15.4699 7.98451L15.4754 0H19.2377H23V9.45658C23 18.6726 22.9795 18.9433 22.1938 20.0995C21.7504 20.752 20.9327 21.6237 20.3768 22.0366C19.419 22.7479 18.8577 22.7928 9.68297 22.8936L0 23L1.52375 20.1359Z" fill="white"/>
<path d="M25 11.5V0H36.0998C46.906 0 47.2413 0.0213827 48.7796 0.808594C53.4624 3.20506 54.5221 11.9482 50.5683 15.5666C48.8486 17.1405 47.7661 17.3228 40.9928 17.1789L35.8775 17.0703L34.3411 14.4343C33.4961 12.9844 32.8047 11.7311 32.8047 11.6491C32.8047 11.5671 35.359 11.5 38.4809 11.5C43.684 11.5 44.2162 11.4401 44.8666 10.7812C45.8342 9.80104 45.8294 7.44413 44.8578 6.45989C44.1868 5.78015 43.7609 5.73878 38.3835 5.83099L32.6274 5.92969L32.5323 14.4648L32.4371 23H28.7186H25L25 11.5Z" fill="white"/>
<path d="M57.2628 22.4066C55.0864 21.3504 55 20.873 55 9.90411V0H58.4615H61.9231L62.021 8.35838L62.119 16.7168L68.5994 16.8149L75.0797 16.9131L76.5398 19.7728C77.3429 21.3457 78 22.717 78 22.8203C78 22.9235 73.6054 23.0043 68.2341 22.9998C59.9627 22.9929 58.2838 22.9021 57.2628 22.4066Z" fill="white"/>
</svg>
