<svg width="139" height="30" viewBox="0 0 139 30" fill="none" xmlns="http://www.w3.org/2000/svg">
<path fill-rule="evenodd" clip-rule="evenodd" d="M45.4483 13.7751C46.1031 11.3548 44.9798 10 42.6395 10C38.8001 10 38.0515 13.0019 37.4904 15.9031C36.5545 20.3539 36.6471 22 40.5803 22C41.5162 22 43.2017 21.8051 43.8565 21.6134L45.0735 15.7103H41.4225L41.0488 17.5491H42.3595L41.7973 20.1612C41.4225 20.2576 41.0488 20.3539 40.5803 20.3539C39.2696 20.3539 39.0822 19.676 39.8307 16.0969C40.2992 13.7751 40.674 11.7424 42.1721 11.7424C43.3891 11.7424 43.3891 12.7106 43.108 13.7751H45.4483ZM48.8193 16.8712C49.0067 16.1933 49.193 14.936 50.2226 14.936C51.2533 14.936 50.9733 16.0969 50.8796 16.8712H48.8193ZM52.7514 18.1274C53.4062 15.5154 53.4999 13.5802 50.5048 13.5802C47.6012 13.5802 46.8527 15.419 46.4779 17.6444C45.9158 20.2565 45.9158 21.9989 48.7256 21.9989C49.7542 21.9989 50.5985 21.7087 51.2533 21.2225C51.9081 20.7395 52.284 19.9652 52.565 19.0956H50.3163C50.129 19.7735 49.8489 20.5467 49.1004 20.5467C48.0697 20.5467 48.3519 19.0956 48.5392 18.1264L52.7514 18.1274ZM57.432 13.6766H55.2791L53.5936 21.8051H55.7465L56.9646 16.1933C57.0583 15.5154 57.3383 14.936 57.9932 14.936C58.7438 14.936 58.7438 15.5154 58.5564 16.1933L57.432 21.8051H59.585L60.9904 15.3226C61.1778 14.1617 60.4272 13.5802 59.3986 13.5802C58.9312 13.5802 58.5564 13.5802 58.2743 13.7751C57.9005 13.8715 57.6194 14.1617 57.3394 14.5494H57.2457L57.432 13.6766ZM64.4551 16.8712C64.5488 16.1933 64.8288 14.936 65.8584 14.936C66.8891 14.936 66.609 16.0969 66.4196 16.8712H64.4551ZM68.3861 18.1274C68.9494 15.5154 69.0431 13.5802 66.1395 13.5802C63.2381 13.5802 62.4895 15.419 62.02 17.6444C61.5526 20.2565 61.5526 21.9989 64.3603 21.9989C65.391 21.9989 66.2332 21.7087 66.8901 21.2225C67.4513 20.7395 67.9187 19.9652 68.1061 19.0956H65.8595C65.7658 19.7735 65.4857 20.5467 64.6435 20.5467C63.7066 20.5467 63.9866 19.0956 64.174 18.1264L68.3861 18.1274ZM70.8222 13.6766L69.1367 21.8051H71.3834L72.3182 17.4506C72.4119 16.581 72.6941 15.4201 74.6606 15.6118L75.0344 13.5813C74.1901 13.5813 73.3489 13.7762 72.7878 14.7422H72.6941L72.9752 13.6776L70.8222 13.6766ZM78.9675 17.9357C78.7781 18.8054 78.6854 20.6442 77.3758 20.6442C76.6251 20.6442 76.7209 19.8699 76.8146 19.2884C77.0947 17.8372 77.9369 17.9357 78.9675 17.9357ZM81.4953 16.2897C81.7764 14.7422 81.6826 13.5813 78.8739 13.5813C78.0295 13.5813 77.2821 13.6776 76.7209 14.0643C76.1577 14.4509 75.6903 15.0324 75.5029 16.0969H77.6558C77.8432 15.419 78.0295 14.8375 78.7781 14.8375C79.5287 14.8375 79.5287 15.3226 79.435 15.9984L79.2476 16.6763C77.1873 16.5799 75.2218 16.6763 74.6606 19.3869C74.3785 20.8369 74.6607 21.9989 76.1577 21.9989C77.1884 21.9989 77.8432 21.6123 78.498 20.7395L78.4043 21.804H80.4646C80.4646 21.321 80.5583 20.8359 80.6541 20.3529L81.4953 16.2897ZM84.7705 10.1938L82.3364 21.8051H84.5831L86.9255 10.1938H84.7705ZM96.3804 21.8051L96.7552 20.0627H92.8221L93.479 16.6763H97.0353L97.4121 14.8375H93.8538L94.5086 12.0327H98.2533L98.6281 10.1938H92.4483L90.108 21.8051H96.3804ZM100.314 10.1938L97.9733 21.8051H100.126L102.56 10.1938H100.314ZM105.184 16.8712C105.277 16.1933 105.557 14.936 106.587 14.936C107.618 14.936 107.338 16.0969 107.148 16.8712H105.184ZM109.116 18.1274C109.771 15.5154 109.771 13.5802 106.867 13.5802C103.966 13.5802 103.217 15.419 102.748 17.6444C102.28 20.2565 102.28 21.9989 105.088 21.9989C106.119 21.9989 106.961 21.7087 107.618 21.2225C108.273 20.7395 108.646 19.9652 108.834 19.0956H106.681C106.493 19.7735 106.213 20.5467 105.371 20.5467C104.434 20.5467 104.714 19.0956 104.902 18.1264L109.116 18.1274ZM117.167 16.5799C117.635 14.4509 116.698 13.5802 114.638 13.5802C111.736 13.5802 111.079 15.419 110.612 17.6444C110.051 20.2565 110.051 21.9989 112.952 21.9989C115.012 21.9989 116.323 21.0308 116.792 18.8054H114.545C114.358 19.8699 113.89 20.5478 113.233 20.5478C112.391 20.5478 112.298 20.0627 112.859 17.5481C113.141 15.8056 113.423 15.0313 114.358 15.0313C115.012 15.0313 115.292 15.4179 115.012 16.5789L117.167 16.5799ZM118.197 15.1288H119.132L118.103 20.1612C118.01 20.6442 117.916 21.9015 119.883 21.9015C120.35 21.9015 120.725 21.9015 121.005 21.8051L121.286 20.4493H120.912C120.164 20.4493 120.257 20.0627 120.445 19.4833L121.287 15.1288H122.411L122.692 13.6776H121.57L122.038 11.3558L119.697 12.4203L119.416 13.6776H118.479L118.197 15.1288ZM123.721 13.6766L122.035 21.8051H124.282L125.124 17.4506C125.312 16.581 125.594 15.4201 127.56 15.6118L127.934 13.5813C126.997 13.5813 126.249 13.7762 125.594 14.7422L125.781 13.6776L123.721 13.6766ZM131.303 13.6766H129.15L127.467 21.8051H129.62L131.303 13.6766ZM129.807 10.1938L129.433 12.0327H131.68L132.054 10.1938H129.807ZM138.888 16.5799C139.356 14.4509 138.327 13.5802 136.361 13.5802C133.457 13.5802 132.708 15.419 132.241 17.6444C131.774 20.2565 131.774 21.9989 134.581 21.9989C136.642 21.9989 137.952 21.0308 138.421 18.8054H136.268C135.987 19.8699 135.611 20.5478 134.862 20.5478C134.114 20.5478 134.02 20.0627 134.489 17.5481C134.862 15.8056 135.05 15.0313 135.987 15.0313C136.735 15.0313 136.922 15.4179 136.642 16.5789L138.888 16.5799Z" fill="white"/>
<g clip-path="url(#clip0_26_250)">
<path d="M14.4979 29.6998C22.3476 29.6998 28.7091 23.119 28.7091 15.001C28.7091 6.883 22.3476 0.299805 14.4979 0.299805C6.6505 0.299805 0.289062 6.883 0.289062 15.001C0.289062 23.119 6.6505 29.6998 14.4979 29.6998Z" fill="black"/>
<path d="M17.6867 11.1724C17.6867 9.5008 18.7806 7.8796 19.3774 8.185C20.0578 8.5378 18.8676 10.1122 17.6867 11.1724ZM10.2482 11.7814C10.2482 10.4374 11.53 7.8838 12.313 8.1538C13.2387 8.473 11.5463 11.0488 10.2482 11.7814ZM8.94846 21.3934C8.35918 21.421 7.96478 21.031 7.96478 20.38C7.96478 18.631 10.3109 16.96 12.0828 16.063C11.7684 18.505 10.9709 21.2992 8.94846 21.3934ZM19.7724 15.694C18.4344 15.694 17.4118 16.7122 17.4118 17.9332C17.4118 18.9514 18.0034 19.7656 18.7882 19.7656C19.066 19.7656 19.3409 19.6018 19.3409 19.2382C19.3409 18.706 18.6623 18.5782 18.7133 17.7868C18.7476 17.2648 19.2232 16.9156 19.6953 16.9156C20.6389 16.9156 21.0803 17.8618 21.0803 18.838C21.042 20.3458 19.969 21.3928 18.7116 21.3928C17.0574 21.3928 15.9949 19.7656 15.9949 18.0142C15.9949 15.4066 17.649 14.389 18.5156 14.146C18.5237 14.146 20.7787 14.5606 20.7085 13.5322C20.6761 13.0798 20.0259 12.9058 19.5561 12.8872C19.0335 12.8662 18.5057 13.0606 18.5057 13.0606C18.2319 12.9166 18.0417 12.6352 17.924 12.3112C19.5381 11.0476 20.6795 9.8272 20.6795 8.4424C20.6795 7.7098 20.2063 7.0582 19.3009 7.0582C17.6867 7.0582 16.4664 9.1756 16.4664 11.0896C16.4664 11.4142 16.4664 11.7412 16.5476 12.0256C15.5233 12.7984 14.7618 13.2802 13.3855 14.1352C13.3855 13.957 13.4214 13.4968 13.5374 12.9016C14.009 12.3718 14.6568 11.578 14.6568 10.9666C14.6568 10.6822 14.5008 10.4368 14.183 10.4368C13.3971 10.4368 12.8078 11.6596 12.65 12.5146C12.2956 12.9646 11.5869 13.5346 10.9953 13.5346C10.5237 13.5346 10.3654 13.0864 10.3254 12.9226C11.8218 12.3928 13.672 10.2754 13.672 8.3614C13.672 7.9552 13.5142 7.0582 12.3339 7.0582C10.5626 7.0582 9.06852 9.7876 9.06852 11.9026C8.4369 11.9026 8.202 11.2114 8.202 10.6816C8.202 10.1512 8.39862 9.6238 8.39862 9.46C8.39862 9.2968 8.31974 9.094 8.08252 9.094C7.49324 9.094 7.13886 9.9082 7.13886 10.8448C7.17946 12.148 8.00538 12.9646 9.1068 13.0444C9.26456 13.819 9.93272 14.5522 10.7586 14.5522C11.2714 14.5522 11.9007 14.389 12.3339 13.9828C12.2956 14.2672 12.2574 14.5126 12.2168 14.7556C10.4837 15.694 9.22396 16.345 8.08252 17.4034C7.17946 18.2596 6.66732 19.399 6.66732 20.2936C6.66732 21.517 7.41436 22.6564 8.94904 22.6564C10.7586 22.6564 12.1379 21.1504 12.8078 19.0726C13.1216 18.0964 13.2474 16.6744 13.328 15.3694C15.1365 14.3092 15.9949 13.6984 16.9403 13.0048C17.058 13.2082 17.1769 13.3708 17.3329 13.4926C16.507 13.9408 14.5391 15.2038 14.5391 18.1756C14.5391 20.293 15.9154 22.6558 18.6333 22.6558C20.8767 22.6558 22.4114 20.7412 22.4114 18.9082C22.4108 17.2402 21.5055 15.694 19.7724 15.694ZM26.5404 19.192C26.5346 19.2046 26.5126 19.2214 26.4679 19.2064C26.4331 19.1938 26.4256 19.177 26.4256 19.1536C26.4273 19.1308 26.9012 17.6812 26.8971 16.0204C26.8931 14.2252 26.189 13.1254 25.2859 13.1254C24.7332 13.1254 24.3399 13.534 24.3399 14.146C24.3399 15.2452 25.638 15.3274 25.638 17.7292C25.638 18.7054 25.4413 19.642 25.1281 20.6596C23.67 25.7488 19.0254 28.1116 14.5008 28.1116C12.4134 28.1116 10.9309 27.6676 10.4901 27.463C10.4721 27.4522 10.4553 27.4168 10.4698 27.3808C10.4797 27.3538 10.5104 27.3328 10.5284 27.3412C10.707 27.4126 11.9801 27.8272 13.5554 27.8272C15.2867 27.8272 16.311 27.0946 16.311 26.1976C16.311 25.6282 15.8777 25.18 15.3273 25.18C14.2642 25.18 14.1835 26.5642 11.9012 26.5642C10.9176 26.5642 10.051 26.3608 9.0285 26.0338C4.14606 24.487 1.822 19.7242 1.82374 15.001C1.82548 12.6994 2.44956 10.8664 2.45942 10.8496C2.46754 10.8376 2.49538 10.8244 2.5296 10.8376C2.5644 10.8496 2.57194 10.879 2.5702 10.8898C2.51394 11.0806 2.1004 12.394 2.1004 14.0236C2.1004 15.8164 2.80858 16.8742 3.71396 16.8742C4.22436 16.8742 4.65762 16.468 4.65762 15.898C4.65762 14.797 3.35784 14.6752 3.35784 12.313C3.35784 11.2948 3.5562 10.3984 3.86998 9.3406C5.36638 4.291 9.97274 1.9246 14.4996 1.888C16.6033 1.8712 18.4436 2.5228 18.5144 2.581C18.5266 2.5918 18.5388 2.6194 18.5266 2.6524C18.5098 2.692 18.4854 2.6962 18.4738 2.6938C18.4518 2.692 17.2546 2.1742 15.4427 2.1742C13.7503 2.1724 12.6871 2.9056 12.6871 3.8434C12.6871 4.3714 13.0821 4.8196 13.6708 4.8196C14.734 4.8196 14.8128 3.4768 17.0969 3.4768C18.0782 3.4768 18.9453 3.6778 19.9679 4.0048C24.8898 5.5522 27.1291 10.357 27.1715 15.0004C27.1947 17.3782 26.5468 19.177 26.5404 19.192ZM14.5002 0.992805C7.02112 0.992805 0.959542 7.2616 0.959542 15.0004C0.959542 22.7374 7.02112 29.0062 14.5002 29.0062C21.9776 29.0062 28.0392 22.7374 28.0392 15.0004C28.0392 7.3036 21.9776 0.992805 14.5002 0.992805ZM14.5002 29.6998C6.66674 29.6998 0.289062 23.1442 0.289062 15.001C0.289062 6.895 6.66674 0.299805 14.5002 0.299805C22.3314 0.299805 28.7091 6.895 28.7091 15.001C28.7091 23.1442 22.3314 29.6998 14.5002 29.6998Z" fill="white"/>
</g>
<defs>
<clipPath id="clip0_26_250">
<rect width="29" height="30" fill="white"/>
</clipPath>
</defs>
</svg>
