<svg width="75" height="31" viewBox="0 0 75 31" fill="none" xmlns="http://www.w3.org/2000/svg">
<path d="M47.7704 8.73584C46.7432 9.71819 46.7432 11.3102 47.7704 12.2926L51.3756 15.7369C51.6085 15.9849 52.5862 17.1393 52.2271 18.7003C52.2089 18.7806 52.2251 18.8682 52.2902 18.9307C52.3871 19.0231 52.5446 19.0231 52.6409 18.9307L53.6797 17.9381L55.0081 16.6682C56.3306 15.4056 56.3306 13.3582 55.0081 12.095L51.4927 8.73584C50.4648 7.75472 48.7982 7.75472 47.7704 8.73584Z" fill="white"/>
<path d="M69.2292 30.2632C70.2569 29.2821 70.2569 27.6894 69.2292 26.7077L65.6236 23.2633C65.3914 23.0147 64.4137 21.8609 64.7721 20.2993C64.791 20.219 64.7741 20.1314 64.709 20.0689C64.6121 19.977 64.4547 19.977 64.3584 20.0689L63.3203 21.0616L61.9913 22.3321C60.6696 23.594 60.6696 25.6414 61.9913 26.9046L65.5072 30.2632C66.5343 31.2456 68.2008 31.2456 69.2292 30.2632Z" fill="white"/>
<path d="M47.7293 26.5447L64.7415 8.76108C65.2349 8.24624 65.8871 7.99196 66.5363 8.00019C67.1675 8.00916 67.7944 8.26204 68.2723 8.76297C68.757 9.26895 68.9994 9.9375 69 10.6054C69.0012 11.2765 68.7583 11.9469 68.2717 12.4554L51.2595 30.2391C50.7735 30.747 50.1336 31.0012 49.4938 31C48.8539 31 48.2134 30.7457 47.728 30.2385C47.2557 29.742 47.0121 29.0924 47.0004 28.4397C46.9892 27.754 47.2322 27.0653 47.7293 26.5447Z" fill="white"/>
<path d="M3.66515 13.1412H2.00789C0.898998 13.1412 0 12.1886 0 11.0141C0 9.83953 0.898998 8.8876 2.00789 8.8876H3.66515V7.28613C3.66515 4.80127 4.26085 2.94891 5.37459 1.76935C6.48711 0.589791 8.03761 0 10.1043 0C10.97 0 11.6979 0.0672066 12.347 0.180473C13.3042 0.346407 14 1.23552 14 2.26481C13.9988 3.50222 13.0015 4.47557 11.8374 4.36804C11.6251 4.34915 11.4067 4.33791 11.178 4.33791C9.34911 4.33791 8.3949 5.39108 8.3949 7.70808V8.92913H11.9721C13.0695 8.92913 13.9594 9.87228 13.9594 11.0355C13.9594 12.1987 13.0695 13.1412 11.9721 13.1412H8.47437V28.4522C8.47437 29.8588 7.39763 31 6.07037 31C4.74189 31 3.66515 29.8588 3.66515 28.4522V13.1412Z" fill="white"/>
<path d="M19.5 0C20.8806 0 22 1.15056 22 2.56866V28.4307C22 29.8494 20.8806 31 19.5 31C18.1194 31 17 29.8494 17 28.4307V2.56866C17 1.15056 18.1194 0 19.5 0Z" fill="white"/>
<path d="M41.8262 17.927C41.9548 17.927 42.057 17.8116 42.0407 17.6813C41.6437 14.5422 39.7665 12.1212 36.5615 12.1212C33.5961 12.1212 31.4905 14.385 30.9681 17.6739C30.948 17.8048 31.0509 17.927 31.1813 17.927H41.8262ZM26 19.5555V19.2538C26 12.3606 32.0927 6.92518 38.7623 8.18148C44.2347 9.21272 47 14.1999 47 19.8479C46.9994 20.6329 46.3734 21.2676 45.6013 21.2676L31.2277 21.2682C31.0948 21.2682 30.9913 21.3942 31.0151 21.5269C31.6285 24.956 34.0915 26.8651 37.2188 26.8651C39.0596 26.8651 40.4978 26.3345 41.8388 25.332C42.6196 24.7465 43.6859 24.7659 44.4109 25.4193C45.3298 26.2479 45.3304 27.7299 44.3802 28.5192C42.5193 30.0642 40.1591 31 37.1372 31C30.8495 31 26 26.3632 26 19.5555Z" fill="white"/>
<path d="M73.9715 28.5118C73.9715 28.2644 73.8348 28.1403 73.5624 28.1403H73.0765V28.9312H73.5435C73.6796 28.9312 73.785 28.8966 73.8591 28.8269C73.9336 28.7571 73.9715 28.6528 73.9715 28.5118ZM73.9439 29.7791C73.9439 29.6157 73.9309 29.493 73.905 29.4098C73.8785 29.3273 73.8348 29.2723 73.7726 29.24C73.7115 29.2082 73.6213 29.1934 73.504 29.1934H73.0765V30.1612H72.8603V27.8732H73.6099C73.7856 27.8732 73.9256 27.9262 74.0304 28.0333C74.1347 28.139 74.1871 28.2933 74.1871 28.4963C74.1871 28.6436 74.1612 28.7635 74.1066 28.8579C74.0526 28.9525 73.9737 29.0166 73.8688 29.0525V29.0625C73.9737 29.1041 74.0477 29.171 74.0915 29.2619C74.1342 29.3528 74.1558 29.5051 74.1558 29.7173C74.1558 29.9337 74.1747 30.0817 74.2115 30.162H73.9953C73.9791 30.1325 73.9666 30.0795 73.9575 30.0076C73.9483 29.9357 73.9439 29.8596 73.9439 29.7791ZM74.7844 28.9996C74.7844 28.6888 74.7276 28.4012 74.613 28.1362C74.5001 27.8712 74.3444 27.6583 74.1483 27.5025C73.9515 27.3453 73.7337 27.2671 73.4965 27.2671C73.2657 27.2671 73.0528 27.344 72.8566 27.4997C72.6599 27.6548 72.5042 27.8649 72.3891 28.1313C72.274 28.3956 72.2162 28.686 72.2162 28.9996C72.2162 29.3105 72.2729 29.5988 72.3864 29.8645C72.5015 30.1302 72.6561 30.3403 72.8523 30.4982C73.0479 30.654 73.2641 30.7329 73.5003 30.7329C73.7354 30.7329 73.9515 30.654 74.1483 30.4982C74.3444 30.3403 74.5001 30.1302 74.613 29.8645C74.7276 29.5988 74.7844 29.3105 74.7844 28.9996ZM72 28.9996C72 28.6331 72.0692 28.2962 72.2064 27.9903C72.3437 27.6823 72.5269 27.4412 72.7577 27.265C72.9885 27.0888 73.2376 27 73.5041 27C73.7737 27 74.0234 27.0895 74.252 27.2699C74.4817 27.4484 74.6633 27.6914 74.7979 27.9974C74.933 28.3033 75 28.6367 75 28.9996C75 29.3485 74.9346 29.677 74.8038 29.985C74.6736 30.2916 74.4942 30.5376 74.2666 30.7237C74.038 30.9077 73.784 31 73.5041 31C73.229 31 72.9771 30.9097 72.748 30.7301C72.5188 30.551 72.3372 30.3079 72.2027 30.0005C72.0676 29.6932 72 29.3598 72 28.9996Z" fill="white"/>
</svg>
