<svg width="106" height="42" viewBox="0 0 106 42" fill="none" xmlns="http://www.w3.org/2000/svg">
<path fill-rule="evenodd" clip-rule="evenodd" d="M0 0H106V42H0V0ZM102.139 20.8233C102.139 10.4632 78.1746 3.08905 52.9538 3.08905C26.9256 3.08905 3.85842 10.8355 3.85842 20.8233C3.85842 32.3028 27.8231 38.6494 52.8643 38.6494C66.507 38.6494 78.1746 37.1558 86.1634 34.2629C96.4848 30.5299 102.139 25.5826 102.139 20.8233ZM22.7992 27.5393L26.2996 14.1002H29.4407L32.8515 27.5393H30.4283L29.9795 25.4866H25.4922L25.133 27.5393H22.7992ZM27.8276 17.267L26.2118 22.8659H29.1738L27.8276 17.267ZM71.6295 20.7219C71.6295 16.7084 73.3349 13.6282 76.3865 13.6282C79.4375 13.6282 81.1429 16.6154 81.1429 20.6282C81.1429 24.8273 79.169 27.815 76.2063 27.815C73.5139 27.815 71.6295 25.2951 71.6295 20.7219ZM76.3888 16.1393C75.0431 16.1393 73.8754 17.4455 73.8754 21.0854C73.8754 23.6053 74.9519 25.3788 76.2092 25.3788C77.9146 25.3788 78.9015 23.7921 78.9015 21.0854C78.9021 17.5392 77.7355 16.1393 76.3888 16.1393ZM32.4017 14.1002H34.915L37.1587 19.14L39.1332 14.1002H41.5565L38.1451 22.3127V27.5393H35.9014V22.2196L32.4017 14.1002ZM83.118 14.1002H85.9011L90.0298 22.1265V14.1002H92.1833V27.5393H89.8507L85.5419 18.9532V27.5393H83.1186L83.118 14.1002ZM51.7878 14.1002H54.2116V19.3262H57.712V14.1002H60.4044V27.5393H57.712V21.9397H54.2116V27.5393H51.7878V14.1002ZM13.2914 14.1002H17.2405C19.5743 14.1002 21.6383 15.5931 21.6383 17.8332C21.6383 19.3262 20.7408 20.4468 19.3051 21.5656L21.7278 27.5393H19.0354L16.9714 21.9397H15.7147V27.5393H13.2914V14.1002ZM17.4926 16.4239H15.6977V19.3173H17.5822C18.6592 19.3173 19.3771 18.6639 19.3771 17.8238C19.3771 16.9836 18.7493 16.4239 17.4926 16.4239ZM41.9202 14.1002H49.8184V16.4333H47.1254V27.5393H44.612V16.4333H41.9197L41.9202 14.1002ZM63.1925 14.1002H70.5524V16.4333H65.6158V19.3262H69.2056V21.9397H65.6158V24.9257H70.5524V27.5393H63.1925V14.1002Z" fill="white"/>
</svg>
