<svg width="143" height="34" viewBox="0 0 143 34" fill="none" xmlns="http://www.w3.org/2000/svg">
<g clip-path="url(#clip0_1_2851)">
<path d="M17.3236 0.0234375L18.2753 4.48594L17.3236 8.94843H16.6811L15.7294 4.48594L16.6811 0.0234375H17.3236ZM17.3236 24.9332H16.6811L15.7294 29.3957L16.6811 33.8582H17.3236L18.2753 29.3957L17.3236 24.9332ZM11.4703 0.944269L10.8517 1.15677L11.4941 5.66649L13.9211 9.53871L14.5397 9.32621L13.8973 4.81649L11.4703 0.944269ZM20.0598 24.3429L19.4412 24.5554L20.0836 29.0651L22.5106 32.9373L23.1292 32.7248L22.4868 28.2151L20.0598 24.3429ZM6.30709 3.7776L5.80743 4.2026L7.97265 8.21649L11.5893 11.0262L12.089 10.6012L9.92373 6.58732L6.30709 3.7776ZM22.4392 22.8554L21.9395 23.2804L24.1048 27.2943L27.7214 30.104L28.2211 29.679L26.0558 25.6651L22.4392 22.8554ZM2.40493 8.21649L2.07182 8.78316L5.47431 11.829L9.85235 13.2457L10.1855 12.679L6.78297 9.63316L2.40493 8.21649ZM24.1523 20.6595L23.8192 21.2262L27.2217 24.272L31.5998 25.6887L31.9329 25.122L28.5304 22.0762L24.1523 20.6595ZM0.2635 13.6943L0.144531 14.3318L4.4036 16.0318L8.99578 15.8665L9.11475 15.229L4.85568 13.529L0.2635 13.6943ZM24.9851 18.0151L24.8662 18.6526L29.1252 20.3526L33.7174 20.1873L33.8364 19.5498L29.5773 17.8498L24.9851 18.0151ZM0.168325 19.5498L0.287293 20.1873L4.87947 20.3526L9.13854 18.6526L9.01957 18.0151L4.42739 17.8498L0.168325 19.5498ZM24.89 15.229L25.0089 15.8665L29.6011 16.0318L33.8602 14.3318L33.7412 13.6943L29.149 13.529L24.89 15.229ZM2.07182 25.122L2.40493 25.6887L6.78297 24.272L10.2093 21.2262L9.87614 20.6595L5.49811 22.0762L2.07182 25.122ZM23.8192 12.6554L24.1523 13.222L28.5304 11.8054L31.9329 8.75955L31.5998 8.19288L27.2217 9.60955L23.8192 12.6554ZM5.78363 29.679L6.2833 30.104L9.89994 27.2943L12.0652 23.2804L11.5655 22.8554L7.94886 25.6651L5.78363 29.679ZM21.9395 10.6012L22.4392 11.0262L26.0558 8.21649L28.2211 4.2026L27.7214 3.7776L24.1048 6.58732L21.9395 10.6012ZM10.8517 32.7248L11.4703 32.9373L13.8973 29.0651L14.5397 24.5554L13.9211 24.3429L11.4941 28.2151L10.8517 32.7248ZM19.4412 9.32621L20.0598 9.53871L22.4868 5.66649L23.1292 1.15677L22.5106 0.944269L20.0836 4.81649L19.4412 9.32621ZM55.8455 11.097C55.8693 10.5068 55.7028 9.9401 55.3697 9.46788C55.0127 9.04288 54.4893 8.83038 53.942 8.8776C53.3948 8.83038 52.8713 9.06649 52.5382 9.46788C52.2051 9.9401 52.0147 10.5304 52.0623 11.097C52.0385 11.6873 52.2051 12.254 52.5382 12.7498C52.8951 13.1512 53.4186 13.3873 53.942 13.3401C54.4893 13.3873 55.0127 13.1512 55.3697 12.7498C55.7266 12.2776 55.8931 11.6873 55.8455 11.097ZM56.6545 8.31094C56.9876 8.6651 57.2256 9.0901 57.3683 9.53871C57.5349 10.0345 57.6301 10.5776 57.6301 11.097C57.6301 11.6401 57.5587 12.1595 57.3683 12.6554C57.2018 13.104 56.9638 13.529 56.6545 13.8596C56.3214 14.2137 55.9407 14.4734 55.4886 14.6623C54.4893 15.0401 53.3948 15.0401 52.3954 14.6623C51.9672 14.497 51.5627 14.2137 51.2533 13.8596C50.944 13.5054 50.6823 13.104 50.5395 12.6554C50.373 12.1595 50.2778 11.6165 50.2778 11.097C50.2778 10.554 50.3492 10.0345 50.5395 9.5151C50.6823 9.06649 50.944 8.64149 51.2533 8.31094C51.5627 7.98038 51.9672 7.69705 52.3954 7.53177C53.3948 7.15399 54.4893 7.15399 55.4886 7.53177C55.9407 7.69705 56.3214 7.98038 56.6545 8.31094ZM66.3861 7.24844C65.9816 7.22482 65.5771 7.31927 65.1964 7.50816C64.9109 7.67344 64.6492 7.86233 64.4112 8.09844C64.3637 8.14566 64.3399 8.14566 64.2923 8.09844C64.0781 7.83871 63.8164 7.62621 63.5071 7.48455C63.1502 7.31927 62.7695 7.22482 62.365 7.24844C62.1984 7.24844 62.0081 7.27205 61.8415 7.31927C61.675 7.36649 61.5084 7.41371 61.3419 7.48455C61.1991 7.55538 61.0325 7.62621 60.8898 7.72066C60.7708 7.79149 60.6756 7.86232 60.5805 7.95677C60.5329 8.00399 60.4853 8.00399 60.4377 7.93316L60.2949 7.48455C60.2711 7.43732 60.1998 7.3901 60.1522 7.3901H58.7721C58.7484 7.3901 58.7008 7.41371 58.7008 7.43733V7.46094V14.7332C58.7008 14.7804 58.7246 14.804 58.7484 14.804H58.7721H60.3901C60.4139 14.804 60.4615 14.7804 60.4615 14.7568V14.7332V10.672C60.4615 10.4359 60.4853 10.1998 60.5329 9.96371C60.5805 9.75121 60.6518 9.56233 60.747 9.39705C60.8422 9.23177 60.985 9.11371 61.1515 9.01927C61.3419 8.92482 61.556 8.8776 61.7939 8.8776C62.0081 8.8776 62.246 8.92483 62.4364 9.04288C62.6029 9.13733 62.7457 9.27899 62.8409 9.46788C62.9598 9.65677 63.0312 9.84566 63.055 10.0582C63.1026 10.2707 63.1264 10.4832 63.1264 10.7193V14.7804C63.1264 14.8276 63.1502 14.8512 63.174 14.8512H63.1978H64.8157C64.8633 14.8512 64.8871 14.8276 64.8871 14.804V14.7804V10.7193C64.8871 10.4832 64.9109 10.247 64.9585 10.0109C65.0061 9.79843 65.0775 9.60955 65.1726 9.44427C65.2678 9.27899 65.4106 9.16093 65.5771 9.06649C65.7675 8.97205 65.9816 8.92483 66.2196 8.92483C66.4337 8.92483 66.6716 8.97205 66.862 9.0901C67.0286 9.18455 67.1713 9.32621 67.2665 9.5151C67.3617 9.70399 67.4568 9.89288 67.4806 10.1054C67.5282 10.3179 67.552 10.5304 67.552 10.7665V14.8276C67.552 14.8748 67.5758 14.8984 67.5996 14.8984H67.6234H69.2414C69.2652 14.8984 69.3127 14.8748 69.3127 14.8512V14.8276V10.672C69.3127 9.53871 69.051 8.68871 68.5276 8.14566C67.9803 7.50816 67.1951 7.20121 66.3861 7.24844ZM78.4019 7.24844C77.9974 7.22482 77.5929 7.31927 77.2122 7.50816C76.9267 7.67344 76.665 7.86233 76.4271 8.09844C76.3795 8.14566 76.3557 8.14566 76.3081 8.09844C76.0939 7.83871 75.8322 7.62621 75.5229 7.48455C75.166 7.31927 74.7853 7.22482 74.3808 7.24844C74.2142 7.24844 74.0239 7.27205 73.8573 7.31927C73.6908 7.36649 73.5242 7.41371 73.3577 7.48455C73.2149 7.55538 73.0483 7.62621 72.9056 7.72066C72.7866 7.79149 72.6914 7.86232 72.5963 7.95677C72.5487 8.00399 72.5011 8.00399 72.4535 7.93316L72.3107 7.48455C72.287 7.43732 72.2156 7.3901 72.168 7.3901H70.7642C70.7166 7.3901 70.6928 7.41371 70.6928 7.43733V7.46094V14.7332C70.6928 14.7804 70.7166 14.804 70.7404 14.804H70.7642H72.3821C72.4297 14.804 72.4535 14.7804 72.4535 14.7568V14.7332V10.672C72.4535 10.4359 72.4773 10.1998 72.5249 9.96371C72.5725 9.75121 72.6439 9.56233 72.739 9.39705C72.8342 9.23177 72.977 9.11371 73.1435 9.01927C73.3339 8.92482 73.548 8.8776 73.786 8.8776C74.0001 8.8776 74.238 8.92483 74.4284 9.04288C74.5949 9.13733 74.7377 9.27899 74.8329 9.46788C74.9281 9.65677 75.0232 9.84566 75.047 10.0582C75.0946 10.2707 75.1184 10.4832 75.1184 10.7193V14.7804C75.1184 14.8276 75.1422 14.8512 75.166 14.8512H75.1898H76.8078C76.8315 14.8512 76.8791 14.8276 76.8791 14.804V14.7804V10.7193C76.8791 10.4832 76.9029 10.247 76.9505 10.0109C76.9981 9.79843 77.0695 9.60955 77.1647 9.44427C77.2598 9.27899 77.4026 9.16093 77.5691 9.06649C77.7595 8.97205 77.9736 8.92483 78.2116 8.92483C78.4257 8.92483 78.6637 8.97205 78.854 9.0901C79.0206 9.18455 79.1633 9.32621 79.2585 9.5151C79.3775 9.70399 79.4488 9.89288 79.4726 10.1054C79.5202 10.3179 79.544 10.5304 79.544 10.7665V14.8276C79.544 14.8748 79.5678 14.8984 79.5916 14.8984H79.6154H81.2334C81.281 14.8984 81.3048 14.8748 81.3048 14.8512V14.8276V10.672C81.3048 9.53871 81.043 8.68871 80.5196 8.14566C79.9961 7.50816 79.2109 7.20121 78.4019 7.24844ZM87.4435 12.7498C87.7766 12.2776 87.967 11.6873 87.9194 11.097C87.9432 10.5068 87.7766 9.9401 87.4435 9.46788C87.0866 9.04288 86.5632 8.83038 86.0159 8.8776C85.4686 8.83038 84.9452 9.06649 84.6121 9.46788C84.279 9.9401 84.0886 10.5304 84.1362 11.097C84.1124 11.6873 84.279 12.254 84.6121 12.7498C84.969 13.1512 85.4924 13.3873 86.0159 13.3401C86.5632 13.3873 87.0866 13.1512 87.4435 12.7498ZM88.7284 8.31094C89.0615 8.6651 89.2994 9.0901 89.4422 9.53871C89.6087 10.0345 89.7039 10.5776 89.7039 11.097C89.7039 11.6401 89.6325 12.1595 89.4422 12.6554C89.2756 13.104 89.0377 13.529 88.7284 13.8596C88.3953 14.2137 88.0146 14.4734 87.5625 14.6623C86.5632 15.0401 85.4686 15.0401 84.4693 14.6623C84.041 14.497 83.6365 14.2137 83.3272 13.8596C83.0179 13.5054 82.7562 13.104 82.6134 12.6554C82.4469 12.1595 82.3517 11.6165 82.3517 11.097C82.3517 10.554 82.4231 10.0345 82.6134 9.5151C82.7562 9.06649 83.0179 8.64149 83.3272 8.31094C83.6365 7.98038 84.041 7.69705 84.4693 7.53177C85.4686 7.15399 86.5632 7.15399 87.5625 7.53177C88.0146 7.69705 88.3953 7.98038 88.7284 8.31094ZM96.9372 8.31094C96.6755 7.98038 96.3662 7.72066 95.9855 7.53177C95.5334 7.31927 95.0099 7.22482 94.5102 7.24844C94.3437 7.24844 94.1771 7.27205 94.0106 7.31927C93.844 7.36649 93.6775 7.41371 93.5109 7.48455C93.3681 7.55538 93.2016 7.62622 93.0588 7.69705C92.9399 7.76788 92.8447 7.83872 92.7495 7.93316C92.7257 7.98038 92.7019 7.98038 92.6543 7.98038C92.6305 7.98038 92.6068 7.95677 92.583 7.90955L92.4164 7.46094C92.4164 7.41372 92.3688 7.3901 92.2736 7.3901H90.8936C90.846 7.3901 90.8222 7.41371 90.8222 7.43733V7.46094V14.7332C90.8222 14.7804 90.846 14.804 90.8698 14.804H90.8936H92.5116C92.5592 14.804 92.583 14.7804 92.583 14.7568C92.583 14.7568 92.583 14.7568 92.583 14.7332V10.5776C92.583 10.3651 92.6068 10.1526 92.6781 9.9401C92.7257 9.7276 92.8209 9.53871 92.9637 9.37344C93.1064 9.20816 93.273 9.06649 93.4633 8.99566C93.7013 8.90122 93.9392 8.85399 94.2009 8.85399C94.7006 8.83038 95.1765 9.06649 95.462 9.46788C95.6048 9.65677 95.6999 9.84566 95.7475 10.0818C95.7951 10.2943 95.8427 10.5068 95.8427 10.7429V14.7332C95.8427 14.7804 95.8665 14.804 95.8903 14.804H95.9141H97.532C97.5796 14.804 97.6034 14.7804 97.6034 14.7568V14.7332V10.7429C97.6034 10.2943 97.5558 9.84566 97.4369 9.42066C97.3655 9.01927 97.1989 8.64149 96.9372 8.31094ZM109.833 7.3901H108.168C108.12 7.3901 108.096 7.41371 108.073 7.48455L106.883 13.1276C106.883 13.1748 106.835 13.1984 106.788 13.1748C106.764 13.1748 106.74 13.1512 106.74 13.1276L105.384 7.48455C105.36 7.43732 105.336 7.3901 105.289 7.3901H102.933C102.886 7.3901 102.838 7.41371 102.838 7.48455L101.482 13.1276C101.482 13.1748 101.458 13.1984 101.41 13.1984C101.363 13.1984 101.339 13.1748 101.339 13.1276L100.149 7.48455C100.126 7.43732 100.102 7.3901 100.054 7.3901H98.4124C98.341 7.3901 98.341 7.41371 98.341 7.48455L100.054 14.7332C100.078 14.7804 100.102 14.804 100.149 14.804H102.671C102.719 14.804 102.743 14.7804 102.767 14.7332L104.075 9.06649C104.075 9.01927 104.099 8.99566 104.147 8.99566C104.194 8.99566 104.218 9.01927 104.218 9.06649L105.527 14.7332C105.551 14.7804 105.574 14.804 105.622 14.804H108.144C108.192 14.804 108.215 14.7804 108.239 14.7332L109.952 7.48455C109.929 7.43732 109.905 7.3901 109.833 7.3901ZM115.734 10.3415C115.782 10.3415 115.806 10.2943 115.806 10.247C115.806 10.0818 115.758 9.91649 115.71 9.77482C115.639 9.60955 115.544 9.44427 115.401 9.3026C115.258 9.16093 115.068 9.01927 114.854 8.94843C114.592 8.85399 114.33 8.80677 114.069 8.80677C113.807 8.80677 113.521 8.85399 113.283 8.94843C113.069 9.01927 112.879 9.16093 112.712 9.3026C112.57 9.42066 112.451 9.58594 112.379 9.75121C112.308 9.89288 112.284 10.0582 112.284 10.2234C112.284 10.2234 112.284 10.2234 112.284 10.247C112.284 10.2943 112.332 10.3179 112.379 10.3179H115.734C115.71 10.3415 115.734 10.3415 115.734 10.3415ZM114.069 7.27205C114.568 7.27205 115.068 7.36649 115.544 7.55538C115.972 7.74427 116.353 8.00399 116.662 8.33455C116.971 8.68871 117.233 9.0901 117.376 9.53871C117.543 10.0345 117.638 10.554 117.638 11.097C117.638 11.2387 117.614 11.3568 117.614 11.4512C117.614 11.522 117.59 11.6165 117.566 11.6873C117.543 11.7109 117.543 11.7346 117.519 11.7346H112.379H112.356C112.308 11.7346 112.26 11.7818 112.26 11.829C112.26 12.0415 112.308 12.2304 112.379 12.4193C112.474 12.6082 112.593 12.7734 112.76 12.9151C112.927 13.0568 113.117 13.1748 113.331 13.2457C113.569 13.3165 113.807 13.3637 114.069 13.3637C114.354 13.3637 114.663 13.3165 114.949 13.222C115.211 13.1276 115.425 12.9387 115.544 12.679C115.568 12.6318 115.591 12.6082 115.639 12.6318H117.376C117.4 12.6318 117.424 12.6318 117.424 12.6318C117.424 12.6318 117.424 12.6318 117.424 12.6554C117.281 13.3401 116.853 13.9304 116.281 14.3082C115.639 14.7095 114.878 14.922 114.116 14.8984C113.617 14.8984 113.117 14.804 112.641 14.6151C112.213 14.4262 111.832 14.1665 111.523 13.8359C111.213 13.4818 110.952 13.0804 110.809 12.6318C110.642 12.1359 110.547 11.5929 110.547 11.0734C110.547 10.5304 110.619 10.0109 110.809 9.5151C110.975 9.06649 111.213 8.6651 111.523 8.31094C111.832 7.98038 112.213 7.72066 112.641 7.53177C113.069 7.36649 113.545 7.27205 114.069 7.27205ZM126.989 4.58038V14.7568C126.989 14.804 127.012 14.8276 127.06 14.8276H128.678C128.726 14.8276 128.749 14.804 128.749 14.7568V4.58038C128.749 4.53316 128.726 4.50955 128.678 4.50955H127.06C127.012 4.50955 126.989 4.53316 126.989 4.58038ZM134.555 7.3901H133.056C133.008 7.3901 132.985 7.36649 132.985 7.34288V7.31927V5.33594C132.985 5.28872 132.961 5.2651 132.937 5.2651H132.913H131.295C131.271 5.2651 131.224 5.28871 131.224 5.31233V5.33594V7.31927C131.224 7.34288 131.2 7.3901 131.176 7.3901C131.176 7.3901 131.176 7.3901 131.153 7.3901H129.915C129.891 7.3901 129.844 7.41371 129.844 7.43733V7.46094V8.85399C129.844 8.90121 129.868 8.92483 129.891 8.92483H129.915H131.129C131.176 8.92483 131.2 8.94844 131.2 8.97205V8.99566V12.7498C131.153 13.3165 131.343 13.9068 131.724 14.3318C132.199 14.6859 132.794 14.8748 133.413 14.804H134.555C134.603 14.804 134.626 14.7804 134.626 14.7568V14.7332V13.2693C134.626 13.2221 134.603 13.1984 134.579 13.1984H134.555H133.508C133.365 13.1984 133.246 13.1512 133.127 13.0804C133.032 12.9859 132.961 12.8679 132.961 12.7262V8.99566C132.961 8.94844 132.985 8.92483 133.008 8.92483H133.032H134.531C134.579 8.92483 134.603 8.90122 134.603 8.8776V8.85399V7.46094C134.626 7.43733 134.603 7.41371 134.555 7.3901ZM142.169 8.31094C141.907 7.98038 141.574 7.72066 141.193 7.53177C140.765 7.31927 140.289 7.22482 139.79 7.24844C139.575 7.24844 139.361 7.27205 139.147 7.34288C138.957 7.3901 138.79 7.46093 138.624 7.53177C138.481 7.6026 138.362 7.67343 138.243 7.76788C138.172 7.8151 138.1 7.88594 138.029 7.93316C137.981 7.98038 137.958 7.98038 137.934 7.98038C137.91 7.98038 137.886 7.93316 137.886 7.88593V4.55677C137.886 4.50955 137.862 4.48594 137.839 4.48594C137.839 4.48594 137.839 4.48594 137.815 4.48594H136.197C136.149 4.48594 136.125 4.50955 136.125 4.53316V4.55677V14.7332C136.125 14.7804 136.149 14.804 136.173 14.804H136.197H137.815C137.862 14.804 137.886 14.7804 137.886 14.7568C137.886 14.7568 137.886 14.7568 137.886 14.7332V10.5776C137.886 10.3651 137.91 10.1526 137.981 9.9401C138.029 9.75122 138.124 9.56233 138.267 9.39705C138.41 9.23177 138.576 9.11371 138.766 9.01927C139.004 8.92482 139.242 8.8776 139.504 8.8776C139.766 8.8776 140.028 8.92483 140.265 9.04288C140.456 9.13733 140.646 9.27899 140.765 9.46788C140.908 9.63316 141.003 9.84566 141.051 10.0582C141.098 10.2707 141.146 10.4832 141.146 10.7193V14.7095C141.146 14.7568 141.17 14.7804 141.193 14.7804H141.217H142.835C142.883 14.7804 142.907 14.7568 142.907 14.7332V14.7095V10.7193C142.907 10.2707 142.835 9.82205 142.716 9.39705C142.621 9.01927 142.431 8.64149 142.169 8.31094ZM121.492 13.3637C121.825 13.3637 122.159 13.3165 122.468 13.222C122.706 13.1276 122.944 13.0095 123.134 12.8443C123.301 12.7026 123.42 12.5373 123.515 12.3248C123.586 12.1359 123.634 11.947 123.634 11.7582C123.634 11.7582 123.634 11.7582 123.634 11.7346C123.634 11.6873 123.586 11.6637 123.539 11.6637H121.849C121.587 11.6637 121.302 11.6873 121.064 11.7582C120.897 11.8054 120.731 11.8762 120.588 11.9707C120.493 12.0415 120.398 12.1595 120.35 12.2776C120.326 12.372 120.303 12.4901 120.303 12.5845C120.303 12.679 120.326 12.7498 120.35 12.8443C120.398 12.9387 120.445 13.0332 120.541 13.0804C120.659 13.1748 120.778 13.2221 120.897 13.2693C121.112 13.3401 121.302 13.3637 121.492 13.3637ZM123.182 10.247C123.301 10.247 123.42 10.2234 123.515 10.1526C123.586 10.1054 123.634 10.0109 123.634 9.91649C123.634 9.82205 123.61 9.7276 123.586 9.60955C123.562 9.46788 123.491 9.34982 123.396 9.25538C123.253 9.11371 123.11 9.01927 122.92 8.97205C122.634 8.8776 122.349 8.85399 122.063 8.85399C121.825 8.85399 121.587 8.8776 121.35 8.92483C121.183 8.97205 121.04 9.04288 120.897 9.13732C120.778 9.20816 120.707 9.32621 120.636 9.44427C120.588 9.56233 120.541 9.68038 120.541 9.82205C120.541 9.86927 120.517 9.86927 120.469 9.86927H118.851C118.804 9.86927 118.804 9.84566 118.804 9.82205C118.804 9.42066 118.875 9.04288 119.065 8.71232C119.232 8.40538 119.47 8.12205 119.779 7.90955C120.088 7.69705 120.445 7.53177 120.802 7.43733C121.207 7.31927 121.611 7.27205 122.04 7.27205C122.896 7.22483 123.753 7.48455 124.466 7.98038C125.085 8.49983 125.394 9.25538 125.347 10.0582V14.7568C125.347 14.804 125.323 14.804 125.299 14.804H123.895C123.848 14.804 123.776 14.7804 123.753 14.7332L123.634 14.4026C123.61 14.379 123.586 14.3554 123.562 14.3318C123.515 14.3318 123.491 14.3554 123.443 14.379C123.277 14.497 123.11 14.5915 122.92 14.6623C122.468 14.8512 121.968 14.9457 121.468 14.9457C121.04 14.9457 120.588 14.8984 120.16 14.7568C119.827 14.6623 119.517 14.497 119.256 14.2609C119.018 14.0484 118.851 13.8123 118.732 13.529C118.613 13.2457 118.566 12.9151 118.566 12.6082C118.566 11.9707 118.851 11.3568 119.375 10.9554C119.684 10.7193 120.017 10.554 120.374 10.4359C120.826 10.2943 121.302 10.247 121.778 10.247H123.182ZM42.8066 7.03594C43.0445 6.70538 43.3301 6.44566 43.687 6.25677C44.0439 6.06788 44.4721 5.97344 44.8766 5.97344C45.2811 5.94983 45.6856 6.04427 46.0425 6.20955C46.3281 6.35121 46.566 6.5401 46.7801 6.7526C46.9467 6.94149 47.0895 7.15399 47.2084 7.3901C47.3036 7.6026 47.3512 7.76788 47.3988 7.86233C47.4226 7.90955 47.4464 7.93316 47.4939 7.93316H49.1833C49.2071 7.93316 49.2547 7.90955 49.2547 7.88593V7.86233C49.2547 7.67344 49.2071 7.48455 49.1595 7.29566C49.0881 7.03593 48.9929 6.79983 48.8502 6.56371C48.6836 6.28038 48.5171 6.02066 48.3029 5.78455C48.065 5.50121 47.7795 5.2651 47.4701 5.07621C47.1132 4.86371 46.7325 4.67483 46.3519 4.55677C45.876 4.4151 45.3763 4.34427 44.8766 4.36788C44.1866 4.34427 43.4728 4.48594 42.8304 4.76927C42.2593 5.02899 41.7597 5.43038 41.379 5.9026C40.9745 6.42205 40.689 6.98871 40.4986 7.62621C40.3083 8.33455 40.2131 9.04288 40.2131 9.77482C40.2131 10.4832 40.3083 11.2151 40.4986 11.8998C40.6652 12.4901 40.9745 13.0568 41.379 13.5526C41.7835 14.0248 42.2593 14.379 42.8304 14.6151C43.4728 14.8748 44.1628 14.9929 44.8766 14.9929C45.4001 14.9929 45.9236 14.922 46.4232 14.7804C46.8277 14.6623 47.2084 14.4734 47.5653 14.2373C47.8746 14.0248 48.1364 13.7887 48.3743 13.4818C48.5647 13.222 48.755 12.9623 48.8978 12.679C49.0167 12.4429 49.1119 12.2068 49.1833 11.9707C49.2309 11.8054 49.2547 11.6401 49.2547 11.4748C49.2547 11.4276 49.2309 11.404 49.2071 11.404H49.1833H47.4939C47.4464 11.404 47.4226 11.4276 47.3988 11.4748C47.375 11.5693 47.3036 11.7109 47.2084 11.9234C47.0895 12.1595 46.9467 12.3721 46.7801 12.5609C46.566 12.7971 46.3043 12.9859 46.0187 13.1276C45.6618 13.2929 45.2573 13.3873 44.8528 13.3637C44.0439 13.4109 43.2825 13.0568 42.7828 12.4193C42.2593 11.6401 41.9976 10.7193 42.0452 9.79844C42.0452 9.27899 42.1166 8.75955 42.2355 8.26371C42.3783 7.79149 42.5687 7.3901 42.8066 7.03594ZM48.3743 19.1012H41.1648C41.1172 19.1012 41.0934 19.1248 41.0934 19.1484V19.1721V29.3484C41.0934 29.372 41.1172 29.4193 41.141 29.4193H41.1648H42.7828C42.8304 29.4193 42.8542 29.3957 42.8542 29.372V29.3484V25.0512C42.8542 25.0276 42.878 25.004 42.9018 25.004C42.9018 25.004 42.9018 25.004 42.9256 25.004H47.0419C47.0657 25.004 47.1132 24.9804 47.1132 24.9568C47.1132 24.9568 47.1132 24.9568 47.1132 24.9332V23.4693C47.1132 23.422 47.0895 23.3984 47.0657 23.3984H47.0419H42.9256C42.9018 23.3984 42.878 23.3748 42.878 23.3512C42.878 23.3512 42.878 23.3512 42.878 23.3276V20.7776C42.878 20.754 42.9018 20.7304 42.9256 20.7068C42.9256 20.7068 42.9256 20.7068 42.9494 20.7068H48.4219C48.4457 20.7068 48.4933 20.6832 48.4933 20.6595V20.6359V19.1721C48.4695 19.1484 48.4457 19.1248 48.3743 19.1012C48.3981 19.1012 48.3981 19.1012 48.3743 19.1012ZM55.4648 22.0054H53.8231C53.7993 22.0054 53.7517 22.029 53.7517 22.0526V22.0762V26.2318C53.7517 26.4443 53.7279 26.6568 53.6565 26.8693C53.6089 27.0818 53.5137 27.247 53.371 27.4123C53.2282 27.5776 53.0617 27.7193 52.8713 27.7901C52.6334 27.8846 52.3954 27.9318 52.1337 27.9318C51.634 27.9554 51.1582 27.7193 50.8726 27.3179C50.7299 27.129 50.6347 26.9401 50.5871 26.7276C50.5395 26.5151 50.4919 26.279 50.4919 26.0665V22.0762C50.4919 22.029 50.4682 22.0054 50.4444 22.0054H50.4206H48.7788C48.7312 22.0054 48.7074 22.029 48.7074 22.0526V22.0762V26.0665C48.7074 26.5151 48.755 26.9637 48.874 27.3887C48.9692 27.7901 49.1595 28.1679 49.4212 28.4984C49.683 28.829 50.0399 29.0887 50.4206 29.2776C50.9202 29.4901 51.4437 29.5846 51.9672 29.5609C52.2765 29.5609 52.6096 29.4901 52.8951 29.3484C53.1568 29.2304 53.371 29.0651 53.5851 28.8762C53.6089 28.829 53.6565 28.829 53.6803 28.829C53.7041 28.829 53.7279 28.8526 53.7517 28.8998L53.8944 29.3484C53.9182 29.3957 53.9896 29.4429 54.0372 29.4429H55.441C55.4648 29.4429 55.5124 29.4193 55.5124 29.3957V29.372V22.0998C55.5124 22.029 55.5124 22.0054 55.4648 22.0054ZM65.5058 18.5582C64.9109 18.5582 64.4588 19.0304 64.4588 19.597V19.6207C64.4588 20.2109 64.9347 20.6595 65.5058 20.6595C66.1006 20.6595 66.5527 20.1873 66.5527 19.6207V19.597C66.5765 19.0068 66.1006 18.5582 65.5058 18.5582ZM64.6968 22.0054C64.6492 22.0054 64.6254 22.029 64.6254 22.0762V29.3484C64.6254 29.3957 64.6492 29.4193 64.6968 29.4193H66.3147C66.3623 29.4193 66.3861 29.3957 66.3861 29.3484V22.0762C66.3861 22.029 66.3623 22.0054 66.3147 22.0054H64.6968ZM72.7866 27.3651C73.1197 26.8929 73.3101 26.3026 73.2625 25.7123C73.2863 25.122 73.1197 24.5554 72.7866 24.0832C72.4297 23.6582 71.9063 23.4457 71.359 23.4929C70.8117 23.4457 70.2883 23.6818 69.9552 24.0832C69.6221 24.5554 69.4317 25.1457 69.4793 25.7123C69.4555 26.3026 69.6221 26.8693 69.9552 27.3651C70.3121 27.7665 70.8355 28.0026 71.359 27.9554C71.9063 28.0026 72.4297 27.7665 72.7866 27.3651ZM74.0715 22.9262C74.4046 23.2804 74.6425 23.7054 74.7853 24.154C75.1184 25.1693 75.1184 26.2554 74.7853 27.2707C74.6187 27.7193 74.3808 28.1443 74.0715 28.4748C73.7384 28.829 73.3577 29.0887 72.9056 29.2776C71.9063 29.6554 70.8117 29.6554 69.8124 29.2776C69.3841 29.1123 68.9796 28.829 68.6703 28.4748C68.361 28.1207 68.0993 27.7193 67.9565 27.2707C67.7899 26.7748 67.6948 26.2318 67.6948 25.7123C67.6948 25.1693 67.7662 24.6498 67.9565 24.1304C68.0993 23.6818 68.361 23.2568 68.6703 22.9262C68.9796 22.5957 69.3841 22.3123 69.8124 22.147C70.8117 21.7693 71.9063 21.7693 72.9056 22.147C73.3339 22.3123 73.7384 22.5957 74.0715 22.9262ZM82.3279 22.9262C82.0662 22.5957 81.7568 22.3359 81.3761 22.147C80.9241 21.9345 80.4244 21.8401 79.9009 21.8637C79.7344 21.8637 79.5678 21.8873 79.4013 21.9345C79.2347 21.9818 79.0682 22.029 78.9016 22.0998C78.7588 22.1707 78.5923 22.2415 78.4495 22.3123C78.3305 22.3832 78.2354 22.454 78.1402 22.5484C78.1164 22.5957 78.0926 22.5957 78.045 22.5957C78.0212 22.5957 77.9974 22.572 77.9736 22.5248L77.8071 22.0762C77.8071 22.029 77.7595 22.0054 77.6643 22.0054H76.2605C76.2129 22.0054 76.1891 22.029 76.1891 22.0526V22.0762V29.3484C76.1891 29.3957 76.2129 29.4193 76.2367 29.4193H76.2605H77.8785C77.9261 29.4193 77.9498 29.3957 77.9498 29.372C77.9498 29.372 77.9498 29.372 77.9498 29.3484V25.1929C77.9498 24.9804 77.9736 24.7679 78.045 24.5554C78.0926 24.3429 78.1878 24.154 78.3305 23.9887C78.4733 23.8234 78.6399 23.6818 78.8302 23.6109C79.0682 23.5165 79.3061 23.4693 79.5678 23.4693C80.0675 23.4457 80.5434 23.6818 80.8289 24.0832C80.9716 24.272 81.0668 24.4845 81.1144 24.697C81.162 24.9095 81.2096 25.122 81.2096 25.3582V29.3484C81.2096 29.3957 81.2334 29.4193 81.2572 29.4193H81.281H82.8989C82.9465 29.4193 82.9703 29.3957 82.9703 29.372V29.3484V25.3582C82.9703 24.9095 82.9227 24.4609 82.8038 24.0359C82.7562 23.6345 82.5658 23.2568 82.3279 22.9262ZM94.4627 24.4373C94.2485 24.2248 94.0106 24.0359 93.7488 23.8943C93.4871 23.7526 93.2016 23.6346 92.8923 23.5401C92.6067 23.4457 92.2974 23.3984 92.0119 23.3512C91.7026 23.304 91.4409 23.2804 91.1791 23.2332C90.9174 23.2095 90.8222 23.2095 90.5605 23.1623C90.3226 23.1151 90.1084 23.0443 89.8705 22.9498C89.6801 22.879 89.5136 22.7609 89.3708 22.5957C89.2281 22.4304 89.1805 22.2415 89.1805 22.029C89.1805 21.8401 89.228 21.6512 89.3232 21.4623C89.4184 21.2734 89.5612 21.1318 89.7039 20.9901C89.8705 20.8484 90.0608 20.754 90.275 20.6832C90.5129 20.6123 90.7508 20.5651 90.9888 20.5651C91.2743 20.5651 91.536 20.6123 91.7978 20.6832C92.0119 20.754 92.226 20.872 92.3926 21.0137C92.5354 21.1318 92.6781 21.2734 92.7733 21.4623C92.8447 21.604 92.8923 21.7693 92.8923 21.9345C92.8923 21.9818 92.9161 22.0054 92.9399 22.0054H92.9637H94.6768C94.7244 22.0054 94.7244 21.9818 94.7244 21.9345C94.7244 21.4859 94.6292 21.0609 94.4151 20.6595C94.2009 20.2818 93.9154 19.9748 93.5823 19.7387C93.2254 19.479 92.8209 19.2901 92.3688 19.1721C91.9167 19.0304 91.4409 18.9832 90.9412 18.9832C90.4891 18.9832 90.037 19.054 89.585 19.1957C89.1567 19.3137 88.776 19.5262 88.4191 19.7859C88.086 20.0457 87.8004 20.3762 87.5863 20.754C87.3721 21.1554 87.2532 21.604 87.277 22.0526C87.2532 22.5012 87.3483 22.9498 87.5625 23.3748C87.7528 23.729 88.0146 24.0359 88.3715 24.2484C88.7522 24.4846 89.1805 24.6734 89.6087 24.7679C90.1084 24.8859 90.6081 24.9568 91.1077 25.004C91.7026 25.004 92.2498 25.1929 92.7495 25.5234C93.035 25.7359 93.2254 26.0665 93.2492 26.4207C93.2492 26.6332 93.2016 26.8457 93.0826 27.0345C92.9637 27.2234 92.8209 27.3887 92.6305 27.5304C92.4164 27.672 92.2023 27.7901 91.9405 27.8609C91.655 27.9554 91.3695 27.979 91.084 27.979C90.7984 27.979 90.4891 27.9318 90.2036 27.8609C89.9657 27.7901 89.7277 27.6957 89.5136 27.554C89.3232 27.4359 89.1805 27.2943 89.0377 27.129C88.9425 26.9873 88.8711 26.7984 88.8711 26.6096C88.8711 26.5623 88.8474 26.5387 88.8236 26.5387H88.7998H87.1104C87.0628 26.5387 87.039 26.5623 87.039 26.5859V26.6096C87.039 26.9637 87.1104 27.3179 87.2532 27.6484C87.4197 28.0262 87.6577 28.3568 87.967 28.6165C88.3239 28.9234 88.7522 29.1596 89.2043 29.3248C89.7991 29.5137 90.4415 29.6082 91.084 29.5845C91.655 29.5845 92.2023 29.5137 92.7495 29.372C93.2016 29.254 93.6299 29.0179 94.0106 28.7346C94.3437 28.4748 94.6054 28.1207 94.7958 27.7429C94.9861 27.3415 95.0813 26.8929 95.0575 26.4207C95.0575 26.0429 95.0099 25.6415 94.8672 25.2873C94.8434 24.9568 94.6768 24.6734 94.4627 24.4373ZM102.957 22.0054H101.244C101.196 22.0054 101.172 22.029 101.149 22.0762L99.3642 27.7429C99.3642 27.7901 99.3166 27.8137 99.269 27.7901C99.2452 27.7901 99.2214 27.7665 99.2214 27.7429L97.4369 22.0762C97.4131 22.029 97.3893 22.0054 97.3417 22.0054H95.6048C95.5334 22.0054 95.5096 22.029 95.5334 22.0762L98.0079 29.3484C98.0793 29.5373 98.1269 29.7262 98.1507 29.8915C98.1983 30.0332 98.1983 30.1984 98.1745 30.3637C98.1507 30.5054 98.0793 30.5998 97.9603 30.6943C97.7938 30.7887 97.6272 30.8123 97.4369 30.8123H95.6285C95.581 30.8123 95.5572 30.8359 95.5572 30.8596V30.8832V32.2526C95.5572 32.2762 95.581 32.3234 95.6048 32.3234H95.6285H97.7938C98.341 32.347 98.8645 32.1818 99.2928 31.8748C99.7211 31.497 100.03 31.0248 100.173 30.4818L100.554 29.3484L103.005 22.0762C103.052 22.029 103.028 22.0054 102.957 22.0054ZM115.211 22.0054H113.712C113.664 22.0054 113.64 21.9818 113.64 21.9582V21.9345V19.9512C113.64 19.904 113.617 19.8804 113.593 19.8804H113.569H111.951C111.927 19.8804 111.88 19.904 111.88 19.9276V19.9512V21.9345C111.88 21.9582 111.856 22.0054 111.832 22.0054H111.808H110.595C110.571 22.0054 110.523 22.029 110.523 22.0526V22.0762V23.4693C110.523 23.5165 110.547 23.5401 110.571 23.5401H110.595H111.808C111.856 23.5401 111.88 23.5637 111.88 23.5873V23.6109V27.3415C111.832 27.9082 112.022 28.4984 112.403 28.9234C112.879 29.2776 113.474 29.4665 114.092 29.3957H115.235C115.282 29.3957 115.306 29.372 115.306 29.3484V29.3248V27.8609C115.306 27.8137 115.282 27.7901 115.258 27.7901H115.235H114.188C114.045 27.7901 113.926 27.7429 113.807 27.6721C113.712 27.5776 113.64 27.4596 113.64 27.3179V23.6109C113.64 23.5637 113.664 23.5401 113.688 23.5401H113.712H115.211C115.258 23.5401 115.282 23.5165 115.282 23.4929V23.4693V22.0762C115.282 22.0526 115.258 22.0054 115.211 22.0054ZM132.152 21.8637C131.747 21.8401 131.343 21.9346 130.962 22.1234C130.677 22.2887 130.415 22.4776 130.177 22.7137C130.129 22.7609 130.106 22.7609 130.058 22.7137C129.844 22.454 129.582 22.2415 129.273 22.0998C128.916 21.9345 128.535 21.8401 128.131 21.8637C127.964 21.8637 127.774 21.8873 127.607 21.9345C127.441 21.9818 127.274 22.029 127.108 22.0998C126.965 22.1707 126.798 22.2415 126.656 22.3359C126.537 22.4068 126.441 22.4776 126.346 22.572C126.299 22.6193 126.251 22.6193 126.203 22.5484L126.061 22.0998C126.037 22.0526 125.965 22.0054 125.918 22.0054H124.514C124.466 22.0054 124.443 22.029 124.443 22.0526V22.0762V29.3484C124.443 29.3957 124.466 29.4193 124.49 29.4193H124.514H126.132C126.18 29.4193 126.203 29.3957 126.203 29.372C126.203 29.372 126.203 29.372 126.203 29.3484V25.2873C126.203 25.0512 126.227 24.8151 126.275 24.579C126.322 24.3665 126.394 24.1776 126.489 23.9887C126.584 23.8234 126.727 23.7054 126.893 23.6109C127.084 23.5165 127.298 23.4693 127.536 23.4693C127.75 23.4693 127.988 23.5165 128.178 23.6345C128.345 23.729 128.488 23.8707 128.583 24.0595C128.678 24.2484 128.773 24.4373 128.797 24.6498C128.845 24.8623 128.868 25.0748 128.868 25.3109V29.372C128.868 29.4193 128.892 29.4429 128.916 29.4429H128.94H130.558C130.581 29.4429 130.629 29.4193 130.629 29.3957V29.372V25.3109C130.629 25.0748 130.653 24.8387 130.7 24.6026C130.748 24.3901 130.819 24.2012 130.915 24.0123C131.01 23.8471 131.153 23.729 131.319 23.6345C131.509 23.5401 131.724 23.4929 131.961 23.4929C132.176 23.4929 132.414 23.5401 132.604 23.6582C132.77 23.7526 132.913 23.8943 133.008 24.0832C133.127 24.272 133.199 24.4609 133.223 24.6734C133.27 24.8859 133.294 25.0984 133.294 25.3345V29.3957C133.294 29.4429 133.318 29.4665 133.342 29.4665H133.365H134.983C135.031 29.4665 135.055 29.4429 135.055 29.4193V29.3957V25.2401C135.055 24.1068 134.793 23.2568 134.269 22.7137C133.746 22.0998 132.961 21.8165 132.152 21.8637ZM62.0795 25.2637C61.7226 25.122 61.3657 25.004 60.985 24.9568C60.5091 24.8859 60.176 24.8623 59.8905 24.8151C59.7239 24.7915 59.5573 24.7679 59.3908 24.7443C59.248 24.7207 59.1053 24.6734 58.9625 24.6262C58.8435 24.579 58.7484 24.5318 58.6532 24.4373C58.5818 24.3665 58.5342 24.2484 58.5342 24.1304C58.5342 23.9179 58.677 23.7054 58.8673 23.6109C59.1766 23.4693 59.5335 23.3984 59.8667 23.4221C60.1046 23.4221 60.3425 23.4457 60.5567 23.5165C60.7232 23.5637 60.8898 23.6582 61.0087 23.7526C61.1277 23.847 61.1991 23.9415 61.2705 24.0832C61.3181 24.1776 61.3419 24.272 61.3419 24.3901C61.3419 24.4373 61.3657 24.4609 61.3894 24.4609H61.4132H62.9836C63.0074 24.4609 63.055 24.4373 63.055 24.4137C63.055 24.0359 62.9836 23.6818 62.8171 23.3276C62.6505 23.0207 62.4364 22.7373 62.1508 22.5248C61.8415 22.2887 61.5084 22.1234 61.1515 22.029C60.7232 21.9109 60.2949 21.8637 59.8667 21.8637C59.4384 21.8637 59.0101 21.9109 58.6056 22.0526C58.2487 22.1707 57.9394 22.3123 57.6301 22.5484C57.3683 22.7373 57.1542 22.9734 57.0114 23.2568C56.8687 23.5165 56.7973 23.8234 56.7973 24.1304C56.7735 24.5082 56.8687 24.8859 57.0828 25.2165C57.2731 25.4998 57.5349 25.7123 57.8204 25.8776C58.1535 26.0429 58.4866 26.1609 58.8435 26.2082C59.2242 26.279 59.6049 26.3262 59.9856 26.3734C60.1284 26.3971 60.2949 26.4207 60.4615 26.4207C60.6281 26.4443 60.7946 26.4679 60.9612 26.5151C61.1039 26.5623 61.2467 26.6332 61.3419 26.7276C61.4608 26.8221 61.5084 26.9637 61.5084 27.1054C61.5084 27.2707 61.4608 27.4359 61.3657 27.554C61.2705 27.6721 61.1277 27.7665 60.985 27.8137C60.8184 27.8845 60.6518 27.9082 60.4853 27.9318C59.6763 28.0262 59.1291 27.9082 58.7959 27.6484C58.5818 27.4832 58.4628 27.247 58.439 26.9873C58.439 26.9637 58.439 26.9637 58.4152 26.9401C58.4152 26.9401 58.4152 26.9401 58.3914 26.9165C58.3677 26.9165 58.3677 26.8929 58.3439 26.8929H56.7021C56.6783 26.8929 56.6783 26.8929 56.6545 26.9165C56.6545 26.9165 56.6307 26.9165 56.6307 26.9401C56.6307 26.9401 56.6069 26.9637 56.6069 26.9873C56.6069 27.3179 56.6783 27.6248 56.8211 27.9082C56.9638 28.2151 57.178 28.4984 57.4635 28.7109C57.7728 28.9707 58.1297 29.1595 58.5104 29.2776C58.9863 29.4193 59.4622 29.5137 59.9618 29.4901C60.7946 29.5373 61.6274 29.3248 62.3412 28.8762C62.9122 28.4512 63.2454 27.7901 63.1978 27.0818C63.2216 26.6568 63.1026 26.2318 62.8409 25.8776C62.6981 25.6415 62.4126 25.4054 62.0795 25.2637ZM108.763 25.2637C108.406 25.122 108.049 25.004 107.668 24.9568C107.192 24.8859 106.859 24.8623 106.574 24.8151C106.407 24.7915 106.241 24.7679 106.074 24.7443C105.931 24.7207 105.788 24.6734 105.646 24.6262C105.527 24.579 105.432 24.5318 105.336 24.4373C105.265 24.3665 105.217 24.2484 105.217 24.1304C105.217 23.9179 105.36 23.7054 105.551 23.6109C105.86 23.4693 106.217 23.3984 106.55 23.4221C106.788 23.4221 107.026 23.4457 107.24 23.5165C107.406 23.5637 107.573 23.6582 107.692 23.7526C107.811 23.847 107.882 23.9415 107.954 24.0832C108.001 24.1776 108.025 24.272 108.025 24.3901C108.025 24.4373 108.049 24.4609 108.073 24.4609H108.096H109.667C109.691 24.4609 109.738 24.4373 109.738 24.4137C109.738 24.0359 109.667 23.6818 109.5 23.3276C109.334 23.0207 109.12 22.7373 108.834 22.5248C108.525 22.2887 108.192 22.1234 107.835 22.029C107.406 21.9109 106.978 21.8637 106.55 21.8637C106.122 21.8637 105.693 21.9109 105.289 22.0526C104.932 22.1707 104.623 22.3123 104.313 22.5484C104.052 22.7373 103.837 22.9734 103.695 23.2568C103.552 23.5165 103.48 23.8234 103.48 24.1304C103.457 24.5082 103.552 24.8859 103.766 25.2165C103.956 25.4998 104.218 25.7123 104.504 25.8776C104.837 26.0429 105.17 26.1609 105.527 26.2082C105.907 26.279 106.288 26.3262 106.669 26.3734C106.812 26.3971 106.978 26.4207 107.145 26.4207C107.311 26.4443 107.478 26.4679 107.644 26.5151C107.787 26.5623 107.93 26.6332 108.025 26.7276C108.12 26.8221 108.192 26.9637 108.192 27.1054C108.192 27.2707 108.144 27.4359 108.049 27.554C107.954 27.6721 107.811 27.7665 107.668 27.8137C107.502 27.8845 107.335 27.9082 107.168 27.9318C106.359 28.0262 105.812 27.9082 105.479 27.6484C105.265 27.4832 105.146 27.247 105.122 26.9873C105.122 26.9637 105.122 26.9637 105.098 26.9401C105.098 26.9401 105.098 26.9401 105.075 26.9165C105.051 26.9165 105.051 26.8929 105.027 26.8929H103.385C103.361 26.8929 103.361 26.8929 103.338 26.9165C103.338 26.9165 103.314 26.9165 103.314 26.9401C103.314 26.9401 103.314 26.9637 103.29 26.9873C103.29 27.3179 103.361 27.6248 103.504 27.9082C103.647 28.2151 103.861 28.4984 104.147 28.7109C104.456 28.9707 104.813 29.1595 105.194 29.2776C105.669 29.4193 106.145 29.5137 106.645 29.4901C107.478 29.5373 108.311 29.3248 109.024 28.8762C109.595 28.4512 109.929 27.7901 109.881 27.0818C109.905 26.6568 109.786 26.2318 109.524 25.8776C109.381 25.6415 109.096 25.4054 108.763 25.2637ZM142.455 25.9248C142.217 25.6415 141.931 25.4054 141.598 25.2637C141.241 25.122 140.884 25.004 140.503 24.9568C140.028 24.8859 139.694 24.8623 139.409 24.8151C139.242 24.7915 139.076 24.7679 138.909 24.7443C138.766 24.7207 138.624 24.6734 138.481 24.6262C138.362 24.579 138.267 24.5318 138.172 24.4373C138.1 24.3665 138.053 24.2484 138.053 24.1304C138.053 23.9179 138.195 23.7054 138.386 23.6109C138.695 23.4693 139.052 23.3984 139.385 23.4221C139.623 23.4221 139.861 23.4457 140.075 23.5165C140.242 23.5637 140.408 23.6582 140.527 23.7526C140.646 23.847 140.718 23.9415 140.789 24.0832C140.837 24.1776 140.86 24.272 140.86 24.3901C140.86 24.4373 140.884 24.4609 140.908 24.4609H140.932H142.502C142.526 24.4609 142.573 24.4373 142.573 24.4137C142.573 24.0359 142.502 23.6818 142.336 23.3276C142.169 23.0207 141.955 22.7373 141.669 22.5248C141.36 22.2887 141.027 22.1234 140.67 22.029C140.242 21.9109 139.813 21.8637 139.385 21.8637C138.957 21.8637 138.529 21.9109 138.124 22.0526C137.767 22.1707 137.458 22.3359 137.149 22.5484C136.887 22.7373 136.673 22.9734 136.53 23.2568C136.387 23.5165 136.316 23.8234 136.316 24.1304C136.292 24.5082 136.387 24.8859 136.601 25.2165C136.792 25.4998 137.053 25.7123 137.339 25.8776C137.672 26.0429 138.005 26.1609 138.362 26.2082C138.743 26.279 139.123 26.3262 139.504 26.3734C139.647 26.3971 139.813 26.4207 139.98 26.4207C140.147 26.4443 140.313 26.4679 140.48 26.5151C140.622 26.5623 140.765 26.6332 140.86 26.7276C140.979 26.8221 141.027 26.9637 141.027 27.1054C141.027 27.2707 140.979 27.4359 140.884 27.554C140.789 27.6721 140.646 27.7665 140.503 27.8137C140.337 27.8845 140.17 27.9082 140.004 27.9318C139.195 28.0262 138.648 27.9082 138.314 27.6484C138.1 27.4832 137.981 27.247 137.957 26.9873C137.957 26.9637 137.958 26.9637 137.934 26.9401C137.934 26.9401 137.934 26.9401 137.91 26.9165C137.886 26.9165 137.886 26.8929 137.862 26.8929H136.221C136.197 26.8929 136.197 26.8929 136.173 26.9165C136.173 26.9165 136.149 26.9165 136.149 26.9401C136.149 26.9401 136.149 26.9637 136.125 26.9873C136.125 27.3179 136.197 27.6248 136.34 27.9082C136.482 28.2151 136.696 28.4984 136.982 28.7109C137.291 28.9707 137.648 29.1595 138.029 29.2776C138.505 29.4193 138.981 29.5137 139.48 29.4901C140.313 29.5373 141.146 29.3248 141.86 28.8762C142.431 28.4748 142.764 27.7901 142.716 27.0818C142.835 26.704 142.692 26.279 142.455 25.9248ZM121.397 24.9568C121.445 24.9568 121.468 24.9095 121.468 24.8623C121.468 24.697 121.421 24.5318 121.373 24.3901C121.302 24.2248 121.207 24.0595 121.064 23.9179C120.921 23.7762 120.731 23.6345 120.517 23.5637C120.255 23.4693 119.993 23.4221 119.732 23.4221C119.47 23.4221 119.184 23.4693 118.946 23.5637C118.732 23.6345 118.542 23.7762 118.375 23.9179C118.233 24.0359 118.114 24.2012 118.042 24.3665C117.971 24.5082 117.947 24.6734 117.947 24.8387C117.947 24.8387 117.947 24.8387 117.947 24.8623C117.947 24.9095 117.995 24.9332 118.042 24.9332H121.397C121.397 24.9568 121.397 24.9568 121.397 24.9568ZM119.732 21.8873C120.231 21.8873 120.731 21.9818 121.207 22.1707C121.635 22.3359 122.016 22.6193 122.325 22.9498C122.634 23.304 122.896 23.7054 123.039 24.154C123.205 24.6498 123.301 25.1693 123.301 25.7123C123.301 25.854 123.277 25.972 123.277 26.0665C123.277 26.1373 123.253 26.2318 123.229 26.3026C123.205 26.3498 123.205 26.3498 123.182 26.3498H118.042H118.018C117.971 26.3498 117.923 26.397 117.923 26.4443C117.923 26.6568 117.971 26.8457 118.042 27.0345C118.137 27.2234 118.256 27.3887 118.423 27.5304C118.589 27.672 118.78 27.7901 118.994 27.8609C119.232 27.9318 119.47 27.979 119.732 27.979C120.017 27.979 120.326 27.9318 120.612 27.8373C120.874 27.7429 121.088 27.554 121.207 27.2943C121.231 27.247 121.254 27.247 121.302 27.247H123.039C123.063 27.247 123.086 27.247 123.086 27.247C123.086 27.247 123.086 27.247 123.086 27.2707C122.944 27.9554 122.515 28.5457 121.944 28.9234C121.302 29.3248 120.541 29.5373 119.779 29.5137C119.279 29.5137 118.78 29.4193 118.304 29.2304C117.876 29.0415 117.495 28.7818 117.186 28.4512C116.876 28.097 116.615 27.6957 116.472 27.247C116.305 26.7512 116.21 26.2082 116.21 25.6887C116.21 25.1457 116.281 24.6262 116.472 24.1304C116.638 23.6818 116.876 23.2804 117.186 22.9262C117.495 22.5957 117.876 22.3359 118.304 22.147C118.732 21.9818 119.232 21.8873 119.732 21.8873Z" fill="white"/>
</g>
<defs>
<clipPath id="clip0_1_2851">
<rect width="143" height="34" fill="white"/>
</clipPath>
</defs>
</svg>
