<svg width="128" height="46" viewBox="0 0 128 46" fill="none" xmlns="http://www.w3.org/2000/svg">
<g clip-path="url(#clip0_1_3275)">
<path fill-rule="evenodd" clip-rule="evenodd" d="M121.292 43.9942C123.84 43.9942 125.981 41.9077 125.981 39.3995V24.3721C125.981 21.8694 123.834 19.7773 121.292 19.7773H22.9077C20.3602 19.7773 18.2188 21.8639 18.2188 24.3721V39.3995C18.2188 41.9022 20.3658 43.9942 22.9077 43.9942H121.292Z" fill="black" stroke="black" stroke-width="4.40375" stroke-miterlimit="33.89"/>
<path fill-rule="evenodd" clip-rule="evenodd" d="M104.806 24.7891C107.353 24.7891 109.495 22.5638 109.495 19.7781V6.5598C109.495 3.91281 107.348 1.54883 104.806 1.54883H6.15447C3.47349 1.54883 1.33203 3.91281 1.33203 6.5598V19.7781C1.33203 22.5638 3.47905 24.7891 6.15447 24.7891H104.806Z" fill="black" stroke="black" stroke-width="2.41191" stroke-miterlimit="33.89"/>
<path fill-rule="evenodd" clip-rule="evenodd" d="M121.292 43.9942C123.84 43.9942 125.981 41.9077 125.981 39.3995V24.3721C125.981 21.8694 123.834 19.7773 121.292 19.7773H22.9077C20.3602 19.7773 18.2188 21.8639 18.2188 24.3721V39.3995C18.2188 41.9022 20.3658 43.9942 22.9077 43.9942H121.292Z" fill="white" stroke="white" stroke-width="1.99183" stroke-miterlimit="33.89"/>
<path fill-rule="evenodd" clip-rule="evenodd" d="M104.806 24.7891C107.353 24.7891 109.5 22.5638 109.5 19.7781V6.5598C109.5 3.91281 107.353 1.54883 104.806 1.54883H6.15447C3.47349 1.54883 1.33203 3.91281 1.33203 6.5598V19.7781C1.33203 22.5638 3.47905 24.7891 6.15447 24.7891H104.806ZM117.137 9.33997C115.263 9.33997 113.922 10.7328 113.922 12.5419C113.922 14.3509 115.263 15.7438 117.137 15.7438C118.878 15.7438 120.219 14.3509 120.219 12.5419C120.219 10.7328 118.878 9.33997 117.137 9.33997ZM117.004 9.90044H117.137C118.478 9.90044 119.551 11.0158 119.551 12.5474C119.551 14.079 118.478 15.1889 117.137 15.1889C115.663 15.1889 114.59 14.079 114.59 12.5474C114.59 11.0103 115.524 9.90044 117.004 9.90044ZM115.93 10.7328V14.3509H116.464V12.8193H116.998L117.933 14.3509H118.606L117.532 12.6806C118.205 12.6806 118.472 12.2644 118.472 11.7039C118.472 11.0103 118.072 10.7273 117.265 10.7273L115.93 10.7328ZM116.464 12.2644V11.149H117.137C117.671 11.149 117.938 11.2878 117.938 11.7039C117.938 12.1201 117.671 12.2589 117.271 12.2589L116.464 12.2644Z" fill="white"/>
<path fill-rule="evenodd" clip-rule="evenodd" d="M19.2848 20.8936H23.3062V5.16699H19.2848V20.8936ZM58.1591 9.47875C58.1591 7.25351 56.6851 5.16699 54.2711 5.16699H48.9091C46.4951 5.16699 45.0211 7.25351 45.0211 9.47875V16.5762C45.0211 18.8015 46.4951 20.888 48.9091 20.888H54.2711C56.6851 20.888 58.1591 18.8015 58.1591 16.5762V15.3554H54.4046V15.6051C54.4046 16.2988 54.0041 17.2754 53.1976 17.2754H49.9826C49.1761 17.2754 48.7756 16.3043 48.7756 15.6051V10.4554C48.7756 9.76177 49.1761 8.7851 49.9826 8.7851H53.1976C54.0041 8.7851 54.4046 9.76177 54.4046 10.4554V10.7051H58.1591V9.47875ZM73.305 9.47875C73.305 7.25351 71.831 5.16699 69.417 5.16699H64.055C61.641 5.16699 60.1671 7.25351 60.1671 9.47875V16.5762C60.1671 18.8015 61.641 20.888 64.055 20.888H69.417C71.831 20.888 73.305 18.8015 73.305 16.5762V9.47875ZM69.5505 15.6051C69.5505 16.2988 69.15 17.2754 68.3435 17.2754H65.1286C64.322 17.2754 63.9216 16.3043 63.9216 15.6051V10.4554C63.9216 9.76177 64.322 8.7851 65.1286 8.7851H68.3435C69.15 8.7851 69.5505 9.76177 69.5505 10.4554V15.6051ZM94.7474 5.16699L99.1693 16.1656V5.16699H103.191V20.8936H96.7553L92.1999 10.1891V20.8936H88.1839V5.16699H94.7474ZM80.141 17.4142H86.1704V20.8936H76.1139V5.16699H80.1354L80.141 17.4142ZM33.3627 5.16699L37.7847 16.1656V5.16699H41.8062V20.8936H35.3707L30.8152 10.1891V20.8936H26.7938V5.16699H33.3627ZM11.3809 17.4142H17.4103V20.8936H7.35938V5.16699H11.3809V17.4142ZM42.3402 40.0939H50.1161V37.5912H45.4272V28.6847H42.3457L42.3402 40.0939ZM93.6738 28.546C95.5483 28.546 97.0279 29.3783 97.0279 31.0487V33.8344C97.0279 35.0885 96.3548 35.7822 95.5539 35.7822C96.4939 36.1984 96.8944 37.0363 96.8944 37.8687V40.0939H93.8129V38.4236C93.8129 37.5912 93.1454 37.3082 92.8729 37.3082H89.9249V40.0939H86.71V28.546H93.6738ZM89.9249 34.3893H92.7394C93.6794 34.3893 93.8129 33.9731 93.8129 33.6957V32.0253C93.8129 31.7479 93.4124 31.4704 93.1454 31.4704H89.9305L89.9249 34.3893ZM114.721 31.8866C114.721 30.2163 113.514 28.6847 111.64 28.6847H107.485C105.61 28.6847 104.537 30.2163 104.537 31.8866V37.0363C104.537 38.5679 105.61 40.0995 107.485 40.0995H111.64C113.514 40.0995 114.721 38.5679 114.721 37.0363V36.1762H111.773C111.773 36.2372 111.773 36.2927 111.773 36.3426C111.773 36.8976 111.506 37.458 110.833 37.458H108.286C107.752 37.458 107.346 36.9031 107.346 36.3426C107.346 35.2994 106.973 31.3317 108.286 31.3317H110.833C111.367 31.3317 111.634 31.9144 111.757 32.6912H114.721V31.8866ZM99.0358 40.0939H102.256V28.546H99.0358V40.0939ZM75.4465 31.0487H78.7949V40.0939H81.8764V31.0487H85.0913V28.546H75.4465V31.0487ZM73.572 31.8866C73.572 30.2163 72.365 28.6847 70.624 28.6847H66.469C64.5946 28.6847 63.3876 30.2163 63.3876 31.8866V37.0363C63.3876 38.5679 64.5946 40.0995 66.469 40.0995H70.624C72.365 40.0995 73.572 38.5679 73.572 37.0363V36.1762H70.624V36.3426C70.624 36.8976 70.357 37.458 69.684 37.458H67.27C66.597 37.458 66.33 36.9031 66.33 36.3426V32.5858C66.33 32.0309 66.597 31.3317 67.27 31.3317H69.684C70.4127 31.3317 70.6129 32.0919 70.624 32.6912H73.572V31.8866ZM55.7451 35.5047H60.7066V33.002H55.7451V31.193H61.3741V28.6902H52.6636V40.0995H61.3741V37.5968H55.7451V35.5047ZM34.4362 35.5047H39.3977V33.002H34.4362V31.193H40.0652V28.6902H31.2213V40.0995H40.0652V37.5968H34.4362V35.5047Z" fill="black"/>
</g>
<defs>
<clipPath id="clip0_1_3275">
<rect width="128" height="46" fill="white"/>
</clipPath>
</defs>
</svg>
