<svg width="143" height="18" viewBox="0 0 143 18" fill="none" xmlns="http://www.w3.org/2000/svg">
<g clip-path="url(#clip0_1_2922)">
<path d="M33.3288 6.65527H21.2371L20.7891 6.99786V17.9971H24.1364V13.8725L24.4559 13.5797H33.3292C35.5697 13.5797 36.62 12.9633 36.62 11.3818V8.85628C36.6196 7.2721 35.5697 6.65527 33.3288 6.65527ZM33.3288 10.7218C33.3288 11.4669 32.8467 11.6216 31.7964 11.6216H24.4925L24.1359 11.2672V8.91095L24.4554 8.61202H31.7964C32.8467 8.61202 33.3288 8.76501 33.3288 9.51367V10.7218Z" fill="white"/>
<path d="M42.7204 8.73496L45.6008 13.0501L45.4412 13.4681H39.0713L37.4453 15.5135H46.9271L47.5842 15.9226L49.0563 17.9988H52.8869L44.4904 6.51367" fill="white"/>
<path d="M80.81 15.7659V12.713L81.1545 12.4088H87.5628V10.4648H77.4062V17.9995H92.3882V16.0648H81.1696" fill="white"/>
<path d="M92.5465 6.65527H77.4062V8.79279H92.5465V6.65527Z" fill="white"/>
<path d="M60.5212 8.67928H72.7186C72.5306 7.09334 71.5682 6.65332 69.1268 6.65332H60.3914C57.6366 6.65332 56.7578 7.20313 56.7578 9.33491V15.3158C56.7578 17.4498 57.6366 17.9996 60.3914 17.9996H69.1268C71.604 17.9996 72.5526 17.5239 72.6172 15.8788H60.5212L60.1625 15.5336V8.91032" fill="white"/>
<path d="M12.6479 11.0743H3.77449L3.51319 10.7802V8.83933L3.7732 8.63387H15.7351L15.8986 8.22515C15.4911 7.15331 14.436 6.65332 12.4767 6.65332H4.1673C1.41418 6.65332 0.534134 7.20313 0.534134 9.33491V10.5889C0.534134 12.7233 1.41418 13.2722 4.1673 13.2722H13.0208L13.2989 13.5218V15.5508L13.0721 15.8674H2.94489V15.8577H0.292239C0.292239 15.8577 -0.0113155 16.0133 0.000326511 16.0861C0.226699 17.5772 1.22015 17.9996 3.59857 17.9996H12.6479C15.4005 17.9996 16.3069 17.4498 16.3069 15.3158V13.7537C16.3069 11.6232 15.4005 11.0743 12.6479 11.0743Z" fill="white"/>
<path d="M102.071 6.6084H97.0907L96.8203 7.1344L102.352 11.2573C103.399 10.637 104.539 10.0082 105.779 9.38787" fill="white"/>
<path d="M106.535 14.3742L111.397 17.9994H116.438L116.647 17.5192L109.387 12.0859C108.423 12.8095 107.471 13.5736 106.535 14.3742Z" fill="white"/>
<path d="M101.332 17.9916H96.826L96.4453 17.3818C99.5093 14.3568 113.213 1.3893 143.001 0C143.001 0 117.999 0.862413 101.332 17.9916Z" fill="white"/>
</g>
<defs>
<clipPath id="clip0_1_2922">
<rect width="143" height="18" fill="white"/>
</clipPath>
</defs>
</svg>
