<svg width="89" height="59" viewBox="0 0 89 59" fill="none" xmlns="http://www.w3.org/2000/svg">
<g clip-path="url(#clip0_1_2832)">
<path d="M22.9336 54.7714C22.9336 55.8817 22.4963 56.3162 21.6217 56.3162C20.7471 56.3162 20.3098 55.7852 20.3098 54.7714V43.9099H17.8804V54.6266C17.8804 57.0403 19.338 58.4402 21.6217 58.4402C23.9054 58.4402 25.363 57.1368 25.363 54.6266V43.9099H22.9336V54.7714ZM6.17049 50.7164C7.28803 50.282 7.82251 48.9786 7.82251 47.6269C7.82251 45.2133 6.60779 43.8133 3.984 43.8133H0.339844V58.1505H4.32412C7.19086 58.1505 8.16263 56.4127 8.16263 53.999C8.16263 52.2612 7.38521 51.2957 6.17049 50.7164ZM2.76928 45.8891H3.64388C4.76142 45.8891 5.29589 46.5649 5.29589 47.9649C5.39307 48.882 4.71283 49.7027 3.78964 49.7992C3.74106 49.7992 3.69247 49.7992 3.64388 49.7992H2.76928V45.8891ZM3.83823 56.2196H2.72069V51.8267H3.59529C5.00436 51.8267 5.68461 52.5991 5.68461 53.999C5.63602 55.4472 5.19872 56.2196 3.83823 56.2196ZM30.1247 51.9233H33.3316V49.751H30.1247V46.0339H34.3034V43.8616H27.6953V58.1988H34.5463V55.9782H30.1247V51.9233ZM12.6814 43.9099H10.1548V58.2471H16.5685V56.0748H12.73V43.9099H12.6814ZM75.8953 58.2954H78.3248V43.9099H75.8953V58.2954ZM69.9189 43.7168C67.2951 43.7168 66.1776 45.3581 66.1776 47.3373V54.6749C66.1776 56.7506 67.3923 58.2954 69.9189 58.2954C70.7935 58.2471 71.6681 57.9575 72.3484 57.4264L73.6603 58.2954V51.0544H69.5788V53.0336H71.328V54.7714C71.328 56.4127 70.0161 56.3162 70.0161 56.3162H69.9189C68.9472 56.3162 68.607 55.7852 68.607 54.6749V47.4339C68.607 46.3236 68.9472 45.7926 69.9189 45.7926C70.8907 45.7926 71.2308 46.3236 71.2308 47.4339V48.5441H73.6603V47.3373C73.806 45.3581 72.5913 43.7168 69.9189 43.7168ZM45.2358 43.7168C42.6121 43.7168 41.4945 45.3581 41.4945 47.3373V54.6749C41.4945 56.7506 42.7092 58.2954 45.2358 58.2954C47.7625 58.2954 48.9772 56.6541 48.9772 54.6749V47.3373C48.9772 45.3581 47.7625 43.7168 45.2358 43.7168ZM46.5477 54.6749C46.5477 55.7852 46.2076 56.3162 45.2358 56.3162C44.2641 56.3162 43.9239 55.7852 43.9239 54.6749V47.4339C43.9239 46.3236 44.2641 45.7926 45.2358 45.7926C46.2076 45.7926 46.5477 46.3236 46.5477 47.4339V54.6749ZM86.3419 43.9099V52.4543L82.9407 43.9099H80.7542V58.2471H82.9407V49.7027L86.3419 58.2471H88.5284V43.9099H86.3419ZM61.3187 58.2954H63.7482V43.9099H61.3187V58.2954ZM58.8893 48.1097C58.8893 45.0202 57.4802 43.8133 54.7106 43.8133H51.1637V58.1505H53.5931V52.3577H54.8078L56.557 58.2954H59.0836L56.9943 51.8267C57.9175 51.3923 58.8893 50.3785 58.8893 48.1097ZM54.4677 50.3785H53.5931V45.8891H54.4677C55.7796 45.8891 56.3627 46.3236 56.3627 48.0614C56.3627 49.7993 55.9254 50.3785 54.4677 50.3785Z" fill="white"/>
<mask id="mask0_1_2832" style="mask-type:luminance" maskUnits="userSpaceOnUse" x="12" y="0" width="65" height="34">
<path d="M76.6726 0.560547H12.1953V33.1934H76.6726V0.560547Z" fill="white"/>
</mask>
<g mask="url(#mask0_1_2832)">
<path fill-rule="evenodd" clip-rule="evenodd" d="M76.6699 8.18804V7.80185V7.65703L76.427 7.75357L76.5727 7.60875L76.5241 7.65703L76.6699 7.46393C76.5727 7.51221 76.4755 7.56048 76.3784 7.56048C76.3784 7.56048 76.5727 7.41566 76.7185 7.31911H76.5727C76.5727 7.31911 76.5727 7.31911 76.5727 7.27084C76.5727 7.27084 76.5727 7.27084 76.5727 7.22257L76.7185 7.12602C76.7671 7.12602 76.7671 7.07775 76.7671 7.02947L76.7185 6.45019L76.6699 6.20883C76.6699 6.16055 76.6213 6.11228 76.5727 6.064L76.2812 5.96746C76.2812 5.96746 76.2326 5.96746 76.2326 5.91918C76.2326 5.91918 76.2326 5.87091 76.2812 5.87091H76.5727C76.6213 5.87091 76.6213 5.87091 76.6213 5.82264L76.5727 5.58127C76.5727 5.43645 76.5241 5.29163 76.427 5.19508L76.184 4.8089L76.1354 4.76062C76.1354 4.71235 76.0868 4.71235 76.0382 4.71235H75.7953H75.7467C75.7467 4.71235 75.7467 4.71235 75.7467 4.66408V4.6158H75.6981H75.4552V4.56753C75.6009 4.51926 75.7467 4.47098 75.9411 4.42271H75.8925C75.8925 4.42271 75.358 3.60206 75.358 3.55379L74.9207 3.11933L74.8721 3.07105L74.5806 2.92623C74.532 2.87796 74.4834 2.87796 74.4348 2.92623C74.289 2.97451 74.1919 3.07105 74.0947 3.1676C74.0947 3.1676 74.0461 3.1676 74.0461 3.11933C74.0947 3.02278 74.1433 2.87796 74.1433 2.78141C74.1433 2.68487 74.1433 2.63659 74.0461 2.58832L73.8518 2.4435L73.2687 2.10559H73.2201H73.1715C73.1229 2.05731 73.0743 2.05731 73.0257 2.10559C72.88 2.20213 72.6856 2.29868 72.4913 2.4435H72.4427C72.4913 2.34695 72.5884 2.20213 72.637 2.10559C72.637 2.10559 72.637 2.05731 72.5884 2.10559C72.4427 2.25041 72.2483 2.39523 72.1511 2.49177C72.1026 2.49177 72.054 2.58832 72.1511 2.49177L72.4427 1.96076V1.91249C72.4427 1.91249 72.4427 1.91249 72.3941 1.91249L72.054 1.76767H72.0054L71.9082 1.67112H71.8596C71.811 1.67112 71.811 1.67112 71.7624 1.67112C71.5195 1.67112 71.4223 2.10558 71.3251 2.29868C71.3251 2.34695 71.2766 2.39522 71.228 2.4435C70.9364 2.82969 70.6449 3.21587 70.402 3.60206H70.3534L70.3048 3.55379L71.1308 1.62285C71.1308 1.57458 71.1308 1.5263 71.1308 1.47803C71.1308 1.42976 71.0822 1.38148 71.0336 1.38148H70.985C70.9364 1.38148 70.8878 1.38148 70.8393 1.38148H70.7907C70.7421 1.38148 70.6935 1.38148 70.6449 1.38148L70.4991 1.33321H70.4505C69.4788 2.68487 68.7985 4.13307 68.4098 5.72609C68.4098 5.77436 68.3612 5.72609 68.3612 5.72609C68.7499 3.31242 69.1872 1.28494 69.2844 0.89875V0.947022C69.0415 1.62285 68.8471 2.25041 68.7013 2.97451C68.5556 3.55379 68.8957 1.47803 68.9929 0.89875C68.9929 0.850476 68.9929 0.850476 68.9929 0.802203C68.9929 0.753929 68.9443 0.753928 68.9443 0.753928C68.8957 0.753928 68.8957 0.753928 68.8471 0.753928C68.7985 0.753928 68.7985 0.802203 68.7985 0.802203C68.7499 0.802203 68.7499 0.802202 68.7013 0.850475C68.6528 0.995296 68.6042 1.14012 68.507 1.33321C68.507 1.18839 68.507 1.09184 68.507 0.947022C68.507 0.898749 68.4584 0.802201 68.4098 0.753928C68.3612 0.705655 68.3126 0.657383 68.2155 0.657383H68.1669H68.1183L68.0697 0.705655C67.9239 1.23666 67.681 2.2504 67.1951 4.08479C67.1951 4.13307 67.1465 4.13307 67.1465 4.13307C67.0979 4.13307 67.0979 4.13307 67.0979 4.08479C67.2437 2.87796 67.1951 1.67112 67.0007 0.512561C67.0007 0.464288 66.9521 0.416016 66.9036 0.416016H66.7092H66.5149C66.4663 0.416016 66.4663 0.416015 66.4663 0.464288C66.4177 0.898749 66.3691 1.76767 66.1261 3.02278C66.1261 3.02278 66.1261 3.07105 66.0776 3.07105C66.0776 3.07105 66.029 3.07105 66.029 3.02278C66.0776 2.15386 66.0776 1.09184 66.0776 0.609108C66.0776 0.560835 66.0776 0.560834 66.029 0.512561C65.9804 0.464288 65.9804 0.464288 65.9318 0.464288L65.1544 0.657383C65.1058 0.657383 65.0086 0.705655 65.0086 0.753928C64.4741 1.7194 64.0368 3.65033 63.6967 5.29163C63.6967 5.3399 63.6481 5.29163 63.6481 5.29163C63.8425 3.84343 64.134 2.39522 64.6199 0.995295C64.6685 0.947022 64.6685 0.947023 64.6199 0.89875C64.5713 0.850476 64.5713 0.850476 64.5227 0.89875L64.1826 1.09184L63.9882 1.23666C63.8911 1.33321 63.7939 1.42976 63.6967 1.57458C63.3566 2.54004 63.0651 3.50551 62.8221 4.47098C62.8221 4.51925 62.8221 4.51926 62.7735 4.51926C62.7249 4.51926 62.7249 4.51925 62.7249 4.47098C62.8221 3.50551 63.0651 2.58832 63.4052 1.7194L62.7249 2.29868L61.7046 3.26415C61.6074 3.36069 61.5588 3.45724 61.5102 3.55379L61.3159 3.93997C61.3159 3.93997 61.3159 3.93997 61.2673 3.93997C61.2187 3.93997 61.2187 3.93997 61.2187 3.93997V3.84343V3.79515C61.2673 3.65033 61.2673 3.50551 61.3159 3.36069C61.3159 3.31242 61.3159 3.31242 61.3159 3.26415C61.3644 3.1676 61.413 3.02278 61.4616 2.92623L61.3644 2.97451C61.3159 3.07105 61.2673 3.1676 61.2187 3.26415L61.2673 3.07105L61.1215 3.21587C61.0729 3.31242 61.0729 3.40897 61.0243 3.50551H60.9757V3.36069C60.8786 3.45724 60.83 3.50551 60.7814 3.60206C60.7328 3.79515 60.6842 3.98825 60.6356 4.18134C60.587 4.27789 60.5384 4.37444 60.4898 4.51926V4.56753C60.3927 5.00199 60.2469 5.48472 60.1497 5.91918C60.1011 6.064 60.0526 6.2571 60.0526 6.40192C60.0526 6.40192 60.0525 6.45019 60.004 6.45019V6.49847V6.54674C59.9554 6.59501 59.9554 6.64329 59.9068 6.69156V6.73983C59.9068 6.78811 59.8582 6.78811 59.8582 6.78811C59.8096 6.78811 59.8096 6.78811 59.8096 6.73983L59.6638 6.45019C59.6153 6.35365 59.5181 6.30537 59.4209 6.2571C59.3237 6.2571 59.2751 6.20882 59.2265 6.16055C59.2265 6.16055 59.2265 6.16055 59.178 6.16055C59.178 6.16055 59.178 6.16055 59.1294 6.16055C59.1294 6.2571 59.0808 6.35365 59.0322 6.45019L58.8864 6.69156L58.7407 6.9812L58.6921 7.07775V7.12602V6.9812L58.3519 7.94667C58.3034 7.94667 58.3034 7.94667 58.3034 7.85012C58.3034 7.75357 58.3519 7.60875 58.4005 7.46393V7.41566H58.3519C58.2062 7.51221 58.1576 7.60875 58.109 7.80185L58.0604 7.94667C58.0604 7.94667 58.0604 7.94667 58.0118 7.94667H57.9632C57.9632 7.94667 57.9632 7.89839 57.9146 7.94667C57.9146 7.94667 57.9146 7.94667 57.9146 7.99494C57.8661 8.13976 57.8661 8.13976 57.8175 8.33285L57.7203 8.47767C57.6717 8.57422 57.6717 8.67077 57.6717 8.71904L57.6231 8.91214H57.5745V8.86386V8.81559H57.5259V8.86386C57.3316 9.10523 57.1858 9.3466 57.0401 9.63624C57.0401 9.63624 57.04 9.63624 56.9915 9.63624H56.9429C56.9429 9.63624 56.9429 9.63624 56.9429 9.58796V9.63624C57.04 9.25005 57.1372 8.91214 57.1858 8.52595C57.2344 8.4294 57.283 8.33285 57.283 8.23631C57.3316 7.94667 57.6231 7.12602 57.6231 7.12602C57.8661 6.35364 57.8661 6.11228 57.8175 6.064C57.7203 6.01573 57.5259 6.2571 57.4288 6.45019C56.8457 7.56048 55.8739 8.47768 54.3191 9.49142L54.2219 9.53969L53.2501 9.92588C51.9868 10.65 50.7235 11.2775 50.6749 11.3258C50.2376 11.5189 49.8489 11.8568 49.5088 12.1947C49.4602 12.2913 49.363 12.3878 49.3144 12.5326V12.5809C49.1201 12.9188 48.9743 13.305 48.78 13.6429C48.6828 13.7878 48.6828 13.9326 48.5856 14.0774C48.4884 14.2222 48.3913 14.5119 48.2941 14.7532C48.0511 15.236 47.8082 15.7187 47.6138 16.2014C47.4681 16.5393 47.3709 16.8773 47.2737 17.2634C47.2737 17.3117 47.2251 17.4083 47.1765 17.4565C47.1279 17.7462 47.0308 18.0358 46.9336 18.3255C46.9336 18.3255 46.9336 18.3255 46.885 18.3255C46.9336 18.1806 46.9336 18.0841 46.9822 17.9393C47.1279 17.3117 47.2251 16.6842 47.3709 16.0566C47.4195 15.8152 47.5652 15.5256 47.6138 15.2842C47.6624 15.0429 47.6624 14.8498 47.7596 14.6084L47.8568 14.3188C48.0025 14.0774 48.0997 13.7878 48.2455 13.5464C48.3913 13.305 48.4884 13.2085 48.5856 13.0154C48.6342 12.8706 48.6828 12.6775 48.7314 12.5326V12.4844H48.6828C48.5856 12.5326 48.4884 12.6292 48.3913 12.7257C48.2941 12.774 48.1969 12.8706 48.0997 12.9188L48.0025 12.9671C47.5167 13.305 46.9822 13.6429 46.4477 13.9326C46.059 14.1257 45.7189 14.4153 45.3788 14.7049L45.2816 14.8015C45.0872 14.9463 44.8929 15.1394 44.7471 15.3325C44.5042 15.6704 44.2612 16.0566 44.0669 16.4428C43.9697 16.5876 43.9211 16.7807 43.8239 16.9255C43.8239 16.9738 43.8239 17.0221 43.7753 17.0703C43.7267 17.2152 43.6296 17.36 43.6296 17.5048C43.581 17.5531 43.581 17.6014 43.5324 17.6496C43.4352 17.9875 43.338 18.3255 43.2408 18.7116C43.0951 19.484 42.9493 20.2081 42.755 20.9805C42.6578 21.3667 42.512 21.7529 42.4148 22.1391C42.3662 22.3321 42.2691 22.5252 42.1719 22.7183C42.1233 22.8149 42.0747 22.9114 42.0747 23.008C41.929 23.2976 41.7832 23.539 41.5888 23.8286C41.5402 23.9252 41.4431 23.9734 41.3945 24.07C41.3459 24.1183 41.2487 24.1665 41.2487 24.2148C41.2487 24.2148 41.2001 24.2148 41.2001 24.1665C41.2487 23.9252 41.4431 23.6838 41.4917 23.4424C41.5888 23.008 41.7346 22.5735 41.7832 22.1391C41.8804 21.5115 41.8318 20.8357 41.8804 20.2081C41.929 19.0978 42.0261 17.9875 42.2205 16.8773C42.3177 16.3945 42.4634 15.9601 42.7064 15.5256C42.8036 15.3808 42.8035 15.236 42.9007 15.0911C42.9979 14.9463 43.0951 14.7049 43.1923 14.5119L43.2408 14.4636V14.367V14.3188V14.2705C43.2408 14.2705 43.1923 14.1739 43.1437 14.1739C43.0951 14.2222 43.0951 14.2705 43.0465 14.2705H42.9979C42.9979 14.2705 42.755 14.5601 42.7064 14.6084L42.6578 14.6567V14.7049C42.5606 14.8015 42.4634 14.8498 42.4148 14.9463C42.3662 15.0429 42.2205 15.2842 42.1233 15.429C42.1233 15.429 42.1233 15.429 42.0747 15.429C42.0747 15.429 42.0747 15.429 42.0747 15.3808C42.0747 15.3808 42.0747 15.3808 42.0747 15.3325C42.0747 15.2842 42.0747 15.1877 42.1233 15.1394H42.0747V15.1877C42.0261 15.236 42.0261 15.236 41.9775 15.2842C41.8318 15.3808 41.6374 15.767 41.5888 15.8635C41.5402 15.9118 41.4917 16.0083 41.3945 16.0566L41.2487 16.4428L41.2001 16.4911V16.4428L41.4431 15.9118C41.4431 15.9118 41.4431 15.9118 41.4431 15.8635C41.4431 15.8635 41.4431 15.8635 41.3945 15.8635C40.9086 16.0083 40.4227 16.2497 39.9854 16.5393C39.9854 16.5393 39.9368 16.5393 39.9854 16.4911C40.034 16.4428 40.0826 16.3462 40.1312 16.298C40.034 16.3462 39.9368 16.3945 39.8396 16.4911L39.2566 16.8773C39.208 16.8773 39.208 16.8773 39.1594 16.8773C39.1108 16.9738 39.0136 17.0221 38.965 17.1186C38.9164 17.1669 38.8679 17.2152 38.8193 17.2152C38.7707 17.2634 38.7221 17.2634 38.6735 17.3117L38.0904 17.9393C37.8475 18.2289 37.6046 18.5185 37.4102 18.8565C37.313 19.0013 37.2644 19.1461 37.2158 19.2909L37.1673 19.3875C37.1673 19.4357 37.1187 19.4357 37.1187 19.4357C37.0701 19.4357 37.0701 19.4357 37.0701 19.4357C37.0701 19.4357 37.0215 19.3875 37.0701 19.3875V19.1944C37.1187 18.9047 37.2644 18.6634 37.4588 18.422L37.5074 18.3255L37.6046 18.1806V18.1324H37.4588C37.4102 18.1324 37.3616 18.1324 37.313 18.1806L37.0701 18.3255C36.9729 18.3737 36.8757 18.422 36.8271 18.5185C36.73 18.6634 36.6328 18.8082 36.5356 18.953C36.4384 19.0978 36.4384 19.2909 36.3412 19.4357C36.2927 19.484 36.2441 19.484 36.2441 19.5323C36.1955 19.5806 36.1469 19.7254 36.0983 19.7737C36.0497 19.8702 35.9525 19.9185 35.9039 19.9667C35.8554 20.0633 35.8068 20.2564 35.7096 20.3529C35.4181 20.8839 35.2723 21.4632 35.2237 22.0425V22.3321C35.2237 22.4287 35.1751 22.5735 35.1751 22.6701V24.9389V25.5182C35.1751 25.5665 35.1751 25.5665 35.1265 25.5665C35.0779 25.5665 35.0779 25.5665 35.0779 25.5182C35.0779 25.2286 34.9808 24.8906 34.9322 24.601C34.8836 24.4079 34.835 24.2631 34.7864 24.0217C34.7378 23.6355 34.6406 23.2493 34.5921 22.8632C34.5435 22.6218 34.4949 22.4287 34.4949 22.1873C34.4949 21.2701 34.5435 20.3047 34.6406 19.3875C34.6406 19.2426 34.6406 19.0496 34.6406 18.9047L34.5921 18.6634V18.3255C34.5921 18.1806 34.5921 18.0358 34.5921 17.891H34.5435C34.4949 17.9875 34.4463 18.1324 34.4463 18.2289C34.3977 18.3737 34.4463 18.4703 34.4463 18.4703L34.3977 18.5185V18.422H34.3491C34.3005 18.5185 34.2519 18.5668 34.2033 18.6634V18.7116C34.2033 18.7599 34.1548 18.7599 34.1062 18.8082C34.0576 18.8565 34.009 18.953 33.9604 19.0496L33.9118 19.0978C33.8632 19.1461 33.8632 19.1944 33.8146 19.2426H33.766V19.1944C33.8146 19.0978 33.8146 19.0496 33.8632 18.953C33.8632 18.8082 33.9118 18.6634 33.9604 18.5185C33.9604 18.4703 33.9604 18.3737 33.9604 18.3255C33.8146 18.5185 33.7175 18.7599 33.6203 19.0013C33.5717 19.0978 33.5231 19.1461 33.4745 19.2426C33.4259 19.3875 33.4259 19.5323 33.3773 19.6288C33.3287 19.7254 33.2316 19.7737 33.183 19.8219C33.1344 19.9185 32.9886 20.1116 32.94 20.2081C32.5999 20.7874 32.4056 21.4149 32.3084 22.0425C32.2598 22.2839 32.2598 22.5252 32.2598 22.7666C32.2598 22.8632 32.2598 22.9114 32.2598 23.008C32.2598 22.9597 32.2112 22.9114 32.2112 22.8632C32.1626 22.7183 32.114 22.5735 32.0654 22.3804C31.9683 21.8977 31.8711 21.4632 31.8225 21.0288C31.8225 20.9805 31.7739 20.9322 31.7253 20.8839C31.6767 20.7874 31.6767 20.6908 31.6767 20.5943C31.6767 20.5943 31.6767 20.546 31.6281 20.546H31.5795C31.5795 20.5943 31.5795 20.6426 31.531 20.6909H31.4824C31.4824 20.6909 31.4824 20.6909 31.4338 20.6909C31.4338 20.6909 31.4338 20.6909 31.3852 20.6909C31.3366 20.7874 31.288 20.8839 31.288 20.9805C31.288 21.0288 31.288 21.077 31.288 21.1253C31.288 21.1736 31.288 21.2701 31.2394 21.3184C31.2394 21.3184 31.2394 21.3184 31.1908 21.3184H31.1423C31.1423 21.3667 31.0937 21.3667 31.0937 21.415C31.0451 21.3184 31.0451 21.2219 30.9965 21.1253C30.9965 21.1253 30.9965 21.077 30.9479 21.077C30.9479 21.077 30.8993 21.077 30.8993 21.1253V21.3667V22.2839C30.8993 22.9114 30.9479 23.539 30.9479 24.1665C30.9479 24.601 31.0451 24.9872 31.0937 25.3734C31.1422 25.8078 31.1908 26.0009 31.1908 26.3388C31.1908 26.4837 31.1908 26.5802 31.2394 26.725C31.1908 26.5802 31.1422 26.4354 31.0937 26.2906L30.7535 25.3251C30.6564 25.1803 30.6078 24.9872 30.5592 24.7941C30.5106 24.6493 30.4134 24.5044 30.4134 24.4079L30.3162 24.2148C30.2191 24.0217 30.1705 23.8769 30.1219 23.6838L29.9761 23.3942C29.9275 23.0562 29.6846 22.8149 29.636 22.477C29.5874 22.2839 29.4902 22.1391 29.3931 21.946C29.2959 21.7529 29.1987 21.5598 29.1015 21.3667C29.0529 21.3184 29.0529 21.2219 28.9558 21.1253L28.8586 21.077C28.8586 21.0288 28.81 21.0288 28.81 21.0288C28.7614 21.0288 28.7614 21.077 28.7614 21.077C28.7614 21.1736 28.7614 21.3184 28.7614 21.415V21.4632V21.5115V22.1391C28.7614 22.1391 28.7614 22.1873 28.7128 22.1873C28.7128 22.1873 28.6642 22.1873 28.6642 22.1391L28.6156 22.0425C28.6156 22.0425 28.6156 22.0425 28.567 22.0425H28.5185C28.4699 22.2356 28.4699 22.3804 28.4699 22.5735C28.4213 22.7183 28.4213 22.8632 28.3727 22.9597C28.3727 23.2493 28.4213 23.539 28.5185 23.8286C28.5185 23.9252 28.567 24.0217 28.6156 24.07C28.6642 24.3596 28.81 24.6975 28.8586 24.9872L28.9558 25.2768C29.0043 25.4699 29.1015 25.6147 29.1501 25.8078C29.1987 26.0009 29.2959 26.0975 29.2959 26.2423C29.3445 26.3871 29.3931 26.4837 29.4416 26.5802C29.4416 26.725 29.5388 26.8216 29.5874 26.9181C29.636 27.1112 29.7332 27.3043 29.7818 27.4974V27.5457C29.7818 27.5457 29.7818 27.5457 29.7332 27.5457C29.636 27.5939 29.5388 27.4009 29.4416 27.3043C29.1987 27.0629 28.9558 26.7733 28.6642 26.5319C28.3727 26.2423 28.0812 26.0009 27.7896 25.8078L27.4495 25.663H27.4009C27.3037 25.6147 27.2066 25.5182 27.1094 25.4216L26.915 25.3734C26.7693 25.2768 26.6235 25.132 26.4777 25.0837H26.332C26.2834 25.0837 26.089 24.9872 25.9918 24.9872C25.9433 24.9872 25.9433 24.9872 25.8947 24.9872C25.8461 24.9872 25.8461 24.9872 25.8461 25.0355V25.0837C25.8461 25.2768 25.9918 25.2768 26.089 25.3734C26.2348 25.4699 26.1376 25.4699 26.1862 25.4699C26.1862 25.4699 26.1376 25.4699 26.1376 25.5182V25.5665C26.4291 25.9527 26.8179 26.194 27.1094 26.5319C27.2552 26.6768 27.3523 26.8216 27.4495 26.9664L27.6439 27.3526L27.8382 27.6422C27.8868 27.7388 27.8382 27.787 27.8382 27.8353C27.8382 27.8836 27.8868 27.9319 27.9354 27.9801C27.7896 28.0284 27.6439 28.0284 27.5467 28.0767C27.3523 28.125 27.1094 28.2215 26.915 28.2215C26.5263 28.2698 26.1862 28.4146 25.7975 28.5111C25.5545 28.5594 25.4088 28.656 25.1658 28.7042C24.437 28.8491 23.6596 29.0904 22.9308 29.2352C22.8336 29.2352 22.785 29.2835 22.6392 29.3318C22.2019 29.4283 21.7646 29.5732 21.3273 29.6697C20.89 29.718 20.5013 29.8628 20.1126 29.9593C19.0922 30.1042 18.1205 30.4421 17.1001 30.6352C17.0029 30.6352 16.9543 30.6834 16.9057 30.6834C16.517 30.7317 16.1283 30.8765 15.7396 30.9248L15.3995 31.0214C14.8164 31.1179 14.1362 31.4076 13.5531 31.5041C13.3102 31.5524 13.0672 31.6489 12.8729 31.6972L12.5814 31.7937C12.1926 31.8903 12.0469 32.0834 12.0469 32.373C12.1441 32.9523 12.6785 32.7592 13.0186 32.7109C13.6503 32.6627 14.3305 32.5178 14.9622 32.4213C15.3023 32.373 15.5453 32.2765 15.8854 32.2282C16.76 32.0834 17.6346 31.842 18.5092 31.6972C18.8493 31.6489 19.1408 31.5041 19.481 31.4558L19.7725 31.3593C20.1126 31.311 20.5013 31.1662 20.8414 31.1179L21.2787 31.0214C21.7646 30.9248 22.2505 30.78 22.7364 30.6834L23.2223 30.5386C23.7568 30.4421 24.2912 30.249 24.8743 30.1524L25.4574 30.0076C26.2348 29.8628 27.0122 29.5249 27.7896 29.4283C28.1783 29.2835 28.5185 29.2352 28.9072 29.1387C28.9558 29.1387 29.0043 29.187 29.0043 29.187V29.2352H29.0529H29.1015C29.1015 29.2352 29.1501 29.4283 29.1987 29.4283V29.3318C29.1987 29.2835 29.1987 29.2352 29.1987 29.187H29.2473H29.2959C29.3445 29.2835 29.3931 29.3801 29.4416 29.4766C29.4416 29.5249 29.4902 29.5249 29.4902 29.5732C29.4902 29.4283 29.4902 29.2835 29.4416 29.1387C29.4416 29.1387 29.4416 29.0904 29.4902 29.0904H29.5388C29.5388 29.1387 29.5874 29.1387 29.5874 29.187L29.6846 29.4766C29.7332 29.6697 29.7818 29.9111 29.7818 30.1042C29.8304 30.2973 29.8789 30.2007 29.8789 30.3455C29.8789 30.4421 29.8789 30.5869 29.8789 30.6834C29.8789 30.78 29.8789 30.8283 29.8789 30.9248L29.9275 30.8765H29.9761V30.9248C29.9761 31.0214 30.0247 31.1662 29.9761 31.311H30.0247C30.0733 31.2627 30.0733 31.1662 30.1219 31.1179C30.1705 31.2627 30.1705 31.3593 30.1705 31.5041C30.1705 31.5041 30.1705 31.5524 30.2191 31.5041C30.2677 31.4558 30.3162 31.3593 30.3162 31.311C30.3162 31.3593 30.3648 31.3593 30.3648 31.3593C30.4134 31.3593 30.462 31.1662 30.5106 31.1179H30.5592C30.6564 30.9248 30.705 30.6834 30.7535 30.4904C30.7535 30.4421 30.7535 30.4421 30.7535 30.3938C30.7535 30.3455 30.7535 30.3455 30.7535 30.2973V30.249C30.7535 30.2007 30.8021 30.1524 30.8021 30.1042C30.8021 30.0559 30.8507 29.9593 30.8993 29.9111C30.9479 29.5249 30.9965 29.1387 30.8993 28.7525V28.7042H30.9479C30.9965 28.8008 31.0451 28.8973 31.0937 28.9939C31.2394 29.2352 31.3366 29.4766 31.531 29.6697C31.7739 30.0076 32.0168 30.3455 32.2598 30.6352C32.357 30.7317 32.4056 30.8765 32.5027 31.0214L32.5999 31.2145C32.7943 31.4558 32.8914 31.7937 33.0858 32.0834L33.2316 32.3247C33.3287 32.4696 33.4745 32.6144 33.5717 32.7109H33.6203H33.6689C33.6689 32.7109 33.6689 32.7109 33.6689 32.6627C33.6689 32.6627 33.6689 32.6627 33.6689 32.6144C33.7175 32.6627 33.766 32.7592 33.8146 32.8075C33.9118 32.8558 33.9604 32.9523 34.0576 32.9523C34.0576 33.0006 34.1062 33.0006 34.1548 33.0006C34.2033 33.0006 34.2033 32.9523 34.2033 32.904C34.1062 32.6627 34.009 32.4696 33.9118 32.2282C33.9118 32.1799 33.8632 32.1316 33.8632 32.1316C33.8146 32.0351 33.766 31.8903 33.766 31.7937C33.7175 31.6006 33.5231 31.4076 33.4745 31.2627C33.4259 30.9731 33.3287 30.7317 33.183 30.4904C33.1344 30.4421 33.1344 30.3455 33.0858 30.249C33.0858 30.2007 33.0372 30.2007 33.0858 30.249C33.0858 30.2973 33.183 30.3455 33.2316 30.3455C33.2802 30.3455 33.3773 30.3938 33.4259 30.3938H33.4745V30.3455C33.3773 30.2973 33.3287 30.249 33.2316 30.2007C33.183 30.1524 32.9886 30.0076 32.94 29.9111C32.94 29.8628 32.8914 29.8145 32.8914 29.7663L32.8429 29.6697L32.94 29.7663C33.2316 30.0076 33.5231 30.2007 33.8146 30.3938C33.9118 30.4421 34.2519 30.6834 34.3491 30.5386C34.3977 30.5869 34.5435 30.5869 34.5921 30.5386C34.6406 30.5869 34.7378 30.5869 34.7864 30.5869C34.8836 30.6352 34.8836 30.6352 34.9322 30.6834H34.9808C35.0293 30.6834 35.0779 30.6834 35.0779 30.6352C35.0779 30.5869 35.0779 30.5386 35.0294 30.5386C34.8836 30.4421 34.6892 30.3938 34.5435 30.2973C34.4949 30.2973 34.4949 30.249 34.4949 30.249L34.4463 30.2007C34.4463 30.2007 34.4463 30.1524 34.4949 30.1524H34.5435H34.5921C34.7378 30.2007 34.835 30.249 34.9322 30.3455C35.1751 30.4904 35.3695 30.5386 35.661 30.5869C35.9525 30.5869 36.2441 30.5386 36.5356 30.4421C36.5842 30.4421 36.6328 30.3938 36.6814 30.3938C36.7785 30.3455 36.8757 30.2973 36.9729 30.249C37.0701 30.249 37.0215 30.1042 36.9243 30.1524C36.5842 30.1524 36.2441 30.0559 35.9525 29.8628L35.8068 29.7663L35.5152 29.4283L35.0294 28.9456C34.8836 28.7525 34.6892 28.5111 34.5435 28.2698C34.4949 28.1732 34.4463 28.125 34.3977 28.0284H34.4463C34.6892 28.318 34.9322 28.6077 35.2237 28.8973L35.3695 29.0421L35.8554 29.4766C37.0215 30.2973 39.3052 29.8628 39.3052 29.8628C39.3052 29.8628 40.2283 29.718 40.2769 29.718H40.3255H40.4227C40.4713 29.718 40.4713 29.6697 40.4713 29.6697C40.4713 29.6214 40.4713 29.6214 40.4227 29.6214L40.3255 29.5732C40.1312 29.5249 39.9854 29.4766 39.8396 29.4283L39.5967 29.3318C38.965 29.0422 38.382 28.7042 37.8475 28.2215C37.6046 28.0284 37.4102 27.7388 37.1673 27.4974L37.0701 27.4009C37.0701 27.4009 37.0701 27.3526 37.1187 27.3526L37.7017 27.9319C38.3334 28.6077 39.1108 29.0422 40.034 29.3318C40.1798 29.3801 40.5199 29.4766 40.8114 29.5732C40.9572 29.6214 41.0544 29.6214 41.2001 29.5732C41.3459 29.5732 41.4431 29.5732 41.5888 29.5732L41.7832 29.5249H41.8318V29.4766C41.8804 29.3801 41.9775 29.3318 42.0747 29.3318C42.2691 29.2835 42.512 29.2835 42.755 29.2835H42.9007C42.9493 29.2835 42.9493 29.2352 42.9007 29.2352C42.9979 29.2352 43.1437 29.2352 43.2408 29.2352H43.4352C43.5324 29.2352 43.6781 29.2352 43.7753 29.2352C43.8239 29.2352 43.8725 29.187 43.8725 29.187H43.9211C43.9211 29.187 43.9211 29.187 43.9211 29.1387V29.0904C43.8239 29.0904 43.7267 29.0904 43.6296 29.0421H43.3866C43.1437 28.9939 42.9493 28.9456 42.7064 28.8973C42.3177 28.8008 41.929 28.7042 41.5888 28.5594L41.2973 28.4629C41.1515 28.3663 41.0058 28.3181 40.86 28.2215C40.5685 28.0767 40.3255 27.8836 40.0826 27.6905L40.034 27.6422C40.034 27.594 40.034 27.5939 40.034 27.5457H40.0826H40.1312L40.4713 27.787C41.0058 28.0767 41.5888 28.2698 42.2205 28.3663C42.512 28.4629 42.8035 28.5111 43.0951 28.6077C43.338 28.656 43.581 28.656 43.7753 28.6077C43.8725 28.6077 44.0183 28.5594 44.1154 28.5594C44.164 28.5594 44.2126 28.5594 44.2612 28.5111H44.3098V28.4629V28.4146C44.4556 28.3663 44.6499 28.318 44.7957 28.2698C44.8929 28.1732 44.99 28.0767 45.1358 28.0284C45.233 28.0284 45.3302 27.9801 45.4273 27.9319H45.5245H45.5731L45.816 27.8353C45.816 27.8353 45.816 27.8353 45.816 27.787C45.816 27.7388 45.816 27.7388 45.816 27.7388L45.5731 27.6422H45.5245L45.4273 27.6905C45.1358 27.6905 44.8443 27.6905 44.5527 27.5457L44.3584 27.4974L44.2126 27.4491L43.6781 27.1595C43.3866 27.0147 43.1437 26.8698 42.9979 26.8216V26.7733V26.725H43.0465C43.6781 27.0147 44.3098 27.256 45.0386 27.3526L45.816 27.5457C45.816 27.5457 46.3991 27.6422 47.1765 27.8836C47.711 28.0284 48.1969 28.2215 48.6828 28.4146C48.78 28.4629 48.9257 28.5111 49.0229 28.5111L49.2173 28.5594V28.5111C49.1201 28.4629 49.0229 28.4146 48.9743 28.3663C48.9257 28.3181 48.9257 28.318 48.8771 28.2698C48.8286 28.2698 48.8286 28.2215 48.8286 28.2215C48.8286 28.2215 48.7314 28.2215 48.7314 28.1732L48.6828 28.125L48.6342 28.0767L48.537 28.0284L48.3913 27.9319H48.4398C48.4884 27.9801 48.5856 27.9801 48.6342 28.0284C48.78 28.0767 48.9257 28.125 49.0715 28.1732H49.2173C49.1201 28.125 49.0229 28.125 48.9743 28.0767C48.9257 28.0767 48.8771 28.0284 48.8286 27.9801L48.3427 27.787C47.5652 27.4974 46.7392 27.1595 46.0104 26.7733C45.3787 26.3388 44.7957 25.8561 44.2612 25.3251L44.1154 25.2286L44.0669 25.1803C44.0669 25.132 44.0669 25.132 44.1154 25.0837L44.164 25.0355C44.2126 25.0355 44.2126 25.0355 44.2612 25.0837C44.8443 25.4699 45.3788 25.9044 45.9618 26.2423C46.2048 26.3871 46.4477 26.4354 46.6421 26.5319C47.1765 26.7733 47.6624 26.9181 48.2455 27.0629C48.3427 27.0629 48.4398 27.1112 48.5856 27.1112C48.6342 27.1112 48.7314 27.0629 48.78 27.1112H48.8286L49.1687 26.9181L49.5574 26.6768L49.6546 26.5802L49.606 26.5319C49.8003 26.5319 49.9461 26.4837 50.0919 26.3871V26.3388L50.0433 26.2906C49.8975 26.2906 49.8003 26.2906 49.6546 26.2423C49.5574 26.2423 49.4602 26.194 49.363 26.1457L49.0715 26.0492C48.3427 25.8078 47.6624 25.4699 47.0308 24.9872C46.885 24.8906 46.7878 24.7941 46.6906 24.6975C46.6906 24.6975 46.6906 24.6975 46.6906 24.6493C46.6906 24.6493 46.6906 24.6493 46.7392 24.6493C46.885 24.7458 47.0308 24.8424 47.1765 24.9389C47.5652 25.1803 47.954 25.3251 48.3427 25.5665C48.4398 25.6147 48.6342 25.663 48.7314 25.7113L48.8286 25.7596C49.1201 25.8561 49.4602 25.9527 49.7517 25.9527C50.0919 25.9527 50.3834 25.9527 50.7235 25.8561C50.9179 25.7113 51.1608 25.6147 51.4038 25.5665C51.5981 25.5182 51.7439 25.4699 51.9382 25.4699L52.1326 25.2768H52.1812H52.91L52.8614 25.2286C52.8614 25.1803 52.8128 25.1803 52.8614 25.132C52.8614 25.0837 52.91 25.0837 52.91 25.0355L53.0072 24.9389H53.0558C53.1044 24.9389 53.1529 24.8906 53.2015 24.8906C53.3473 24.8906 53.6874 24.7458 53.8332 24.7458C53.979 24.7458 54.6592 24.4079 54.7564 24.4079C54.9507 24.3596 55.0965 24.3114 55.2909 24.2631L55.4366 24.2148C55.5338 24.2148 55.631 24.1665 55.7282 24.1183C55.7767 24.1183 55.7767 24.07 55.7767 24.07C55.7767 24.0217 55.7767 24.0217 55.7767 23.9734L55.7282 23.9252H55.5338V23.8769C55.631 23.8286 55.7767 23.7804 55.8739 23.7804C55.9711 23.7804 56.0683 23.6355 56.1655 23.6355L56.3112 23.5873H56.214L56.3598 23.4907L56.7485 23.3459L57.2344 23.1045L57.6231 22.8632L58.3519 22.3321L58.5463 22.1873L59.3723 21.5598C59.4209 21.5598 59.4209 21.5115 59.4695 21.5115C59.7124 21.3667 59.9554 21.3184 60.1983 21.2701C60.2469 21.2701 60.2955 21.2219 60.2955 21.2219C60.3441 21.2219 60.4413 21.2219 60.4898 21.2219C60.5384 21.2219 60.6356 21.2219 60.6842 21.2219L60.8786 21.2701H60.9757H61.1215H61.2673C61.3644 21.2701 61.413 21.2219 61.5102 21.2219C61.5588 21.2219 61.5588 21.1736 61.6074 21.1736L61.656 21.1253L61.8503 20.9322L61.9961 20.6426L62.0447 20.5943C62.0933 20.546 62.1419 20.546 62.1419 20.4978L62.1905 20.4495C62.239 20.4012 62.2876 20.4012 62.3848 20.4012C62.4334 20.4012 62.482 20.4495 62.5306 20.4978C62.5792 20.546 62.5792 20.4978 62.5792 20.4495C62.5306 20.4012 62.482 20.3047 62.3848 20.3047C62.3362 20.2564 62.239 20.2564 62.1419 20.2564H61.656H61.6074V20.2081C61.6074 20.1598 61.6074 20.1598 61.656 20.1598H61.7532L61.9961 20.1116C62.2876 20.0633 62.5306 19.9667 62.7249 19.7737L62.7735 19.7254L63.2108 19.2426L63.5509 18.8082C63.5509 18.7599 63.5509 18.7599 63.5995 18.7599C63.7453 18.6151 63.8911 18.4703 64.0368 18.2772C64.134 18.2289 64.2312 18.1806 64.2798 18.1806C64.3284 18.1806 64.3769 18.1324 64.3769 18.0841C64.5227 17.9393 64.6685 17.8427 64.8143 17.7462L64.96 17.6496C65.0086 17.6496 65.0086 17.6014 65.0572 17.6014C65.203 17.5048 65.3973 17.4083 65.5431 17.3117L65.6403 17.2634C65.6888 17.2152 65.7374 17.2152 65.786 17.2152C66.029 17.1669 66.2719 17.1669 66.5149 17.2152L66.9036 17.3117H66.9522C67.0493 17.36 67.1465 17.4083 67.2437 17.4083H67.2923C67.3409 17.4083 67.3409 17.4083 67.3894 17.4083H67.4866H67.5352C67.6324 17.36 67.438 17.2634 67.3894 17.2634L67.1951 17.1669L66.612 16.9255C66.612 16.9255 66.5634 16.8773 66.5634 16.829C66.5634 16.7807 66.5634 16.7807 66.5634 16.7324C66.5634 16.6842 66.612 16.6842 66.612 16.6842C66.612 16.6842 66.6606 16.6359 66.7092 16.6359C66.855 16.5876 67.0007 16.5876 67.1465 16.5393C67.1951 16.5393 67.1951 16.4911 67.1951 16.4911C67.1951 16.4428 67.1951 16.4428 67.1951 16.3945C67.1951 16.3462 67.1465 16.3462 67.0979 16.3462H67.1951C67.1951 16.3462 67.0979 16.3462 67.0979 16.298C67.0979 16.2497 67.1465 16.2014 67.1465 16.2014H67.1951L67.3409 16.1531H67.3894C67.681 16.0566 67.9725 15.9601 68.2155 15.8152L68.8957 15.3325L68.9929 15.236L69.0901 15.1394L72.1026 12.9671L72.1997 12.9188C72.1997 12.9188 72.2483 12.9188 72.2483 12.8706V12.8223H72.1997H72.1026C72.1026 12.8223 72.054 12.8223 72.054 12.774V12.7257C72.1026 12.6775 72.1511 12.6292 72.1997 12.6292L72.6856 12.2913L73.1715 12.0499L73.3173 11.9534H73.3659L73.6088 11.8085L74.0947 11.4706H74.1433L74.4348 11.2293L74.4834 11.181V11.1327H74.4348C74.4348 11.1327 74.532 11.0844 74.4834 11.0844C74.4834 11.0844 74.4348 11.0844 74.4348 11.0362C74.4348 11.0362 74.4348 10.9879 74.4834 10.9879L74.6292 10.9396H74.6778L74.8235 10.8913H74.6778C74.8721 10.8431 75.0179 10.7465 75.1636 10.65V10.6017C75.3094 10.5052 75.4066 10.3603 75.5524 10.2155L75.6495 10.0224V9.97415C75.6495 9.97415 75.6495 9.97415 75.6495 9.92588C75.6009 9.92588 75.5038 9.92588 75.4552 9.92588H75.5524C75.6495 9.8776 75.7953 9.82933 75.8439 9.73278C75.8439 9.73278 75.9897 9.53969 75.8439 9.53969H75.7467H75.6981C75.7953 9.49142 75.8439 9.44314 75.8925 9.39487C75.8439 9.39487 75.8439 9.39487 75.7953 9.44314C75.8925 9.3466 75.9411 9.25005 76.0382 9.1535V9.10523H75.9411C75.9411 9.05696 75.9897 9.00868 76.0382 8.96041H75.9897L76.0382 8.91214C76.0868 8.81559 76.1354 8.76732 76.2812 8.71904C76.427 8.71904 76.5241 8.67077 76.6213 8.57422C76.6213 8.57422 76.6213 8.57422 76.6699 8.52595V8.47767C76.7185 8.38113 76.7671 8.28458 76.7671 8.18804C76.7671 8.38113 76.7185 8.28458 76.6699 8.18804Z" fill="white"/>
</g>
</g>
<defs>
<clipPath id="clip0_1_2832">
<rect width="89" height="59" fill="white"/>
</clipPath>
</defs>
</svg>
