<svg width="124" height="32" viewBox="0 0 124 32" fill="none" xmlns="http://www.w3.org/2000/svg">
<g clip-path="url(#clip0_1_2799)">
<path d="M94.02 16.3578C94.02 16.3578 94.7938 18.8423 98.0674 18.5441C101.321 18.246 105.924 17.292 118.264 4.39258C118.264 4.39258 111.261 13.7541 106.36 17.5305C102.512 20.492 99.7141 22.1615 96.2619 21.3864C92.8693 20.6112 94.02 16.3578 94.02 16.3578Z" fill="white"/>
<path d="M113.204 21.2677C113.204 21.2677 112.173 21.228 111.935 19.9361C111.697 18.6441 111.875 16.3385 115.546 10.2168C115.546 10.2168 111.637 14.3708 110.705 16.6764C109.97 18.4652 109.613 19.7373 110.288 20.9895C110.943 22.2019 113.204 21.2677 113.204 21.2677Z" fill="white"/>
<path d="M39.7418 31.205C38.7102 31.6622 37.0833 31.8808 35.873 31.8808C32.8177 31.8808 30.4766 30.8671 30.4766 28.6013C30.4766 25.6994 33.8692 23.7715 37.9959 23.7715C39.2855 23.7715 40.5156 23.9504 41.5274 24.3081L40.4561 25.6994C40.0394 25.5007 39.3252 25.3019 38.611 25.3019C36.0714 25.3019 34.9009 26.9914 34.9009 28.482C34.9009 29.5355 35.7143 30.3305 37.3214 30.3305C37.9562 30.3305 38.7102 30.1516 39.1665 29.9529L39.7418 31.205Z" fill="white"/>
<path d="M47.6371 31.722L46.1094 27.7071L50.2956 23.9307H53.9065L49.9385 27.1505L52.1209 31.722H47.6371Z" fill="white"/>
<path d="M81.0466 30.5294C83.467 30.5294 84.3003 27.7667 84.3003 26.5145C84.3003 25.5605 83.7051 25.1033 82.6536 25.1033L82.0783 25.1232L80.1935 30.1717C80.0943 30.4698 80.5307 30.5294 80.7688 30.5294H81.0466ZM75.293 31.7418L78.1698 23.9505L83.8639 23.9307C86.7803 23.9307 88.6651 24.8052 88.6651 26.7729C88.6651 29.8735 85.3122 32.0002 80.5903 31.722H75.293V31.7418Z" fill="white"/>
<path d="M99.6756 23.9307L94.8346 28.999L93.8029 31.722H89.6167L90.5889 28.999L88.6445 23.9307H93.1085L93.922 27.1704L96.8781 23.9307H99.6756Z" fill="white"/>
<path d="M103.265 27.4288L101.678 31.722H97.5117L100.408 23.9307H104.753L106.737 28.1841L108.325 23.9307H111.439L108.543 31.722H105.329L103.265 27.4288Z" fill="white"/>
<path d="M20.2136 28.4025C20.1739 31.046 25.6101 30.8273 25.6696 26.9317C25.6101 24.6062 20.2533 24.8845 20.2136 28.4025ZM15.9678 28.4422C15.8488 27.528 17.2178 23.8907 24.2213 23.8311C28.8638 23.8907 29.9154 26.2758 29.9154 27.2497C29.9352 30.2708 24.995 31.9404 21.9397 31.7615C17.4558 31.7019 15.948 29.8534 15.9678 28.4422Z" fill="white"/>
<path d="M4.06641 19.2198L13.9269 10.3154H18.3512L21.1288 19.2198H16.4069C16.0101 17.0533 15.395 14.9862 15.2363 12.7204L8.88753 19.2198H4.06641Z" fill="white"/>
<path d="M0.15625 15.4437L14.9966 17.3915L19.9367 15.4238L14.9172 18.1667L0.15625 15.4437Z" fill="white"/>
<path d="M123.86 0.199219L117.154 7.37438L111.539 8.32841H117.372L123.86 0.199219Z" fill="white"/>
<path d="M22.6953 19.2198L25.5324 11.6074H33.8057L33.3296 12.9391H29.1433L28.5283 14.6087H32.5756L32.0995 15.9205H28.0323L27.2982 17.9279H32.2582L31.8019 19.2198H22.6953Z" fill="white"/>
<path d="M69.5 19.2198L72.3371 11.6074H80.5906L80.1342 12.9391H75.948L75.333 14.6087H79.3803L78.9042 15.9205H74.837L74.1029 17.9478H79.0629L78.6264 19.2198H69.5Z" fill="white"/>
<path d="M33.9297 19.2198L36.7668 11.6074H43.1354C48.4922 11.8062 48.1748 15.0261 43.9092 15.841L46.3098 19.2198H41.8062L39.6238 15.0459H41.0721C42.4807 15.0658 44.3655 13.4559 41.7268 12.9192H40.3777L38.0564 19.2397H33.9297V19.2198Z" fill="white"/>
<path d="M0.636719 31.742L3.96984 22.7383H11.509C17.838 22.9768 17.461 26.7731 12.4217 27.747L15.2588 31.742H9.94168L7.36248 26.7929H9.06872C10.7353 26.8128 12.9574 24.9246 9.84248 24.2687H8.23544L5.49752 31.7221L0.636719 31.742Z" fill="white"/>
<path d="M52.3381 16.0203C52.2984 18.6439 57.6949 18.4253 57.7544 14.5694C57.6949 12.2439 52.3777 12.5023 52.3381 16.0203ZM48.132 16.0402C48.0129 15.1458 49.3621 11.5284 56.3259 11.4688C60.9288 11.5284 61.9803 13.8936 61.9803 14.8476C62.0001 17.8489 57.0997 19.4986 54.0641 19.3396C49.6001 19.2799 48.0923 17.4315 48.132 16.0402Z" fill="white"/>
<path d="M65.5727 11.6074H69.6399L67.2194 18.0869C66.525 19.9155 64.045 21.3068 60.6523 21.267L61.1285 19.9751C62.1007 19.7167 62.5967 19.4584 63.0927 18.1863L65.5727 11.6074Z" fill="white"/>
<path d="M81.8789 12.9192L82.3551 11.6074H94.3186L93.8424 12.9192H89.8943L87.5531 19.2198H83.4859L85.8271 12.9192H81.8789Z" fill="white"/>
<path d="M52.9141 31.722L55.8107 23.9307H64.2824L63.8062 25.2822H59.5009L58.8859 27.0114H63.0325L62.5365 28.3431H58.3701L57.636 30.4102H62.715L62.2587 31.722H52.9141Z" fill="white"/>
<path d="M109.852 31.722L112.748 23.9307H121.22L120.744 25.2822H116.458L115.823 27.0114H119.97L119.474 28.3431H115.308L114.573 30.4102H119.653L119.196 31.722H109.852Z" fill="white"/>
<path d="M44.6201 31.722H40.4141L43.3107 23.9307H47.4969L44.6201 31.722Z" fill="white"/>
<path d="M64.6406 25.2819L65.1168 23.9502H77.3382L76.8422 25.3017H72.8147L70.4141 31.7216H66.2675L68.6681 25.2819H64.6406Z" fill="white"/>
<path d="M0.140625 15.4434H19.9013L14.9214 17.4111L0.140625 15.4434Z" fill="white"/>
<path d="M123.86 0.198588V0.178711L111.539 8.3079L117.134 7.75138L123.86 0.198588Z" fill="white"/>
</g>
<defs>
<clipPath id="clip0_1_2799">
<rect width="124" height="32" fill="white"/>
</clipPath>
</defs>
</svg>
