<svg width="53" height="53" viewBox="0 0 53 53" fill="none" xmlns="http://www.w3.org/2000/svg">
<path d="M27.6717 48H37C35.5721 47.2335 35.0649 45.2029 34.9849 43.2529C34.0641 34.4446 29.1931 27.5863 28.0053 25.8112C33.5436 22.4627 35.9858 17.3391 35.9858 12.6054C35.9858 4.72504 29.0996 1 23.1343 1H7.4137C8.00089 1.84721 8.42794 2.1834 8.42794 4.13333V44.275C8.42794 46.2249 7.58719 47.1528 7 48H14.1397C13.5525 47.1528 12.7117 46.2249 12.7117 44.275V29.5362C17.5294 29.4555 21.5463 28.6621 24.7758 27.3711C29.6868 32.683 30.274 40.3886 30.3674 42.4999C30.4342 44.6112 29.3532 46.4804 27.6717 48ZM12.7117 25.9053V3.79714H21.96C28.3523 3.79714 30.4475 7.85837 30.3674 12.1751C29.9404 24.1167 18.1699 25.9053 12.7117 25.9053Z" fill="white"/>
<path d="M21.745 34.5651C23.9732 34.5248 26.1074 34.3503 28 34.028C27.745 33.1687 26.8188 31.3158 26.349 30.5371C24.6175 30.8325 23.0201 30.9264 21.745 30.9264V30C21.1544 30.2148 18.5369 30.5908 17.4362 30.725V49.2808C17.4362 51.2277 16.5906 52.1541 16 53H23.1812C22.5906 52.1541 21.745 51.2277 21.745 49.2808V34.5651Z" fill="white"/>
<path d="M29 8.78899H21.3537V23.9005C20.3828 24.2357 18.4274 24.8659 17.0249 25V9.12421C17.0249 7.17996 16.6068 6.84474 16 6H26.5726C27.4357 6.50953 28.5819 7.72971 29 8.78899Z" fill="white"/>
<path d="M37.3477 10.9988C38.6725 12.561 39.1831 14.6529 39.1279 16.8127C38.8933 23.3465 35.2088 26.8647 31 28.7257C31.621 29.6494 32.3937 31.3881 32.8767 32.339C33.0009 32.2983 33.3735 32.1624 33.4839 32.1217C38.5621 37.4873 39.0451 45.3116 39.1279 47.4442C39.2107 49.5769 38.0791 51.465 36.3542 53H46C44.5235 52.2257 43.9991 50.1746 43.9163 48.2049C42.9641 39.3075 37.9273 32.3798 36.6992 30.5867C42.4259 27.2043 44.9512 22.0289 44.9512 17.2474C44.9512 10.9717 40.3836 7.26329 35.4848 6C35.885 6.62486 36.9614 8.73035 37.3477 10.9988Z" fill="white"/>
</svg>
