<svg width="81" height="64" viewBox="0 0 81 64" fill="none" xmlns="http://www.w3.org/2000/svg">
<path d="M30.7797 55.5928L41.6819 55.676H52.9181C62.2287 51.4566 68.76 42.0098 68.76 31.1039C68.76 16.2733 56.6992 4.16504 41.9558 4.16504C27.1758 4.16504 15.1094 16.2733 15.1094 31.1039C15.1094 41.9519 21.5364 51.3522 30.7797 55.593V55.5928Z" stroke="#221815" stroke-width="0.428764"/>
<path d="M20.5597 18.5537V14.8643C19.6847 16.0309 18.902 17.2645 18.2188 18.5537H20.5597Z" fill="white"/>
<path d="M20.5597 18.5537V14.8643C19.6847 16.0309 18.902 17.2645 18.2188 18.5537H20.5597Z" stroke="#221815" stroke-width="0.432113"/>
<path d="M60.594 11.7988V14.4476H62.9803C62.2435 13.513 61.4466 12.6282 60.594 11.7988Z" fill="white"/>
<path d="M60.594 11.7988V14.4476H62.9803C62.2435 13.513 61.4466 12.6282 60.594 11.7988Z" stroke="#221815" stroke-width="0.432113"/>
<path d="M47.2617 4.70144V6.21292H49.8686V5.37363C49.013 5.10029 48.1426 4.87605 47.2617 4.70144Z" fill="white"/>
<path d="M47.2578 4.70047V6.21194H49.8647V5.37265C49.0091 5.09932 48.1387 4.87507 47.2578 4.70047Z" stroke="#221815" stroke-width="0.432113"/>
<path d="M25.8744 18.5539H23.2734V14.4121H25.8747L25.8744 18.5539Z" fill="white" stroke="#221815" stroke-width="0.431885"/>
<path d="M25.8744 22.6855H23.2734V18.5518H25.8747L25.8744 22.6855Z" fill="white" stroke="#221815" stroke-width="0.431885"/>
<path d="M25.8744 26.7903H23.2734V22.6484H25.8747L25.8744 26.7903ZM25.8744 30.9237H23.2734V26.7903H25.8744V30.9237Z" fill="white"/>
<path d="M25.8744 26.7903H23.2734M25.8744 26.7903L25.8747 22.6484H23.2734V26.7903M25.8744 26.7903V30.9237H23.2734V26.7903" stroke="#221815" stroke-width="0.431885"/>
<path d="M25.8744 35.0211H23.2734V30.8906H25.8747L25.8744 35.0211ZM25.8744 39.1632H23.2734V35.0211H25.8744V39.1632Z" fill="white"/>
<path d="M25.8744 35.0211H23.2734M25.8744 35.0211L25.8747 30.8906H23.2734V35.0211M25.8744 35.0211V39.1632H23.2734V35.0211" stroke="#221815" stroke-width="0.431885"/>
<path d="M25.8744 43.2595H23.2734V39.123H25.8747L25.8744 43.2595Z" fill="white" stroke="#221815" stroke-width="0.431885"/>
<path d="M25.8778 47.3671H23.2769V43.2212H25.8781L25.8778 47.3671ZM23.2022 22.6855H20.6094V18.5518H23.2022V22.6855Z" fill="white" stroke="#221815" stroke-width="0.431885"/>
<path d="M23.2022 26.7903H20.6094V22.6484H23.2022V26.7903ZM23.2022 30.9237H20.6094V26.7903H23.2022V30.9237Z" fill="white"/>
<path d="M23.2022 26.7903H20.6094M23.2022 26.7903V22.6484H20.6094V26.7903M23.2022 26.7903V30.9237H20.6094V26.7903" stroke="#221815" stroke-width="0.431885"/>
<path d="M23.2022 35.0211H20.6094V30.8906H23.2022V35.0211ZM23.2022 39.1632H20.6094V35.0211H23.2022V39.1632Z" fill="white"/>
<path d="M23.2022 35.0211H20.6094M23.2022 35.0211V30.8906H20.6094V35.0211M23.2022 35.0211V39.1632H20.6094V35.0211" stroke="#221815" stroke-width="0.431885"/>
<path d="M23.2022 43.2595H20.6094V39.123H23.2022V43.2595Z" fill="white" stroke="#221815" stroke-width="0.431885"/>
<path d="M23.1988 47.3669H20.6059V43.221H23.1988V47.3669ZM20.5609 26.7903H17.957V22.6484H20.5609V26.7903ZM20.5609 30.9237H17.957V26.7903H20.5609V30.9237Z" fill="white"/>
<path d="M20.5609 26.7903H17.957M20.5609 26.7903V22.6484H17.957V26.7903M20.5609 26.7903V30.9237H17.957V26.7903M23.1988 47.3669H20.6059V43.221H23.1988V47.3669Z" stroke="#221815" stroke-width="0.431885"/>
<path d="M20.5609 35.0208H17.957V30.8904H20.5609V35.0208ZM20.5609 39.1629H17.957V35.0208H20.5609V39.1629ZM28.5472 14.4469H25.9503V10.3135H28.5472V14.4469Z" fill="white"/>
<path d="M20.5609 35.0208H17.957M20.5609 35.0208V30.8904H17.957V35.0208M20.5609 35.0208V39.1629H17.957V35.0208M28.5472 14.4469H25.9503V10.3135H28.5472V14.4469Z" stroke="#221815" stroke-width="0.431885"/>
<path d="M28.5461 18.5539H25.9492V14.4121H28.5461V18.5539Z" fill="white" stroke="#221815" stroke-width="0.431885"/>
<path d="M28.5461 22.6855H25.9492V18.5518H28.5461V22.6855Z" fill="white" stroke="#221815" stroke-width="0.431885"/>
<path d="M28.5461 26.7903H25.9492V22.6484H28.5461V26.7903ZM28.5461 30.9237H25.9492V26.7903H28.5461V30.9237Z" fill="white"/>
<path d="M28.5461 26.7903H25.9492M28.5461 26.7903V22.6484H25.9492V26.7903M28.5461 26.7903V30.9237H25.9492V26.7903" stroke="#221815" stroke-width="0.431885"/>
<path d="M28.5461 35.0211H25.9492V30.8906H28.5461V35.0211ZM28.5461 39.1632H25.9492V35.0211H28.5461V39.1632Z" fill="white"/>
<path d="M28.5461 35.0211H25.9492M28.5461 35.0211V30.8906H25.9492V35.0211M28.5461 35.0211V39.1632H25.9492V35.0211" stroke="#221815" stroke-width="0.431885"/>
<path d="M28.5461 43.2595H25.9492V39.123H28.5461V43.2595Z" fill="white" stroke="#221815" stroke-width="0.431885"/>
<path d="M28.5461 47.3676H25.9492V43.2217H28.5461V47.3676ZM28.5461 51.5013H25.9492V47.3676H28.5461V51.5013Z" fill="white"/>
<path d="M28.5461 47.3676H25.9492M28.5461 47.3676V43.2217H25.9492V47.3676M28.5461 47.3676V51.5013H25.9492V47.3676" stroke="#221815" stroke-width="0.431885"/>
<path d="M31.2226 14.4469H28.6211V10.3135H31.2223L31.2226 14.4469Z" fill="#221815" stroke="#221815" stroke-width="0.431885"/>
<path d="M31.2226 18.5539H28.6211V14.4121H31.2223L31.2226 18.5539Z" fill="white" stroke="#221815" stroke-width="0.431885"/>
<path d="M31.2226 22.6855H28.6211V18.5518H31.2223L31.2226 22.6855Z" fill="white" stroke="#221815" stroke-width="0.431885"/>
<path d="M31.2226 26.7903H28.6211V22.6484H31.2223L31.2226 26.7903ZM31.2226 30.9237H28.6211V26.7903H31.2226V30.9237Z" fill="white"/>
<path d="M31.2226 26.7903H28.6211M31.2226 26.7903L31.2223 22.6484H28.6211V26.7903M31.2226 26.7903V30.9237H28.6211V26.7903" stroke="#221815" stroke-width="0.431885"/>
<path d="M31.2226 35.0211H28.6211V30.8906H31.2223L31.2226 35.0211ZM31.2226 39.1632H28.6211V35.0211H31.2226V39.1632Z" fill="white"/>
<path d="M31.2226 35.0211H28.6211M31.2226 35.0211L31.2223 30.8906H28.6211V35.0211M31.2226 35.0211V39.1632H28.6211V35.0211" stroke="#221815" stroke-width="0.431885"/>
<path d="M31.2226 43.2595H28.6211V39.123H31.2223L31.2226 43.2595Z" fill="white" stroke="#221815" stroke-width="0.431885"/>
<path d="M31.2226 47.3676H28.6211V43.2217H31.2223L31.2226 47.3676Z" fill="white" stroke="#221815" stroke-width="0.431885"/>
<path d="M31.2226 51.5009H28.6211V47.3672H31.2223L31.2226 51.5009Z" fill="#221815" stroke="#221815" stroke-width="0.431885"/>
<path d="M33.8524 14.4469H31.2539V10.3135H33.8524V14.4469Z" fill="white" stroke="#221815" stroke-width="0.431885"/>
<path d="M33.8524 18.5539H31.2539V14.4121H33.8524V18.5539Z" fill="#221815" stroke="#221815" stroke-width="0.431885"/>
<path d="M33.8524 22.6855H31.2539V18.5518H33.8524V22.6855Z" fill="white" stroke="#221815" stroke-width="0.431885"/>
<path d="M33.8524 26.7903H31.2539V22.6484H33.8524V26.7903ZM33.8524 30.9237H31.2539V26.7903H33.8524V30.9237Z" fill="white"/>
<path d="M33.8524 26.7903H31.2539M33.8524 26.7903V22.6484H31.2539V26.7903M33.8524 26.7903V30.9237H31.2539V26.7903" stroke="#221815" stroke-width="0.431885"/>
<path d="M33.8524 35.0211H31.2539V30.8906H33.8524V35.0211ZM33.8524 39.1632H31.2539V35.0211H33.8524V39.1632Z" fill="white"/>
<path d="M33.8524 35.0211H31.2539M33.8524 35.0211V30.8906H31.2539V35.0211M33.8524 35.0211V39.1632H31.2539V35.0211" stroke="#221815" stroke-width="0.431885"/>
<path d="M33.8524 43.2595H31.2539V39.123H33.8524V43.2595Z" fill="white" stroke="#221815" stroke-width="0.431885"/>
<path d="M33.8524 47.3676H31.2539V43.2217H33.8524V47.3676Z" fill="#221815" stroke="#221815" stroke-width="0.431885"/>
<path d="M33.8524 51.5009H31.2539V47.3672H33.8524V51.5009Z" fill="white" stroke="#221815" stroke-width="0.431885"/>
<path d="M33.8524 55.5922H31.2539V51.4561H33.8524V55.5922Z" fill="#221815" stroke="#221815" stroke-width="0.431885"/>
<path d="M36.5339 14.4469H33.9297V10.3135H36.5339V14.4469Z" fill="white" stroke="#221815" stroke-width="0.431885"/>
<path d="M36.5339 10.3151H33.9297V6.17871H36.5339V10.3151ZM36.5339 18.5536H33.9297V14.4118H36.5339V18.5536Z" fill="white" stroke="#221815" stroke-width="0.431885"/>
<path d="M36.5339 22.6855H33.9297V18.5518H36.5339V22.6855Z" fill="white" stroke="#221815" stroke-width="0.431885"/>
<path d="M36.5339 26.7903H33.9297V22.6484H36.5339V26.7903ZM36.5339 30.9237H33.9297V26.7903H36.5339V30.9237Z" fill="white"/>
<path d="M36.5339 26.7903H33.9297M36.5339 26.7903V22.6484H33.9297V26.7903M36.5339 26.7903V30.9237H33.9297V26.7903" stroke="#221815" stroke-width="0.431885"/>
<path d="M36.5339 35.0211H33.9297V30.8906H36.5339V35.0211ZM36.5339 39.1632H33.9297V35.0211H36.5339V39.1632Z" fill="white"/>
<path d="M36.5339 35.0211H33.9297M36.5339 35.0211V30.8906H33.9297V35.0211M36.5339 35.0211V39.1632H33.9297V35.0211" stroke="#221815" stroke-width="0.431885"/>
<path d="M36.5339 43.2595H33.9297V39.123H36.5339V43.2595Z" fill="white" stroke="#221815" stroke-width="0.431885"/>
<path d="M36.5339 47.3676H33.9297V43.2217H36.5339V47.3676Z" fill="white" stroke="#221815" stroke-width="0.431885"/>
<path d="M36.5339 51.5009H33.9297V47.3672H36.5339V51.5009Z" fill="#221815" stroke="#221815" stroke-width="0.431885"/>
<path d="M36.5339 55.592H33.9297V51.4559H36.5339V55.592ZM39.2038 14.4469H36.6053V10.3135H39.2038V14.4469Z" fill="white" stroke="#221815" stroke-width="0.431885"/>
<path d="M39.2001 10.3151H36.6016V6.17871H39.2001V10.3151ZM39.2001 18.5536H36.6016V14.4118H39.2001V18.5536Z" fill="white" stroke="#221815" stroke-width="0.431885"/>
<path d="M39.2001 22.6855H36.6016V18.5518H39.2001V22.6855Z" fill="white" stroke="#221815" stroke-width="0.431885"/>
<path d="M39.2001 26.7903H36.6016V22.6484H39.2001V26.7903ZM39.2001 30.9237H36.6016V26.7903H39.2001V30.9237Z" fill="white"/>
<path d="M39.2001 26.7903H36.6016M39.2001 26.7903V22.6484H36.6016V26.7903M39.2001 26.7903V30.9237H36.6016V26.7903" stroke="#221815" stroke-width="0.431885"/>
<path d="M39.2001 35.0211H36.6016V30.8906H39.2001V35.0211ZM39.2001 39.1632H36.6016V35.0211H39.2001V39.1632Z" fill="white"/>
<path d="M39.2001 35.0211H36.6016M39.2001 35.0211V30.8906H36.6016V35.0211M39.2001 35.0211V39.1632H36.6016V35.0211" stroke="#221815" stroke-width="0.431885"/>
<path d="M39.2001 43.2595H36.6016V39.123H39.2001V43.2595Z" fill="white" stroke="#221815" stroke-width="0.431885"/>
<path d="M39.2001 47.3676H36.6016V43.2217H39.2001V47.3676ZM39.2001 51.5013H36.6016V47.3676H39.2001V51.5013Z" fill="white"/>
<path d="M39.2001 47.3676H36.6016M39.2001 47.3676V43.2217H36.6016V47.3676M39.2001 47.3676V51.5013H36.6016V47.3676" stroke="#221815" stroke-width="0.431885"/>
<path d="M39.2001 55.592H36.6016V51.4559H39.2001V55.592ZM41.88 14.4469H39.2774V10.3135H41.88V14.4469Z" fill="white" stroke="#221815" stroke-width="0.431885"/>
<path d="M41.8838 10.3151H39.2812V6.17871H41.8838V10.3151Z" fill="#221815" stroke="#221815" stroke-width="0.431885"/>
<path d="M41.8838 18.5539H39.2812V14.4121H41.8838V18.5539Z" fill="white" stroke="#221815" stroke-width="0.431885"/>
<path d="M41.8838 22.6855H39.2812V18.5518H41.8838V22.6855Z" fill="white" stroke="#221815" stroke-width="0.431885"/>
<path d="M41.8838 26.7903H39.2812V22.6484H41.8838V26.7903ZM41.8838 30.9237H39.2812V26.7903H41.8838V30.9237Z" fill="white"/>
<path d="M41.8838 26.7903H39.2812M41.8838 26.7903V22.6484H39.2812V26.7903M41.8838 26.7903V30.9237H39.2812V26.7903" stroke="#221815" stroke-width="0.431885"/>
<path d="M41.8838 35.0211H39.2812V30.8906H41.8838V35.0211ZM41.8838 39.1632H39.2812V35.0211H41.8838V39.1632Z" fill="white"/>
<path d="M41.8838 35.0211H39.2812M41.8838 35.0211V30.8906H39.2812V35.0211M41.8838 35.0211V39.1632H39.2812V35.0211" stroke="#221815" stroke-width="0.431885"/>
<path d="M41.8838 43.2595H39.2812V39.123H41.8838V43.2595Z" fill="white" stroke="#221815" stroke-width="0.431885"/>
<path d="M41.8838 47.3676H39.2812V43.2217H41.8838V47.3676ZM41.8838 51.5013H39.2812V47.3676H41.8838V51.5013Z" fill="white"/>
<path d="M41.8838 47.3676H39.2812M41.8838 47.3676V43.2217H39.2812V47.3676M41.8838 47.3676V51.5013H39.2812V47.3676" stroke="#221815" stroke-width="0.431885"/>
<path d="M41.8838 55.592H39.2812V51.4559H41.8838V55.592ZM44.551 14.4469H41.9525V10.3135H44.551V14.4469Z" fill="white" stroke="#221815" stroke-width="0.431885"/>
<path d="M44.5516 10.3151H41.9531V6.17871H44.5516V10.3151ZM44.5516 18.5536H41.9531V14.4118H44.5516V18.5536Z" fill="white" stroke="#221815" stroke-width="0.431885"/>
<path d="M44.5516 22.6855H41.9531V18.5518H44.5516V22.6855Z" fill="white" stroke="#221815" stroke-width="0.431885"/>
<path d="M44.5516 26.7903H41.9531V22.6484H44.5516V26.7903ZM44.5516 30.9237H41.9531V26.7903H44.5516V30.9237Z" fill="white"/>
<path d="M44.5516 26.7903H41.9531M44.5516 26.7903V22.6484H41.9531V26.7903M44.5516 26.7903V30.9237H41.9531V26.7903" stroke="#221815" stroke-width="0.431885"/>
<path d="M44.5516 35.0211H41.9531V30.8906H44.5516V35.0211ZM44.5516 39.1632H41.9531V35.0211H44.5516V39.1632Z" fill="white"/>
<path d="M44.5516 35.0211H41.9531M44.5516 35.0211V30.8906H41.9531V35.0211M44.5516 35.0211V39.1632H41.9531V35.0211" stroke="#221815" stroke-width="0.431885"/>
<path d="M44.5516 43.2595H41.9531V39.123H44.5516V43.2595Z" fill="white" stroke="#221815" stroke-width="0.431885"/>
<path d="M44.5516 47.3676H41.9531V43.2217H44.5516V47.3676Z" fill="#221815" stroke="#221815" stroke-width="0.431885"/>
<path d="M44.5516 51.5009H41.9531V47.3672H44.5516V51.5009Z" fill="white" stroke="#221815" stroke-width="0.431885"/>
<path d="M44.5516 55.592H41.9531V51.4559H44.5516V55.592ZM47.1908 14.4469H44.5939V10.3135H47.1908V14.4469Z" fill="white" stroke="#221815" stroke-width="0.431885"/>
<path d="M47.1907 10.3151H44.5938V6.17871H47.1907V10.3151ZM47.1907 18.5536H44.5938V14.4118H47.1907V18.5536Z" fill="white" stroke="#221815" stroke-width="0.431885"/>
<path d="M47.1907 22.6855H44.5938V18.5518H47.1907V22.6855Z" fill="white" stroke="#221815" stroke-width="0.431885"/>
<path d="M47.1907 26.7903H44.5938V22.6484H47.1907V26.7903ZM47.1907 30.9237H44.5938V26.7903H47.1907V30.9237Z" fill="white"/>
<path d="M47.1907 26.7903H44.5938M47.1907 26.7903V22.6484H44.5938V26.7903M47.1907 26.7903V30.9237H44.5938V26.7903" stroke="#221815" stroke-width="0.431885"/>
<path d="M47.1907 35.0211H44.5938V30.8906H47.1907V35.0211ZM47.1907 39.1632H44.5938V35.0211H47.1907V39.1632Z" fill="white"/>
<path d="M47.1907 35.0211H44.5938M47.1907 35.0211V30.8906H44.5938V35.0211M47.1907 35.0211V39.1632H44.5938V35.0211" stroke="#221815" stroke-width="0.431885"/>
<path d="M47.1907 43.2595H44.5938V39.123H47.1907V43.2595Z" fill="white" stroke="#221815" stroke-width="0.431885"/>
<path d="M47.1907 47.3676H44.5938V43.2217H47.1907V47.3676ZM47.1907 51.5013H44.5938V47.3676H47.1907V51.5013Z" fill="white"/>
<path d="M47.1907 47.3676H44.5938M47.1907 47.3676V43.2217H44.5938V47.3676M47.1907 47.3676V51.5013H44.5938V47.3676" stroke="#221815" stroke-width="0.431885"/>
<path d="M47.1907 55.592H44.5938V51.4559H47.1907V55.592ZM49.8689 14.4469H47.2623V10.3135H49.8689V14.4469Z" fill="white" stroke="#221815" stroke-width="0.431885"/>
<path d="M49.8644 10.3151H47.2578V6.17871H49.8644V10.3151ZM49.8644 18.5536H47.2578V14.4118H49.8644V18.5536Z" fill="white" stroke="#221815" stroke-width="0.431885"/>
<path d="M49.8644 22.6855H47.2578V18.5518H49.8644V22.6855Z" fill="white" stroke="#221815" stroke-width="0.431885"/>
<path d="M49.8644 26.7903H47.2578V22.6484H49.8644V26.7903ZM49.8644 30.9237H47.2578V26.7903H49.8644V30.9237Z" fill="white"/>
<path d="M49.8644 26.7903H47.2578M49.8644 26.7903V22.6484H47.2578V26.7903M49.8644 26.7903V30.9237H47.2578V26.7903" stroke="#221815" stroke-width="0.431885"/>
<path d="M49.8644 35.0211H47.2578V30.8906H49.8644V35.0211ZM49.8644 39.1632H47.2578V35.0211H49.8644V39.1632Z" fill="white"/>
<path d="M49.8644 35.0211H47.2578M49.8644 35.0211V30.8906H47.2578V35.0211M49.8644 35.0211V39.1632H47.2578V35.0211" stroke="#221815" stroke-width="0.431885"/>
<path d="M49.8644 43.2595H47.2578V39.123H49.8644V43.2595Z" fill="white" stroke="#221815" stroke-width="0.431885"/>
<path d="M49.8644 47.3676H47.2578V43.2217H49.8644V47.3676ZM49.8644 51.5013H47.2578V47.3676H49.8644V51.5013Z" fill="white"/>
<path d="M49.8644 47.3676H47.2578M49.8644 47.3676V43.2217H47.2578V47.3676M49.8644 47.3676V51.5013H47.2578V47.3676" stroke="#221815" stroke-width="0.431885"/>
<path d="M49.8644 55.592H47.2578V51.4559H49.8644V55.592ZM52.5219 14.4469H49.932V10.3135H52.5219V14.4469Z" fill="white" stroke="#221815" stroke-width="0.431885"/>
<path d="M52.5235 18.5539H49.9336V14.4121H52.5235V18.5539Z" fill="white" stroke="#221815" stroke-width="0.431885"/>
<path d="M52.5235 22.6855H49.9336V18.5518H52.5235V22.6855Z" fill="white" stroke="#221815" stroke-width="0.431885"/>
<path d="M52.5235 26.7903H49.9336V22.6484H52.5235V26.7903ZM52.5235 30.9237H49.9336V26.7903H52.5235V30.9237Z" fill="white"/>
<path d="M52.5235 26.7903H49.9336M52.5235 26.7903V22.6484H49.9336V26.7903M52.5235 26.7903V30.9237H49.9336V26.7903" stroke="#221815" stroke-width="0.431885"/>
<path d="M52.5235 35.0211H49.9336V30.8906H52.5235V35.0211ZM52.5235 39.1632H49.9336V35.0211H52.5235V39.1632Z" fill="white"/>
<path d="M52.5235 35.0211H49.9336M52.5235 35.0211V30.8906H49.9336V35.0211M52.5235 35.0211V39.1632H49.9336V35.0211" stroke="#221815" stroke-width="0.431885"/>
<path d="M52.5235 43.2595H49.9336V39.123H52.5235V43.2595Z" fill="white" stroke="#221815" stroke-width="0.431885"/>
<path d="M52.5235 47.3676H49.9336V43.2217H52.5235V47.3676ZM52.5235 51.5013H49.9336V47.3676H52.5235V51.5013Z" fill="white"/>
<path d="M52.5235 47.3676H49.9336M52.5235 47.3676V43.2217H49.9336V47.3676M52.5235 47.3676V51.5013H49.9336V47.3676" stroke="#221815" stroke-width="0.431885"/>
<path d="M52.5235 55.592H49.9336V51.4559H52.5235V55.592ZM55.2117 14.4469H52.6105V10.3135H55.2117V14.4469Z" fill="white" stroke="#221815" stroke-width="0.431885"/>
<path d="M55.2106 18.5539H52.6094V14.4121H55.2106V18.5539Z" fill="#221815" stroke="#221815" stroke-width="0.431885"/>
<path d="M55.2106 22.6855H52.6094V18.5518H55.2106V22.6855Z" fill="white" stroke="#221815" stroke-width="0.431885"/>
<path d="M55.2106 26.7903H52.6094V22.6484H55.2106V26.7903ZM55.2106 30.9237H52.6094V26.7903H55.2106V30.9237Z" fill="white"/>
<path d="M55.2106 26.7903H52.6094M55.2106 26.7903V22.6484H52.6094V26.7903M55.2106 26.7903V30.9237H52.6094V26.7903" stroke="#221815" stroke-width="0.431885"/>
<path d="M55.2106 35.0211H52.6094V30.8906H55.2106V35.0211ZM55.2106 39.1632H52.6094V35.0211H55.2106V39.1632Z" fill="white"/>
<path d="M55.2106 35.0211H52.6094M55.2106 35.0211V30.8906H52.6094V35.0211M55.2106 35.0211V39.1632H52.6094V35.0211" stroke="#221815" stroke-width="0.431885"/>
<path d="M55.2106 43.2595H52.6094V39.123H55.2106V43.2595Z" fill="white" stroke="#221815" stroke-width="0.431885"/>
<path d="M55.2106 47.3676H52.6094V43.2217H55.2106V47.3676Z" fill="white" stroke="#221815" stroke-width="0.431885"/>
<path d="M55.2106 51.5009H52.6094V47.3672H55.2106V51.5009Z" fill="#221815" stroke="#221815" stroke-width="0.431885"/>
<path d="M57.8484 14.4469H55.2461V10.3135H57.8484V14.4469Z" fill="white" stroke="#221815" stroke-width="0.431885"/>
<path d="M57.8484 18.5539H55.2461V14.4121H57.8484V18.5539Z" fill="white" stroke="#221815" stroke-width="0.431885"/>
<path d="M57.8484 22.6855H55.2461V18.5518H57.8484V22.6855Z" fill="white" stroke="#221815" stroke-width="0.431885"/>
<path d="M57.8484 26.7903H55.2461V22.6484H57.8484V26.7903ZM57.8484 30.9237H55.2461V26.7903H57.8484V30.9237Z" fill="white"/>
<path d="M57.8484 26.7903H55.2461M57.8484 26.7903V22.6484H55.2461V26.7903M57.8484 26.7903V30.9237H55.2461V26.7903" stroke="#221815" stroke-width="0.431885"/>
<path d="M57.8484 35.0211H55.2461V30.8906H57.8484V35.0211ZM57.8484 39.1632H55.2461V35.0211H57.8484V39.1632Z" fill="white"/>
<path d="M57.8484 35.0211H55.2461M57.8484 35.0211V30.8906H55.2461V35.0211M57.8484 35.0211V39.1632H55.2461V35.0211" stroke="#221815" stroke-width="0.431885"/>
<path d="M57.8484 43.2595H55.2461V39.123H57.8484V43.2595Z" fill="white" stroke="#221815" stroke-width="0.431885"/>
<path d="M57.8484 47.3676H55.2461V43.2217H57.8484V47.3676Z" fill="#221815" stroke="#221815" stroke-width="0.431885"/>
<path d="M57.8484 51.5014H55.2461V47.3677H57.8484V51.5014ZM60.5186 18.5539H57.92V14.4121H60.5186V18.5539Z" fill="white" stroke="#221815" stroke-width="0.431885"/>
<path d="M60.5165 22.6855H57.918V18.5518H60.5165V22.6855Z" fill="white" stroke="#221815" stroke-width="0.431885"/>
<path d="M60.5165 26.7903H57.918V22.6484H60.5165V26.7903ZM60.5165 30.9237H57.918V26.7903H60.5165V30.9237Z" fill="white"/>
<path d="M60.5165 26.7903H57.918M60.5165 26.7903V22.6484H57.918V26.7903M60.5165 26.7903V30.9237H57.918V26.7903" stroke="#221815" stroke-width="0.431885"/>
<path d="M60.5165 35.0211H57.918V30.8906H60.5165V35.0211ZM60.5165 39.1632H57.918V35.0211H60.5165V39.1632Z" fill="white"/>
<path d="M60.5165 35.0211H57.918M60.5165 35.0211V30.8906H57.918V35.0211M60.5165 35.0211V39.1632H57.918V35.0211" stroke="#221815" stroke-width="0.431885"/>
<path d="M60.5165 43.2595H57.918V39.123H60.5165V43.2595Z" fill="white" stroke="#221815" stroke-width="0.431885"/>
<path d="M60.5165 47.3671H57.918V43.2212H60.5165V47.3671ZM63.1877 22.6855H60.5895V18.5518H63.1877V22.6855Z" fill="white" stroke="#221815" stroke-width="0.431885"/>
<path d="M63.1881 26.7903H60.5898V22.6484H63.1881V26.7903ZM63.1881 30.9237H60.5898V26.7903H63.1881V30.9237Z" fill="white"/>
<path d="M63.1881 26.7903H60.5898M63.1881 26.7903V22.6484H60.5898V26.7903M63.1881 26.7903V30.9237H60.5898V26.7903" stroke="#221815" stroke-width="0.431885"/>
<path d="M63.1881 35.0211H60.5898V30.8906H63.1881V35.0211ZM63.1881 39.1632H60.5898V35.0211H63.1881V39.1632Z" fill="white"/>
<path d="M63.1881 35.0211H60.5898M63.1881 35.0211V30.8906H60.5898V35.0211M63.1881 35.0211V39.1632H60.5898V35.0211" stroke="#221815" stroke-width="0.431885"/>
<path d="M63.1881 43.2595H60.5898V39.123H63.1881V43.2595Z" fill="white" stroke="#221815" stroke-width="0.431885"/>
<path d="M63.1881 47.3669H60.5898V43.221H63.1881V47.3669ZM65.8653 26.7903H63.2668V22.6484H65.8653V26.7903ZM65.8653 30.9237H63.2668V26.7903H65.8653V30.9237Z" fill="white"/>
<path d="M65.8653 26.7903H63.2668M65.8653 26.7903V22.6484H63.2668V26.7903M65.8653 26.7903V30.9237H63.2668V26.7903M63.1881 47.3669H60.5898V43.221H63.1881V47.3669Z" stroke="#221815" stroke-width="0.431885"/>
<path d="M65.8641 35.0211H63.2656V30.8906H65.8641V35.0211ZM65.8641 39.1632H63.2656V35.0211H65.8641V39.1632Z" fill="white"/>
<path d="M65.8641 35.0211H63.2656M65.8641 35.0211V30.8906H63.2656V35.0211M65.8641 35.0211V39.1632H63.2656V35.0211" stroke="#221815" stroke-width="0.431885"/>
<path d="M68.4602 35.0188L65.9023 35.0215V30.891L68.7525 30.877L68.4602 35.0188Z" fill="white"/>
<path d="M68.4602 35.0188L65.9023 35.0215V30.891L68.7525 30.877L68.4602 35.0188Z" stroke="#221815" stroke-width="0.432113"/>
<path d="M20.6094 14.8196V18.5526H23.202V14.4121H20.9254C20.8144 14.5419 20.7104 14.6814 20.6094 14.8196Z" fill="white"/>
<path d="M20.6094 14.8196V18.5526H23.202V14.4121H20.9254C20.8144 14.5419 20.7104 14.6814 20.6094 14.8196Z" stroke="#221815" stroke-width="0.432113"/>
<path d="M20.5609 18.5537H18.22C18.1327 18.7159 18.0443 18.8809 17.957 19.0569V22.6871H20.5612L20.5609 18.5537Z" fill="white"/>
<path d="M20.5609 18.5537H18.22C18.1327 18.7159 18.0443 18.8809 17.957 19.0569V22.6871H20.5612L20.5609 18.5537Z" stroke="#221815" stroke-width="0.432113"/>
<path d="M65.8641 18.9799C65.7911 18.8334 65.7181 18.6909 65.6492 18.5527H63.2656V22.6864H65.8641V18.9799Z" fill="white"/>
<path d="M65.8641 18.9799C65.7911 18.8334 65.7181 18.6909 65.6492 18.5527H63.2656V22.6864H65.8641V18.9799Z" stroke="#221815" stroke-width="0.432113"/>
<path d="M63.1923 14.7236C63.115 14.6165 63.0333 14.5149 62.9506 14.4121H60.5938V18.5539H63.1923V14.7236Z" fill="white"/>
<path d="M63.1923 14.7236C63.115 14.6165 63.0333 14.5149 62.9506 14.4121H60.5938V18.5539H63.1923V14.7236Z" stroke="#221815" stroke-width="0.432113"/>
<path d="M52.0818 6.17969H49.9375V10.3158H52.5258V6.36436C52.3854 6.29812 52.2346 6.24323 52.0818 6.17969Z" fill="white"/>
<path d="M52.0818 6.17969H49.9375V10.3158H52.5258V6.36436C52.3854 6.29812 52.2346 6.24323 52.0818 6.17969Z" stroke="#221815" stroke-width="0.432113"/>
<path d="M33.8558 5.42188C33.1312 5.65603 32.4162 5.92101 31.7109 6.21276H33.8558V5.42188Z" fill="white"/>
<path d="M33.8558 5.42188C33.1312 5.65603 32.4162 5.92101 31.7109 6.21276H33.8558V5.42188Z" stroke="#221815" stroke-width="0.432113"/>
<path d="M33.9297 5.40121V6.21319H36.5336V4.71875C35.653 4.90775 34.7836 5.13758 33.9297 5.40121Z" fill="white"/>
<path d="M33.9297 5.40121V6.21319H36.5336V4.71875C35.653 4.90775 34.7836 5.13758 33.9297 5.40121Z" stroke="#221815" stroke-width="0.432113"/>
<path d="M36.6055 4.70378V6.21255H39.2037V4.30469C38.3312 4.39161 37.464 4.52501 36.6055 4.70378Z" fill="white"/>
<path d="M36.6055 4.70378V6.21255H39.2037V4.30469C38.3312 4.39161 37.464 4.52501 36.6055 4.70378Z" stroke="#221815" stroke-width="0.432113"/>
<path d="M41.8838 4.16992C41.0018 4.17263 40.1409 4.21643 39.2812 4.30512V6.21271H41.8835L41.8838 4.16992Z" fill="white"/>
<path d="M41.8838 4.16992C41.0018 4.17263 40.1409 4.21643 39.2812 4.30512V6.21271H41.8835L41.8838 4.16992Z" stroke="#221815" stroke-width="0.432113"/>
<path d="M44.5516 6.21253V4.29655C43.6881 4.21029 42.8209 4.16607 41.9531 4.16406V6.21253H44.5516Z" fill="white"/>
<path d="M44.5516 6.21253V4.29655C43.6881 4.21029 42.8209 4.16607 41.9531 4.16406V6.21253H44.5516Z" stroke="#221815" stroke-width="0.432113"/>
<path d="M44.5938 4.29883V6.21156H47.1907V4.68927C46.3327 4.51207 45.4658 4.38173 44.5938 4.29883Z" fill="white"/>
<path d="M44.5938 4.29883V6.21156H47.1907V4.68927C46.3327 4.51207 45.4658 4.38173 44.5938 4.29883Z" stroke="#221815" stroke-width="0.432113"/>
<path d="M49.9375 5.38965V6.21298H52.1788C51.4375 5.90988 50.6999 5.62921 49.9375 5.38965Z" fill="white"/>
<path d="M49.9375 5.38965V6.21298H52.1788C51.4375 5.90988 50.6999 5.62921 49.9375 5.38965Z" stroke="#221815" stroke-width="0.432113"/>
<path d="M55.2106 7.72184C54.3672 7.23645 53.4989 6.79601 52.6094 6.40234V10.316H55.2106V7.72184Z" fill="white"/>
<path d="M55.2106 7.72184C54.3672 7.23645 53.4989 6.79601 52.6094 6.40234V10.316H55.2106V7.72184Z" stroke="#221815" stroke-width="0.432113"/>
<path d="M55.2461 7.74121V10.3153H57.8487V9.44277C57.0132 8.82774 56.1442 8.25968 55.2461 7.74121Z" fill="white"/>
<path d="M55.2461 7.74121V10.3153H57.8487V9.44277C57.0132 8.82774 56.1442 8.25968 55.2461 7.74121Z" stroke="#221815" stroke-width="0.432113"/>
<path d="M57.9219 9.5V10.3147H58.9571C58.6192 10.0342 58.2741 9.76252 57.9221 9.5" fill="white"/>
<path d="M57.9219 9.5V10.3147H58.9571C58.6192 10.0342 58.2741 9.76252 57.9221 9.5H57.9219Z" stroke="#221815" stroke-width="0.432113"/>
<path d="M58.9571 10.3145H57.9219V14.4479H60.5188V11.7243C60.0177 11.2392 59.4991 10.7601 58.9571 10.3145Z" fill="white"/>
<path d="M58.9571 10.3145H57.9219V14.4479H60.5188V11.7243C60.0177 11.2392 59.4991 10.7601 58.9571 10.3145Z" stroke="#221815" stroke-width="0.432113"/>
<path d="M63.2656 14.8203V18.5533H65.6478C64.9533 17.2477 64.1568 15.9995 63.2656 14.8203Z" fill="white"/>
<path d="M63.2656 14.8203V18.5533H65.6478C64.9533 17.2477 64.1568 15.9995 63.2656 14.8203Z" stroke="#221815" stroke-width="0.432113"/>
<path d="M65.9023 19.0518V22.6861H67.4039C66.9955 21.4383 66.4936 20.2234 65.9023 19.0518Z" fill="white"/>
<path d="M65.9023 19.0518V22.6861H67.4039C66.9955 21.4383 66.4936 20.2234 65.9023 19.0518Z" stroke="#221815" stroke-width="0.432113"/>
<path d="M67.3996 22.6504H65.9023V26.7922H68.4082C68.1819 25.3683 67.8379 23.991 67.3996 22.6504Z" fill="white"/>
<path d="M67.3996 22.6504H65.9023V26.7922H68.4082C68.1819 25.3683 67.8379 23.991 67.3996 22.6504Z" stroke="#221815" stroke-width="0.432113"/>
<path d="M67.5373 39.1253H65.9023V43.1403C66.5483 41.8559 67.1033 40.5156 67.5373 39.1253Z" fill="white"/>
<path d="M67.5373 39.1253H65.9023V43.1403C66.5483 41.8559 67.1033 40.5156 67.5373 39.1253Z" stroke="#221815" stroke-width="0.432113"/>
<path d="M63.2656 43.2217V47.3676H63.2896C64.2659 46.0708 65.1182 44.6777 65.8615 43.2217H63.2656Z" fill="white"/>
<path d="M63.2656 43.2217V47.3676H63.2896C64.2659 46.0708 65.1182 44.6777 65.8615 43.2217H63.2656Z" stroke="#221815" stroke-width="0.432113"/>
<path d="M60.594 50.4106C61.5279 49.5028 62.3962 48.5295 63.1923 47.4979V47.3682H60.5938L60.594 50.4106Z" fill="white"/>
<path d="M60.594 50.4106C61.5279 49.5028 62.3962 48.5295 63.1923 47.4979V47.3682H60.5938L60.594 50.4106Z" stroke="#221815" stroke-width="0.432113"/>
<path d="M57.9219 51.5013H59.4164C59.7984 51.1742 60.1581 50.8318 60.5204 50.482V47.3682H57.9221L57.9219 51.5013Z" fill="white"/>
<path d="M57.9219 51.5013H59.4164C59.7984 51.1742 60.1581 50.8318 60.5204 50.482V47.3682H57.9221L57.9219 51.5013Z" stroke="#221815" stroke-width="0.432113"/>
<path d="M57.9219 51.457V52.7046C58.4512 52.3098 58.9644 51.8936 59.4601 51.457H57.9219Z" fill="white"/>
<path d="M57.9219 51.457V52.7046C58.4512 52.3098 58.9644 51.8936 59.4601 51.457H57.9219Z" stroke="#221815" stroke-width="0.432113"/>
<path d="M55.2461 54.4556C56.1437 53.9297 57.016 53.3784 57.8487 52.7625V51.457H55.2464L55.2461 54.4556Z" fill="white"/>
<path d="M55.2461 54.4556C56.1437 53.9297 57.016 53.3784 57.8487 52.7625V51.457H55.2464L55.2461 54.4556Z" stroke="#221815" stroke-width="0.432113"/>
<path d="M52.6133 55.5925H53.0599C53.7959 55.2599 54.5152 54.8735 55.2145 54.4747V51.4561H52.6133V55.5925Z" fill="white"/>
<path d="M52.6133 55.5925H53.0599C53.7959 55.2599 54.5152 54.8735 55.2145 54.4747V51.4561H52.6133V55.5925Z" stroke="#221815" stroke-width="0.432113"/>
<path d="M31.2262 51.457H28.625V54.4724C29.3259 54.8742 30.0406 55.2592 30.7796 55.5932H31.2262V51.457Z" fill="white"/>
<path d="M31.2262 51.457H28.625V54.4724C29.3259 54.8742 30.0406 55.2592 30.7796 55.5932H31.2262V51.457Z" stroke="#221815" stroke-width="0.432113"/>
<path d="M25.9531 52.726C26.7801 53.3446 27.6527 53.9073 28.55 54.4275V51.457H25.9531V52.726Z" fill="white"/>
<path d="M25.9531 52.726C26.7801 53.3446 27.6527 53.9073 28.55 54.4275V51.457H25.9531V52.726Z" stroke="#221815" stroke-width="0.432113"/>
<path d="M25.8787 52.6661V51.458H24.3828C24.8653 51.8804 25.3643 52.2835 25.8787 52.6661Z" fill="white"/>
<path d="M25.8787 52.6661V51.458H24.3828C24.8653 51.8804 25.3643 52.2835 25.8787 52.6661Z" stroke="#221815" stroke-width="0.432113"/>
<path d="M23.2773 50.4387C23.6518 50.8016 24.0344 51.1559 24.4249 51.5013H25.8786V47.3682H23.2773V50.4387Z" fill="white"/>
<path d="M23.2773 50.4387C23.6518 50.8016 24.0344 51.1559 24.4249 51.5013H25.8786V47.3682H23.2773V50.4387Z" stroke="#221815" stroke-width="0.432113"/>
<path d="M20.6094 47.4287C21.4035 48.4682 22.2698 49.45 23.202 50.3668V47.3682H20.6096L20.6094 47.4287Z" fill="white"/>
<path d="M20.6094 47.4287C21.4035 48.4682 22.2698 49.45 23.202 50.3668V47.3682H20.6096L20.6094 47.4287Z" stroke="#221815" stroke-width="0.432113"/>
<path d="M20.5638 43.2217H17.9922C18.7241 44.6777 19.5794 46.0708 20.5541 47.3676H20.564L20.5638 43.2217Z" fill="white"/>
<path d="M20.5638 43.2217H17.9922C18.7241 44.6777 19.5794 46.0708 20.5541 47.3676H20.564L20.5638 43.2217Z" stroke="#221815" stroke-width="0.432113"/>
<path d="M17.8945 35.0215H15.3945C15.5993 36.4454 15.9239 37.8241 16.3422 39.1633H17.8945V35.0215Z" fill="white"/>
<path d="M17.8945 35.0215H15.3945C15.5993 36.4454 15.9239 37.8241 16.3422 39.1633H17.8945V35.0215Z" stroke="#221815" stroke-width="0.432113"/>
<path d="M17.8952 43.0226V39.123H16.3359C16.7546 40.475 17.2799 41.7691 17.8952 43.0221" fill="white"/>
<path d="M17.8952 43.0226V39.123H16.3359C16.7546 40.475 17.2799 41.7691 17.8952 43.0221V43.0226Z" stroke="#221815" stroke-width="0.432113"/>
<path d="M17.893 26.791H15.4644C15.3928 27.1901 15.3408 27.5946 15.2888 28.0078L15.1484 30.9401L17.893 30.9245V26.791Z" fill="white"/>
<path d="M17.893 26.791H15.4644C15.3928 27.1901 15.3408 27.5946 15.2888 28.0078L15.1484 30.9401L17.893 30.9245V26.791Z" stroke="#221815" stroke-width="0.432113"/>
<path d="M17.8934 26.7922V22.6504H16.4761C16.0295 24.0017 15.6913 25.3867 15.4648 26.7922H17.8934Z" fill="white"/>
<path d="M17.8934 26.7922V22.6504H16.4761C16.0295 24.0017 15.6913 25.3867 15.4648 26.7922H17.8934Z" stroke="#221815" stroke-width="0.432113"/>
<path d="M17.8952 22.6866V19.1904C17.3371 20.3211 16.8578 21.4893 16.4609 22.6866H17.8952Z" fill="white"/>
<path d="M17.8952 22.6866V19.1904C17.3371 20.3211 16.8578 21.4893 16.4609 22.6866H17.8952Z" stroke="#221815" stroke-width="0.432113"/>
<path d="M23.1982 14.4477V11.8682C22.3746 12.6774 21.6038 13.539 20.8906 14.4477H23.1982Z" fill="white"/>
<path d="M23.1982 14.4477V11.8682C22.3746 12.6774 21.6038 13.539 20.8906 14.4477H23.1982Z" stroke="#221815" stroke-width="0.432113"/>
<path d="M23.2773 14.4483H25.8786V10.3154H24.9249C24.349 10.7835 23.8083 11.2853 23.2773 11.8055V14.4483Z" fill="white"/>
<path d="M23.2773 14.4483H25.8786V10.3154H24.9249C24.349 10.7835 23.8083 11.2853 23.2773 11.8055V14.4483Z" stroke="#221815" stroke-width="0.432113"/>
<path d="M25.8755 9.56348C25.5523 9.8071 25.2344 10.0576 24.9219 10.3149H25.8755V9.56348Z" fill="white"/>
<path d="M25.8755 9.56348C25.5523 9.8071 25.2344 10.0576 24.9219 10.3149H25.8755V9.56348Z" stroke="#221815" stroke-width="0.432113"/>
<path d="M25.9531 9.50295V10.3149H28.55V7.79004C27.647 8.31297 26.7801 8.87836 25.9531 9.50295Z" fill="white"/>
<path d="M25.9531 9.50295V10.3149H28.55V7.79004C27.647 8.31297 26.7801 8.87836 25.9531 9.50295Z" stroke="#221815" stroke-width="0.432113"/>
<path d="M31.2262 6.4248C30.3362 6.81805 29.4679 7.25897 28.625 7.74565V10.3157H31.2262V6.4248Z" fill="white"/>
<path d="M31.2262 6.4248C30.3362 6.81805 29.4679 7.25897 28.625 7.74565V10.3157H31.2262V6.4248Z" stroke="#221815" stroke-width="0.432113"/>
<path d="M31.2578 10.3156H33.8563V6.17969H31.8041C31.6258 6.25431 31.4418 6.33192 31.2578 6.40952V10.3156Z" fill="white"/>
<path d="M31.2578 10.3156H33.8563V6.17969H31.8041C31.6258 6.25431 31.4418 6.33192 31.2578 6.40952V10.3156Z" stroke="#221815" stroke-width="0.432113"/>
<path d="M68.5065 27.4307C68.4742 27.2106 68.4432 27.0007 68.4095 26.792H65.9023V30.9254L68.7536 30.9522L68.5065 27.4307Z" fill="white"/>
<path d="M68.5065 27.4307C68.4742 27.2106 68.4432 27.0007 68.4095 26.792H65.9023V30.9254L68.7536 30.9522L68.5065 27.4307Z" stroke="#221815" stroke-width="0.420389"/>
<path d="M65.9023 35.0215V39.1633H67.5246C67.9508 37.8104 68.2679 36.4254 68.4728 35.0215H65.9023Z" fill="white"/>
<path d="M65.9023 35.0215V39.1633H67.5246C67.9508 37.8104 68.2679 36.4254 68.4728 35.0215H65.9023Z" stroke="#221815" stroke-width="0.432113"/>
<path d="M65.8641 39.125H63.2656V43.2611H65.8375C65.8458 43.2444 65.8558 43.2217 65.8641 43.2063V39.125Z" fill="white"/>
<path d="M65.8641 39.125H63.2656V43.2611H65.8375C65.8458 43.2444 65.8558 43.2217 65.8641 43.2063V39.125Z" stroke="#221815" stroke-width="0.432113"/>
<path d="M18.012 43.2595H20.5612V39.123H17.957V43.1662C17.9783 43.1929 17.9921 43.2213 18.012 43.2595Z" fill="white"/>
<path d="M18.012 43.2595H20.5612V39.123H17.957V43.1662C17.9783 43.1929 17.9921 43.2213 18.012 43.2595Z" stroke="#221815" stroke-width="0.432113"/>
<path d="M15.3928 35.0214H17.893V30.8906L15.1484 30.8963L15.2904 34.112C15.3241 34.4149 15.3494 34.7237 15.3928 35.0214Z" fill="white"/>
<path d="M15.3928 35.0214H17.893V30.8906L15.1484 30.8963L15.2904 34.112C15.3241 34.4149 15.3494 34.7237 15.3928 35.0214Z" stroke="#221815" stroke-width="0.432113"/>
<path d="M71.2908 60.0274V58.9177L12.0234 58.9529V61.1917L71.2908 61.1482V60.0274ZM69.3814 24.252C63.8869 24.252 59.6901 27.1235 59.6901 32.1211C59.6901 36.3337 63.5133 39.3107 68.6384 39.3107C72.5389 39.3107 75.7678 36.48 76.695 34.6898C76.695 34.1371 76.1374 33.9059 75.6218 33.9059C74.7285 35.2849 72.2046 36.3335 71.168 36.2926C64.9639 36.0671 63.9613 33.5717 63.8869 30.9652C63.7716 28.1315 66.8195 25.6672 69.4207 25.8602C70.9376 25.9649 71.4629 28.4587 72.7916 29.3566C73.2102 29.5878 74.1708 29.544 74.8044 29.4342C75.2874 29.3566 76.5811 29.0619 76.5811 27.9411C76.5811 27.011 75.4308 25.9646 74.3225 25.2951C73.2102 24.7779 70.7186 24.252 69.3814 24.252Z" fill="#7D7D7D"/>
<path d="M32.7074 35.0607C32.7074 37.3714 32.1161 38.5993 30.2578 38.7093L30.3015 39.0857C33.4126 39.0506 36.5782 39.0857 39.615 39.0154L39.65 38.8221C38.2471 38.8221 37.1641 37.332 37.1641 35.4766V29.2484C37.1641 27.7175 39.0194 26.7489 40.2836 26.8617C42.2456 27.045 43.3285 28.3123 43.3285 29.4331V35.5458C43.3285 37.4096 42.7709 38.5655 41.3243 38.6742V39.0151H49.8612V38.7529C48.597 38.5993 47.708 37.4417 47.708 35.6967V29.2779C47.708 27.9049 48.8947 26.9715 51.0155 26.9377C52.8724 26.8998 53.9834 28.2815 53.9834 29.5867V35.3963C53.9834 37.3714 53.3921 38.5993 51.9091 38.7529V39.0151C55.027 39.0503 57.5859 39.0503 60.6661 39.0151V38.8221C59.0369 38.8221 58.4808 37.7449 58.4808 35.4766V29.0608C58.4808 26.9377 57.3276 24.4017 54.0971 24.4017C51.9088 24.4017 50.3022 25.476 49.3863 25.7874C48.753 26.0384 48.305 26.3401 48.1546 26.3401C47.8637 26.3401 47.5324 26.1541 47.118 25.7071C46.3357 24.8808 44.9298 24.4017 43.4395 24.4017C41.5433 24.4017 39.65 25.476 38.7568 25.7874C38.6517 25.8172 37.9858 26.1541 37.9055 26.1541C37.7581 26.1541 37.1641 26.1541 37.1641 26.0822C37.1641 24.2916 37.2765 25.1839 37.2035 23.918H35.9759C35.6092 23.918 34.9702 24.592 34.2299 24.8808C33.3383 25.2615 31.5544 25.2207 30.8195 25.4097V26.674L32.744 27.045V29.5091L32.7074 35.0607Z" fill="#7D7D7D"/>
<path d="M24.3553 39.0509C27.6248 38.8974 30.7767 38.1924 30.7767 35.0232C30.7767 32.7184 28.2552 31.2594 25.584 30.1048C23.869 29.397 21.3872 28.3538 21.3872 27.5305C21.3872 26.5646 23.2777 24.6995 25.0966 26.1896L28.2555 28.8389L29.7048 28.536L28.8918 24.5927C28.1458 24.6265 27.6248 24.6676 24.9113 24.2136C21.5671 23.7312 17.5963 25.4101 17.5963 28.5355C17.5963 30.6305 20.6078 32.0798 22.9857 33.0483C24.2834 33.605 26.5896 34.4311 26.5896 35.697C26.5896 36.9192 24.431 37.2604 23.2088 37.2604C21.1291 37.2604 18.8226 34.4635 18.8226 34.4635H17.4533L18.1946 38.6437C18.4489 38.4152 19.3845 38.4474 19.5712 38.5307C20.2355 38.7846 22.6487 39.1637 24.3553 39.0509ZM16.4805 26.3797V24.4383L12.4356 24.4764C11.9214 24.4764 11.9507 24.3664 11.9507 23.6955L11.9917 21.0465L9.94811 21.0098C9.32178 22.4253 8.54082 23.3586 8.09822 23.5433L4.30469 25.2208V26.4148L5.72329 26.4516C6.35366 26.4516 6.61227 26.4148 6.61227 27.1619V35.0229C6.61227 37.4097 7.90884 39.1634 11.2587 39.241C13.774 39.31 15.3022 38.1919 16.3738 37.146L16.0789 36.138C15.6309 36.4409 15.2658 36.7018 14.6659 36.7018C11.809 36.7018 11.885 34.463 11.885 32.4894V27.1619C11.885 26.3797 11.951 26.3797 12.4763 26.3797H16.4805Z" fill="#7D7D7D"/>
</svg>
