<svg width="75" height="62" viewBox="0 0 75 62" fill="none" xmlns="http://www.w3.org/2000/svg">
<path d="M34.5 62C51.3447 62 65 48.3447 65 31.5C65 14.6553 51.3447 1 34.5 1C17.6553 1 4 14.6553 4 31.5C4 48.3447 17.6553 62 34.5 62Z" fill="#646464"/>
<path d="M32.5 7C32.7761 7 33 6.77614 33 6.5C33 6.22386 32.7761 6 32.5 6C32.2239 6 32 6.22386 32 6.5C32 6.77614 32.2239 7 32.5 7Z" fill="white"/>
<path d="M36.5 8C36.7761 8 37 7.77614 37 7.5C37 7.22386 36.7761 7 36.5 7C36.2239 7 36 7.22386 36 7.5C36 7.77614 36.2239 8 36.5 8Z" fill="white"/>
<path d="M40.5 14C40.7761 14 41 13.7761 41 13.5C41 13.2239 40.7761 13 40.5 13C40.2239 13 40 13.2239 40 13.5C40 13.7761 40.2239 14 40.5 14Z" fill="white"/>
<path d="M15.5 46C15.7761 46 16 45.7761 16 45.5C16 45.2239 15.7761 45 15.5 45C15.2239 45 15 45.2239 15 45.5C15 45.7761 15.2239 46 15.5 46Z" fill="white"/>
<path d="M16.5 49C16.7761 49 17 48.7761 17 48.5C17 48.2239 16.7761 48 16.5 48C16.2239 48 16 48.2239 16 48.5C16 48.7761 16.2239 49 16.5 49Z" fill="white"/>
<path d="M12.5 46C12.7761 46 13 45.7761 13 45.5C13 45.2239 12.7761 45 12.5 45C12.2239 45 12 45.2239 12 45.5C12 45.7761 12.2239 46 12.5 46Z" fill="white"/>
<path d="M26.5 52C26.7761 52 27 51.7761 27 51.5C27 51.2239 26.7761 51 26.5 51C26.2239 51 26 51.2239 26 51.5C26 51.7761 26.2239 52 26.5 52Z" fill="white"/>
<path d="M47.5 47C47.7761 47 48 46.7761 48 46.5C48 46.2239 47.7761 46 47.5 46C47.2239 46 47 46.2239 47 46.5C47 46.7761 47.2239 47 47.5 47Z" fill="white"/>
<path d="M54.5 40C54.7761 40 55 39.7761 55 39.5C55 39.2239 54.7761 39 54.5 39C54.2239 39 54 39.2239 54 39.5C54 39.7761 54.2239 40 54.5 40Z" fill="white"/>
<path d="M23.5 16C23.7761 16 24 15.7761 24 15.5C24 15.2239 23.7761 15 23.5 15C23.2239 15 23 15.2239 23 15.5C23 15.7761 23.2239 16 23.5 16Z" fill="white"/>
<path d="M30.5 11C30.7761 11 31 10.7761 31 10.5C31 10.2239 30.7761 10 30.5 10C30.2239 10 30 10.2239 30 10.5C30 10.7761 30.2239 11 30.5 11Z" fill="white"/>
<path d="M29.5 10C29.7761 10 30 9.77614 30 9.5C30 9.22386 29.7761 9 29.5 9C29.2239 9 29 9.22386 29 9.5C29 9.77614 29.2239 10 29.5 10Z" fill="white"/>
<path d="M28.5 10C28.7761 10 29 9.77614 29 9.5C29 9.22386 28.7761 9 28.5 9C28.2239 9 28 9.22386 28 9.5C28 9.77614 28.2239 10 28.5 10Z" fill="white"/>
<path d="M24.5 17C24.7761 17 25 16.7761 25 16.5C25 16.2239 24.7761 16 24.5 16C24.2239 16 24 16.2239 24 16.5C24 16.7761 24.2239 17 24.5 17Z" fill="white"/>
<path d="M34.5 4C34.7761 4 35 3.77614 35 3.5C35 3.22386 34.7761 3 34.5 3C34.2239 3 34 3.22386 34 3.5C34 3.77614 34.2239 4 34.5 4Z" fill="white"/>
<path d="M36.5 11C36.7761 11 37 10.7761 37 10.5C37 10.2239 36.7761 10 36.5 10C36.2239 10 36 10.2239 36 10.5C36 10.7761 36.2239 11 36.5 11Z" fill="white"/>
<path d="M33.5 10C33.7761 10 34 9.77614 34 9.5C34 9.22386 33.7761 9 33.5 9C33.2239 9 33 9.22386 33 9.5C33 9.77614 33.2239 10 33.5 10Z" fill="white"/>
<path d="M29.5 12C29.7761 12 30 11.7761 30 11.5C30 11.2239 29.7761 11 29.5 11C29.2239 11 29 11.2239 29 11.5C29 11.7761 29.2239 12 29.5 12Z" fill="white"/>
<path d="M49.5 54C49.7761 54 50 53.7761 50 53.5C50 53.2239 49.7761 53 49.5 53C49.2239 53 49 53.2239 49 53.5C49 53.7761 49.2239 54 49.5 54Z" fill="white"/>
<path d="M15.5 48C15.7761 48 16 47.7761 16 47.5C16 47.2239 15.7761 47 15.5 47C15.2239 47 15 47.2239 15 47.5C15 47.7761 15.2239 48 15.5 48Z" fill="white"/>
<path d="M33.5 51C33.7761 51 34 50.7761 34 50.5C34 50.2239 33.7761 50 33.5 50C33.2239 50 33 50.2239 33 50.5C33 50.7761 33.2239 51 33.5 51Z" fill="white"/>
<path d="M20.5 47C20.7761 47 21 46.7761 21 46.5C21 46.2239 20.7761 46 20.5 46C20.2239 46 20 46.2239 20 46.5C20 46.7761 20.2239 47 20.5 47Z" fill="white"/>
<path d="M22.5 51C22.7761 51 23 50.7761 23 50.5C23 50.2239 22.7761 50 22.5 50C22.2239 50 22 50.2239 22 50.5C22 50.7761 22.2239 51 22.5 51Z" fill="white"/>
<path d="M39.5 49C39.7761 49 40 48.7761 40 48.5C40 48.2239 39.7761 48 39.5 48C39.2239 48 39 48.2239 39 48.5C39 48.7761 39.2239 49 39.5 49Z" fill="white"/>
<path d="M48.5 44C48.7761 44 49 43.7761 49 43.5C49 43.2239 48.7761 43 48.5 43C48.2239 43 48 43.2239 48 43.5C48 43.7761 48.2239 44 48.5 44Z" fill="white"/>
<path d="M54.5 47C54.7761 47 55 46.7761 55 46.5C55 46.2239 54.7761 46 54.5 46C54.2239 46 54 46.2239 54 46.5C54 46.7761 54.2239 47 54.5 47Z" fill="white"/>
<path d="M57.5 48C57.7761 48 58 47.7761 58 47.5C58 47.2239 57.7761 47 57.5 47C57.2239 47 57 47.2239 57 47.5C57 47.7761 57.2239 48 57.5 48Z" fill="white"/>
<path d="M57.5 44C57.7761 44 58 43.7761 58 43.5C58 43.2239 57.7761 43 57.5 43C57.2239 43 57 43.2239 57 43.5C57 43.7761 57.2239 44 57.5 44Z" fill="white"/>
<path d="M23.5 38C23.7761 38 24 37.7761 24 37.5C24 37.2239 23.7761 37 23.5 37C23.2239 37 23 37.2239 23 37.5C23 37.7761 23.2239 38 23.5 38Z" fill="white"/>
<path d="M23.5 44C23.7761 44 24 43.7761 24 43.5C24 43.2239 23.7761 43 23.5 43C23.2239 43 23 43.2239 23 43.5C23 43.7761 23.2239 44 23.5 44Z" fill="white"/>
<path d="M25.5 49C25.7761 49 26 48.7761 26 48.5C26 48.2239 25.7761 48 25.5 48C25.2239 48 25 48.2239 25 48.5C25 48.7761 25.2239 49 25.5 49Z" fill="white"/>
<path d="M50.5 44C50.7761 44 51 43.7761 51 43.5C51 43.2239 50.7761 43 50.5 43C50.2239 43 50 43.2239 50 43.5C50 43.7761 50.2239 44 50.5 44Z" fill="white"/>
<path d="M59.5 44C59.7761 44 60 43.7761 60 43.5C60 43.2239 59.7761 43 59.5 43C59.2239 43 59 43.2239 59 43.5C59 43.7761 59.2239 44 59.5 44Z" fill="white"/>
<path d="M54.5 42C54.7761 42 55 41.7761 55 41.5C55 41.2239 54.7761 41 54.5 41C54.2239 41 54 41.2239 54 41.5C54 41.7761 54.2239 42 54.5 42Z" fill="white"/>
<path d="M50.5 42C50.7761 42 51 41.7761 51 41.5C51 41.2239 50.7761 41 50.5 41C50.2239 41 50 41.2239 50 41.5C50 41.7761 50.2239 42 50.5 42Z" fill="white"/>
<path d="M40.3093 6.04721L41 5.98118L40.3105 5.9423C40.2889 5.80901 40.1821 5.70472 40.0475 5.68744L39.9815 5L39.942 5.693C39.8173 5.72077 39.7216 5.82505 39.7062 5.95464L39 6.01882L39.7111 6.05708C39.737 6.17618 39.8333 6.26936 39.9543 6.29158L40.0185 7L40.0562 6.29281C40.184 6.27121 40.2852 6.17309 40.3093 6.04721Z" fill="white"/>
<path d="M26.3093 16.0472L27 15.9812L26.3105 15.9423C26.2895 15.809 26.1821 15.7047 26.0475 15.6874L25.9815 15L25.9426 15.693C25.8173 15.7208 25.7216 15.8251 25.7062 15.9546L25 16.0188L25.7111 16.0571C25.737 16.1762 25.8333 16.2694 25.9543 16.2916L26.0185 17L26.0568 16.2928C26.1846 16.2718 26.2858 16.1731 26.3093 16.0472Z" fill="white"/>
<path d="M58.309 41.0472L59 40.9812L58.3103 40.9423C58.2893 40.809 58.1818 40.7047 58.0472 40.6874L57.9812 40L57.9423 40.693C57.8175 40.7208 57.7218 40.8251 57.7064 40.9546L57 41.0188L57.7113 41.0571C57.7373 41.1762 57.8336 41.2694 57.9546 41.2916L58.0188 42L58.0571 41.2928C58.1837 41.2718 58.285 41.1737 58.309 41.0472Z" fill="white"/>
<path d="M23.3093 54.0469L24 53.9809L23.3105 53.942C23.2889 53.8086 23.1821 53.7043 23.0475 53.687L22.9815 53L22.9426 53.6926C22.8173 53.7204 22.7216 53.8247 22.7062 53.9543L22 54.0185L22.7111 54.0568C22.737 54.1759 22.8333 54.2698 22.9543 54.2914L23.0185 55L23.0568 54.2926C23.184 54.2716 23.2858 54.1728 23.3093 54.0469Z" fill="white"/>
<path d="M55.309 47.0475L56 46.9815L55.3103 46.9426C55.2893 46.8093 55.1818 46.7049 55.0472 46.6877L54.9812 46L54.9423 46.6926C54.8175 46.7204 54.7218 46.8247 54.7064 46.9543L54 47.0185L54.7113 47.0568C54.7373 47.1759 54.8336 47.2691 54.9546 47.2914L55.0188 48L55.0571 47.2926C55.1837 47.2722 55.2856 47.1735 55.309 47.0475Z" fill="white"/>
<path d="M41.5779 23.7318C38.0576 25.1161 34.6239 26.3517 31.7266 27.269C25.8391 29.1341 9.73069 34.1831 0 40.5478L0.814662 40.8683C6.74359 37.4799 10.5974 36.4153 14.3018 35.2362C18.3299 33.9542 31.3517 30.871 37.2482 29.1921C39.2403 28.6251 41.5734 27.8825 44.0446 26.979C43.4698 26.1677 42.8633 25.3542 42.2252 24.5422C42.0117 24.2682 41.7952 23.9981 41.5779 23.7318ZM45.8791 29.7294C45.0267 30.3116 44.3123 30.7764 43.8122 31.0694C40.9157 32.7636 26.7941 42.5167 23.5815 44.7604C20.3688 47.004 11.452 55.5208 8.82702 57.9934L8.7365 59C17.1999 51.3074 19.8551 49.4102 23.2194 46.8209C27.3832 43.6156 35.9968 37.686 38.9243 35.7857C41.7228 33.9694 44.2467 32.2989 46.5119 30.7703C46.475 30.7077 46.438 30.6451 46.4011 30.5818C46.2306 30.2987 46.0563 30.0148 45.8791 29.7294ZM59.109 15.5928C54.9859 18.0379 48.4875 20.989 42.1829 23.4929C42.3338 23.6799 42.4839 23.8684 42.6332 24.0584C43.3378 24.9558 44.0023 25.8594 44.6277 26.7638C49.5835 24.9169 55.0214 22.4382 59.3361 19.4383C57.2806 21.4087 50.4849 26.547 46.3415 29.4111C46.5549 29.7629 46.7616 30.1147 46.9615 30.465C53.2389 26.215 57.4631 23.0869 59.9244 20.9951C63.3189 18.1104 71.0582 11.6541 74 3C68.8397 9.64017 62.7388 13.4399 59.109 15.5928Z" fill="#989898"/>
<path d="M30.3249 38.7736C29.6623 37.9254 28.7459 36.7895 28.0579 35.9086C27.1378 34.7308 26.2866 33.5407 25.5065 32.3523C25.2519 32.417 24.9981 32.4817 24.7443 32.5464C25.6861 34.041 26.732 35.5332 27.8715 36.992C28.704 38.0579 29.4609 38.916 29.8487 39.4497C29.9273 39.5578 30.0831 39.7969 30.2934 40.1151C30.536 39.9476 30.7808 39.7786 31.0279 39.6081C30.7891 39.3439 30.5532 39.066 30.3249 38.7736ZM35.1613 43.2382C34.617 42.7144 33.2971 41.8396 31.9233 40.527C31.6201 40.7387 31.3139 40.9534 31.0069 41.1696C31.8941 42.4411 33.1025 44.0026 34.0488 44.4579C35.4742 45.1447 35.8583 43.9098 35.1613 43.2382ZM42.3657 24.2118C34.5107 14.1572 24.915 8.63349 20.7779 11.9766C17.5646 14.5729 18.8837 22.1606 23.3129 30.1314C23.542 30.0514 23.7688 29.973 23.9934 29.8953C19.5231 22.1294 18.2998 14.9125 21.3304 12.4632C25.1389 9.38572 34.3348 14.9307 41.9622 24.6937C43.5411 26.7144 44.9292 28.7426 46.1046 30.7199C50.6056 38.2955 51.9869 45.1462 48.8769 47.9427C47.9253 48.7985 45.0175 49.1342 41.2083 47.3907C41.1551 47.4585 41.2405 47.642 41.3071 47.6869C44.5953 49.0315 47.7449 49.5439 49.3351 48.2594C53.1563 45.1713 50.2208 34.2663 42.3657 24.2118Z" fill="white"/>
<path d="M9 25H14.1006L18.3814 31.9831C18.3814 31.9831 18.3814 26.9264 18.3814 26.5323C18.3814 25.9194 17.5731 25.1204 17.2884 25C17.63 25 20.6129 25 20.8178 25C20.6015 25.0547 19.907 25.8647 19.907 26.5323C19.907 26.8607 19.907 34.194 19.907 34.5443C19.907 35.0368 20.6471 35.7154 21 35.9781H16.0816L11.7324 28.9622C11.7324 28.9622 11.7324 34.194 11.7324 34.4786C11.7324 35.0259 12.2903 35.5512 12.871 36H9.11385C9.64896 35.7811 10.1613 35.0915 10.2068 34.5443C10.2524 33.997 10.2068 26.9373 10.2068 26.6308C10.2068 25.9632 9.5351 25.4159 9 25Z" fill="white"/>
<path d="M54.4395 35.9781H61C60.6367 35.8905 60.2295 35.4637 60.0093 34.8945C59.7892 34.3254 56.3108 25 56.3108 25H53.8164C53.109 25.5064 52.3509 26.0405 51.5415 26.6031C51.5393 26.6235 51.5371 26.644 51.5334 26.6637C51.4248 27.3204 49.4728 34.3502 49.3539 34.6975C49.1888 35.1791 48.3412 35.7154 48 36H51.5334C51.1812 35.606 50.895 35.2229 50.961 34.7851C51.0271 34.3473 51.2252 33.4716 51.2252 33.4716H54.8798C55.0449 33.9095 55.1682 34.3028 55.232 34.6756C55.3091 35.1244 54.8467 35.6279 54.4395 35.9781ZM51.5555 32.0706L52.7883 28.0647L54.4174 32.0706H51.5555ZM50.9999 25.3999C51.1812 25.2671 51.3632 25.1335 51.5445 25H50.5868C50.6822 25.0876 50.84 25.2255 50.9999 25.3999Z" fill="white"/>
<path d="M26.0611 34.7851C26.1294 34.3473 26.3342 33.4716 26.3342 33.4716H30.1122C30.2829 33.9095 30.4104 34.3028 30.4764 34.6756C30.556 35.1244 30.0781 35.6279 29.657 35.9781H35.6283C35.7527 35.8978 35.8763 35.8176 36 35.738C35.7686 35.541 35.5554 35.2455 35.4151 34.8945C35.1875 34.3254 31.5916 25 31.5916 25H25.6742C25.9587 25.2517 26.778 25.9303 26.6528 26.6637C26.5413 27.3204 24.5226 34.3502 24.3997 34.6975C24.229 35.1791 23.3528 35.7154 23 36H26.6528C26.2887 35.606 25.9928 35.2229 26.0611 34.7851ZM27.9501 28.0647L29.6343 32.0706H26.6756L27.9501 28.0647Z" fill="white"/>
<path d="M46.6628 31.0278C45.5586 31.7955 44.3935 32.597 43.1659 33.4338C43.7165 33.7125 44.155 34.0626 44.1972 34.5147C44.2754 35.364 42.6401 35.7746 41.1621 35.598C40.8665 35.5626 40.5761 35.4818 40.2993 35.3735C39.9924 35.5799 39.6825 35.7879 39.3681 35.9983C39.0484 36.2126 38.6603 36.4764 38.2173 36.7809V38C38.5106 37.3995 39.1522 36.8618 39.6502 36.8343C39.8646 36.8225 40.6092 37.5408 43.6782 37.3642C45.1675 37.2786 48.0446 35.6215 47.9995 33.714C47.9724 32.5868 47.4083 31.7076 46.6628 31.0278ZM38.2165 33.9731V35.2149C38.4881 35.0257 38.7558 34.8397 39.0183 34.6584C38.6054 34.3585 38.3128 34.0783 38.2165 33.9731ZM45.6135 30.2484C45.3277 30.0717 45.0381 29.9171 44.7606 29.7805C43.3164 29.074 41.8045 28.9445 41.4885 27.9908C41.2659 27.318 41.8947 26.6956 43.4292 26.7191C44.9636 26.7427 46.3853 27.6964 46.7689 28.0379V25C46.6561 25.1177 46.1611 25.7104 45.7083 25.6123C44.8395 25.4239 43.3615 25.1782 41.6691 25.1884C39.7284 25.2002 38.0586 26.7654 38.0021 28.7443C37.9232 31.5114 40.0443 32.265 41.2403 32.7006C41.3637 32.7454 41.5043 32.7932 41.657 32.8443C42.8041 32.0656 43.7112 31.4659 44.2423 31.1464C44.5988 30.9321 45.0659 30.6244 45.6135 30.2484Z" fill="white"/>
</svg>
