<svg width="136" height="33" viewBox="0 0 136 33" fill="none" xmlns="http://www.w3.org/2000/svg">
<g clip-path="url(#clip0_1_3152)">
<mask id="mask0_1_3152" style="mask-type:luminance" maskUnits="userSpaceOnUse" x="0" y="-52" width="136" height="137">
<path d="M136 -52H0V85H136V-52Z" fill="white"/>
</mask>
<g mask="url(#mask0_1_3152)">
<mask id="mask1_1_3152" style="mask-type:luminance" maskUnits="userSpaceOnUse" x="0" y="-52" width="136" height="137">
<path d="M136 -52H0V85H136V-52Z" fill="white"/>
</mask>
<g mask="url(#mask1_1_3152)">
<path d="M72.77 12.7251V16.2407H80.7919L80.3115 18.529H72.7909V23.5631H69.135V10.416H82.0454L81.5649 12.7043H72.77V12.7251ZM117.204 23.584H113.005L111.731 20.9212H104.691L103.479 23.584H100.826L107.03 10.4369H109.495C110.436 10.4369 110.791 10.8113 111.271 11.789C111.731 12.7251 117.204 23.584 117.204 23.584ZM110.644 18.633L108.158 13.3908L105.756 18.633H110.644ZM67.2967 23.584H63.0977L61.8443 20.9212H54.8042L53.5925 23.584H50.9394L57.1648 10.4369H59.6299C60.57 10.4369 60.9251 10.8113 61.4056 11.789C61.8234 12.7251 67.2967 23.584 67.2967 23.584ZM60.7371 18.633L58.2511 13.3908L55.8487 18.633H60.7371ZM43.2308 24C47.9521 24 50.1247 22.2734 50.1247 19.7771C50.1247 17.5929 48.1401 16.4695 43.8158 15.3046C41.2254 14.5973 39.6168 14.4517 39.6168 13.578C39.6168 12.7459 41.1209 12.3091 43.4398 12.4131C46.3435 12.5587 48.2028 13.7652 48.2028 13.7652L49.3518 11.9346C49.3518 11.9346 46.7405 10 42.5624 10C38.0291 10 35.6476 11.373 35.6476 13.9108C35.6476 16.4071 38.3634 17.2808 42.3117 18.4042C44.7559 19.0906 46.1555 19.2363 46.1555 20.1516C46.1555 20.8588 45.4243 21.7533 42.1863 21.6077C39.0736 21.4621 36.3788 19.6523 36.3788 19.6523L35 21.3165C35 21.3581 37.9664 24 43.2308 24ZM131.263 10.4369V18.2793C131.263 18.2793 123.534 12.1426 122.907 11.6226C121.758 10.7073 121.236 10.4369 119.962 10.4369H119.022V23.584H121.737V15.8663C121.737 15.8663 129.404 21.9614 130.052 22.4606C131.201 23.3759 131.786 23.584 133.06 23.584H134V10.4369H131.263ZM99.4262 23.584H96.9612C95.4988 23.584 94.6005 22.5646 94.0574 21.8782C93.4725 21.1085 91.9683 19.153 91.9683 19.153H91.7177H87.9992H87.9574V23.6048H84.3015V10.4577H87.9992H91.7177C94.5588 10.4577 98.6324 10.7489 98.6533 14.8053C98.6533 17.156 97.2745 18.2377 95.5615 18.737L99.4262 23.584ZM94.6841 14.7845C94.6841 13.4116 93.8067 12.7251 91.8639 12.7251H87.9992L87.9574 12.7043V16.8648L87.9992 16.844H91.8639C93.8067 16.844 94.6841 16.1575 94.6841 14.7845Z" fill="white"/>
</g>
</g>
<mask id="mask2_1_3152" style="mask-type:luminance" maskUnits="userSpaceOnUse" x="0" y="-52" width="136" height="137">
<path d="M136 -52H0V85H136V-52Z" fill="white"/>
</mask>
<g mask="url(#mask2_1_3152)">
<mask id="mask3_1_3152" style="mask-type:luminance" maskUnits="userSpaceOnUse" x="4" y="22" width="25" height="8">
<path d="M28.7039 22C25.9543 25.8177 21.5127 28.3056 16.5 28.3056C11.4873 28.3056 7.04569 25.8177 4.29611 22H4C6.22081 26.7399 10.9797 30 16.5 30C22.0203 30 26.7792 26.7185 29 22H28.7039Z" fill="white"/>
</mask>
<g mask="url(#mask3_1_3152)">
<path d="M29 22H4V30H29V22Z" fill="white"/>
</g>
</g>
<mask id="mask4_1_3152" style="mask-type:luminance" maskUnits="userSpaceOnUse" x="0" y="-52" width="136" height="137">
<path d="M136 -52H0V85H136V-52Z" fill="white"/>
</mask>
<g mask="url(#mask4_1_3152)">
<mask id="mask5_1_3152" style="mask-type:luminance" maskUnits="userSpaceOnUse" x="5" y="6" width="23" height="21">
<path d="M7.63987 7.99398C5.97883 9.20535 5.31868 10.4376 5.08443 11.5863C3.91319 17.2046 15.2423 19.4394 19.5865 20.8387C21.9716 21.5906 22.2911 22.614 22.2698 23.4285C22.2272 25.3083 19.5227 27 19.5014 27C21.7161 26.9582 24.6974 25.6842 26.4862 23.7001C27.1677 22.9482 27.764 21.9456 27.913 21.2146C28.5732 17.852 25.3789 16.1394 21.6096 14.8445C18.6708 13.842 16.2432 13.1528 14.1775 12.5262C10.8981 11.5445 10.3444 10.6047 10.3657 9.58129C10.387 8.3908 11.686 6.88703 13.1341 6.00983C13.1128 5.96806 10.387 5.96806 7.63987 7.99398Z" fill="white"/>
</mask>
<g mask="url(#mask5_1_3152)">
<path d="M-5 22.418L22.816 38L38 11.582L10.184 -4L-5 22.418Z" fill="white"/>
</g>
</g>
<mask id="mask6_1_3152" style="mask-type:luminance" maskUnits="userSpaceOnUse" x="0" y="-52" width="136" height="137">
<path d="M136 -52H0V85H136V-52Z" fill="white"/>
</mask>
<g mask="url(#mask6_1_3152)">
<mask id="mask7_1_3152" style="mask-type:luminance" maskUnits="userSpaceOnUse" x="0" y="-52" width="136" height="137">
<path d="M136 -52H0V85H136V-52Z" fill="white"/>
</mask>
<g mask="url(#mask7_1_3152)">
<mask id="mask8_1_3152" style="mask-type:luminance" maskUnits="userSpaceOnUse" x="2" y="-2" width="35" height="35">
<path d="M37 -2H2V33H37V-2Z" fill="white"/>
</mask>
<g mask="url(#mask8_1_3152)">
<mask id="mask9_1_3152" style="mask-type:luminance" maskUnits="userSpaceOnUse" x="11" y="6" width="18" height="19">
<path d="M11.0428 9.35536C11.0214 9.47887 11 9.5818 11 9.70531V9.78765C11.0214 10.8375 12.0689 11.7638 14.848 12.5872C16.9216 13.2048 19.3587 13.8841 22.3088 14.8722C26.0926 16.1484 29.2138 17.6306 28.5297 20.9653C28.3373 21.8505 27.3967 23.4767 25.152 25C25.8361 24.7118 26.905 24.0531 27.4822 23.4355C28.1663 22.6945 28.7648 21.7064 28.9145 20.9859C28.9786 20.6977 29 20.4301 29 20.1625V20.1213C28.9786 17.3629 26.0285 15.8602 22.5867 14.7075C19.6366 13.7194 17.1995 13.0401 15.1259 12.4225C11.8337 11.455 11.2779 10.5287 11.2993 9.52005C11.3207 8.3467 12.6247 6.86457 14.0784 6C11.9406 7.2351 11.2138 8.44962 11.0428 9.35536Z" fill="white"/>
</mask>
<g mask="url(#mask9_1_3152)">
<path d="M37 10.1883L14.8992 -2L2 19.8322L24.122 32L37 10.1883Z" fill="white"/>
</g>
</g>
</g>
<mask id="mask10_1_3152" style="mask-type:luminance" maskUnits="userSpaceOnUse" x="0" y="-52" width="136" height="137">
<path d="M136 -52H0V85H136V-52Z" fill="white"/>
</mask>
<g mask="url(#mask10_1_3152)">
<g opacity="0.8">
<mask id="mask11_1_3152" style="mask-type:luminance" maskUnits="userSpaceOnUse" x="12" y="9" width="20" height="20">
<path d="M32 9H12V29H32V9Z" fill="white"/>
</mask>
<g mask="url(#mask11_1_3152)">
<mask id="mask12_1_3152" style="mask-type:luminance" maskUnits="userSpaceOnUse" x="17" y="14" width="11" height="10">
<path d="M17.535 14.0222C17.1926 14.0222 17 14.1552 17 14.3326V14.3769C17.0214 14.6208 17.3852 14.9756 18.1984 15.2417C19.0973 15.5521 20.2743 15.9734 21.2588 16.2838C24.4903 17.3925 27.465 18.7894 26.9086 22.2483C26.7802 22.9579 26.6946 23.2683 26.1595 24C26.2451 23.8891 27.7218 23.2239 27.9572 21.5166C27.9786 21.3392 28 21.1619 28 20.9845V20.8736C27.9572 17.969 24.8113 16.4169 21.4728 15.2195C20.5739 14.8869 19.3755 14.4878 18.3697 14.1552C18.07 14.0665 17.8346 14.0222 17.6206 14H17.535V14.0222Z" fill="white"/>
</mask>
<g mask="url(#mask12_1_3152)">
<mask id="mask13_1_3152" style="mask-type:luminance" maskUnits="userSpaceOnUse" x="12" y="9" width="20" height="21">
<path d="M32 9H12V30H32V9Z" fill="white"/>
</mask>
<g mask="url(#mask13_1_3152)">
<mask id="mask14_1_3152" style="mask-type:luminance" maskUnits="userSpaceOnUse" x="12" y="8" width="21" height="23">
<path d="M19.4161 8.96157L12 22L24.6614 30.043L32.0775 17.0045L19.4161 8.96157Z" fill="white"/>
</mask>
<g mask="url(#mask14_1_3152)">
<path d="M16.8672 0L3 24.9462L26.1328 40L40 15.0311L16.8672 0Z" fill="white"/>
</g>
</g>
</g>
</g>
</g>
</g>
<mask id="mask15_1_3152" style="mask-type:luminance" maskUnits="userSpaceOnUse" x="0" y="-52" width="136" height="137">
<path d="M136 -52H0V85H136V-52Z" fill="white"/>
</mask>
<g mask="url(#mask15_1_3152)">
<g opacity="0.5">
<mask id="mask16_1_3152" style="mask-type:luminance" maskUnits="userSpaceOnUse" x="13" y="12" width="20" height="20">
<path d="M33 12H13V32H33V12Z" fill="white"/>
</mask>
<g mask="url(#mask16_1_3152)">
<mask id="mask17_1_3152" style="mask-type:luminance" maskUnits="userSpaceOnUse" x="18" y="16" width="9" height="11">
<path d="M18 20.0076C18.6238 20.1746 19.1808 20.3416 19.6933 20.4668C22.2555 21.1556 23.1022 22.1575 22.8125 23.6812C22.5006 25.2884 19.6933 26.8121 19.3591 27C21.3197 26.833 24.6395 25.2467 26.1545 23.2846C26.7115 22.5958 26.8007 22.2827 26.9343 21.6148C27.4913 18.3795 24.4167 17.0436 21.0524 16L18 20.0076Z" fill="white"/>
</mask>
<g mask="url(#mask17_1_3152)">
<path d="M12 23.2527L23.5847 32L33 20.7473L21.4377 12L12 23.2527Z" fill="white"/>
</g>
</g>
</g>
</g>
<mask id="mask18_1_3152" style="mask-type:luminance" maskUnits="userSpaceOnUse" x="0" y="-52" width="136" height="137">
<path d="M136 -52H0V85H136V-52Z" fill="white"/>
</mask>
<g mask="url(#mask18_1_3152)">
<mask id="mask19_1_3152" style="mask-type:luminance" maskUnits="userSpaceOnUse" x="4" y="12" width="19" height="15">
<path d="M23 12H4V27H23V12Z" fill="white"/>
</mask>
<g mask="url(#mask19_1_3152)">
<mask id="mask20_1_3152" style="mask-type:luminance" maskUnits="userSpaceOnUse" x="4" y="12" width="19" height="15">
<path d="M19.4817 20.9384C21.87 21.6781 22.1899 22.6849 22.1686 23.4863C22.1259 25.274 19.5883 26.8973 19.4177 27C19.7802 26.7945 22.4245 25.2945 22.723 23.7329C23.0002 22.2329 22.1899 21.2466 19.7376 20.5685C18.4581 20.2192 16.8801 19.7671 15.0036 19.2123C13.5535 18.8014 11.7196 18.1644 9.99235 17.4452C5.40762 15.4932 4.81053 13.1096 4.93848 12C4.00021 17.4247 15.1742 19.6027 19.4817 20.9384Z" fill="white"/>
</mask>
<g mask="url(#mask20_1_3152)">
<path d="M23 12H4V26.9795H23V12Z" fill="white"/>
</g>
</g>
</g>
</g>
<mask id="mask21_1_3152" style="mask-type:luminance" maskUnits="userSpaceOnUse" x="0" y="-52" width="136" height="137">
<path d="M136 -52H0V85H136V-52Z" fill="white"/>
</mask>
<g mask="url(#mask21_1_3152)">
<mask id="mask22_1_3152" style="mask-type:luminance" maskUnits="userSpaceOnUse" x="4" y="2" width="25" height="9">
<path d="M4.10938 10.532H4.4014C7.11306 6.79183 11.4934 4.35441 16.437 4.35441C21.3805 4.35441 25.7609 6.79183 28.4726 10.532H28.7646C26.5744 5.88831 21.8812 2.69444 16.437 2.69444C11.0137 2.67343 6.29956 5.88831 4.10938 10.532Z" fill="white"/>
</mask>
<g mask="url(#mask22_1_3152)">
<path d="M3.17188 2.7993L4.48599 13.5576L29.7253 10.4057L28.3903 -0.352539L3.17188 2.7993Z" fill="white"/>
</g>
</g>
</g>
<defs>
<clipPath id="clip0_1_3152">
<rect width="136" height="33" fill="white"/>
</clipPath>
</defs>
</svg>
