<svg width="147" height="36" viewBox="0 0 147 36" fill="none" xmlns="http://www.w3.org/2000/svg">
<g clip-path="url(#clip0_1_2869)">
<path d="M0 0V31.7837H6.71046V0H0Z" fill="white"/>
<path d="M10.9531 0V21.7137H17.6636V0H10.9531Z" fill="white"/>
<path d="M21.8984 0V31.7837H28.6089V0H21.8984Z" fill="white"/>
<path d="M32.8086 0V6.35887H39.5616V0H32.8086Z" fill="white"/>
<path d="M32.8633 10.0381V31.7518H39.5737V10.0381H32.8633Z" fill="white"/>
<path d="M43.75 0V6.35887H61.4567V0H43.75Z" fill="white"/>
<path d="M43.793 10.0703V31.7841H50.5034V10.0703H43.793Z" fill="white"/>
<path d="M72.5156 0.830078V8.32464H74.3357L74.2346 3.5979C74.2027 2.8856 74.2033 2.76427 74.1714 2.16977L74.5001 3.50943L75.8651 8.32466H77.4704L78.886 3.29458C78.971 2.97559 78.9801 2.9225 79.0756 2.49836L79.1388 2.23296L79.1262 2.97862L78.9998 8.32466H80.7946V0.830097H78.0645L76.8637 5.30408C76.7788 5.65442 76.7803 5.7065 76.6741 6.22669L76.4087 5.03868L75.2585 0.830097L72.5156 0.830078Z" fill="white"/>
<path d="M84.6227 2.6377C83.9755 2.6377 83.3258 2.7144 82.8161 3.11732C82.3171 3.51062 82.2677 3.97288 82.2359 4.35507H83.8645C83.9074 4.15336 84.0008 3.70138 84.7232 3.70138C85.3072 3.70138 85.3359 4.12736 85.3576 4.38214V4.68384C84.6675 4.81124 83.6141 4.99895 83.1682 5.19054C82.7111 5.38113 81.9922 5.89239 81.9922 6.78414C81.9922 7.55913 82.5396 8.47831 83.8142 8.4783C84.6312 8.4783 85.0949 8.12912 85.5085 7.82075V8.32359H87.1139C86.9865 8.1325 86.9475 8.0473 86.9475 7.4533V4.23129C86.9475 2.7986 85.3027 2.63768 84.6227 2.6377ZM85.3576 5.67017C85.347 6.24345 85.315 6.74612 84.7735 7.08584C84.6036 7.19251 84.4226 7.27538 84.2204 7.27537C83.8381 7.27537 83.5975 6.97218 83.5975 6.70678C83.5975 6.28213 84.0183 6.13269 84.2938 6.02602L85.3576 5.67017Z" fill="white"/>
<path d="M90.4255 2.60059C88.8754 2.60059 88.0871 3.54493 88.0871 4.45843C88.0871 4.87196 88.2606 5.25112 88.5043 5.49478C88.7484 5.73996 89.0872 5.87899 89.4269 5.97504C89.6717 6.04935 89.929 6.1095 90.1727 6.15197C90.4917 6.20505 90.8765 6.22729 91.1207 6.35419C91.2167 6.40777 91.3355 6.49118 91.3355 6.68278C91.3355 7.09682 90.7303 7.22623 90.337 7.22624C89.7217 7.22624 89.1772 6.89056 88.7318 6.45529L87.6953 7.39053C88.0457 7.71964 88.8481 8.4648 90.3876 8.4648C91.694 8.4648 93.004 7.82378 93.004 6.51849C93.004 5.20106 91.7173 4.90026 90.6024 4.69856C90.0721 4.60301 89.7177 4.54993 89.7177 4.23094C89.7177 4.07169 89.8643 3.81387 90.5013 3.81387C90.8835 3.81387 91.3709 3.96604 91.8917 4.36996L92.9029 3.43472C92.5201 3.16881 91.7319 2.60059 90.4255 2.60059Z" fill="white"/>
<path d="M95.9645 2.59961C94.4144 2.59961 93.6262 3.54396 93.6262 4.45745C93.6262 4.87098 93.7996 5.25014 94.0433 5.4938C94.2875 5.73898 94.6263 5.87801 94.966 5.97406C95.2107 6.04837 95.4681 6.10852 95.7117 6.151C96.0308 6.20408 96.4155 6.22632 96.6597 6.35321C96.7558 6.4068 96.8746 6.4902 96.8746 6.68181C96.8746 7.09584 96.2694 7.22525 95.8761 7.22526C95.2608 7.22526 94.7163 6.88958 94.2708 6.45432L93.2344 7.38956C93.5847 7.71866 94.3871 8.46382 95.9266 8.46382C97.2331 8.46382 98.543 7.8228 98.543 6.51751C98.543 5.20008 97.2563 4.89929 96.1415 4.69758C95.6111 4.60204 95.2567 4.54896 95.2567 4.22996C95.2567 4.07072 95.4033 3.81289 96.0404 3.81289C96.4226 3.81289 96.91 3.96506 97.4307 4.36898L98.4419 3.43374C98.0592 3.16783 97.271 2.59961 95.9645 2.59961Z" fill="white"/>
<path d="M101.877 2.6377C101.229 2.6377 100.58 2.7144 100.07 3.11732C99.571 3.51062 99.5217 3.97288 99.4898 4.35507H101.118C101.161 4.15336 101.255 3.70138 101.977 3.70138C102.561 3.70138 102.59 4.12736 102.612 4.38214V4.68384C101.921 4.81124 100.868 4.99895 100.422 5.19054C99.965 5.38113 99.2461 5.89239 99.2461 6.78414C99.2461 7.55913 99.7935 8.47831 101.068 8.4783C101.885 8.4783 102.349 8.12912 102.762 7.82075V8.32359H104.368C104.24 8.1325 104.201 8.0473 104.201 7.4533V4.23129C104.201 2.7986 102.557 2.63768 101.877 2.6377ZM102.612 5.67017C102.601 6.24345 102.569 6.74612 102.027 7.08584C101.858 7.19251 101.676 7.27538 101.474 7.27537C101.092 7.27537 100.851 6.97218 100.851 6.70678C100.851 6.28213 101.272 6.13269 101.548 6.02602L102.612 5.67017Z" fill="white"/>
<path d="M108.109 2.63867C106.261 2.63867 105.328 3.99501 105.328 5.60869C105.328 7.86995 107.009 8.50289 108.071 8.50288C108.697 8.50288 109.239 8.30723 109.664 8.00999C110.109 7.6915 110.334 7.34268 110.536 7.02419L109.31 6.37963C109.257 6.53888 109.195 6.66325 109.057 6.82198C108.717 7.20416 108.32 7.21377 108.235 7.21377C107.365 7.21377 106.997 6.29066 106.997 5.55814C106.997 4.88982 107.303 3.87723 108.185 3.87723C108.44 3.87723 108.633 3.96014 108.791 4.06681C109.057 4.2574 109.164 4.44647 109.259 4.64818L110.472 3.9657C109.771 2.80853 108.725 2.63866 108.109 2.63867Z" fill="white"/>
<path d="M110.789 0.818359V8.32556H112.432V5.57039C112.432 5.09266 112.434 4.6306 112.647 4.34447C112.784 4.1645 113.03 4.0285 113.317 4.02851C113.487 4.02851 113.916 4.07299 114.075 4.57196C114.139 4.76305 114.151 4.98549 114.151 5.43137V8.32556H115.769V4.68571C115.769 3.96329 115.689 3.44411 115.2 3.03008C114.871 2.75405 114.429 2.63828 114.025 2.63829C113.144 2.63829 112.666 3.13825 112.432 3.37131V0.818359H110.789Z" fill="white"/>
<path d="M117.156 2.77734V6.26554C117.156 7.16741 117.211 7.49349 117.498 7.89589C117.88 8.42721 118.552 8.48989 118.913 8.48989C119.275 8.48989 119.634 8.39434 119.962 8.22449C120.26 8.07535 120.359 7.97526 120.518 7.79478V8.32559H122.149V2.77734H120.518V6.22762C120.508 6.52437 120.49 6.81152 120.139 7.02384C119.896 7.16236 119.679 7.16286 119.583 7.16286C119.254 7.16286 119.034 7.01222 118.938 6.88482C118.812 6.71496 118.812 6.47229 118.812 6.22762V2.77734H117.156Z" fill="white"/>
<path d="M125.605 2.59961C124.055 2.59961 123.267 3.54396 123.267 4.45745C123.267 4.87098 123.44 5.25014 123.684 5.4938C123.928 5.73898 124.267 5.87801 124.607 5.97406C124.851 6.04837 125.109 6.10852 125.352 6.151C125.671 6.20408 126.056 6.22632 126.3 6.35321C126.396 6.4068 126.515 6.4902 126.515 6.68181C126.515 7.09584 125.91 7.22525 125.517 7.22526C124.901 7.22526 124.357 6.88958 123.911 6.45432L122.875 7.38956C123.225 7.71866 124.028 8.46382 125.567 8.46382C126.874 8.46382 128.184 7.8228 128.184 6.51751C128.184 5.20008 126.897 4.89929 125.782 4.69758C125.252 4.60204 124.897 4.54896 124.897 4.22996C124.897 4.07072 125.044 3.81289 125.681 3.81289C126.063 3.81289 126.551 3.96506 127.071 4.36898L128.083 3.43374C127.7 3.16783 126.912 2.59961 125.605 2.59961Z" fill="white"/>
<path d="M131.621 2.59961C129.433 2.59961 128.773 4.32151 128.773 5.65916C128.773 7.47454 129.921 8.52918 131.566 8.52918C132.458 8.52918 133.188 8.19037 133.667 7.74399C133.953 7.47858 134.144 7.19616 134.336 6.90851L133.098 6.28964C132.897 6.68244 132.586 7.26436 131.694 7.26436C130.813 7.26436 130.418 6.57743 130.429 5.88737H134.398C134.377 5.26152 134.339 4.17089 133.617 3.39641C132.905 2.63153 131.95 2.59961 131.621 2.59961ZM131.605 3.77547C131.891 3.77547 132.2 3.87882 132.402 4.08103C132.635 4.32521 132.676 4.6283 132.708 4.86236H130.445C130.498 4.6283 130.55 4.3755 130.773 4.13132C130.932 3.96095 131.212 3.77546 131.605 3.77547Z" fill="white"/>
<path d="M135.551 1.18557V2.90439H134.742V3.90282H135.551V6.56952C135.551 7.09932 135.556 7.49162 135.779 7.82072C136.129 8.3308 136.745 8.36418 137.308 8.36417C137.605 8.36417 137.817 8.34192 138.168 8.28834V7.01186L137.586 7.02448C137.152 7.02448 137.159 6.74492 137.169 6.4052V3.9028H138.243V2.91701H137.169V1.18555L135.551 1.18557Z" fill="white"/>
<path d="M138.887 1.18557V2.90439H138.078V3.90282H138.887V6.56952C138.887 7.09932 138.892 7.49162 139.115 7.82072C139.465 8.3308 140.081 8.36418 140.644 8.36417C140.941 8.36417 141.153 8.34192 141.503 8.28834V7.01186L140.922 7.02448C140.488 7.02448 140.495 6.74492 140.505 6.4052V3.9028H141.579V2.91701H140.505V1.18555L138.887 1.18557Z" fill="white"/>
<path d="M144.422 2.59961C142.871 2.59961 142.083 3.54396 142.083 4.45745C142.083 4.87098 142.257 5.25014 142.5 5.4938C142.745 5.73898 143.083 5.87801 143.423 5.97406C143.668 6.04837 143.925 6.10852 144.169 6.151C144.488 6.20408 144.873 6.22632 145.117 6.35321C145.213 6.4068 145.332 6.4902 145.332 6.68181C145.332 7.09584 144.726 7.22525 144.333 7.22526C143.718 7.22526 143.173 6.88958 142.728 6.45432L141.691 7.38956C142.042 7.71866 142.844 8.46382 144.384 8.46382C145.69 8.46382 147 7.8228 147 6.51751C147 5.20008 145.713 4.89929 144.599 4.69758C144.068 4.60204 143.714 4.54896 143.714 4.22996C143.714 4.07072 143.86 3.81289 144.497 3.81289C144.88 3.81289 145.367 3.96506 145.888 4.36898L146.899 3.43374C146.516 3.16783 145.728 2.59961 144.422 2.59961Z" fill="white"/>
<path d="M72.5 13.5703V21.0649H74.3707V13.5703H72.5Z" fill="white"/>
<path d="M80.8203 21.084V17.5958C80.8203 16.6939 80.7657 16.3678 80.479 15.9654C80.0968 15.4341 79.4244 15.3714 79.0634 15.3714C78.7019 15.3714 78.3429 15.467 78.0143 15.6368C77.717 15.786 77.6179 15.8861 77.4582 16.0665V15.5357H75.8276V21.084H77.4582V17.6337C77.4688 17.337 77.4865 17.0498 77.8374 16.8375C78.081 16.699 78.2974 16.6985 78.3935 16.6985C78.7221 16.6985 78.9426 16.8491 79.0381 16.9765C79.165 17.1464 79.1645 17.389 79.1645 17.6337V21.084H80.8203Z" fill="white"/>
<path d="M84.2458 15.3398C82.6957 15.3398 81.9075 16.2842 81.9075 17.1977C81.9075 17.6112 82.0809 17.9904 82.3246 18.234C82.5688 18.4792 82.9075 18.6182 83.2473 18.7143C83.492 18.7886 83.7493 18.8488 83.993 18.8912C84.312 18.9443 84.6968 18.9666 84.941 19.0934C85.037 19.147 85.1559 19.2304 85.1558 19.422C85.1558 19.8361 84.5507 19.9655 84.1573 19.9655C83.542 19.9655 82.9975 19.6298 82.5521 19.1946L81.5156 20.1298C81.866 20.4589 82.6684 21.2041 84.2079 21.2041C85.5143 21.2041 86.8243 20.563 86.8243 19.2577C86.8243 17.9403 85.5376 17.6395 84.4227 17.4378C83.8924 17.3423 83.538 17.2892 83.538 16.9702C83.538 16.811 83.6846 16.5531 84.3216 16.5531C84.7039 16.5531 85.1912 16.7053 85.712 17.1092L86.7232 16.174C86.3404 15.9081 85.5522 15.3398 84.2458 15.3398Z" fill="white"/>
<path d="M87.9847 13.9238V15.6427H87.1758V16.6411H87.9847V19.3078C87.9847 19.8376 87.9898 20.2299 88.2122 20.559C88.5626 21.0691 89.1789 21.1025 89.7416 21.1024C90.0389 21.1024 90.2502 21.0802 90.6011 21.0266V19.7501L90.0197 19.7628C89.5854 19.7628 89.5925 19.4832 89.6026 19.1435V16.6411H90.677V15.6553H89.6026V13.9238L87.9847 13.9238Z" fill="white"/>
<path d="M91.5625 13.5566V14.8215H93.1795V13.5566H91.5625ZM91.5625 15.5177V21.0643H93.1795V15.5177H91.5625Z" fill="white"/>
<path d="M94.848 13.9238V15.6427H94.0391V16.6411H94.848V19.3078C94.848 19.8376 94.8531 20.2299 95.0755 20.559C95.4259 21.0691 96.0422 21.1025 96.6049 21.1024C96.9022 21.1024 97.1135 21.0802 97.4644 21.0266V19.7501L96.883 19.7628C96.4487 19.7628 96.4558 19.4832 96.4659 19.1435V16.6411H97.5402V15.6553H96.4659V13.9238L94.848 13.9238Z" fill="white"/>
<path d="M98.3555 15.5166V19.0048C98.3555 19.9067 98.4101 20.2327 98.6967 20.6351C99.079 21.1665 99.7514 21.2291 100.112 21.2292C100.474 21.2292 100.833 21.1336 101.161 20.9637C101.459 20.8146 101.558 20.7145 101.718 20.534V21.0649H103.348V15.5166H101.718V18.9669C101.707 19.2636 101.689 19.5508 101.338 19.7631C101.095 19.9016 100.878 19.9021 100.782 19.9021C100.454 19.9021 100.233 19.7515 100.138 19.6241C100.011 19.4542 100.011 19.2116 100.011 18.9669V15.5166H98.3555Z" fill="white"/>
<path d="M105.02 13.9238V15.6427H104.211V16.6411H105.02V19.3078C105.02 19.8376 105.025 20.2299 105.247 20.559C105.598 21.0691 106.214 21.1025 106.777 21.1024C107.074 21.1024 107.285 21.0802 107.636 21.0266V19.7501L107.055 19.7628C106.621 19.7628 106.628 19.4832 106.638 19.1435V16.6411H107.712V15.6553H106.638V13.9238L105.02 13.9238Z" fill="white"/>
<path d="M111.039 15.3379C108.851 15.3379 108.191 17.0598 108.191 18.3974C108.191 20.2128 109.339 21.2675 110.984 21.2675C111.876 21.2675 112.606 20.9286 113.085 20.4823C113.371 20.2169 113.562 19.9344 113.754 19.6468L112.516 19.0279C112.314 19.4207 112.004 20.0026 111.112 20.0026C110.231 20.0026 109.836 19.3157 109.847 18.6257H113.816C113.795 17.9998 113.757 16.9092 113.035 16.1347C112.323 15.3698 111.368 15.3379 111.039 15.3379ZM111.023 16.5137C111.309 16.5137 111.618 16.6171 111.82 16.8193C112.053 17.0635 112.094 17.3666 112.126 17.6006H109.863C109.916 17.3666 109.968 17.1138 110.191 16.8696C110.35 16.6992 110.63 16.5137 111.023 16.5137Z" fill="white"/>
<path d="M120.256 15.3478C120.19 15.3481 120.125 15.3496 120.062 15.3516C118.195 15.4098 117.258 16.6911 117.258 18.2835C117.258 20.3325 118.68 21.2309 120.24 21.2309C122.406 21.2309 123.211 19.6849 123.211 18.2835C123.211 17.2745 122.715 15.479 120.453 15.3516C120.387 15.348 120.322 15.3474 120.256 15.3478ZM120.233 16.6358C120.468 16.6295 120.802 16.6783 121.099 16.9568C121.407 17.2541 121.556 17.7336 121.556 18.3493C121.556 19.2193 121.121 19.9274 120.24 19.9274C119.327 19.9274 118.898 19.1526 118.898 18.2719C118.898 17.8898 118.975 17.5041 119.177 17.185C119.4 16.8347 119.673 16.6715 120.14 16.6397C120.169 16.637 120.199 16.6367 120.233 16.6358Z" fill="white"/>
<path d="M126.197 13.457C125.432 13.457 124.97 13.7502 124.769 14.0258C124.556 14.3225 124.541 14.6976 124.541 14.9736V15.6561H123.656V16.6419H124.528V21.0653H126.159V16.6419H127.233V15.6561H126.146C126.135 14.913 126.163 14.7841 126.778 14.7841H127.17V13.5581C126.852 13.5157 126.526 13.457 126.197 13.457Z" fill="white"/>
<path d="M70.5938 26.2969V27.7882H72.5529V33.8041H74.4236V27.7882H76.3701V26.2969H70.5938Z" fill="white"/>
<path d="M78.808 28.0781C76.6209 28.0781 75.9609 29.8 75.9609 31.1377C75.9609 32.9531 77.1082 34.0077 78.7539 34.0077C79.6457 34.0077 80.3756 33.6689 80.8544 33.2225C81.1406 32.9571 81.332 32.6747 81.5236 32.387L80.2858 31.7682C80.084 32.161 79.7734 32.7429 78.8815 32.7429C78.0008 32.7429 77.6055 32.0559 77.6166 31.3659H81.5855C81.5648 30.74 81.5266 29.6494 80.8041 28.8749C80.0928 28.11 79.1377 28.0781 78.808 28.0781ZM78.7926 29.254C79.0787 29.254 79.3872 29.3573 79.5894 29.5595C79.8225 29.8037 79.8632 30.1068 79.895 30.3409H77.6321C77.6856 30.1068 77.7374 29.854 77.9609 29.6098C78.1196 29.4395 78.3992 29.254 78.7926 29.254Z" fill="white"/>
<path d="M84.937 28.1172C83.0896 28.1172 82.1563 29.4735 82.1562 31.0872C82.1562 33.3485 83.8373 33.9814 84.8991 33.9814C85.5255 33.9814 86.0675 33.7857 86.4917 33.4885C86.9376 33.17 87.1621 32.8212 87.3638 32.5027L86.1377 31.8581C86.0847 32.0174 86.023 32.1418 85.885 32.3005C85.5447 32.6827 85.1483 32.6923 85.0634 32.6923C84.1928 32.6923 83.8247 31.7692 83.8247 31.0367C83.8247 30.3683 84.1316 29.3557 85.0128 29.3557C85.2676 29.3557 85.4608 29.4387 85.6195 29.5453C85.8855 29.7359 85.9921 29.925 86.0872 30.1267L87.3006 29.4442C86.5993 28.287 85.5528 28.1172 84.937 28.1172Z" fill="white"/>
<path d="M87.6328 26.2969V33.8041H89.276V31.0489C89.276 30.5712 89.278 30.1091 89.4908 29.823C89.6279 29.643 89.8741 29.507 90.1607 29.507C90.3306 29.507 90.7599 29.5515 90.9191 30.0505C90.9828 30.2416 90.995 30.464 90.995 30.9099V33.8041H92.6128V30.1642C92.6128 29.4418 92.5325 28.9226 92.0441 28.5086C91.7149 28.2326 91.2725 28.1168 90.8686 28.1168C89.9878 28.1168 89.5096 28.6168 89.276 28.8498V26.2969H87.6328Z" fill="white"/>
<path d="M99.0234 33.8232V30.335C99.0234 29.4332 98.9688 29.1071 98.6822 28.7047C98.2999 28.1734 97.6275 28.1107 97.2665 28.1107C96.905 28.1107 96.5461 28.2062 96.2174 28.3761C95.9201 28.5252 95.8211 28.6253 95.6613 28.8058V28.275H94.0308V33.8232H95.6613V30.373C95.6719 30.0762 95.6896 29.7891 96.0405 29.5767C96.2842 29.4382 96.5006 29.4377 96.5966 29.4377C96.9253 29.4377 97.1457 29.5884 97.2412 29.7158C97.3681 29.8856 97.3676 30.1283 97.3676 30.373V33.8232H99.0234Z" fill="white"/>
<path d="M103.068 28.087C103.002 28.0874 102.937 28.0889 102.875 28.0909C101.007 28.149 100.07 29.4304 100.07 31.0228C100.07 33.0717 101.492 33.9702 103.053 33.9702C105.219 33.9702 106.024 32.4241 106.024 31.0228C106.024 30.0138 105.527 28.2183 103.266 28.0909C103.199 28.0872 103.134 28.0866 103.068 28.087ZM103.045 29.3751C103.281 29.3688 103.614 29.4175 103.912 29.6961C104.219 29.9934 104.368 30.4728 104.368 31.0886C104.368 31.9586 103.934 32.6667 103.053 32.6667C102.14 32.6667 101.71 31.8918 101.71 31.0112C101.71 30.629 101.787 30.2433 101.989 29.9243C102.212 29.574 102.486 29.4108 102.952 29.3789C102.981 29.3763 103.011 29.3759 103.045 29.3751Z" fill="white"/>
<path d="M107.086 26.3096V33.8041H108.729V26.3096H107.086Z" fill="white"/>
<path d="M112.807 28.0861C112.741 28.0864 112.675 28.0879 112.613 28.0899C110.745 28.148 109.809 29.4294 109.809 31.0218C109.809 33.0708 111.23 33.9692 112.791 33.9692C114.957 33.9692 115.762 32.4232 115.762 31.0218C115.762 30.0128 115.265 28.2173 113.004 28.0899C112.937 28.0862 112.872 28.0856 112.807 28.0861ZM112.783 29.3741C113.019 29.3678 113.353 29.4165 113.65 29.6951C113.958 29.9924 114.106 30.4718 114.106 31.0876C114.106 31.9576 113.672 32.6657 112.791 32.6657C111.878 32.6657 111.449 31.8909 111.449 31.0102C111.449 30.628 111.526 30.2423 111.727 29.9233C111.951 29.573 112.224 29.4098 112.691 29.3779C112.72 29.3753 112.75 29.375 112.783 29.3741Z" fill="white"/>
<path d="M118.789 28.166C116.953 28.166 116.438 29.77 116.438 30.8852C116.438 31.8406 116.719 32.6934 117.463 33.1711C117.824 33.4153 118.271 33.5386 118.728 33.5386C119.481 33.5386 119.875 33.2834 120.194 33.0706V33.6662C120.194 34.1233 120.195 34.7029 119.207 34.7029C118.952 34.7029 118.795 34.6515 118.689 34.5984C118.253 34.3962 118.23 34.0502 118.209 33.8055H116.515C116.515 34.1027 116.508 34.6583 116.944 35.0935C117.241 35.4019 117.963 35.7898 119.068 35.7898C119.566 35.7898 120.401 35.6996 120.963 35.3604C121.77 34.8928 121.789 34.1824 121.811 33.5773V28.255H120.283V28.7733C120.038 28.5392 119.639 28.166 118.789 28.166ZM119.091 29.3806C119.558 29.3598 119.85 29.585 119.977 29.7867C120.158 30.0526 120.178 30.6082 120.178 30.8736C120.178 31.6592 119.997 32.3009 119.169 32.3009C118.16 32.3009 118.12 31.3412 118.12 30.8736C118.12 30.088 118.317 29.4134 119.091 29.3806Z" fill="white"/>
<path d="M122.516 28.2559L124.171 33.6145C124.204 33.7308 124.247 33.8678 124.247 34.0063C124.247 34.3986 123.83 34.3996 123.565 34.4108H122.996V35.6999H124.171C124.596 35.6892 124.965 35.672 125.347 35.2575C125.622 34.9497 125.737 34.6074 125.865 34.2465L127.824 28.2559H126.08L125.17 32.237L124.26 28.2559H122.516Z" fill="white"/>
</g>
<defs>
<clipPath id="clip0_1_2869">
<rect width="147" height="36" fill="white"/>
</clipPath>
</defs>
</svg>
