<svg width="127" height="36" viewBox="0 0 127 36" fill="none" xmlns="http://www.w3.org/2000/svg">
<g clip-path="url(#clip0_1_3287)">
<path d="M20.7719 10.9035H2.20023L0 13.1019L0.00114074 22.7431C0.00114074 28.3583 4.30188 33.0058 9.89197 33.6987L11.9878 31.5722H11.3468C6.333 31.5722 2.27093 27.6057 2.27093 22.7431V13.1019H4.54561L4.53958 22.7431C4.53958 26.3871 7.58617 29.35 11.3468 29.35H14.1963L16.3871 27.1517H11.3468C8.84049 27.1517 6.81915 25.1685 6.81915 22.7431V13.1019H9.06972L9.0733 22.7431C9.07933 23.9499 10.0924 24.9415 11.3468 24.9415H18.5764L20.7647 22.7431H11.3468V13.1019H20.7719V33.7822H23.0466L23.0454 13.1017C23.0381 11.8831 22.0251 10.9035 20.7719 10.9035ZM32.1176 33.7822L32.1163 13.1017C32.1163 7.02056 27.0365 2.0625 20.7719 2.0625H10.9734L8.77923 4.27268H20.7719C25.781 4.27268 29.844 8.23916 29.844 13.1017V33.7822H32.1176ZM20.7719 6.49486L6.58487 6.48286L4.39084 8.6812L20.7719 8.6932C23.276 8.6932 25.2984 10.6764 25.2984 13.1017V33.7822H27.5695L27.5767 13.1017C27.5767 9.45776 24.529 6.49486 20.7719 6.49486ZM96.4272 29.7442L98.4197 25.3119L100.412 29.7442H96.4272ZM99.152 23.436L99.0919 23.3167H97.7837L97.7356 23.436L93.1431 33.5195L93.0183 33.7944H94.6146L94.6628 33.6869L95.8031 31.154H101.025L102.153 33.6869L102.213 33.7944H103.857L103.737 33.5195L99.152 23.436ZM60.3256 23.3884H60.1324V24.822H63.5113V33.7944H65.055V24.822H68.4328V23.3884H68.2383H60.3256ZM69.2094 8.35883H72.4251C74.605 8.35883 75.8557 9.35041 75.8557 11.0827V11.1186C75.8557 12.7912 74.479 13.8784 72.3484 13.8784H69.2094V8.35883ZM77.7871 11.0587V11.023C77.7871 8.323 75.7273 6.56669 72.5416 6.56669H67.2959V20.3896H69.2093V15.6466H72.2907C75.0261 15.6466 77.7871 14.2246 77.7871 11.0587ZM90.2659 23.3884H90.0703V33.7944H91.597V23.3884H91.4002H90.2659ZM71.509 32.3844V29.2662H77.002V27.8444H71.5092V24.8101H77.6478V23.3885H69.9836V33.7945H77.7198V32.3846H77.5266L71.509 32.3844ZM81.1574 28.5016V24.8218H84.0695C85.582 24.8218 86.4486 25.4789 86.4486 26.602V26.6378C86.4486 27.7729 85.51 28.5016 84.0551 28.5016H81.1574ZM85.3935 29.6245C87.0188 29.2303 87.9886 28.1192 87.9886 26.59V26.5661C87.9886 25.7297 87.6921 24.989 87.1545 24.4515C86.4689 23.7704 85.4031 23.3882 84.1547 23.3882H79.633V33.7942H81.1574V29.8992H83.7407L86.6022 33.7225L86.661 33.7942H88.5434L88.3081 33.4835L85.3935 29.6245ZM87.697 20.3895V18.5973H81.597V6.56669H79.685V20.3896H87.5036L87.697 20.3895ZM54.3285 29.744L56.3271 25.3117L58.3137 29.744H54.3285ZM57.0534 23.4359L57.0006 23.3165H55.685L55.6334 23.4359L51.0455 33.5193L50.9221 33.7942H52.5125L52.5653 33.6867L53.7068 31.1538H58.9343L60.0613 33.6867L60.113 33.7942H61.7637L61.6389 33.5193L57.0534 23.4359ZM109.271 8.35867H112.236C115.417 8.35867 117.637 10.4613 117.637 13.4839V13.5198C117.637 16.5067 115.417 18.5973 112.236 18.5973H109.271L109.271 8.35867ZM112.236 20.3895C116.509 20.3895 119.606 17.4862 119.606 13.4839V13.4366C119.606 9.45808 116.509 6.56685 112.236 6.56685H107.362V20.3898H107.554L112.236 20.3895ZM116.257 27.8564C114.072 27.3905 113.676 26.9007 113.676 26.1003V26.0763C113.676 25.24 114.48 24.6546 115.621 24.6546C116.641 24.6546 117.529 24.989 118.405 25.6941L118.561 25.8254L118.681 25.6701L119.342 24.786L119.462 24.6426L119.306 24.5231C118.189 23.6271 117.097 23.2449 115.657 23.2449C113.628 23.2449 112.152 24.4873 112.152 26.1718V26.2078C112.152 28.1312 113.556 28.8241 115.681 29.29C117.757 29.7202 118.141 30.2099 118.141 30.9985V31.0225C118.141 31.9304 117.325 32.5398 116.101 32.5398C114.816 32.5398 113.856 32.1454 112.776 31.1658L112.632 31.0345L112.5 31.1897L111.791 32.0259L111.671 32.1572L111.815 32.2888C113.076 33.4118 114.432 33.9375 116.053 33.9375C118.189 33.9375 119.69 32.695 119.69 30.915V30.879C119.69 29.29 118.657 28.3821 116.257 27.8564ZM91.7781 20.3895V6.56669H89.8663V20.3896H91.5861L91.7781 20.3895ZM56.763 8.35883H59.9812C62.161 8.35883 63.4106 9.35041 63.4106 11.0827V11.1186C63.4106 12.7912 62.0349 13.8784 59.903 13.8784H56.7632L56.763 8.35883ZM56.5698 20.3896H56.763V15.6466H59.8468C62.5822 15.6466 65.342 14.2248 65.342 11.0589V11.023C65.342 8.323 63.2832 6.56669 60.0964 6.56669H54.8522V20.3896H55.0465H56.5698ZM45.8914 8.90838L48.6572 15.085H43.1067L45.8914 8.90838ZM40.7349 20.3896L40.7865 20.2701L42.3338 16.8413H49.4265L50.9558 20.2701L51.0074 20.3896H53.0732L52.9483 20.1148L46.8002 6.59069L46.7497 6.47118H45.0716L45.0201 6.59069L38.8694 20.1148L38.7447 20.3896H40.6088H40.7349ZM106.75 32.3726V23.3884H105.238V33.7944H110.723V32.3726H110.531H106.75ZM48.2034 23.3884H48.099L48.0425 23.484L44.5364 28.7048L41.0325 23.4839L40.9737 23.3882H39.5249V33.7945H41.0218V26.1364L44.3334 30.963L44.3898 31.0466H44.6539L44.7116 30.963L48.0234 26.1243V33.7945H49.549V23.3885H49.3544L48.2034 23.3884ZM96.6792 18.6215V14.3085H104.049V12.5402H96.6792V8.33499H104.914V6.56669H94.7706V20.3896H105.009V18.6215H104.818H96.6792ZM124.683 31.405C125.043 31.405 125.283 31.2495 125.283 30.9628V30.9508C125.283 30.6881 125.067 30.5208 124.707 30.5208H123.975V31.4048L124.683 31.405ZM123.603 30.1862H124.719C125.043 30.1862 125.296 30.2938 125.464 30.4491C125.584 30.5686 125.668 30.7358 125.668 30.927V30.9508C125.668 31.3452 125.391 31.584 125.019 31.6797L125.8 32.6713H125.332L124.611 31.7394H123.975V32.6713H123.603L123.603 30.1862ZM126.784 31.5005V31.4885C126.784 30.2819 125.824 29.2902 124.563 29.2902C123.303 29.2902 122.343 30.2939 122.343 31.5004V31.5124C122.343 32.7309 123.291 33.7225 124.551 33.7225C125.824 33.7225 126.784 32.7191 126.784 31.5005ZM122.127 31.5124V31.5005C122.127 30.1862 123.195 29.0752 124.563 29.0752C125.932 29.0752 127 30.1624 127 31.4885V31.5005C127 32.8266 125.92 33.9257 124.551 33.9257C123.183 33.9257 122.127 32.8385 122.127 31.5124Z" fill="white"/>
</g>
<defs>
<clipPath id="clip0_1_3287">
<rect width="127" height="36" fill="white"/>
</clipPath>
</defs>
</svg>
