<svg width="140" height="26" viewBox="0 0 140 26" fill="none" xmlns="http://www.w3.org/2000/svg">
<g clip-path="url(#clip0_1_2860)">
<path d="M18.3977 4.0625L24.3072 6.03958L24.36 19.0035L20.5258 20.3215L20.4995 13.4333L17.2369 14.5618L17.2633 21.45L12.7871 22.9847L12.7344 10.0208L18.3977 4.0625ZM12.7871 24.4111L26.0484 19.8431L26.0572 21.4319L12.7959 26" fill="white"/>
<path d="M16.7994 3.50278L18.3999 4.0625L12.7366 10.0208L12.7893 22.9847L11.18 22.4431L11.1361 9.47917L16.7994 3.50278ZM12.6486 2.07639L15.3748 3.01528L9.73783 8.97361L9.79939 21.9556L7.07326 21.0167L7.02049 8.03472L12.6486 2.07639ZM6.84461 0L11.1097 1.49861L5.44637 7.475L5.50793 20.4931L1.23406 18.9944L1.1813 5.96736L6.84461 0ZM12.7981 26L0.055669 21.4951L0.046875 19.9062L12.7893 24.4111" fill="white"/>
<path fill-rule="evenodd" clip-rule="evenodd" d="M43.3867 9.65064C43.3867 12.3861 41.5576 13.7492 37.8817 13.8305H36.0702V19.4277H32.8516V5.7055H38.6732C41.6104 5.7055 43.3955 7.30341 43.3867 9.65064ZM37.4068 12.8736C39.5526 12.8736 40.089 11.4923 40.089 9.66869C40.089 8.10689 39.5877 6.66244 37.6355 6.66244H36.0702V12.8736H37.4068ZM72.9257 5.77772C72.9257 5.04647 73.3478 4.39647 74.0073 4.11661C74.6581 3.83675 75.4144 3.99022 75.9156 4.5048C76.4169 5.01939 76.5664 5.79578 76.2938 6.46383C76.0212 7.14091 75.388 7.57425 74.6757 7.57425C74.447 7.57425 74.2184 7.52911 74.0073 7.43883C73.7963 7.34855 73.6028 7.21314 73.4445 7.04161C73.2774 6.87911 73.1455 6.6805 73.0576 6.46383C72.9697 6.24716 72.9257 6.01244 72.9257 5.77772ZM73.1455 8.92841H76.2058V19.4277H73.1455V8.92841ZM122.286 19.7347C119.156 19.7347 116.632 17.3423 116.632 14.3812C116.632 11.4201 119.156 9.01869 122.286 9.01869C125.408 9.01869 127.932 11.4201 127.932 14.3812C127.932 17.3423 125.408 19.7347 122.286 19.7347ZM124.643 14.3722C124.643 11.0499 123.878 9.9305 122.286 9.9305C120.686 9.9305 119.947 11.0499 119.947 14.3722C119.947 17.6944 120.712 18.8138 122.295 18.8138C123.878 18.8138 124.643 17.6312 124.643 14.3722ZM71.29 16.4305C71.29 18.4979 69.496 19.7076 66.9194 19.7076C66.6204 19.7076 66.3214 19.6925 66.0224 19.6624C65.7234 19.6323 65.4244 19.5872 65.1254 19.527C64.8323 19.4668 64.5421 19.3916 64.2548 19.3013C63.9676 19.2111 63.6832 19.1057 63.4018 18.9854V17.7215C63.5308 17.7877 63.6568 17.8509 63.78 17.9111C63.9089 17.9712 64.0379 18.0314 64.1669 18.0916C64.2959 18.1458 64.4248 18.1999 64.5538 18.2541C64.6828 18.3023 64.8147 18.3504 64.9496 18.3986C65.3629 18.5249 65.8817 18.6694 66.5413 18.8319C67.9923 19.1659 68.5023 18.6874 68.6958 18.1729C68.7427 18.0585 68.772 17.9411 68.7837 17.8208C68.7955 17.6944 68.7955 17.571 68.7837 17.4506C68.7661 17.3303 68.731 17.2129 68.6782 17.0986C68.6313 16.9842 68.5727 16.8789 68.5023 16.7826C68.4789 16.7645 68.4583 16.7435 68.4408 16.7194C68.4173 16.6953 68.3968 16.6742 68.3792 16.6562C68.3557 16.6321 68.3323 16.6111 68.3088 16.593C68.2913 16.5749 68.2707 16.5539 68.2473 16.5298C68.1007 16.4335 67.9512 16.3372 67.7988 16.2409C67.6464 16.1506 67.491 16.0664 67.3327 15.9881C67.1744 15.9039 67.0161 15.8286 66.8578 15.7624C66.6937 15.6902 66.5266 15.624 66.3566 15.5638C64.9056 14.977 63.2875 14.318 63.2875 12.2145C63.2875 10.2284 64.8792 9.01869 67.4031 9.01869H67.6493C67.9014 9.03675 68.1506 9.06985 68.3968 9.118C68.643 9.16013 68.8863 9.22031 69.1267 9.29855C69.3671 9.37078 69.6045 9.45804 69.839 9.56036C70.0676 9.66267 70.2904 9.77702 70.5073 9.90341V11.0499C70.3315 10.9356 70.1497 10.8242 69.9621 10.7159C69.7804 10.6136 69.5928 10.5173 69.3993 10.427C69.2058 10.3367 69.0094 10.2555 68.8101 10.1833C68.6108 10.1111 68.4114 10.0448 68.2121 9.98466C68.13 9.95457 68.045 9.92749 67.9571 9.90341C67.875 9.87934 67.79 9.86128 67.7021 9.84925C67.62 9.83119 67.535 9.81615 67.447 9.80411C67.3591 9.79207 67.2712 9.78304 67.1832 9.77703C67.107 9.77101 67.0337 9.768 66.9634 9.768C66.8872 9.768 66.8139 9.77101 66.7435 9.77703C66.6673 9.78906 66.594 9.80411 66.5237 9.82216C66.4533 9.84022 66.383 9.86128 66.3126 9.88536C66.2305 9.92749 66.1573 9.97865 66.0928 10.0388C66.0283 10.105 65.9726 10.1773 65.9257 10.2555C65.8788 10.3337 65.8407 10.415 65.8114 10.4992C65.7879 10.5895 65.7762 10.6798 65.7762 10.7701V11.0499C65.9081 12.1694 66.9106 12.5666 67.8867 12.9999C69.4169 13.7222 71.29 14.3631 71.29 16.4305ZM95.4558 12.8013V19.4277H92.3867V12.4583C92.3867 11.0319 91.991 10.1562 90.6543 10.1562C90.4257 10.1562 90.2058 10.2013 89.9948 10.2736C89.7749 10.3548 89.5815 10.4812 89.4144 10.6347C89.2385 10.7791 89.0978 10.9687 88.9923 11.1673C88.8867 11.3749 88.8164 11.5916 88.7812 11.8263C88.7695 11.8986 88.7578 11.9738 88.746 12.052C88.7343 12.1303 88.7255 12.2085 88.7197 12.2867C88.7138 12.365 88.7109 12.4402 88.7109 12.5124C88.705 12.5907 88.7021 12.6689 88.7021 12.7472V19.4277H85.633V12.4492C85.633 11.0229 85.246 10.1472 83.9094 10.1472C83.6807 10.1472 83.4609 10.1833 83.2498 10.2645C83.0387 10.3458 82.8453 10.4631 82.6782 10.6076C82.5111 10.7611 82.3704 10.9416 82.2649 11.1402C82.1594 11.3388 82.089 11.5645 82.0538 11.7902C82.0421 11.8564 82.0304 11.9226 82.0186 11.9888C82.0069 12.055 81.9952 12.1212 81.9835 12.1874C81.9776 12.2536 81.9717 12.3198 81.9659 12.3861C81.96 12.4523 81.9571 12.5215 81.9571 12.5937V19.4277H78.844V8.92841H80.0488L81.5877 10.2826C82.9772 8.76591 85.5538 9.03675 85.5538 9.03675C85.8089 9.03675 86.0639 9.07286 86.3101 9.14508C86.5563 9.20828 86.7938 9.30758 87.0224 9.43397C87.2423 9.55133 87.4533 9.7048 87.6468 9.88536C87.8315 10.0659 87.9985 10.2645 88.1392 10.4812C89.4671 8.73883 92.2812 9.03675 92.2812 9.03675C94.3566 9.12702 95.4207 10.3999 95.4558 12.8013ZM114.618 12.8013V19.4277H111.549V12.4583C111.549 11.0319 111.153 10.1562 109.816 10.1562C109.588 10.1562 109.368 10.1923 109.157 10.2736C108.937 10.3548 108.744 10.4812 108.576 10.6256C108.401 10.7791 108.26 10.9597 108.154 11.1673C108.04 11.3749 107.97 11.5916 107.934 11.8263C107.923 11.8986 107.911 11.9738 107.899 12.052C107.893 12.1303 107.888 12.2085 107.882 12.2867C107.876 12.365 107.87 12.4402 107.864 12.5124C107.864 12.5907 107.864 12.6689 107.864 12.7472V19.4277H104.795V12.4492C104.795 11.0229 104.399 10.1472 103.063 10.1472C102.843 10.1472 102.623 10.1923 102.421 10.2736C102.21 10.3548 102.016 10.4722 101.858 10.6166C101.691 10.7701 101.55 10.9506 101.445 11.1492C101.339 11.3479 101.269 11.5645 101.242 11.7902C101.225 11.8564 101.21 11.9226 101.198 11.9888C101.187 12.055 101.178 12.1212 101.172 12.1874C101.166 12.2536 101.16 12.3198 101.154 12.3861C101.148 12.4523 101.146 12.5215 101.146 12.5937V19.4277H98.0764V8.91939H99.2812L100.803 10.2736C102.201 8.76591 104.769 9.03675 104.769 9.03675C105.024 9.03675 105.279 9.07286 105.525 9.13605C105.78 9.19925 106.017 9.29855 106.246 9.42494C106.466 9.55133 106.677 9.7048 106.87 9.88536C107.055 10.0569 107.222 10.2645 107.372 10.4812C108.691 8.73883 111.505 9.03675 111.505 9.03675C113.563 9.12702 114.618 10.3999 114.618 12.8013ZM139.945 12.8013V19.4277H136.849V12.4944C136.849 11.0409 136.418 10.1923 135.081 10.1923C134.994 10.1923 134.903 10.1983 134.809 10.2104C134.721 10.2164 134.636 10.2344 134.554 10.2645C134.466 10.2886 134.381 10.3217 134.299 10.3638C134.217 10.3999 134.141 10.4451 134.07 10.4992H134.017L133.965 10.5354C133.883 10.6136 133.803 10.6979 133.727 10.7881C133.657 10.8724 133.592 10.9657 133.534 11.068C133.469 11.1643 133.416 11.2666 133.375 11.3749C133.329 11.4833 133.29 11.5916 133.261 11.6999C133.249 11.7481 133.241 11.7962 133.235 11.8444C133.223 11.8925 133.214 11.9407 133.208 11.9888C133.197 12.037 133.188 12.0851 133.182 12.1333C133.17 12.1814 133.161 12.2296 133.156 12.2777C133.156 12.3409 133.156 12.3951 133.156 12.4492C133.15 12.5155 133.144 12.5817 133.138 12.6479C133.132 12.7141 133.126 12.7803 133.12 12.8465C133.12 12.9187 133.117 12.9879 133.112 13.0541C133.112 13.1203 133.112 13.1865 133.112 13.2527V19.4277H129.999V8.91939H131.203L132.786 10.3097C134.176 8.75689 136.779 9.03675 136.779 9.03675C138.845 9.13605 139.953 10.3548 139.945 12.8013ZM62.2586 9.00966V10.1652C62.1355 10.1592 62.0124 10.1592 61.8893 10.1652C61.7603 10.1712 61.6342 10.1803 61.5111 10.1923C61.388 10.2043 61.2649 10.2224 61.1418 10.2465C61.0245 10.2645 60.9043 10.2886 60.7812 10.3187C60.5614 10.3999 60.3503 10.5173 60.1656 10.6708C59.981 10.8152 59.8227 11.0048 59.6908 11.2034C59.5676 11.4111 59.4709 11.6367 59.4181 11.8715C59.3654 12.1062 59.3478 12.3499 59.3742 12.5937V19.4277H56.2963V8.92841H57.5099L59.04 10.2826C59.2393 10.078 59.4533 9.8974 59.682 9.74091C59.9106 9.58443 60.151 9.45203 60.4031 9.34369C60.661 9.23536 60.9248 9.1511 61.1945 9.09091C61.4642 9.03675 61.7368 9.00966 62.0124 9.00966H62.2586ZM47.6342 14.4444C47.6284 14.6731 47.6313 14.9018 47.643 15.1305C47.6547 15.3532 47.6753 15.5789 47.7046 15.8076C47.7339 16.0303 47.772 16.253 47.8189 16.4756C47.8658 16.6983 47.9215 16.918 47.986 17.1347C48.0387 17.3273 48.1179 17.5108 48.2234 17.6854C48.3231 17.8599 48.4433 18.0194 48.584 18.1638C48.7247 18.3083 48.88 18.4317 49.0501 18.534C49.2259 18.6423 49.4077 18.7236 49.5953 18.7777C49.8767 18.8499 51.7058 19.2742 53.9395 17.252V18.2902C53.9395 18.2902 53.8252 18.3986 53.6229 18.552C53.365 18.7627 53.0894 18.9492 52.7963 19.1117C52.509 19.2682 52.2071 19.3976 51.8905 19.4999C51.5739 19.6023 51.2515 19.6775 50.9232 19.7256C50.5949 19.7678 50.2666 19.7798 49.9382 19.7617C46.1832 19.7617 44.3101 17.3152 44.3101 14.3451C44.3101 10.7069 47.1066 9.0548 49.8239 9.0548C52.5501 9.0548 54.3176 10.8242 54.3176 13.3159C54.3118 13.4062 54.3059 13.4995 54.3001 13.5958C54.2942 13.6921 54.2854 13.7884 54.2737 13.8847C54.2619 13.981 54.2473 14.0742 54.2297 14.1645C54.2121 14.2608 54.1945 14.3541 54.1769 14.4444H47.6342ZM49.8239 9.94855C48.2498 9.94855 47.7134 11.1041 47.643 13.5867H51.6531C51.6531 13.3159 51.6531 13.0631 51.6531 12.8645C51.6531 10.8694 51.0639 9.97564 49.8239 9.97564V9.94855Z" fill="white"/>
</g>
<defs>
<clipPath id="clip0_1_2860">
<rect width="140" height="26" fill="white"/>
</clipPath>
</defs>
</svg>
