<svg width="1607" height="949" viewBox="0 0 1607 949" fill="none" xmlns="http://www.w3.org/2000/svg">
<circle cx="803.5" cy="414.5" r="144" stroke="white" stroke-opacity="0.1"/>
<circle cx="803.5" cy="625.5" r="625" stroke="white" stroke-opacity="0.1"/>
<circle cx="803.5" cy="1362.5" r="803" stroke="white" stroke-opacity="0.1"/>
<path d="M1363.5 1353.5C1363.5 1661.67 1112.78 1911.5 803.5 1911.5C494.219 1911.5 243.5 1661.67 243.5 1353.5C243.5 1045.33 494.219 795.5 803.5 795.5C1112.78 795.5 1363.5 1045.33 1363.5 1353.5Z" stroke="white" stroke-opacity="0.1"/>
<path d="M567.28 413.507C567.662 351.132 592.723 291.445 636.984 247.494C681.245 203.542 741.106 178.9 803.483 178.955C865.859 179.01 925.677 203.757 969.86 247.786C1014.04 291.815 1039 351.546 1039.27 413.922" stroke="white" stroke-opacity="0.1"/>
</svg>
