<svg width="1920" height="1080" viewBox="0 0 1920 1080" fill="none" xmlns="http://www.w3.org/2000/svg">
<line y1="93.5" x2="1920" y2="93.5" stroke="#DC4444" stroke-opacity="0.11"/>
<line y1="544.5" x2="1920" y2="544.5" stroke="#DC4444" stroke-opacity="0.11"/>
<circle cx="958.5" cy="163.5" r="144" stroke="#DC4444" stroke-opacity="0.2"/>
<circle cx="958.5" cy="374.5" r="625" stroke="#DC4444" stroke-opacity="0.2"/>
<circle cx="958.5" cy="1111.5" r="803" stroke="#DC4444" stroke-opacity="0.2"/>
<path d="M1518.5 1102.5C1518.5 1410.67 1267.78 1660.5 958.5 1660.5C649.219 1660.5 398.5 1410.67 398.5 1102.5C398.5 794.327 649.219 544.5 958.5 544.5C1267.78 544.5 1518.5 794.327 1518.5 1102.5Z" stroke="#DC4444" stroke-opacity="0.2"/>
<circle cx="958.5" cy="163.5" r="14.5" fill="#1E1D1D"/>
<path d="M732.87 94.0365C747.859 45.7153 777.979 3.48989 818.789 -26.4124C859.599 -56.3147 908.938 -72.3109 959.53 -72.0419C1010.12 -71.7728 1059.29 -55.2528 1099.78 -24.9182C1140.27 5.41639 1169.94 47.9598 1184.41 96.4376" stroke="#DC4444" stroke-opacity="0.2"/>
<circle cx="958.5" cy="1099.5" r="100" stroke="#767676" stroke-opacity="0.2"/>
</svg>
