<svg width="1920" height="821" viewBox="0 0 1920 821" fill="none" xmlns="http://www.w3.org/2000/svg">
<line x1="80.5" y1="-2.18557e-08" x2="80.5" y2="818" stroke="#767676" stroke-opacity="0.1"/>
<line x1="120.5" y1="405" x2="120.5" y2="818" stroke="#767676" stroke-opacity="0.1"/>
<line x1="160.5" y1="405" x2="160.5" y2="818" stroke="#767676" stroke-opacity="0.1"/>
<line x1="240.5" y1="405" x2="240.5" y2="818" stroke="#767676" stroke-opacity="0.1"/>
<line x1="318.5" y1="405" x2="318.5" y2="818" stroke="#767676" stroke-opacity="0.1"/>
<line x1="476.5" y1="405" x2="476.5" y2="818" stroke="#767676" stroke-opacity="0.1"/>
<line x1="635.5" y1="405" x2="635.5" y2="818" stroke="#767676" stroke-opacity="0.1"/>
<line x1="952.5" y1="405" x2="952.5" y2="818" stroke="#DC4444" stroke-opacity="0.15"/>
<line x1="1269.5" y1="405" x2="1269.5" y2="818" stroke="#767676" stroke-opacity="0.1"/>
<line x1="1586.5" y1="405" x2="1586.5" y2="818" stroke="#767676" stroke-opacity="0.1"/>
<line x1="1663.5" y1="-2.18557e-08" x2="1663.5" y2="818" stroke="#767676" stroke-opacity="0.1"/>
<line x1="1744.5" y1="405" x2="1744.5" y2="818" stroke="#767676" stroke-opacity="0.1"/>
<line x1="1818.5" y1="-2.18557e-08" x2="1818.5" y2="818" stroke="#767676" stroke-opacity="0.1"/>
<line x1="1784.5" y1="405" x2="1784.5" y2="818" stroke="#767676" stroke-opacity="0.1"/>
<line x1="1428.5" y1="405" x2="1428.5" y2="818" stroke="#767676" stroke-opacity="0.1"/>
<line x1="1586" y1="422.5" x2="318" y2="422.5" stroke="#767676" stroke-opacity="0.1"/>
<line x1="1818" y1="405.5" x2="81" y2="405.5" stroke="#DC4444" stroke-opacity="0.15"/>
<line x1="1920" y1="466.5" y2="466.5" stroke="#767676" stroke-opacity="0.1"/>
<line x1="1920" y1="555.5" y2="555.5" stroke="#767676" stroke-opacity="0.1"/>
<line x1="1920" y1="644.5" y2="644.5" stroke="#767676" stroke-opacity="0.1"/>
<line x1="103.373" y1="403.667" x2="476.373" y2="820.667" stroke="#DC4444" stroke-opacity="0.15"/>
<line x1="211.246" y1="404.565" x2="944.246" y2="818.565" stroke="#DC4444" stroke-opacity="0.15"/>
<line x1="1056.37" y1="405.667" x2="1423.37" y2="817.667" stroke="#DC4444" stroke-opacity="0.16"/>
<line x1="1692.25" y1="406.435" x2="960.246" y2="819.435" stroke="#DC4444" stroke-opacity="0.16"/>
<line x1="849.372" y1="405.334" x2="479.372" y2="818.334" stroke="#DC4444" stroke-opacity="0.15"/>
<line x1="1798.37" y1="406.332" x2="1432.37" y2="818.332" stroke="#DC4444" stroke-opacity="0.16"/>
</svg>
