<svg width="1920" height="1080" viewBox="0 0 1920 1080" fill="none" xmlns="http://www.w3.org/2000/svg">
<g clip-path="url(#clip0_803_970)">
<line y1="16.5" x2="1920" y2="16.5" stroke="#767676" stroke-opacity="0.15"/>
<line y1="27.5" x2="1920" y2="27.5" stroke="#767676" stroke-opacity="0.15"/>
<line y1="38.5" x2="1920" y2="38.5" stroke="#767676" stroke-opacity="0.15"/>
<line y1="49.5" x2="1920" y2="49.5" stroke="#767676" stroke-opacity="0.15"/>
<line y1="60.5" x2="1920" y2="60.5" stroke="#767676" stroke-opacity="0.15"/>
<line y1="71.5" x2="1920" y2="71.5" stroke="#767676" stroke-opacity="0.15"/>
<line y1="82.5" x2="1920" y2="82.5" stroke="#767676" stroke-opacity="0.15"/>
<line y1="93.5" x2="1920" y2="93.5" stroke="#767676" stroke-opacity="0.15"/>
<line y1="104.5" x2="1920" y2="104.5" stroke="#767676" stroke-opacity="0.15"/>
<line y1="115.5" x2="1920" y2="115.5" stroke="#767676" stroke-opacity="0.15"/>
<line y1="126.5" x2="1920" y2="126.5" stroke="#767676" stroke-opacity="0.15"/>
<line y1="137.5" x2="1920" y2="137.5" stroke="#767676" stroke-opacity="0.15"/>
<line y1="148.5" x2="1920" y2="148.5" stroke="#767676" stroke-opacity="0.15"/>
<line y1="159.5" x2="1920" y2="159.5" stroke="#767676" stroke-opacity="0.15"/>
<line y1="170.5" x2="1920" y2="170.5" stroke="#767676" stroke-opacity="0.15"/>
<line y1="181.5" x2="1920" y2="181.5" stroke="#767676" stroke-opacity="0.15"/>
<line y1="192.5" x2="1920" y2="192.5" stroke="#767676" stroke-opacity="0.15"/>
<line y1="203.5" x2="1920" y2="203.5" stroke="#767676" stroke-opacity="0.15"/>
<line y1="214.5" x2="1920" y2="214.5" stroke="#767676" stroke-opacity="0.15"/>
<line y1="225.5" x2="1920" y2="225.5" stroke="#767676" stroke-opacity="0.15"/>
<line y1="236.5" x2="1920" y2="236.5" stroke="#767676" stroke-opacity="0.15"/>
<line y1="247.5" x2="1920" y2="247.5" stroke="#767676" stroke-opacity="0.15"/>
<line y1="258.5" x2="1920" y2="258.5" stroke="#767676" stroke-opacity="0.15"/>
<line y1="269.5" x2="1920" y2="269.5" stroke="#767676" stroke-opacity="0.15"/>
<line y1="280.5" x2="1920" y2="280.5" stroke="#767676" stroke-opacity="0.15"/>
<line y1="291.5" x2="1920" y2="291.5" stroke="#767676" stroke-opacity="0.15"/>
<line y1="302.5" x2="1920" y2="302.5" stroke="#767676" stroke-opacity="0.15"/>
<line y1="313.5" x2="1920" y2="313.5" stroke="#767676" stroke-opacity="0.15"/>
<line y1="324.5" x2="1920" y2="324.5" stroke="#767676" stroke-opacity="0.15"/>
<line y1="335.5" x2="1920" y2="335.5" stroke="#767676" stroke-opacity="0.15"/>
<line y1="346.5" x2="1920" y2="346.5" stroke="#767676" stroke-opacity="0.15"/>
<line y1="357.5" x2="1920" y2="357.5" stroke="#767676" stroke-opacity="0.15"/>
<line y1="368.5" x2="1920" y2="368.5" stroke="#767676" stroke-opacity="0.15"/>
<line y1="379.5" x2="1920" y2="379.5" stroke="#767676" stroke-opacity="0.15"/>
<line y1="390.5" x2="1920" y2="390.5" stroke="#767676" stroke-opacity="0.15"/>
<line y1="401.5" x2="1920" y2="401.5" stroke="#767676" stroke-opacity="0.15"/>
<line y1="412.5" x2="1920" y2="412.5" stroke="#767676" stroke-opacity="0.15"/>
<line y1="423.5" x2="1920" y2="423.5" stroke="#767676" stroke-opacity="0.15"/>
<line y1="434.5" x2="1920" y2="434.5" stroke="#767676" stroke-opacity="0.15"/>
<line y1="445.5" x2="1920" y2="445.5" stroke="#767676" stroke-opacity="0.15"/>
<line y1="456.5" x2="1920" y2="456.5" stroke="#767676" stroke-opacity="0.15"/>
<line y1="467.5" x2="1920" y2="467.5" stroke="#767676" stroke-opacity="0.15"/>
<line y1="478.5" x2="1920" y2="478.5" stroke="#767676" stroke-opacity="0.15"/>
<line y1="489.5" x2="1920" y2="489.5" stroke="#767676" stroke-opacity="0.15"/>
<line y1="500.5" x2="1920" y2="500.5" stroke="#767676" stroke-opacity="0.15"/>
<line y1="511.5" x2="1920" y2="511.5" stroke="#767676" stroke-opacity="0.15"/>
<line y1="522.5" x2="1920" y2="522.5" stroke="#767676" stroke-opacity="0.15"/>
<line y1="533.5" x2="1920" y2="533.5" stroke="#767676" stroke-opacity="0.15"/>
<line y1="544.5" x2="1920" y2="544.5" stroke="#767676" stroke-opacity="0.15"/>
<line y1="555.5" x2="1920" y2="555.5" stroke="#767676" stroke-opacity="0.15"/>
<line y1="566.5" x2="1920" y2="566.5" stroke="#767676" stroke-opacity="0.15"/>
<line y1="577.5" x2="1920" y2="577.5" stroke="#767676" stroke-opacity="0.15"/>
<line y1="588.5" x2="1920" y2="588.5" stroke="#767676" stroke-opacity="0.15"/>
<line y1="599.5" x2="1920" y2="599.5" stroke="#767676" stroke-opacity="0.15"/>
<line y1="610.5" x2="1920" y2="610.5" stroke="#767676" stroke-opacity="0.15"/>
<line y1="621.5" x2="1920" y2="621.5" stroke="#767676" stroke-opacity="0.15"/>
<line y1="632.5" x2="1920" y2="632.5" stroke="#767676" stroke-opacity="0.15"/>
<line y1="643.5" x2="1920" y2="643.5" stroke="#767676" stroke-opacity="0.15"/>
<line y1="654.5" x2="1920" y2="654.5" stroke="#767676" stroke-opacity="0.15"/>
<line y1="665.5" x2="1920" y2="665.5" stroke="#767676" stroke-opacity="0.15"/>
<line y1="676.5" x2="1920" y2="676.5" stroke="#767676" stroke-opacity="0.15"/>
<line y1="687.5" x2="1920" y2="687.5" stroke="#767676" stroke-opacity="0.15"/>
<line y1="698.5" x2="1920" y2="698.5" stroke="#767676" stroke-opacity="0.15"/>
<line y1="709.5" x2="1920" y2="709.5" stroke="#767676" stroke-opacity="0.15"/>
<line y1="720.5" x2="1920" y2="720.5" stroke="#767676" stroke-opacity="0.15"/>
<line y1="731.5" x2="1920" y2="731.5" stroke="#767676" stroke-opacity="0.15"/>
<line y1="742.5" x2="1920" y2="742.5" stroke="#767676" stroke-opacity="0.15"/>
<line y1="753.5" x2="1920" y2="753.5" stroke="#767676" stroke-opacity="0.15"/>
<line y1="764.5" x2="1920" y2="764.5" stroke="#767676" stroke-opacity="0.15"/>
<line y1="775.5" x2="1920" y2="775.5" stroke="#767676" stroke-opacity="0.15"/>
<line y1="786.5" x2="1920" y2="786.5" stroke="#767676" stroke-opacity="0.15"/>
<line y1="797.5" x2="1920" y2="797.5" stroke="#767676" stroke-opacity="0.15"/>
<line y1="808.5" x2="1920" y2="808.5" stroke="#767676" stroke-opacity="0.15"/>
<line y1="819.5" x2="1920" y2="819.5" stroke="#767676" stroke-opacity="0.15"/>
<line y1="830.5" x2="1920" y2="830.5" stroke="#767676" stroke-opacity="0.15"/>
<line y1="841.5" x2="1920" y2="841.5" stroke="#767676" stroke-opacity="0.15"/>
<line y1="852.5" x2="1920" y2="852.5" stroke="#767676" stroke-opacity="0.15"/>
<line y1="863.5" x2="1920" y2="863.5" stroke="#767676" stroke-opacity="0.15"/>
<line y1="874.5" x2="1920" y2="874.5" stroke="#767676" stroke-opacity="0.15"/>
<line y1="885.5" x2="1920" y2="885.5" stroke="#767676" stroke-opacity="0.15"/>
<line y1="896.5" x2="1920" y2="896.5" stroke="#767676" stroke-opacity="0.15"/>
<line y1="907.5" x2="1920" y2="907.5" stroke="#767676" stroke-opacity="0.15"/>
<line y1="918.5" x2="1920" y2="918.5" stroke="#767676" stroke-opacity="0.15"/>
<line y1="929.5" x2="1920" y2="929.5" stroke="#767676" stroke-opacity="0.15"/>
<line y1="940.5" x2="1920" y2="940.5" stroke="#767676" stroke-opacity="0.15"/>
<line y1="951.5" x2="1920" y2="951.5" stroke="#767676" stroke-opacity="0.15"/>
<line y1="962.5" x2="1920" y2="962.5" stroke="#767676" stroke-opacity="0.15"/>
<line y1="973.5" x2="1920" y2="973.5" stroke="#767676" stroke-opacity="0.15"/>
<line y1="984.5" x2="1920" y2="984.5" stroke="#767676" stroke-opacity="0.15"/>
<line y1="995.5" x2="1920" y2="995.5" stroke="#767676" stroke-opacity="0.15"/>
<line y1="1006.5" x2="1920" y2="1006.5" stroke="#767676" stroke-opacity="0.15"/>
<line y1="1017.5" x2="1920" y2="1017.5" stroke="#767676" stroke-opacity="0.15"/>
<line y1="1028.5" x2="1920" y2="1028.5" stroke="#767676" stroke-opacity="0.15"/>
<line y1="1039.5" x2="1920" y2="1039.5" stroke="#767676" stroke-opacity="0.15"/>
<line y1="1050.5" x2="1920" y2="1050.5" stroke="#767676" stroke-opacity="0.15"/>
<line y1="1061.5" x2="1920" y2="1061.5" stroke="#767676" stroke-opacity="0.15"/>
<line y1="1072.5" x2="1920" y2="1072.5" stroke="#767676" stroke-opacity="0.15"/>
<line x1="93.5" y1="-2.18557e-08" x2="93.5" y2="1080" stroke="#767676" stroke-opacity="0.2"/>
<line x1="188.5" y1="-2.18557e-08" x2="188.5" y2="1080" stroke="#767676" stroke-opacity="0.2"/>
<line x1="283.5" y1="-2.18557e-08" x2="283.5" y2="1080" stroke="#767676" stroke-opacity="0.2"/>
<line x1="381.5" y1="-2.18557e-08" x2="381.5" y2="1080" stroke="#767676" stroke-opacity="0.2"/>
<line x1="479.5" y1="-2.18557e-08" x2="479.5" y2="1080" stroke="#767676" stroke-opacity="0.2"/>
<line x1="575.5" y1="-2.18557e-08" x2="575.5" y2="1080" stroke="#767676" stroke-opacity="0.2"/>
<line x1="671.5" y1="-2.18557e-08" x2="671.5" y2="1080" stroke="#767676" stroke-opacity="0.2"/>
<line x1="767.5" y1="-2.18557e-08" x2="767.5" y2="1080" stroke="#767676" stroke-opacity="0.2"/>
<line x1="863.5" y1="-2.18557e-08" x2="863.5" y2="1080" stroke="#767676" stroke-opacity="0.2"/>
<line x1="959.5" y1="-2.18557e-08" x2="959.5" y2="1080" stroke="#767676" stroke-opacity="0.2"/>
<line x1="1056.5" y1="-2.18557e-08" x2="1056.5" y2="1080" stroke="#767676" stroke-opacity="0.2"/>
<line x1="1153.5" y1="-2.18557e-08" x2="1153.5" y2="1080" stroke="#767676" stroke-opacity="0.2"/>
<line x1="1249.5" y1="-2.18557e-08" x2="1249.5" y2="1080" stroke="#767676" stroke-opacity="0.2"/>
<line x1="1345.5" y1="-2.18557e-08" x2="1345.5" y2="1080" stroke="#767676" stroke-opacity="0.2"/>
<line x1="1440.5" y1="-2.18557e-08" x2="1440.5" y2="1080" stroke="#767676" stroke-opacity="0.2"/>
<line x1="1537.5" y1="-2.18557e-08" x2="1537.5" y2="1080" stroke="#767676" stroke-opacity="0.2"/>
<line x1="1632.5" y1="-2.18557e-08" x2="1632.5" y2="1080" stroke="#767676" stroke-opacity="0.2"/>
<line x1="1824.5" y1="-2.18557e-08" x2="1824.5" y2="1080" stroke="#767676" stroke-opacity="0.2"/>
<line x1="1729.5" y1="-2.18557e-08" x2="1729.5" y2="1080" stroke="#767676" stroke-opacity="0.2"/>
<circle cx="958.5" cy="163.5" r="144" stroke="#767676" stroke-opacity="0.2"/>
<circle cx="958.5" cy="374.5" r="625" stroke="#767676" stroke-opacity="0.2"/>
<circle cx="958.5" cy="1111.5" r="803" stroke="#767676" stroke-opacity="0.2"/>
<path d="M1518.5 1102.5C1518.5 1410.67 1267.78 1660.5 958.5 1660.5C649.219 1660.5 398.5 1410.67 398.5 1102.5C398.5 794.327 649.219 544.5 958.5 544.5C1267.78 544.5 1518.5 794.327 1518.5 1102.5Z" stroke="#767676" stroke-opacity="0.2"/>
<path d="M732.87 94.0365C747.859 45.7153 777.979 3.48989 818.789 -26.4124C859.599 -56.3147 908.938 -72.3109 959.53 -72.0419C1010.12 -71.7728 1059.29 -55.2528 1099.78 -24.9182C1140.27 5.41639 1169.94 47.9598 1184.41 96.4376" stroke="#767676" stroke-opacity="0.2"/>
<circle cx="958.5" cy="1099.5" r="100" stroke="#767676" stroke-opacity="0.2"/>
<line x1="1440.5" y1="275" x2="1440.5" y2="309" stroke="#767676" stroke-opacity="0.2"/>
<line x1="1388" y1="324.5" x2="1422" y2="324.5" stroke="#767676" stroke-opacity="0.2"/>
<line x1="1458" y1="324.5" x2="1492" y2="324.5" stroke="#767676" stroke-opacity="0.2"/>
<line x1="1440.5" y1="339" x2="1440.5" y2="373" stroke="#767676" stroke-opacity="0.2"/>
<line x1="1443" y1="324.5" x2="1437" y2="324.5" stroke="#767676" stroke-opacity="0.2"/>
<line x1="188.5" y1="407" x2="188.5" y2="441" stroke="#767676" stroke-opacity="0.2"/>
<line x1="136" y1="456.5" x2="170" y2="456.5" stroke="#767676" stroke-opacity="0.2"/>
<line x1="206" y1="456.5" x2="240" y2="456.5" stroke="#767676" stroke-opacity="0.2"/>
<line x1="188.5" y1="471" x2="188.5" y2="505" stroke="#767676" stroke-opacity="0.2"/>
<line x1="191" y1="456.5" x2="185" y2="456.5" stroke="#767676" stroke-opacity="0.2"/>
</g>
<defs>
<clipPath id="clip0_803_970">
<rect width="1920" height="1080" fill="white"/>
</clipPath>
</defs>
</svg>
