<svg width="22" height="22" viewBox="0 0 22 22" fill="none" xmlns="http://www.w3.org/2000/svg">
<path fill-rule="evenodd" clip-rule="evenodd" d="M11 0C4.92487 0 0 4.92487 0 11C0 17.0751 4.92487 22 11 22C17.0751 22 22 17.0751 22 11C22 4.92487 17.0751 0 11 0ZM5.28125 9.11133H7.77409V16.6013H5.28125V9.11133ZM7.93529 6.79374C7.91911 6.05935 7.39395 5.5 6.54117 5.5C5.68838 5.5 5.13086 6.05935 5.13086 6.79374C5.13086 7.51291 5.6719 8.08837 6.50881 8.08837H6.52474C7.39395 8.08837 7.93529 7.51291 7.93529 6.79374ZM13.8924 8.93457C15.5328 8.93457 16.7626 10.0053 16.7626 12.3059L16.7625 16.6004H14.2698V12.5933C14.2698 11.5868 13.9091 10.9 13.0067 10.9C12.318 10.9 11.9077 11.363 11.7276 11.8102C11.6617 11.9704 11.6455 12.1937 11.6455 12.4176V16.6006H9.15234C9.15234 16.6006 9.1852 9.81347 9.15234 9.11065H11.6455V10.1715C11.9763 9.66155 12.5689 8.93457 13.8924 8.93457Z" fill="#767676"/>
</svg>
