<svg width="32" height="32" viewBox="0 0 32 32" fill="none" xmlns="http://www.w3.org/2000/svg">
<path fill-rule="evenodd" clip-rule="evenodd" d="M16 0C7.16344 0 0 7.16344 0 16C0 24.8366 7.16344 32 16 32C24.8366 32 32 24.8366 32 16C32 7.16344 24.8366 0 16 0ZM8 13H12V24H8V13ZM11 9.99931C10.9769 8.86441 10.2279 8 9.01154 8C7.7952 8 7 8.86441 7 9.99931C7 11.1107 7.7717 12 8.96538 12H8.98811C10.2279 12 11 11.1107 11 9.99931ZM19.8514 13C22.2224 13 24 14.5364 24 17.8375L23.9999 23.9997H20.3968V18.2499C20.3968 16.8056 19.8754 15.8201 18.5711 15.8201C17.5756 15.8201 16.9827 16.4845 16.7223 17.1262C16.627 17.3562 16.6036 17.6766 16.6036 17.9978V24H13C13 24 13.0475 14.2611 13 13.2527H16.6036V14.7749C17.0818 14.0431 17.9383 13 19.8514 13Z" fill="#DC4444"/>
</svg>
