<svg width="375" height="168" viewBox="0 0 375 168" fill="none" xmlns="http://www.w3.org/2000/svg">
<circle cx="95" cy="76" r="75.5" stroke="#767676" stroke-opacity="0.1"/>
<circle cx="279" cy="76" r="75.5" stroke="#767676" stroke-opacity="0.1"/>
<path d="M261.811 70.5632C261.925 72.1962 261.988 73.8434 261.998 75.5033L250.499 75.5759C250.5 75.7172 250.5 75.8585 250.5 76C250.5 76.1415 250.5 76.2828 250.499 76.4241L261.998 76.4967C261.988 78.1566 261.925 79.8038 261.811 81.4368L250.339 80.6366C250.319 80.9169 250.298 81.1966 250.275 81.4758L261.736 82.4221C261.6 84.0729 261.411 85.7087 261.173 87.3279L249.796 85.65C249.755 85.9279 249.712 86.2052 249.667 86.4818L261.022 88.3062C260.759 89.9416 260.445 91.5594 260.081 93.158L248.868 90.6046C248.806 90.8775 248.742 91.1496 248.676 91.4211L259.855 94.1194C259.467 95.7273 259.029 97.3152 258.541 98.8811L247.561 95.4642C247.477 95.732 247.392 95.9989 247.306 96.2651L258.241 99.8245C257.729 101.397 257.168 102.946 256.56 104.471L245.879 100.209C245.775 100.469 245.67 100.727 245.563 100.985L256.188 105.385C255.556 106.912 254.876 108.413 254.15 109.887L243.833 104.807C243.709 105.058 243.584 105.308 243.457 105.558L253.708 110.772C252.959 112.243 252.165 113.686 251.326 115.1L241.436 109.233C241.293 109.473 241.148 109.713 241.003 109.952L250.816 115.947C249.956 117.355 249.052 118.733 248.105 120.078L238.7 113.46C238.539 113.688 238.377 113.916 238.213 114.143L247.531 120.882C246.564 122.219 245.556 123.522 244.507 124.79L235.645 117.46C235.467 117.676 235.287 117.89 235.106 118.104L243.872 125.548C242.805 126.804 241.698 128.025 240.553 129.208L232.289 121.211C232.094 121.412 231.899 121.611 231.702 121.81L239.861 129.914C238.7 131.083 237.501 132.214 236.267 133.304L228.652 124.686C228.443 124.871 228.232 125.055 228.021 125.237L235.522 133.954C234.273 135.028 232.99 136.062 231.673 137.053L224.758 127.864C224.535 128.032 224.311 128.199 224.086 128.363L230.88 137.642C229.552 138.614 228.191 139.544 226.799 140.428L220.63 130.723C220.395 130.873 220.158 131.021 219.921 131.168L225.961 140.953C224.562 141.817 223.132 142.636 221.674 143.408L216.294 133.244C216.048 133.374 215.801 133.503 215.553 133.63L220.797 143.864C219.334 144.614 217.843 145.317 216.326 145.97L211.775 135.409C211.52 135.519 211.264 135.628 211.007 135.734L215.417 146.355C213.9 146.985 212.358 147.566 210.793 148.096L207.104 137.204C206.84 137.293 206.576 137.381 206.311 137.466L209.854 148.407C208.293 148.913 206.709 149.368 205.105 149.771L202.304 138.617C202.035 138.685 201.765 138.751 201.494 138.815L204.146 150.005C202.55 150.383 200.935 150.709 199.302 150.983L197.406 139.64C197.131 139.686 196.855 139.73 196.58 139.772L198.324 151.139C196.706 151.388 195.071 151.584 193.421 151.725L192.437 140.268C192.16 140.291 191.882 140.313 191.604 140.334L192.436 151.803C190.804 151.922 189.157 151.987 187.497 151.998L187.421 140.499C187.339 140.499 187.257 140.5 187.175 140.5C187.117 140.5 187.058 140.5 187 140.5C186.86 140.5 186.719 140.5 186.579 140.499L186.503 151.998C184.843 151.987 183.196 151.922 181.564 151.803L182.396 140.334C182.118 140.313 181.84 140.291 181.563 140.268L180.579 151.725C178.929 151.584 177.294 151.388 175.676 151.139L177.42 139.772C177.144 139.73 176.869 139.686 176.594 139.64L174.698 150.983C173.065 150.709 171.449 150.383 169.854 150.005L172.506 138.815C172.235 138.751 171.965 138.685 171.696 138.617L168.895 149.771C167.291 149.368 165.707 148.913 164.146 148.407L167.689 137.466C167.424 137.381 167.16 137.293 166.896 137.204L163.207 148.096C161.642 147.566 160.1 146.985 158.583 146.355L162.993 135.734C162.736 135.628 162.48 135.519 162.225 135.409L157.674 145.97C156.157 145.317 154.666 144.614 153.203 143.864L158.447 133.63C158.199 133.503 157.952 133.374 157.706 133.244L152.326 143.408C150.868 142.636 149.438 141.817 148.039 140.953L154.079 131.168C153.842 131.021 153.605 130.873 153.37 130.723L147.201 140.428C145.809 139.544 144.448 138.614 143.12 137.642L149.914 128.363C149.689 128.199 149.465 128.032 149.242 127.864L142.327 137.053C141.01 136.062 139.727 135.028 138.478 133.954L145.979 125.237C145.768 125.055 145.557 124.871 145.348 124.686L137.733 133.304C136.499 132.214 135.3 131.083 134.139 129.914L142.298 121.81C142.101 121.611 141.906 121.412 141.711 121.211L133.447 129.208C132.302 128.025 131.195 126.804 130.128 125.548L138.894 118.104C138.713 117.89 138.533 117.676 138.355 117.46L129.493 124.79C128.444 123.522 127.436 122.219 126.469 120.882L135.787 114.143C135.623 113.916 135.461 113.688 135.3 113.46L125.895 120.078C124.948 118.733 124.044 117.355 123.184 115.947L132.997 109.952C132.852 109.713 132.707 109.473 132.564 109.233L122.674 115.1C121.835 113.686 121.041 112.243 120.292 110.772L130.543 105.558C130.416 105.308 130.291 105.058 130.167 104.807L119.85 109.887C119.124 108.413 118.444 106.912 117.812 105.385L128.437 100.985C128.33 100.727 128.225 100.469 128.121 100.209L117.44 104.471C116.832 102.946 116.271 101.397 115.759 99.8245L126.694 96.2651C126.608 95.9989 126.523 95.732 126.439 95.4642L115.459 98.8811C114.971 97.3152 114.533 95.7273 114.145 94.1194L125.324 91.4211C125.258 91.1496 125.194 90.8774 125.132 90.6046L113.919 93.158C113.555 91.5594 113.241 89.9416 112.978 88.3061L124.333 86.4818C124.288 86.2052 124.245 85.9279 124.204 85.65L112.827 87.3278C112.589 85.7087 112.4 84.0729 112.264 82.4221L123.725 81.4758C123.702 81.1966 123.681 80.9169 123.661 80.6366L112.189 81.4368C112.075 79.8038 112.012 78.1566 112.002 76.4967L123.501 76.4241C123.5 76.2828 123.5 76.1415 123.5 76C123.5 75.8585 123.5 75.7172 123.501 75.5759L112.002 75.5033C112.012 73.8434 112.075 72.1962 112.189 70.5632L123.661 71.3634C123.681 71.0831 123.702 70.8034 123.725 70.5242L112.264 69.5779C112.4 67.9271 112.589 66.2913 112.827 64.6721L124.204 66.35C124.245 66.0721 124.288 65.7948 124.333 65.5182L112.978 63.6938C113.241 62.0584 113.555 60.4405 113.919 58.842L125.132 61.3954C125.194 61.1225 125.258 60.8504 125.324 60.5789L114.145 57.8806C114.533 56.2727 114.971 54.6848 115.459 53.1189L126.439 56.5357C126.523 56.268 126.608 56.0011 126.694 55.7349L115.759 52.1755C116.271 50.6034 116.832 49.0541 117.44 47.5293L128.121 51.7909C128.225 51.5314 128.33 51.2727 128.437 51.0148L117.812 46.615C118.444 45.0882 119.124 43.5868 119.85 42.1126L130.167 47.1928C130.291 46.9417 130.416 46.6915 130.543 46.4422L120.292 41.2285C121.041 39.7571 121.835 38.3137 122.674 36.9002L132.564 42.7675C132.707 42.5267 132.852 42.287 132.997 42.0483L123.184 36.0532C124.044 34.6448 124.948 33.2671 125.895 31.922L135.3 38.5405C135.461 38.3117 135.623 38.084 135.787 37.8575L126.469 31.1176C127.436 29.7813 128.444 28.4781 129.493 27.2101L138.355 34.5397C138.533 34.324 138.713 34.1096 138.894 33.8963L130.128 26.4524C131.195 25.1958 132.302 23.975 133.447 22.792L141.711 30.7892C141.906 30.5882 142.101 30.3886 142.298 30.1903L134.139 22.0863C135.3 20.9171 136.499 19.7862 137.733 18.6956L145.348 27.3136C145.557 27.1286 145.768 26.9449 145.979 26.7627L138.478 18.046C139.727 16.9717 141.01 15.938 142.327 14.9471L149.242 24.1356C149.465 23.9678 149.689 23.8014 149.914 23.6366L143.12 14.358C144.448 13.3855 145.809 12.456 147.201 11.5715L153.37 21.2768C153.605 21.1271 153.842 20.979 154.079 20.8324L148.039 11.0465C149.438 10.1826 150.868 9.36376 152.326 8.5921L157.706 18.7562C157.952 18.626 158.199 18.4973 158.447 18.3703L153.203 8.13557C154.666 7.38572 156.157 6.68304 157.674 6.02952L162.225 16.5907C162.48 16.4807 162.736 16.3724 162.993 16.2658L158.583 5.64483C160.1 5.01503 161.642 4.43413 163.207 3.90408L166.896 14.7962C167.16 14.7069 167.424 14.6194 167.689 14.5336L164.146 3.59295C165.707 3.08734 167.291 2.63215 168.895 2.22927L171.696 13.3828C171.965 13.3152 172.235 13.2494 172.506 13.1853L169.854 1.9952C171.45 1.61704 173.065 1.29051 174.698 1.01745L176.594 12.36C176.869 12.314 177.145 12.2699 177.42 12.2275L175.676 0.860615C177.294 0.612333 178.929 0.416425 180.579 0.274651L181.563 11.7324C181.84 11.7086 182.118 11.6866 182.396 11.6664L181.564 0.196599C183.196 0.0780911 184.843 0.01254 186.503 0.00163157L186.579 11.5014C186.719 11.5005 186.86 11.5 187 11.5C187.14 11.5 187.281 11.5005 187.421 11.5014L187.497 0.00163169C189.157 0.0125405 190.804 0.0780922 192.436 0.196601L191.604 11.6664C191.882 11.6866 192.16 11.7086 192.437 11.7324L193.421 0.274652C195.071 0.416427 196.706 0.612336 198.324 0.860618L196.58 12.2275C196.856 12.2699 197.131 12.314 197.406 12.36L199.302 1.01745C200.935 1.29052 202.551 1.61705 204.146 1.9952L201.494 13.1853C201.765 13.2494 202.035 13.3152 202.304 13.3828L205.105 2.22927C206.709 2.63215 208.293 3.08734 209.854 3.59295L206.311 14.5336C206.576 14.6194 206.84 14.7069 207.104 14.7962L210.793 3.90409C212.358 4.43414 213.9 5.01503 215.417 5.64484L211.007 16.2658C211.264 16.3724 211.52 16.4807 211.775 16.5907L216.326 6.02952C217.843 6.68305 219.334 7.38572 220.797 8.13557L215.553 18.3703C215.801 18.4973 216.048 18.626 216.294 18.7562L221.674 8.5921C223.132 9.36377 224.562 10.1826 225.961 11.0465L219.921 20.8324C220.158 20.979 220.395 21.1271 220.63 21.2768L226.799 11.5715C228.191 12.456 229.552 13.3855 230.88 14.3581L224.086 23.6366C224.311 23.8014 224.535 23.9678 224.758 24.1356L231.673 14.9471C232.99 15.938 234.273 16.9717 235.522 18.046L228.021 26.7627C228.232 26.9449 228.443 27.1286 228.652 27.3136L236.267 18.6956C237.501 19.7862 238.7 20.9171 239.861 22.0863L231.702 30.1903C231.899 30.3886 232.094 30.5882 232.289 30.7891L240.553 22.792C241.698 23.975 242.805 25.1958 243.872 26.4524L235.106 33.8963C235.287 34.1096 235.467 34.324 235.645 34.5396L244.507 27.2101C245.556 28.4781 246.564 29.7813 247.531 31.1176L238.213 37.8575C238.377 38.084 238.539 38.3117 238.7 38.5405L248.105 31.922C249.052 33.2671 249.956 34.6449 250.816 36.0532L241.003 42.0483C241.148 42.287 241.293 42.5268 241.436 42.7675L251.326 36.9002C252.165 38.3137 252.959 39.7571 253.708 41.2285L243.457 46.4423C243.584 46.6915 243.709 46.9417 243.833 47.1928L254.15 42.1126C254.876 43.5868 255.556 45.0882 256.188 46.615L245.563 51.0149C245.67 51.2727 245.775 51.5314 245.879 51.7909L256.56 47.5293C257.168 49.0541 257.729 50.6034 258.241 52.1755L247.306 55.7349C247.392 56.0011 247.477 56.268 247.561 56.5358L258.541 53.1189C259.029 54.6848 259.467 56.2727 259.855 57.8806L248.676 60.5789C248.742 60.8504 248.806 61.1226 248.868 61.3954L260.081 58.842C260.445 60.4406 260.759 62.0585 261.022 63.6939L249.667 65.5182C249.712 65.7948 249.755 66.0721 249.796 66.35L261.173 64.6722C261.411 66.2913 261.6 67.9271 261.736 69.5779L250.275 70.5242C250.298 70.8034 250.319 71.0831 250.339 71.3634L261.811 70.5632Z" stroke="#767676" stroke-opacity="0.1" stroke-width="23" stroke-dasharray="1 5"/>
<line x1="375" y1="167.5" y2="167.5" stroke="#767676" stroke-opacity="0.1"/>
</svg>
