<svg width="374" height="769" viewBox="0 0 374 769" fill="none" xmlns="http://www.w3.org/2000/svg">
<g clip-path="url(#clip0_1082_1972)">
<line x1="-763" y1="7.5" x2="1157" y2="7.5" stroke="#767676" stroke-opacity="0.12"/>
<line x1="-763" y1="18.5" x2="1157" y2="18.5" stroke="#767676" stroke-opacity="0.12"/>
<line x1="-763" y1="29.5" x2="1157" y2="29.5" stroke="#767676" stroke-opacity="0.12"/>
<line x1="-763" y1="40.5" x2="1157" y2="40.5" stroke="#767676" stroke-opacity="0.12"/>
<line x1="-763" y1="51.5" x2="1157" y2="51.5" stroke="#767676" stroke-opacity="0.12"/>
<line x1="-763" y1="62.5" x2="1157" y2="62.5" stroke="#767676" stroke-opacity="0.12"/>
<line x1="-763" y1="73.5" x2="1157" y2="73.5" stroke="#767676" stroke-opacity="0.12"/>
<line x1="-763" y1="84.5" x2="1157" y2="84.5" stroke="#767676" stroke-opacity="0.12"/>
<line x1="-763" y1="95.5" x2="1157" y2="95.5" stroke="#767676" stroke-opacity="0.12"/>
<line x1="-763" y1="106.5" x2="1157" y2="106.5" stroke="#767676" stroke-opacity="0.12"/>
<line x1="-763" y1="117.5" x2="1157" y2="117.5" stroke="#767676" stroke-opacity="0.12"/>
<line x1="-763" y1="128.5" x2="1157" y2="128.5" stroke="#767676" stroke-opacity="0.12"/>
<line x1="-763" y1="139.5" x2="1157" y2="139.5" stroke="#767676" stroke-opacity="0.12"/>
<line x1="-763" y1="150.5" x2="1157" y2="150.5" stroke="#767676" stroke-opacity="0.12"/>
<line x1="-763" y1="161.5" x2="1157" y2="161.5" stroke="#767676" stroke-opacity="0.12"/>
<line x1="-763" y1="172.5" x2="1157" y2="172.5" stroke="#767676" stroke-opacity="0.12"/>
<line x1="-763" y1="183.5" x2="1157" y2="183.5" stroke="#767676" stroke-opacity="0.12"/>
<line x1="-763" y1="194.5" x2="1157" y2="194.5" stroke="#767676" stroke-opacity="0.12"/>
<line x1="-763" y1="205.5" x2="1157" y2="205.5" stroke="#767676" stroke-opacity="0.12"/>
<line x1="-763" y1="216.5" x2="1157" y2="216.5" stroke="#767676" stroke-opacity="0.12"/>
<line x1="-763" y1="227.5" x2="1157" y2="227.5" stroke="#767676" stroke-opacity="0.12"/>
<line x1="-763" y1="238.5" x2="1157" y2="238.5" stroke="#767676" stroke-opacity="0.12"/>
<line x1="-763" y1="249.5" x2="1157" y2="249.5" stroke="#767676" stroke-opacity="0.12"/>
<line x1="-763" y1="260.5" x2="1157" y2="260.5" stroke="#767676" stroke-opacity="0.12"/>
<line x1="-763" y1="271.5" x2="1157" y2="271.5" stroke="#767676" stroke-opacity="0.12"/>
<line x1="-763" y1="282.5" x2="1157" y2="282.5" stroke="#767676" stroke-opacity="0.12"/>
<line x1="-763" y1="293.5" x2="1157" y2="293.5" stroke="#767676" stroke-opacity="0.12"/>
<line x1="-763" y1="304.5" x2="1157" y2="304.5" stroke="#767676" stroke-opacity="0.12"/>
<line x1="-763" y1="315.5" x2="1157" y2="315.5" stroke="#767676" stroke-opacity="0.12"/>
<line x1="-763" y1="326.5" x2="1157" y2="326.5" stroke="#767676" stroke-opacity="0.12"/>
<line x1="-763" y1="337.5" x2="1157" y2="337.5" stroke="#767676" stroke-opacity="0.12"/>
<line x1="-763" y1="348.5" x2="1157" y2="348.5" stroke="#767676" stroke-opacity="0.12"/>
<line x1="-763" y1="359.5" x2="1157" y2="359.5" stroke="#767676" stroke-opacity="0.12"/>
<line x1="-763" y1="370.5" x2="1157" y2="370.5" stroke="#767676" stroke-opacity="0.12"/>
<line x1="-763" y1="381.5" x2="1157" y2="381.5" stroke="#767676" stroke-opacity="0.12"/>
<line x1="-763" y1="392.5" x2="1157" y2="392.5" stroke="#767676" stroke-opacity="0.12"/>
<line x1="-763" y1="403.5" x2="1157" y2="403.5" stroke="#767676" stroke-opacity="0.12"/>
<line x1="-763" y1="414.5" x2="1157" y2="414.5" stroke="#767676" stroke-opacity="0.12"/>
<line x1="-763" y1="425.5" x2="1157" y2="425.5" stroke="#767676" stroke-opacity="0.12"/>
<line x1="-763" y1="436.5" x2="1157" y2="436.5" stroke="#767676" stroke-opacity="0.12"/>
<line x1="-763" y1="447.5" x2="1157" y2="447.5" stroke="#767676" stroke-opacity="0.12"/>
<line x1="-763" y1="458.5" x2="1157" y2="458.5" stroke="#767676" stroke-opacity="0.12"/>
<line x1="-763" y1="469.5" x2="1157" y2="469.5" stroke="#767676" stroke-opacity="0.12"/>
<line x1="-763" y1="480.5" x2="1157" y2="480.5" stroke="#767676" stroke-opacity="0.12"/>
<line x1="-763" y1="491.5" x2="1157" y2="491.5" stroke="#767676" stroke-opacity="0.12"/>
<line x1="-763" y1="502.5" x2="1157" y2="502.5" stroke="#767676" stroke-opacity="0.12"/>
<line x1="-763" y1="513.5" x2="1157" y2="513.5" stroke="#767676" stroke-opacity="0.12"/>
<line x1="-763" y1="524.5" x2="1157" y2="524.5" stroke="#767676" stroke-opacity="0.12"/>
<line x1="-763" y1="535.5" x2="1157" y2="535.5" stroke="#767676" stroke-opacity="0.12"/>
<line x1="-763" y1="546.5" x2="1157" y2="546.5" stroke="#767676" stroke-opacity="0.12"/>
<line x1="-763" y1="557.5" x2="1157" y2="557.5" stroke="#767676" stroke-opacity="0.12"/>
<line x1="-763" y1="568.5" x2="1157" y2="568.5" stroke="#767676" stroke-opacity="0.12"/>
<line x1="-763" y1="579.5" x2="1157" y2="579.5" stroke="#767676" stroke-opacity="0.12"/>
<line x1="-763" y1="590.5" x2="1157" y2="590.5" stroke="#767676" stroke-opacity="0.12"/>
<line x1="-763" y1="601.5" x2="1157" y2="601.5" stroke="#767676" stroke-opacity="0.12"/>
<line x1="-763" y1="612.5" x2="1157" y2="612.5" stroke="#767676" stroke-opacity="0.12"/>
<line x1="-763" y1="623.5" x2="1157" y2="623.5" stroke="#767676" stroke-opacity="0.12"/>
<line x1="-763" y1="634.5" x2="1157" y2="634.5" stroke="#767676" stroke-opacity="0.12"/>
<line x1="-763" y1="645.5" x2="1157" y2="645.5" stroke="#767676" stroke-opacity="0.12"/>
<line x1="-763" y1="656.5" x2="1157" y2="656.5" stroke="#767676" stroke-opacity="0.12"/>
<line x1="-763" y1="667.5" x2="1157" y2="667.5" stroke="#767676" stroke-opacity="0.12"/>
<line x1="-763" y1="678.5" x2="1157" y2="678.5" stroke="#767676" stroke-opacity="0.12"/>
<line x1="-763" y1="689.5" x2="1157" y2="689.5" stroke="#767676" stroke-opacity="0.12"/>
<line x1="-763" y1="700.5" x2="1157" y2="700.5" stroke="#767676" stroke-opacity="0.12"/>
<line x1="-763" y1="711.5" x2="1157" y2="711.5" stroke="#767676" stroke-opacity="0.12"/>
<line x1="-763" y1="722.5" x2="1157" y2="722.5" stroke="#767676" stroke-opacity="0.12"/>
<line x1="-763" y1="733.5" x2="1157" y2="733.5" stroke="#767676" stroke-opacity="0.12"/>
<line x1="-763" y1="744.5" x2="1157" y2="744.5" stroke="#767676" stroke-opacity="0.12"/>
<line x1="-763" y1="755.5" x2="1157" y2="755.5" stroke="#767676" stroke-opacity="0.12"/>
<line x1="-763" y1="766.5" x2="1157" y2="766.5" stroke="#767676" stroke-opacity="0.12"/>
<line x1="31.6758" y1="0.952148" x2="31.6758" y2="878.514" stroke="#767676" stroke-opacity="0.12"/>
<line x1="109.68" y1="0.952148" x2="109.68" y2="878.514" stroke="#767676" stroke-opacity="0.12"/>
<line x1="187.688" y1="0.952148" x2="187.688" y2="878.514" stroke="#767676" stroke-opacity="0.12"/>
<line x1="266.508" y1="0.952148" x2="266.508" y2="878.514" stroke="#767676" stroke-opacity="0.12"/>
<line x1="362.324" y1="0.952148" x2="362.324" y2="878.514" stroke="#767676" stroke-opacity="0.12"/>
<line x1="11.6758" y1="0.952148" x2="11.6758" y2="878.514" stroke="#767676" stroke-opacity="0.12"/>
<line x1="109.68" y1="0.952148" x2="109.68" y2="878.514" stroke="#767676" stroke-opacity="0.12"/>
<line x1="187.688" y1="0.952148" x2="187.688" y2="878.514" stroke="#767676" stroke-opacity="0.12"/>
<line x1="266.508" y1="0.952148" x2="266.508" y2="878.514" stroke="#767676" stroke-opacity="0.12"/>
<line x1="342.324" y1="0.952148" x2="342.324" y2="878.514" stroke="#767676" stroke-opacity="0.12"/>
<circle cx="186.782" cy="133.805" r="116.915" stroke="#DC4444" stroke-opacity="0.12"/>
<circle cx="186.778" cy="305.255" r="507.755" stroke="#DC4444" stroke-opacity="0.12"/>
<circle cx="186.781" cy="904.11" r="652.39" stroke="#DC4444" stroke-opacity="0.12"/>
<path d="M641.721 896.797C641.721 1147.15 438.04 1350.11 186.782 1350.11C-64.475 1350.11 -268.156 1147.15 -268.156 896.797C-268.156 646.44 -64.475 443.483 186.782 443.483C438.04 443.483 641.721 646.44 641.721 896.797Z" stroke="#DC4444" stroke-opacity="0.12"/>
<path d="M-0.615817 76.1036C11.8332 35.9701 36.8499 0.899388 70.745 -23.9362C104.64 -48.7718 145.619 -62.0576 187.638 -61.8341C229.658 -61.6107 270.493 -47.8899 304.122 -22.6952C337.751 2.49946 362.394 37.8342 374.415 78.0979" stroke="#DC4444" stroke-opacity="0.12"/>
</g>
<path d="M286.432 294L286.042 292.932H284.182L283.786 294H283.12L284.77 289.692H285.496L287.134 294H286.432ZM285.118 290.412L284.38 292.398H285.844L285.118 290.412ZM289.54 292.374V294H288.934V290.82H289.498V291.492C289.72 291.054 290.2 290.778 290.722 290.778V291.408C290.038 291.372 289.54 291.672 289.54 292.374ZM292.522 294.06C291.622 294.06 290.962 293.352 290.962 292.41C290.962 291.468 291.622 290.76 292.522 290.76C293.422 290.76 294.082 291.468 294.082 292.41C294.082 293.352 293.422 294.06 292.522 294.06ZM292.522 293.526C293.044 293.526 293.458 293.106 293.458 292.41C293.458 291.714 293.044 291.3 292.522 291.3C292 291.3 291.592 291.714 291.592 292.41C291.592 293.106 292 293.526 292.522 293.526ZM295.953 294.066C295.083 294.066 294.471 293.382 294.471 292.41C294.471 291.45 295.095 290.76 295.953 290.76C296.739 290.76 297.309 291.282 297.423 292.11H296.787C296.721 291.6 296.403 291.294 295.959 291.294C295.437 291.294 295.095 291.738 295.095 292.41C295.095 293.088 295.437 293.526 295.959 293.526C296.409 293.526 296.721 293.226 296.793 292.71H297.423C297.315 293.55 296.751 294.066 295.953 294.066ZM298.639 294H298.033V289.692H298.639V292.242L300.001 290.82H300.715L299.245 292.362L300.853 294H300.073L298.639 292.494V294ZM302.435 294.06C301.517 294.06 300.899 293.394 300.899 292.392C300.899 291.45 301.541 290.76 302.417 290.76C303.365 290.76 303.995 291.528 303.887 292.56H301.517C301.565 293.208 301.889 293.586 302.423 293.586C302.873 293.586 303.185 293.34 303.287 292.926H303.887C303.731 293.634 303.185 294.06 302.435 294.06ZM302.405 291.216C301.919 291.216 301.589 291.564 301.523 292.158H303.245C303.215 291.57 302.897 291.216 302.405 291.216ZM306.314 293.412V293.946C306.128 294.03 305.966 294.06 305.774 294.06C305.186 294.06 304.778 293.742 304.778 293.04V291.336H304.076V290.82H304.778V289.878H305.384V290.82H306.344V291.336H305.384V292.902C305.384 293.34 305.594 293.496 305.918 293.496C306.062 293.496 306.188 293.472 306.314 293.412ZM309.484 294.06C308.566 294.06 307.948 293.394 307.948 292.392C307.948 291.45 308.59 290.76 309.466 290.76C310.414 290.76 311.044 291.528 310.936 292.56H308.566C308.614 293.208 308.938 293.586 309.472 293.586C309.922 293.586 310.234 293.34 310.336 292.926H310.936C310.78 293.634 310.234 294.06 309.484 294.06ZM309.454 291.216C308.968 291.216 308.638 291.564 308.572 292.158H310.294C310.264 291.57 309.946 291.216 309.454 291.216ZM312.186 292.206V294H311.58V290.82H312.144V291.348C312.36 290.994 312.72 290.76 313.158 290.76C313.812 290.76 314.244 291.18 314.244 291.942V294H313.638V292.146C313.638 291.6 313.398 291.294 312.948 291.294C312.534 291.294 312.186 291.642 312.186 292.206ZM316.321 295.224C315.487 295.224 314.947 294.78 314.911 294.06H315.499C315.535 294.504 315.823 294.744 316.315 294.744C316.861 294.744 317.149 294.45 317.149 293.904V293.328C316.969 293.712 316.609 293.934 316.177 293.934C315.385 293.934 314.821 293.28 314.821 292.344C314.821 291.396 315.361 290.76 316.159 290.76C316.615 290.76 316.975 290.982 317.191 291.384V290.82H317.755V293.892C317.755 294.726 317.221 295.224 316.321 295.224ZM315.433 292.344C315.433 293.004 315.757 293.406 316.285 293.406C316.801 293.406 317.149 292.992 317.149 292.362C317.149 291.702 316.807 291.282 316.285 291.282C315.763 291.282 315.433 291.69 315.433 292.344ZM319.332 290.082C319.332 290.31 319.152 290.484 318.894 290.484C318.636 290.484 318.45 290.31 318.45 290.082C318.45 289.848 318.636 289.68 318.894 289.68C319.152 289.68 319.332 289.848 319.332 290.082ZM319.2 294H318.594V290.82H319.2V294ZM320.647 292.206V294H320.041V290.82H320.605V291.348C320.821 290.994 321.181 290.76 321.619 290.76C322.273 290.76 322.705 291.18 322.705 291.942V294H322.099V292.146C322.099 291.6 321.859 291.294 321.409 291.294C320.995 291.294 320.647 291.642 320.647 292.206ZM324.818 294.06C323.9 294.06 323.282 293.394 323.282 292.392C323.282 291.45 323.924 290.76 324.8 290.76C325.748 290.76 326.378 291.528 326.27 292.56H323.9C323.948 293.208 324.272 293.586 324.806 293.586C325.256 293.586 325.568 293.34 325.67 292.926H326.27C326.114 293.634 325.568 294.06 324.818 294.06ZM324.788 291.216C324.302 291.216 323.972 291.564 323.906 292.158H325.628C325.598 291.57 325.28 291.216 324.788 291.216ZM328.906 290.082C328.906 290.31 328.726 290.484 328.468 290.484C328.21 290.484 328.024 290.31 328.024 290.082C328.024 289.848 328.21 289.68 328.468 289.68C328.726 289.68 328.906 289.848 328.906 290.082ZM328.774 294H328.168V290.82H328.774V294ZM332.135 293.052C332.135 293.676 331.649 294.06 330.803 294.06C329.963 294.06 329.465 293.646 329.405 292.962H329.987C330.011 293.358 330.329 293.604 330.815 293.604C331.241 293.604 331.523 293.454 331.523 293.154C331.523 292.89 331.361 292.776 330.965 292.698L330.449 292.602C329.861 292.488 329.531 292.188 329.531 291.708C329.531 291.15 330.017 290.76 330.755 290.76C331.517 290.76 332.033 291.168 332.087 291.822H331.505C331.469 291.438 331.187 291.216 330.761 291.216C330.377 291.216 330.119 291.378 330.119 291.654C330.119 291.912 330.281 292.032 330.665 292.104L331.205 292.206C331.835 292.32 332.135 292.596 332.135 293.052ZM285.346 302V301.508C285.148 301.862 284.794 302.06 284.326 302.06C283.666 302.06 283.234 301.682 283.234 301.1C283.234 300.476 283.732 300.152 284.68 300.152C284.866 300.152 285.016 300.158 285.274 300.188V299.954C285.274 299.498 285.028 299.24 284.608 299.24C284.164 299.24 283.894 299.504 283.876 299.948H283.324C283.354 299.234 283.864 298.76 284.608 298.76C285.394 298.76 285.85 299.204 285.85 299.96V302H285.346ZM283.81 301.082C283.81 301.412 284.056 301.628 284.446 301.628C284.956 301.628 285.274 301.31 285.274 300.824V300.566C285.04 300.536 284.872 300.53 284.716 300.53C284.11 300.53 283.81 300.71 283.81 301.082ZM288.652 298.082C288.652 298.31 288.472 298.484 288.214 298.484C287.956 298.484 287.77 298.31 287.77 298.082C287.77 297.848 287.956 297.68 288.214 297.68C288.472 297.68 288.652 297.848 288.652 298.082ZM288.514 298.82V302.156C288.514 302.882 288.118 303.218 287.536 303.218C287.404 303.218 287.254 303.212 287.116 303.158V302.588C287.218 302.636 287.332 302.654 287.464 302.654C287.734 302.654 287.908 302.51 287.908 302.144V298.82H288.514ZM290.664 302.06C289.746 302.06 289.128 301.394 289.128 300.392C289.128 299.45 289.77 298.76 290.646 298.76C291.594 298.76 292.224 299.528 292.116 300.56H289.746C289.794 301.208 290.118 301.586 290.652 301.586C291.102 301.586 291.414 301.34 291.516 300.926H292.116C291.96 301.634 291.414 302.06 290.664 302.06ZM290.634 299.216C290.148 299.216 289.818 299.564 289.752 300.158H291.474C291.444 299.57 291.126 299.216 290.634 299.216ZM294.542 301.412V301.946C294.356 302.03 294.194 302.06 294.002 302.06C293.414 302.06 293.006 301.742 293.006 301.04V299.336H292.304V298.82H293.006V297.878H293.612V298.82H294.572V299.336H293.612V300.902C293.612 301.34 293.822 301.496 294.146 301.496C294.29 301.496 294.416 301.472 294.542 301.412ZM297.712 302.06C296.794 302.06 296.176 301.394 296.176 300.392C296.176 299.45 296.818 298.76 297.694 298.76C298.642 298.76 299.272 299.528 299.164 300.56H296.794C296.842 301.208 297.166 301.586 297.7 301.586C298.15 301.586 298.462 301.34 298.564 300.926H299.164C299.008 301.634 298.462 302.06 297.712 302.06ZM297.682 299.216C297.196 299.216 296.866 299.564 296.8 300.158H298.522C298.492 299.57 298.174 299.216 297.682 299.216ZM300.415 300.206V302H299.809V298.82H300.373V299.348C300.589 298.994 300.949 298.76 301.387 298.76C302.041 298.76 302.473 299.18 302.473 299.942V302H301.867V300.146C301.867 299.6 301.627 299.294 301.177 299.294C300.763 299.294 300.415 299.642 300.415 300.206ZM304.549 303.224C303.715 303.224 303.175 302.78 303.139 302.06H303.727C303.763 302.504 304.051 302.744 304.543 302.744C305.089 302.744 305.377 302.45 305.377 301.904V301.328C305.197 301.712 304.837 301.934 304.405 301.934C303.613 301.934 303.049 301.28 303.049 300.344C303.049 299.396 303.589 298.76 304.387 298.76C304.843 298.76 305.203 298.982 305.419 299.384V298.82H305.983V301.892C305.983 302.726 305.449 303.224 304.549 303.224ZM303.661 300.344C303.661 301.004 303.985 301.406 304.513 301.406C305.029 301.406 305.377 300.992 305.377 300.362C305.377 299.702 305.035 299.282 304.513 299.282C303.991 299.282 303.661 299.69 303.661 300.344ZM307.56 298.082C307.56 298.31 307.38 298.484 307.122 298.484C306.864 298.484 306.678 298.31 306.678 298.082C306.678 297.848 306.864 297.68 307.122 297.68C307.38 297.68 307.56 297.848 307.56 298.082ZM307.428 302H306.822V298.82H307.428V302ZM308.876 300.206V302H308.27V298.82H308.834V299.348C309.05 298.994 309.41 298.76 309.848 298.76C310.502 298.76 310.934 299.18 310.934 299.942V302H310.328V300.146C310.328 299.6 310.088 299.294 309.638 299.294C309.224 299.294 308.876 299.642 308.876 300.206ZM313.046 302.06C312.128 302.06 311.51 301.394 311.51 300.392C311.51 299.45 312.152 298.76 313.028 298.76C313.976 298.76 314.606 299.528 314.498 300.56H312.128C312.176 301.208 312.5 301.586 313.034 301.586C313.484 301.586 313.796 301.34 313.898 300.926H314.498C314.342 301.634 313.796 302.06 313.046 302.06ZM313.016 299.216C312.53 299.216 312.2 299.564 312.134 300.158H313.856C313.826 299.57 313.508 299.216 313.016 299.216ZM318.191 301.412V301.946C318.005 302.03 317.843 302.06 317.651 302.06C317.063 302.06 316.655 301.742 316.655 301.04V299.336H315.953V298.82H316.655V297.878H317.261V298.82H318.221V299.336H317.261V300.902C317.261 301.34 317.471 301.496 317.795 301.496C317.939 301.496 318.065 301.472 318.191 301.412ZM319.405 300.206V302H318.799V297.692H319.405V299.33C319.615 298.988 319.939 298.76 320.377 298.76C321.031 298.76 321.463 299.18 321.463 299.942V302H320.857V300.146C320.857 299.6 320.617 299.294 320.167 299.294C319.753 299.294 319.405 299.642 319.405 300.206ZM324.194 302V301.508C323.996 301.862 323.642 302.06 323.174 302.06C322.514 302.06 322.082 301.682 322.082 301.1C322.082 300.476 322.58 300.152 323.528 300.152C323.714 300.152 323.864 300.158 324.122 300.188V299.954C324.122 299.498 323.876 299.24 323.456 299.24C323.012 299.24 322.742 299.504 322.724 299.948H322.172C322.202 299.234 322.712 298.76 323.456 298.76C324.242 298.76 324.698 299.204 324.698 299.96V302H324.194ZM322.658 301.082C322.658 301.412 322.904 301.628 323.294 301.628C323.804 301.628 324.122 301.31 324.122 300.824V300.566C323.888 300.536 323.72 300.53 323.564 300.53C322.958 300.53 322.658 300.71 322.658 301.082ZM327.273 301.412V301.946C327.087 302.03 326.925 302.06 326.733 302.06C326.145 302.06 325.737 301.742 325.737 301.04V299.336H325.035V298.82H325.737V297.878H326.343V298.82H327.303V299.336H326.343V300.902C326.343 301.34 326.553 301.496 326.877 301.496C327.021 301.496 327.147 301.472 327.273 301.412ZM285.406 308.692V306.82H286.012V310H285.448V309.496C285.28 309.826 284.908 310.06 284.476 310.06C283.834 310.06 283.39 309.682 283.39 308.866V306.82H283.996V308.746C283.996 309.298 284.272 309.526 284.668 309.526C285.076 309.526 285.406 309.19 285.406 308.692ZM289.374 309.052C289.374 309.676 288.888 310.06 288.042 310.06C287.202 310.06 286.704 309.646 286.644 308.962H287.226C287.25 309.358 287.568 309.604 288.054 309.604C288.48 309.604 288.762 309.454 288.762 309.154C288.762 308.89 288.6 308.776 288.204 308.698L287.688 308.602C287.1 308.488 286.77 308.188 286.77 307.708C286.77 307.15 287.256 306.76 287.994 306.76C288.756 306.76 289.272 307.168 289.326 307.822H288.744C288.708 307.438 288.426 307.216 288 307.216C287.616 307.216 287.358 307.378 287.358 307.654C287.358 307.912 287.52 308.032 287.904 308.104L288.444 308.206C289.074 308.32 289.374 308.596 289.374 309.052ZM291.343 310.06C290.425 310.06 289.807 309.394 289.807 308.392C289.807 307.45 290.449 306.76 291.325 306.76C292.273 306.76 292.903 307.528 292.795 308.56H290.425C290.473 309.208 290.797 309.586 291.331 309.586C291.781 309.586 292.093 309.34 292.195 308.926H292.795C292.639 309.634 292.093 310.06 291.343 310.06ZM291.313 307.216C290.827 307.216 290.497 307.564 290.431 308.158H292.153C292.123 307.57 291.805 307.216 291.313 307.216ZM295.96 309.052C295.96 309.676 295.474 310.06 294.628 310.06C293.788 310.06 293.29 309.646 293.23 308.962H293.812C293.836 309.358 294.154 309.604 294.64 309.604C295.066 309.604 295.348 309.454 295.348 309.154C295.348 308.89 295.186 308.776 294.79 308.698L294.274 308.602C293.686 308.488 293.356 308.188 293.356 307.708C293.356 307.15 293.842 306.76 294.58 306.76C295.342 306.76 295.858 307.168 295.912 307.822H295.33C295.294 307.438 295.012 307.216 294.586 307.216C294.202 307.216 293.944 307.378 293.944 307.654C293.944 307.912 294.106 308.032 294.49 308.104L295.03 308.206C295.66 308.32 295.96 308.596 295.96 309.052ZM298.481 308.206V310H297.875V306.82H298.439V307.348C298.655 306.994 299.015 306.76 299.453 306.76C300.107 306.76 300.539 307.18 300.539 307.942V310H299.933V308.146C299.933 307.6 299.693 307.294 299.243 307.294C298.829 307.294 298.481 307.642 298.481 308.206ZM302.652 310.06C301.734 310.06 301.116 309.394 301.116 308.392C301.116 307.45 301.758 306.76 302.634 306.76C303.582 306.76 304.212 307.528 304.104 308.56H301.734C301.782 309.208 302.106 309.586 302.64 309.586C303.09 309.586 303.402 309.34 303.504 308.926H304.104C303.948 309.634 303.402 310.06 302.652 310.06ZM302.622 307.216C302.136 307.216 301.806 307.564 301.74 308.158H303.462C303.432 307.57 303.114 307.216 302.622 307.216ZM305.486 306.082C305.486 306.31 305.306 306.484 305.048 306.484C304.79 306.484 304.604 306.31 304.604 306.082C304.604 305.848 304.79 305.68 305.048 305.68C305.306 305.68 305.486 305.848 305.486 306.082ZM305.354 310H304.748V306.82H305.354V310ZM307.989 309.412V309.946C307.803 310.03 307.641 310.06 307.449 310.06C306.861 310.06 306.453 309.742 306.453 309.04V307.336H305.751V306.82H306.453V305.878H307.059V306.82H308.019V307.336H307.059V308.902C307.059 309.34 307.269 309.496 307.593 309.496C307.737 309.496 307.863 309.472 307.989 309.412ZM309.204 308.206V310H308.598V305.692H309.204V307.33C309.414 306.988 309.738 306.76 310.176 306.76C310.83 306.76 311.262 307.18 311.262 307.942V310H310.656V308.146C310.656 307.6 310.416 307.294 309.966 307.294C309.552 307.294 309.204 307.642 309.204 308.206ZM313.374 310.06C312.456 310.06 311.838 309.394 311.838 308.392C311.838 307.45 312.48 306.76 313.356 306.76C314.304 306.76 314.934 307.528 314.826 308.56H312.456C312.504 309.208 312.828 309.586 313.362 309.586C313.812 309.586 314.124 309.34 314.226 308.926H314.826C314.67 309.634 314.124 310.06 313.374 310.06ZM313.344 307.216C312.858 307.216 312.528 307.564 312.462 308.158H314.184C314.154 307.57 313.836 307.216 313.344 307.216ZM316.077 308.374V310H315.471V306.82H316.035V307.492C316.257 307.054 316.737 306.778 317.259 306.778V307.408C316.575 307.372 316.077 307.672 316.077 308.374ZM284.728 318.06C283.81 318.06 283.192 317.394 283.192 316.392C283.192 315.45 283.834 314.76 284.71 314.76C285.658 314.76 286.288 315.528 286.18 316.56H283.81C283.858 317.208 284.182 317.586 284.716 317.586C285.166 317.586 285.478 317.34 285.58 316.926H286.18C286.024 317.634 285.478 318.06 284.728 318.06ZM284.698 315.216C284.212 315.216 283.882 315.564 283.816 316.158H285.538C285.508 315.57 285.19 315.216 284.698 315.216ZM287.43 316.206V318H286.824V314.82H287.388V315.348C287.604 314.994 287.964 314.76 288.402 314.76C289.056 314.76 289.488 315.18 289.488 315.942V318H288.882V316.146C288.882 315.6 288.642 315.294 288.192 315.294C287.778 315.294 287.43 315.642 287.43 316.206ZM291.601 318.06C290.683 318.06 290.065 317.394 290.065 316.392C290.065 315.45 290.707 314.76 291.583 314.76C292.531 314.76 293.161 315.528 293.053 316.56H290.683C290.731 317.208 291.055 317.586 291.589 317.586C292.039 317.586 292.351 317.34 292.453 316.926H293.053C292.897 317.634 292.351 318.06 291.601 318.06ZM291.571 315.216C291.085 315.216 290.755 315.564 290.689 316.158H292.411C292.381 315.57 292.063 315.216 291.571 315.216ZM294.303 316.374V318H293.697V314.82H294.261V315.492C294.483 315.054 294.963 314.778 295.485 314.778V315.408C294.801 315.372 294.303 315.672 294.303 316.374ZM297.237 319.224C296.403 319.224 295.863 318.78 295.827 318.06H296.415C296.451 318.504 296.739 318.744 297.231 318.744C297.777 318.744 298.065 318.45 298.065 317.904V317.328C297.885 317.712 297.525 317.934 297.093 317.934C296.301 317.934 295.737 317.28 295.737 316.344C295.737 315.396 296.277 314.76 297.075 314.76C297.531 314.76 297.891 314.982 298.107 315.384V314.82H298.671V317.892C298.671 318.726 298.137 319.224 297.237 319.224ZM296.349 316.344C296.349 317.004 296.673 317.406 297.201 317.406C297.717 317.406 298.065 316.992 298.065 316.362C298.065 315.702 297.723 315.282 297.201 315.282C296.679 315.282 296.349 315.69 296.349 316.344ZM302.15 314.82L300.56 319.158H299.9L300.356 317.958L299.102 314.82H299.756L300.68 317.244L301.538 314.82H302.15ZM304.44 316.206V318H303.834V314.82H304.398V315.348C304.614 314.994 304.974 314.76 305.412 314.76C306.066 314.76 306.498 315.18 306.498 315.942V318H305.892V316.146C305.892 315.6 305.652 315.294 305.202 315.294C304.788 315.294 304.44 315.642 304.44 316.206ZM308.635 318.06C307.735 318.06 307.075 317.352 307.075 316.41C307.075 315.468 307.735 314.76 308.635 314.76C309.535 314.76 310.195 315.468 310.195 316.41C310.195 317.352 309.535 318.06 308.635 318.06ZM308.635 317.526C309.157 317.526 309.571 317.106 309.571 316.41C309.571 315.714 309.157 315.3 308.635 315.3C308.113 315.3 307.705 315.714 307.705 316.41C307.705 317.106 308.113 317.526 308.635 317.526ZM311.419 316.374V318H310.813V314.82H311.377V315.492C311.599 315.054 312.079 314.778 312.601 314.778V315.408C311.917 315.372 311.419 315.672 311.419 316.374ZM316.26 318V317.508C316.062 317.862 315.708 318.06 315.24 318.06C314.58 318.06 314.148 317.682 314.148 317.1C314.148 316.476 314.646 316.152 315.594 316.152C315.78 316.152 315.93 316.158 316.188 316.188V315.954C316.188 315.498 315.942 315.24 315.522 315.24C315.078 315.24 314.808 315.504 314.79 315.948H314.238C314.268 315.234 314.778 314.76 315.522 314.76C316.308 314.76 316.764 315.204 316.764 315.96V318H316.26ZM314.724 317.082C314.724 317.412 314.97 317.628 315.36 317.628C315.87 317.628 316.188 317.31 316.188 316.824V316.566C315.954 316.536 315.786 316.53 315.63 316.53C315.024 316.53 314.724 316.71 314.724 317.082ZM286.048 326L285.328 323.636L284.602 326H283.99L283.072 322.82H283.666L284.308 325.136L285.028 322.82H285.628L286.336 325.142L286.978 322.82H287.578L286.654 326H286.048ZM289.334 326.06C288.434 326.06 287.774 325.352 287.774 324.41C287.774 323.468 288.434 322.76 289.334 322.76C290.234 322.76 290.894 323.468 290.894 324.41C290.894 325.352 290.234 326.06 289.334 326.06ZM289.334 325.526C289.856 325.526 290.27 325.106 290.27 324.41C290.27 323.714 289.856 323.3 289.334 323.3C288.812 323.3 288.404 323.714 288.404 324.41C288.404 325.106 288.812 325.526 289.334 325.526ZM292.118 324.374V326H291.512V322.82H292.076V323.492C292.298 323.054 292.778 322.778 293.3 322.778V323.408C292.616 323.372 292.118 323.672 292.118 324.374ZM294.385 326H293.779V321.692H294.385V324.242L295.747 322.82H296.461L294.991 324.362L296.599 326H295.819L294.385 324.494V326ZM297.763 322.082C297.763 322.31 297.583 322.484 297.325 322.484C297.067 322.484 296.881 322.31 296.881 322.082C296.881 321.848 297.067 321.68 297.325 321.68C297.583 321.68 297.763 321.848 297.763 322.082ZM297.631 326H297.025V322.82H297.631V326ZM299.079 324.206V326H298.473V322.82H299.037V323.348C299.253 322.994 299.613 322.76 300.051 322.76C300.705 322.76 301.137 323.18 301.137 323.942V326H300.531V324.146C300.531 323.6 300.291 323.294 299.841 323.294C299.427 323.294 299.079 323.642 299.079 324.206ZM303.213 327.224C302.379 327.224 301.839 326.78 301.803 326.06H302.391C302.427 326.504 302.715 326.744 303.207 326.744C303.753 326.744 304.041 326.45 304.041 325.904V325.328C303.861 325.712 303.501 325.934 303.069 325.934C302.277 325.934 301.713 325.28 301.713 324.344C301.713 323.396 302.253 322.76 303.051 322.76C303.507 322.76 303.867 322.982 304.083 323.384V322.82H304.647V325.892C304.647 326.726 304.113 327.224 303.213 327.224ZM302.325 324.344C302.325 325.004 302.649 325.406 303.177 325.406C303.693 325.406 304.041 324.992 304.041 324.362C304.041 323.702 303.699 323.282 303.177 323.282C302.655 323.282 302.325 323.69 302.325 324.344ZM309.776 324.41C309.776 325.364 309.224 326.06 308.366 326.06C307.916 326.06 307.532 325.832 307.304 325.43V326H306.74V321.692H307.346V323.366C307.568 322.976 307.934 322.76 308.366 322.76C309.218 322.76 309.776 323.444 309.776 324.41ZM309.146 324.41C309.146 323.69 308.768 323.294 308.246 323.294C307.742 323.294 307.346 323.684 307.346 324.398C307.346 325.1 307.73 325.52 308.246 325.52C308.768 325.52 309.146 325.118 309.146 324.41ZM311.723 326.06C310.823 326.06 310.163 325.352 310.163 324.41C310.163 323.468 310.823 322.76 311.723 322.76C312.623 322.76 313.283 323.468 313.283 324.41C313.283 325.352 312.623 326.06 311.723 326.06ZM311.723 325.526C312.245 325.526 312.659 325.106 312.659 324.41C312.659 323.714 312.245 323.3 311.723 323.3C311.201 323.3 310.793 323.714 310.793 324.41C310.793 325.106 311.201 325.526 311.723 325.526ZM313.672 324.41C313.672 323.444 314.224 322.76 315.082 322.76C315.508 322.76 315.88 322.976 316.102 323.366V321.692H316.708V326H316.144V325.43C315.916 325.832 315.532 326.06 315.082 326.06C314.224 326.06 313.672 325.364 313.672 324.41ZM314.302 324.41C314.302 325.118 314.674 325.52 315.202 325.52C315.718 325.52 316.102 325.1 316.102 324.398C316.102 323.684 315.706 323.294 315.202 323.294C314.674 323.294 314.302 323.69 314.302 324.41ZM320.191 322.82L318.601 327.158H317.941L318.397 325.958L317.143 322.82H317.797L318.721 325.244L319.579 322.82H320.191ZM284.314 334H283.708V331.336H283.006V330.82H283.708V330.586C283.708 329.974 284.038 329.638 284.638 329.638C284.818 329.638 284.962 329.668 285.082 329.716V330.208C284.986 330.166 284.878 330.154 284.77 330.154C284.482 330.154 284.314 330.286 284.314 330.592V330.82H285.202V331.336H284.314V334ZM286.27 332.374V334H285.664V330.82H286.228V331.492C286.45 331.054 286.93 330.778 287.452 330.778V331.408C286.768 331.372 286.27 331.672 286.27 332.374ZM289.252 334.06C288.352 334.06 287.692 333.352 287.692 332.41C287.692 331.468 288.352 330.76 289.252 330.76C290.152 330.76 290.812 331.468 290.812 332.41C290.812 333.352 290.152 334.06 289.252 334.06ZM289.252 333.526C289.774 333.526 290.188 333.106 290.188 332.41C290.188 331.714 289.774 331.3 289.252 331.3C288.73 331.3 288.322 331.714 288.322 332.41C288.322 333.106 288.73 333.526 289.252 333.526ZM292.036 334H291.43V330.82H291.994V331.348C292.21 330.982 292.552 330.76 292.99 330.76C293.458 330.76 293.812 331 293.956 331.42C294.178 331.012 294.544 330.76 295.03 330.76C295.684 330.76 296.104 331.186 296.104 331.942V334H295.498V332.134C295.498 331.606 295.264 331.294 294.82 331.294C294.406 331.294 294.07 331.642 294.07 332.176V334H293.464V332.134C293.464 331.606 293.23 331.294 292.786 331.294C292.366 331.294 292.036 331.642 292.036 332.176V334ZM299.962 333.412V333.946C299.776 334.03 299.614 334.06 299.422 334.06C298.834 334.06 298.426 333.742 298.426 333.04V331.336H297.724V330.82H298.426V329.878H299.032V330.82H299.992V331.336H299.032V332.902C299.032 333.34 299.242 333.496 299.566 333.496C299.71 333.496 299.836 333.472 299.962 333.412ZM301.176 332.206V334H300.57V329.692H301.176V331.33C301.386 330.988 301.71 330.76 302.148 330.76C302.802 330.76 303.234 331.18 303.234 331.942V334H302.628V332.146C302.628 331.6 302.388 331.294 301.938 331.294C301.524 331.294 301.176 331.642 301.176 332.206ZM305.347 334.06C304.429 334.06 303.811 333.394 303.811 332.392C303.811 331.45 304.453 330.76 305.329 330.76C306.277 330.76 306.907 331.528 306.799 332.56H304.429C304.477 333.208 304.801 333.586 305.335 333.586C305.785 333.586 306.097 333.34 306.199 332.926H306.799C306.643 333.634 306.097 334.06 305.347 334.06ZM305.317 331.216C304.831 331.216 304.501 331.564 304.435 332.158H306.157C306.127 331.57 305.809 331.216 305.317 331.216ZM284.728 342.06C283.81 342.06 283.192 341.394 283.192 340.392C283.192 339.45 283.834 338.76 284.71 338.76C285.658 338.76 286.288 339.528 286.18 340.56H283.81C283.858 341.208 284.182 341.586 284.716 341.586C285.166 341.586 285.478 341.34 285.58 340.926H286.18C286.024 341.634 285.478 342.06 284.728 342.06ZM284.698 339.216C284.212 339.216 283.882 339.564 283.816 340.158H285.538C285.508 339.57 285.19 339.216 284.698 339.216ZM287.43 340.206V342H286.824V338.82H287.388V339.348C287.604 338.994 287.964 338.76 288.402 338.76C289.056 338.76 289.488 339.18 289.488 339.942V342H288.882V340.146C288.882 339.6 288.642 339.294 288.192 339.294C287.778 339.294 287.43 339.642 287.43 340.206ZM292.816 338.82L291.622 342H290.962L289.768 338.82H290.422L291.304 341.304L292.198 338.82H292.816ZM293.984 338.082C293.984 338.31 293.804 338.484 293.546 338.484C293.288 338.484 293.102 338.31 293.102 338.082C293.102 337.848 293.288 337.68 293.546 337.68C293.804 337.68 293.984 337.848 293.984 338.082ZM293.852 342H293.246V338.82H293.852V342ZM295.299 340.374V342H294.693V338.82H295.257V339.492C295.479 339.054 295.959 338.778 296.481 338.778V339.408C295.797 339.372 295.299 339.672 295.299 340.374ZM298.281 342.06C297.381 342.06 296.721 341.352 296.721 340.41C296.721 339.468 297.381 338.76 298.281 338.76C299.181 338.76 299.841 339.468 299.841 340.41C299.841 341.352 299.181 342.06 298.281 342.06ZM298.281 341.526C298.803 341.526 299.217 341.106 299.217 340.41C299.217 339.714 298.803 339.3 298.281 339.3C297.759 339.3 297.351 339.714 297.351 340.41C297.351 341.106 297.759 341.526 298.281 341.526ZM301.065 340.206V342H300.459V338.82H301.023V339.348C301.239 338.994 301.599 338.76 302.037 338.76C302.691 338.76 303.123 339.18 303.123 339.942V342H302.517V340.146C302.517 339.6 302.277 339.294 301.827 339.294C301.413 339.294 301.065 339.642 301.065 340.206ZM304.534 342H303.928V338.82H304.492V339.348C304.708 338.982 305.05 338.76 305.488 338.76C305.956 338.76 306.31 339 306.454 339.42C306.676 339.012 307.042 338.76 307.528 338.76C308.182 338.76 308.602 339.186 308.602 339.942V342H307.996V340.134C307.996 339.606 307.762 339.294 307.318 339.294C306.904 339.294 306.568 339.642 306.568 340.176V342H305.962V340.134C305.962 339.606 305.728 339.294 305.284 339.294C304.864 339.294 304.534 339.642 304.534 340.176V342ZM310.72 342.06C309.802 342.06 309.184 341.394 309.184 340.392C309.184 339.45 309.826 338.76 310.702 338.76C311.65 338.76 312.28 339.528 312.172 340.56H309.802C309.85 341.208 310.174 341.586 310.708 341.586C311.158 341.586 311.47 341.34 311.572 340.926H312.172C312.016 341.634 311.47 342.06 310.72 342.06ZM310.69 339.216C310.204 339.216 309.874 339.564 309.808 340.158H311.53C311.5 339.57 311.182 339.216 310.69 339.216ZM313.422 340.206V342H312.816V338.82H313.38V339.348C313.596 338.994 313.956 338.76 314.394 338.76C315.048 338.76 315.48 339.18 315.48 339.942V342H314.874V340.146C314.874 339.6 314.634 339.294 314.184 339.294C313.77 339.294 313.422 339.642 313.422 340.206ZM318.068 341.412V341.946C317.882 342.03 317.72 342.06 317.528 342.06C316.94 342.06 316.532 341.742 316.532 341.04V339.336H315.83V338.82H316.532V337.878H317.138V338.82H318.098V339.336H317.138V340.902C317.138 341.34 317.348 341.496 317.672 341.496C317.816 341.496 317.942 341.472 318.068 341.412ZM320.824 342H320.218V339.336H319.516V338.82H320.218V338.586C320.218 337.974 320.548 337.638 321.148 337.638C321.328 337.638 321.472 337.668 321.592 337.716V338.208C321.496 338.166 321.388 338.154 321.28 338.154C320.992 338.154 320.824 338.286 320.824 338.592V338.82H321.712V339.336H320.824V342ZM323.418 342.06C322.518 342.06 321.858 341.352 321.858 340.41C321.858 339.468 322.518 338.76 323.418 338.76C324.318 338.76 324.978 339.468 324.978 340.41C324.978 341.352 324.318 342.06 323.418 342.06ZM323.418 341.526C323.94 341.526 324.354 341.106 324.354 340.41C324.354 339.714 323.94 339.3 323.418 339.3C322.896 339.3 322.488 339.714 322.488 340.41C322.488 341.106 322.896 341.526 323.418 341.526ZM326.202 340.374V342H325.596V338.82H326.16V339.492C326.382 339.054 326.862 338.778 327.384 338.778V339.408C326.7 339.372 326.202 339.672 326.202 340.374ZM284.158 346.082C284.158 346.31 283.978 346.484 283.72 346.484C283.462 346.484 283.276 346.31 283.276 346.082C283.276 345.848 283.462 345.68 283.72 345.68C283.978 345.68 284.158 345.848 284.158 346.082ZM284.026 350H283.42V346.82H284.026V350ZM286.661 349.412V349.946C286.475 350.03 286.313 350.06 286.121 350.06C285.533 350.06 285.125 349.742 285.125 349.04V347.336H284.423V346.82H285.125V345.878H285.731V346.82H286.691V347.336H285.731V348.902C285.731 349.34 285.941 349.496 286.265 349.496C286.409 349.496 286.535 349.472 286.661 349.412ZM289.778 349.052C289.778 349.676 289.292 350.06 288.446 350.06C287.606 350.06 287.108 349.646 287.048 348.962H287.63C287.654 349.358 287.972 349.604 288.458 349.604C288.884 349.604 289.166 349.454 289.166 349.154C289.166 348.89 289.004 348.776 288.608 348.698L288.092 348.602C287.504 348.488 287.174 348.188 287.174 347.708C287.174 347.15 287.66 346.76 288.398 346.76C289.16 346.76 289.676 347.168 289.73 347.822H289.148C289.112 347.438 288.83 347.216 288.404 347.216C288.02 347.216 287.762 347.378 287.762 347.654C287.762 347.912 287.924 348.032 288.308 348.104L288.848 348.206C289.478 348.32 289.778 348.596 289.778 349.052ZM293.025 350.06C292.125 350.06 291.465 349.352 291.465 348.41C291.465 347.468 292.125 346.76 293.025 346.76C293.925 346.76 294.585 347.468 294.585 348.41C294.585 349.352 293.925 350.06 293.025 350.06ZM293.025 349.526C293.547 349.526 293.961 349.106 293.961 348.41C293.961 347.714 293.547 347.3 293.025 347.3C292.503 347.3 292.095 347.714 292.095 348.41C292.095 349.106 292.503 349.526 293.025 349.526ZM298.239 348.41C298.239 349.37 297.687 350.06 296.835 350.06C296.403 350.06 296.037 349.844 295.809 349.46V351.158H295.203V346.82H295.767V347.402C295.995 346.994 296.385 346.76 296.835 346.76C297.681 346.76 298.239 347.45 298.239 348.41ZM297.609 348.41C297.609 347.696 297.231 347.294 296.709 347.294C296.205 347.294 295.809 347.696 295.809 348.41C295.809 349.112 296.199 349.52 296.709 349.52C297.231 349.52 297.609 349.124 297.609 348.41ZM300.162 350.06C299.244 350.06 298.626 349.394 298.626 348.392C298.626 347.45 299.268 346.76 300.144 346.76C301.092 346.76 301.722 347.528 301.614 348.56H299.244C299.292 349.208 299.616 349.586 300.15 349.586C300.6 349.586 300.912 349.34 301.014 348.926H301.614C301.458 349.634 300.912 350.06 300.162 350.06ZM300.132 347.216C299.646 347.216 299.316 347.564 299.25 348.158H300.972C300.942 347.57 300.624 347.216 300.132 347.216ZM302.864 348.374V350H302.258V346.82H302.822V347.492C303.044 347.054 303.524 346.778 304.046 346.778V347.408C303.362 347.372 302.864 347.672 302.864 348.374ZM306.451 350V349.508C306.253 349.862 305.899 350.06 305.431 350.06C304.771 350.06 304.339 349.682 304.339 349.1C304.339 348.476 304.837 348.152 305.785 348.152C305.971 348.152 306.121 348.158 306.379 348.188V347.954C306.379 347.498 306.133 347.24 305.713 347.24C305.269 347.24 304.999 347.504 304.981 347.948H304.429C304.459 347.234 304.969 346.76 305.713 346.76C306.499 346.76 306.955 347.204 306.955 347.96V350H306.451ZM304.915 349.082C304.915 349.412 305.161 349.628 305.551 349.628C306.061 349.628 306.379 349.31 306.379 348.824V348.566C306.145 348.536 305.977 348.53 305.821 348.53C305.215 348.53 304.915 348.71 304.915 349.082ZM309.53 349.412V349.946C309.344 350.03 309.182 350.06 308.99 350.06C308.402 350.06 307.994 349.742 307.994 349.04V347.336H307.292V346.82H307.994V345.878H308.6V346.82H309.56V347.336H308.6V348.902C308.6 349.34 308.81 349.496 309.134 349.496C309.278 349.496 309.404 349.472 309.53 349.412ZM310.877 346.082C310.877 346.31 310.697 346.484 310.439 346.484C310.181 346.484 309.995 346.31 309.995 346.082C309.995 345.848 310.181 345.68 310.439 345.68C310.697 345.68 310.877 345.848 310.877 346.082ZM310.745 350H310.139V346.82H310.745V350ZM312.918 350.06C312.018 350.06 311.358 349.352 311.358 348.41C311.358 347.468 312.018 346.76 312.918 346.76C313.818 346.76 314.478 347.468 314.478 348.41C314.478 349.352 313.818 350.06 312.918 350.06ZM312.918 349.526C313.44 349.526 313.854 349.106 313.854 348.41C313.854 347.714 313.44 347.3 312.918 347.3C312.396 347.3 311.988 347.714 311.988 348.41C311.988 349.106 312.396 349.526 312.918 349.526ZM315.702 348.206V350H315.096V346.82H315.66V347.348C315.876 346.994 316.236 346.76 316.674 346.76C317.328 346.76 317.76 347.18 317.76 347.942V350H317.154V348.146C317.154 347.6 316.914 347.294 316.464 347.294C316.05 347.294 315.702 347.642 315.702 348.206ZM319.387 349.568C319.387 349.838 319.201 350.03 318.925 350.03C318.655 350.03 318.463 349.838 318.463 349.568C318.463 349.286 318.655 349.094 318.925 349.094C319.201 349.094 319.387 349.286 319.387 349.568Z" fill="white" fill-opacity="0.1"/>
<path d="M36.255 323H35.745V320.06H35.09V319.62H36.255V323ZM37.9054 323H37.3954V320.06H36.7404V319.62H37.9054V323ZM38.5458 321.315C38.5458 320.195 38.9908 319.57 39.7908 319.57C40.5908 319.57 41.0408 320.195 41.0408 321.315C41.0408 322.435 40.6008 323.05 39.7908 323.05C38.9808 323.05 38.5458 322.435 38.5458 321.315ZM39.0658 321.315C39.0658 322.15 39.3158 322.595 39.7908 322.595C40.2658 322.595 40.5208 322.155 40.5208 321.315C40.5208 320.47 40.2658 320.025 39.7908 320.025C39.3258 320.025 39.0658 320.47 39.0658 321.315ZM42.5741 321.315C42.5741 320.195 43.0191 319.57 43.8191 319.57C44.6191 319.57 45.0691 320.195 45.0691 321.315C45.0691 322.435 44.6291 323.05 43.8191 323.05C43.0091 323.05 42.5741 322.435 42.5741 321.315ZM43.0941 321.315C43.0941 322.15 43.3441 322.595 43.8191 322.595C44.2941 322.595 44.5491 322.155 44.5491 321.315C44.5491 320.47 44.2941 320.025 43.8191 320.025C43.3541 320.025 43.0941 320.47 43.0941 321.315ZM45.5575 321.315C45.5575 320.195 46.0025 319.57 46.8025 319.57C47.6025 319.57 48.0525 320.195 48.0525 321.315C48.0525 322.435 47.6125 323.05 46.8025 323.05C45.9925 323.05 45.5575 322.435 45.5575 321.315ZM46.0775 321.315C46.0775 322.15 46.3275 322.595 46.8025 322.595C47.2775 322.595 47.5325 322.155 47.5325 321.315C47.5325 320.47 47.2775 320.025 46.8025 320.025C46.3375 320.025 46.0775 320.47 46.0775 321.315ZM48.5409 321.315C48.5409 320.195 48.9859 319.57 49.7859 319.57C50.5859 319.57 51.0359 320.195 51.0359 321.315C51.0359 322.435 50.5959 323.05 49.7859 323.05C48.9759 323.05 48.5409 322.435 48.5409 321.315ZM49.0609 321.315C49.0609 322.15 49.3109 322.595 49.7859 322.595C50.2609 322.595 50.5159 322.155 50.5159 321.315C50.5159 320.47 50.2609 320.025 49.7859 320.025C49.3209 320.025 49.0609 320.47 49.0609 321.315ZM55.6242 320.32V323H55.2292V321.29C55.2292 321.22 55.2309 321.147 55.2342 321.07C55.2409 320.993 55.2476 320.918 55.2542 320.845H55.2392L54.3642 323H53.9942L53.1442 320.845H53.1292C53.1359 320.918 53.1392 320.993 53.1392 321.07C53.1426 321.147 53.1442 321.225 53.1442 321.305V323H52.7492V320.32H53.3342L54.1792 322.475L55.0392 320.32H55.6242ZM56.4347 323.965H55.9297L58.1447 319.41H58.6447L56.4347 323.965ZM60.0254 323.05C59.7887 323.05 59.5771 323.002 59.3904 322.905C59.2071 322.808 59.0621 322.658 58.9554 322.455C58.8521 322.252 58.8004 321.992 58.8004 321.675C58.8004 321.345 58.8554 321.077 58.9654 320.87C59.0754 320.663 59.2237 320.512 59.4104 320.415C59.6004 320.318 59.8154 320.27 60.0554 320.27C60.1921 320.27 60.3237 320.285 60.4504 320.315C60.5771 320.342 60.6804 320.375 60.7604 320.415L60.6254 320.78C60.5454 320.75 60.4521 320.722 60.3454 320.695C60.2387 320.668 60.1387 320.655 60.0454 320.655C59.8654 320.655 59.7171 320.693 59.6004 320.77C59.4837 320.847 59.3971 320.96 59.3404 321.11C59.2837 321.26 59.2554 321.447 59.2554 321.67C59.2554 321.883 59.2837 322.065 59.3404 322.215C59.3971 322.365 59.4821 322.478 59.5954 322.555C59.7087 322.632 59.8504 322.67 60.0204 322.67C60.1671 322.67 60.2954 322.655 60.4054 322.625C60.5187 322.595 60.6221 322.558 60.7154 322.515V322.905C60.6254 322.952 60.5254 322.987 60.4154 323.01C60.3087 323.037 60.1787 323.05 60.0254 323.05Z" fill="white" fill-opacity="0.1"/>
<path d="M317.255 554H316.745V551.06H316.09V550.62H317.255V554ZM318.905 554H318.395V551.06H317.74V550.62H318.905V554ZM319.546 552.315C319.546 551.195 319.991 550.57 320.791 550.57C321.591 550.57 322.041 551.195 322.041 552.315C322.041 553.435 321.601 554.05 320.791 554.05C319.981 554.05 319.546 553.435 319.546 552.315ZM320.066 552.315C320.066 553.15 320.316 553.595 320.791 553.595C321.266 553.595 321.521 553.155 321.521 552.315C321.521 551.47 321.266 551.025 320.791 551.025C320.326 551.025 320.066 551.47 320.066 552.315ZM323.574 552.315C323.574 551.195 324.019 550.57 324.819 550.57C325.619 550.57 326.069 551.195 326.069 552.315C326.069 553.435 325.629 554.05 324.819 554.05C324.009 554.05 323.574 553.435 323.574 552.315ZM324.094 552.315C324.094 553.15 324.344 553.595 324.819 553.595C325.294 553.595 325.549 553.155 325.549 552.315C325.549 551.47 325.294 551.025 324.819 551.025C324.354 551.025 324.094 551.47 324.094 552.315ZM326.558 552.315C326.558 551.195 327.003 550.57 327.803 550.57C328.603 550.57 329.053 551.195 329.053 552.315C329.053 553.435 328.613 554.05 327.803 554.05C326.993 554.05 326.558 553.435 326.558 552.315ZM327.078 552.315C327.078 553.15 327.328 553.595 327.803 553.595C328.278 553.595 328.533 553.155 328.533 552.315C328.533 551.47 328.278 551.025 327.803 551.025C327.338 551.025 327.078 551.47 327.078 552.315ZM329.541 552.315C329.541 551.195 329.986 550.57 330.786 550.57C331.586 550.57 332.036 551.195 332.036 552.315C332.036 553.435 331.596 554.05 330.786 554.05C329.976 554.05 329.541 553.435 329.541 552.315ZM330.061 552.315C330.061 553.15 330.311 553.595 330.786 553.595C331.261 553.595 331.516 553.155 331.516 552.315C331.516 551.47 331.261 551.025 330.786 551.025C330.321 551.025 330.061 551.47 330.061 552.315ZM336.624 551.32V554H336.229V552.29C336.229 552.22 336.231 552.147 336.234 552.07C336.241 551.993 336.248 551.918 336.254 551.845H336.239L335.364 554H334.994L334.144 551.845H334.129C334.136 551.918 334.139 551.993 334.139 552.07C334.143 552.147 334.144 552.225 334.144 552.305V554H333.749V551.32H334.334L335.179 553.475L336.039 551.32H336.624ZM337.435 554.965H336.93L339.145 550.41H339.645L337.435 554.965ZM341.025 554.05C340.789 554.05 340.577 554.002 340.39 553.905C340.207 553.808 340.062 553.658 339.955 553.455C339.852 553.252 339.8 552.992 339.8 552.675C339.8 552.345 339.855 552.077 339.965 551.87C340.075 551.663 340.224 551.512 340.41 551.415C340.6 551.318 340.815 551.27 341.055 551.27C341.192 551.27 341.324 551.285 341.45 551.315C341.577 551.342 341.68 551.375 341.76 551.415L341.625 551.78C341.545 551.75 341.452 551.722 341.345 551.695C341.239 551.668 341.139 551.655 341.045 551.655C340.865 551.655 340.717 551.693 340.6 551.77C340.484 551.847 340.397 551.96 340.34 552.11C340.284 552.26 340.255 552.447 340.255 552.67C340.255 552.883 340.284 553.065 340.34 553.215C340.397 553.365 340.482 553.478 340.595 553.555C340.709 553.632 340.85 553.67 341.02 553.67C341.167 553.67 341.295 553.655 341.405 553.625C341.519 553.595 341.622 553.558 341.715 553.515V553.905C341.625 553.952 341.525 553.987 341.415 554.01C341.309 554.037 341.179 554.05 341.025 554.05Z" fill="white" fill-opacity="0.1"/>
<path d="M147.255 300H146.745V297.06H146.09V296.62H147.255V300ZM147.895 298.315C147.895 297.195 148.34 296.57 149.14 296.57C149.94 296.57 150.39 297.195 150.39 298.315C150.39 299.435 149.95 300.05 149.14 300.05C148.33 300.05 147.895 299.435 147.895 298.315ZM148.415 298.315C148.415 299.15 148.665 299.595 149.14 299.595C149.615 299.595 149.87 299.155 149.87 298.315C149.87 297.47 149.615 297.025 149.14 297.025C148.675 297.025 148.415 297.47 148.415 298.315ZM151.924 298.315C151.924 297.195 152.369 296.57 153.169 296.57C153.969 296.57 154.419 297.195 154.419 298.315C154.419 299.435 153.979 300.05 153.169 300.05C152.359 300.05 151.924 299.435 151.924 298.315ZM152.444 298.315C152.444 299.15 152.694 299.595 153.169 299.595C153.644 299.595 153.899 299.155 153.899 298.315C153.899 297.47 153.644 297.025 153.169 297.025C152.704 297.025 152.444 297.47 152.444 298.315ZM154.907 298.315C154.907 297.195 155.352 296.57 156.152 296.57C156.952 296.57 157.402 297.195 157.402 298.315C157.402 299.435 156.962 300.05 156.152 300.05C155.342 300.05 154.907 299.435 154.907 298.315ZM155.427 298.315C155.427 299.15 155.677 299.595 156.152 299.595C156.627 299.595 156.882 299.155 156.882 298.315C156.882 297.47 156.627 297.025 156.152 297.025C155.687 297.025 155.427 297.47 155.427 298.315ZM157.891 298.315C157.891 297.195 158.336 296.57 159.136 296.57C159.936 296.57 160.386 297.195 160.386 298.315C160.386 299.435 159.946 300.05 159.136 300.05C158.326 300.05 157.891 299.435 157.891 298.315ZM158.411 298.315C158.411 299.15 158.661 299.595 159.136 299.595C159.611 299.595 159.866 299.155 159.866 298.315C159.866 297.47 159.611 297.025 159.136 297.025C158.671 297.025 158.411 297.47 158.411 298.315ZM164.974 297.32V300H164.579V298.29C164.579 298.22 164.58 298.147 164.584 298.07C164.59 297.993 164.597 297.918 164.604 297.845H164.589L163.714 300H163.344L162.494 297.845H162.479C162.485 297.918 162.489 297.993 162.489 298.07C162.492 298.147 162.494 298.225 162.494 298.305V300H162.099V297.32H162.684L163.529 299.475L164.389 297.32H164.974ZM165.784 300.965H165.279L167.494 296.41H167.994L165.784 300.965ZM169.375 300.05C169.138 300.05 168.927 300.002 168.74 299.905C168.557 299.808 168.412 299.658 168.305 299.455C168.202 299.252 168.15 298.992 168.15 298.675C168.15 298.345 168.205 298.077 168.315 297.87C168.425 297.663 168.573 297.512 168.76 297.415C168.95 297.318 169.165 297.27 169.405 297.27C169.542 297.27 169.673 297.285 169.8 297.315C169.927 297.342 170.03 297.375 170.11 297.415L169.975 297.78C169.895 297.75 169.802 297.722 169.695 297.695C169.588 297.668 169.488 297.655 169.395 297.655C169.215 297.655 169.067 297.693 168.95 297.77C168.833 297.847 168.747 297.96 168.69 298.11C168.633 298.26 168.605 298.447 168.605 298.67C168.605 298.883 168.633 299.065 168.69 299.215C168.747 299.365 168.832 299.478 168.945 299.555C169.058 299.632 169.2 299.67 169.37 299.67C169.517 299.67 169.645 299.655 169.755 299.625C169.868 299.595 169.972 299.558 170.065 299.515V299.905C169.975 299.952 169.875 299.987 169.765 300.01C169.658 300.037 169.528 300.05 169.375 300.05Z" fill="white" fill-opacity="0.1"/>
<defs>
<clipPath id="clip0_1082_1972">
<rect width="374" height="769" fill="white"/>
</clipPath>
</defs>
</svg>
