<svg width="375" height="812" viewBox="0 0 375 812" fill="none" xmlns="http://www.w3.org/2000/svg">
<g clip-path="url(#clip0_290_5224)">
<g clip-path="url(#clip1_290_5224)">
<line x1="-762" y1="6.5" x2="1158" y2="6.5" stroke="#767676" stroke-opacity="0.1"/>
<line x1="-762" y1="17.5" x2="1158" y2="17.5" stroke="#767676" stroke-opacity="0.1"/>
<line x1="-762" y1="28.5" x2="1158" y2="28.5" stroke="#767676" stroke-opacity="0.1"/>
<line x1="-762" y1="39.5" x2="1158" y2="39.5" stroke="#767676" stroke-opacity="0.1"/>
<line x1="-762" y1="50.5" x2="1158" y2="50.5" stroke="#767676" stroke-opacity="0.1"/>
<line x1="-762" y1="61.5" x2="1158" y2="61.5" stroke="#767676" stroke-opacity="0.1"/>
<line x1="-762" y1="72.5" x2="1158" y2="72.5" stroke="#767676" stroke-opacity="0.1"/>
<line x1="-762" y1="83.5" x2="1158" y2="83.5" stroke="#767676" stroke-opacity="0.1"/>
<line x1="-762" y1="94.5" x2="1158" y2="94.5" stroke="#767676" stroke-opacity="0.1"/>
<line x1="-762" y1="105.5" x2="1158" y2="105.5" stroke="#767676" stroke-opacity="0.1"/>
<line x1="-762" y1="116.5" x2="1158" y2="116.5" stroke="#767676" stroke-opacity="0.1"/>
<line x1="-762" y1="127.5" x2="1158" y2="127.5" stroke="#767676" stroke-opacity="0.1"/>
<line x1="-762" y1="138.5" x2="1158" y2="138.5" stroke="#767676" stroke-opacity="0.1"/>
<line x1="-762" y1="149.5" x2="1158" y2="149.5" stroke="#767676" stroke-opacity="0.1"/>
<line x1="-762" y1="160.5" x2="1158" y2="160.5" stroke="#767676" stroke-opacity="0.1"/>
<line x1="-762" y1="171.5" x2="1158" y2="171.5" stroke="#767676" stroke-opacity="0.1"/>
<line x1="-762" y1="182.5" x2="1158" y2="182.5" stroke="#767676" stroke-opacity="0.1"/>
<line x1="-762" y1="193.5" x2="1158" y2="193.5" stroke="#767676" stroke-opacity="0.1"/>
<line x1="-762" y1="204.5" x2="1158" y2="204.5" stroke="#767676" stroke-opacity="0.1"/>
<line x1="-762" y1="215.5" x2="1158" y2="215.5" stroke="#767676" stroke-opacity="0.1"/>
<line x1="-762" y1="226.5" x2="1158" y2="226.5" stroke="#767676" stroke-opacity="0.1"/>
<line x1="-762" y1="237.5" x2="1158" y2="237.5" stroke="#767676" stroke-opacity="0.1"/>
<line x1="-762" y1="248.5" x2="1158" y2="248.5" stroke="#767676" stroke-opacity="0.1"/>
<line x1="-762" y1="259.5" x2="1158" y2="259.5" stroke="#767676" stroke-opacity="0.1"/>
<line x1="-762" y1="270.5" x2="1158" y2="270.5" stroke="#767676" stroke-opacity="0.1"/>
<line x1="-762" y1="281.5" x2="1158" y2="281.5" stroke="#767676" stroke-opacity="0.1"/>
<line x1="-762" y1="292.5" x2="1158" y2="292.5" stroke="#767676" stroke-opacity="0.1"/>
<line x1="-762" y1="303.5" x2="1158" y2="303.5" stroke="#767676" stroke-opacity="0.1"/>
<line x1="-762" y1="314.5" x2="1158" y2="314.5" stroke="#767676" stroke-opacity="0.1"/>
<line x1="-762" y1="325.5" x2="1158" y2="325.5" stroke="#767676" stroke-opacity="0.1"/>
<line x1="-762" y1="336.5" x2="1158" y2="336.5" stroke="#767676" stroke-opacity="0.1"/>
<line x1="-762" y1="347.5" x2="1158" y2="347.5" stroke="#767676" stroke-opacity="0.1"/>
<line x1="-762" y1="358.5" x2="1158" y2="358.5" stroke="#767676" stroke-opacity="0.1"/>
<line x1="-762" y1="369.5" x2="1158" y2="369.5" stroke="#767676" stroke-opacity="0.1"/>
<line x1="-762" y1="380.5" x2="1158" y2="380.5" stroke="#767676" stroke-opacity="0.1"/>
<line x1="-762" y1="391.5" x2="1158" y2="391.5" stroke="#767676" stroke-opacity="0.1"/>
<line x1="-762" y1="402.5" x2="1158" y2="402.5" stroke="#767676" stroke-opacity="0.1"/>
<line x1="-762" y1="413.5" x2="1158" y2="413.5" stroke="#767676" stroke-opacity="0.1"/>
<line x1="-762" y1="424.5" x2="1158" y2="424.5" stroke="#767676" stroke-opacity="0.1"/>
<line x1="-762" y1="435.5" x2="1158" y2="435.5" stroke="#767676" stroke-opacity="0.1"/>
<line x1="-762" y1="446.5" x2="1158" y2="446.5" stroke="#767676" stroke-opacity="0.1"/>
<line x1="-762" y1="457.5" x2="1158" y2="457.5" stroke="#767676" stroke-opacity="0.1"/>
<line x1="-762" y1="468.5" x2="1158" y2="468.5" stroke="#767676" stroke-opacity="0.1"/>
<line x1="-762" y1="479.5" x2="1158" y2="479.5" stroke="#767676" stroke-opacity="0.1"/>
<line x1="-762" y1="490.5" x2="1158" y2="490.5" stroke="#767676" stroke-opacity="0.1"/>
<line x1="-762" y1="501.5" x2="1158" y2="501.5" stroke="#767676" stroke-opacity="0.1"/>
<line x1="-762" y1="512.5" x2="1158" y2="512.5" stroke="#767676" stroke-opacity="0.1"/>
<line x1="-762" y1="523.5" x2="1158" y2="523.5" stroke="#767676" stroke-opacity="0.1"/>
<line x1="-762" y1="534.5" x2="1158" y2="534.5" stroke="#767676" stroke-opacity="0.1"/>
<line x1="-762" y1="545.5" x2="1158" y2="545.5" stroke="#767676" stroke-opacity="0.1"/>
<line x1="-762" y1="556.5" x2="1158" y2="556.5" stroke="#767676" stroke-opacity="0.1"/>
<line x1="-762" y1="567.5" x2="1158" y2="567.5" stroke="#767676" stroke-opacity="0.1"/>
<line x1="-762" y1="578.5" x2="1158" y2="578.5" stroke="#767676" stroke-opacity="0.1"/>
<line x1="-762" y1="589.5" x2="1158" y2="589.5" stroke="#767676" stroke-opacity="0.1"/>
<line x1="-762" y1="600.5" x2="1158" y2="600.5" stroke="#767676" stroke-opacity="0.1"/>
<line x1="-762" y1="611.5" x2="1158" y2="611.5" stroke="#767676" stroke-opacity="0.1"/>
<line x1="-762" y1="622.5" x2="1158" y2="622.5" stroke="#767676" stroke-opacity="0.1"/>
<line x1="-762" y1="633.5" x2="1158" y2="633.5" stroke="#767676" stroke-opacity="0.1"/>
<line x1="-762" y1="644.5" x2="1158" y2="644.5" stroke="#767676" stroke-opacity="0.1"/>
<line x1="-762" y1="655.5" x2="1158" y2="655.5" stroke="#767676" stroke-opacity="0.1"/>
<line x1="-762" y1="666.5" x2="1158" y2="666.5" stroke="#767676" stroke-opacity="0.1"/>
<line x1="-762" y1="677.5" x2="1158" y2="677.5" stroke="#767676" stroke-opacity="0.1"/>
<line x1="-762" y1="688.5" x2="1158" y2="688.5" stroke="#767676" stroke-opacity="0.1"/>
<line x1="-762" y1="699.5" x2="1158" y2="699.5" stroke="#767676" stroke-opacity="0.1"/>
<line x1="-762" y1="710.5" x2="1158" y2="710.5" stroke="#767676" stroke-opacity="0.1"/>
<line x1="-762" y1="721.5" x2="1158" y2="721.5" stroke="#767676" stroke-opacity="0.1"/>
<line x1="-762" y1="732.5" x2="1158" y2="732.5" stroke="#767676" stroke-opacity="0.1"/>
<line x1="-762" y1="743.5" x2="1158" y2="743.5" stroke="#767676" stroke-opacity="0.1"/>
<line x1="-762" y1="754.5" x2="1158" y2="754.5" stroke="#767676" stroke-opacity="0.1"/>
<line x1="-762" y1="765.5" x2="1158" y2="765.5" stroke="#767676" stroke-opacity="0.1"/>
<line x1="-762" y1="776.5" x2="1158" y2="776.5" stroke="#767676" stroke-opacity="0.1"/>
<line x1="-762" y1="786.5" x2="1158" y2="786.5" stroke="#767676" stroke-opacity="0.1"/>
<line x1="-762" y1="796.5" x2="1158" y2="796.5" stroke="#767676" stroke-opacity="0.1"/>
<line x1="-762" y1="806.5" x2="1158" y2="806.5" stroke="#767676" stroke-opacity="0.1"/>
<line x1="32.6719" y1="-0.0488281" x2="32.6719" y2="877.513" stroke="#767676" stroke-opacity="0.12"/>
<line x1="110.68" y1="-0.0488281" x2="110.68" y2="877.513" stroke="#767676" stroke-opacity="0.12"/>
<line x1="188.688" y1="-0.0488281" x2="188.688" y2="877.513" stroke="#767676" stroke-opacity="0.12"/>
<line x1="267.508" y1="-0.0488281" x2="267.508" y2="877.513" stroke="#767676" stroke-opacity="0.12"/>
<line x1="363.328" y1="-0.0488281" x2="363.328" y2="877.513" stroke="#767676" stroke-opacity="0.12"/>
<line x1="12.6719" y1="-0.0488281" x2="12.6719" y2="877.513" stroke="#767676" stroke-opacity="0.12"/>
<line x1="110.68" y1="-0.0488281" x2="110.68" y2="877.513" stroke="#767676" stroke-opacity="0.12"/>
<line x1="188.688" y1="-0.0488281" x2="188.688" y2="877.513" stroke="#767676" stroke-opacity="0.12"/>
<line x1="267.508" y1="-0.0488281" x2="267.508" y2="877.513" stroke="#767676" stroke-opacity="0.12"/>
<line x1="343.328" y1="-0.0488281" x2="343.328" y2="877.513" stroke="#767676" stroke-opacity="0.12"/>
<circle cx="187.782" cy="132.805" r="116.915" stroke="#DC4444" stroke-opacity="0.12"/>
<circle cx="187.778" cy="304.255" r="507.755" stroke="#DC4444" stroke-opacity="0.12"/>
<circle cx="187.781" cy="903.109" r="652.39" stroke="#DC4444" stroke-opacity="0.12"/>
<path d="M642.721 895.798C642.721 1146.15 439.04 1349.11 187.782 1349.11C-63.475 1349.11 -267.156 1146.15 -267.156 895.798C-267.156 645.441 -63.475 442.484 187.782 442.484C439.04 442.484 642.721 645.441 642.721 895.798Z" stroke="#DC4444" stroke-opacity="0.12"/>
<path d="M0.384183 75.1027C12.8332 34.9691 37.8499 -0.101589 71.745 -24.9372C105.64 -49.7728 146.619 -63.0586 188.638 -62.8351C230.658 -62.6117 271.493 -48.8909 305.122 -23.6962C338.751 1.49848 363.394 36.8332 375.415 77.0969" stroke="#DC4444" stroke-opacity="0.12"/>
</g>
<path d="M287.432 293L287.042 291.932H285.182L284.786 293H284.12L285.77 288.692H286.496L288.134 293H287.432ZM286.118 289.412L285.38 291.398H286.844L286.118 289.412ZM290.54 291.374V293H289.934V289.82H290.498V290.492C290.72 290.054 291.2 289.778 291.722 289.778V290.408C291.038 290.372 290.54 290.672 290.54 291.374ZM293.522 293.06C292.622 293.06 291.962 292.352 291.962 291.41C291.962 290.468 292.622 289.76 293.522 289.76C294.422 289.76 295.082 290.468 295.082 291.41C295.082 292.352 294.422 293.06 293.522 293.06ZM293.522 292.526C294.044 292.526 294.458 292.106 294.458 291.41C294.458 290.714 294.044 290.3 293.522 290.3C293 290.3 292.592 290.714 292.592 291.41C292.592 292.106 293 292.526 293.522 292.526ZM296.953 293.066C296.083 293.066 295.471 292.382 295.471 291.41C295.471 290.45 296.095 289.76 296.953 289.76C297.739 289.76 298.309 290.282 298.423 291.11H297.787C297.721 290.6 297.403 290.294 296.959 290.294C296.437 290.294 296.095 290.738 296.095 291.41C296.095 292.088 296.437 292.526 296.959 292.526C297.409 292.526 297.721 292.226 297.793 291.71H298.423C298.315 292.55 297.751 293.066 296.953 293.066ZM299.639 293H299.033V288.692H299.639V291.242L301.001 289.82H301.715L300.245 291.362L301.853 293H301.073L299.639 291.494V293ZM303.435 293.06C302.517 293.06 301.899 292.394 301.899 291.392C301.899 290.45 302.541 289.76 303.417 289.76C304.365 289.76 304.995 290.528 304.887 291.56H302.517C302.565 292.208 302.889 292.586 303.423 292.586C303.873 292.586 304.185 292.34 304.287 291.926H304.887C304.731 292.634 304.185 293.06 303.435 293.06ZM303.405 290.216C302.919 290.216 302.589 290.564 302.523 291.158H304.245C304.215 290.57 303.897 290.216 303.405 290.216ZM307.314 292.412V292.946C307.128 293.03 306.966 293.06 306.774 293.06C306.186 293.06 305.778 292.742 305.778 292.04V290.336H305.076V289.82H305.778V288.878H306.384V289.82H307.344V290.336H306.384V291.902C306.384 292.34 306.594 292.496 306.918 292.496C307.062 292.496 307.188 292.472 307.314 292.412ZM310.484 293.06C309.566 293.06 308.948 292.394 308.948 291.392C308.948 290.45 309.59 289.76 310.466 289.76C311.414 289.76 312.044 290.528 311.936 291.56H309.566C309.614 292.208 309.938 292.586 310.472 292.586C310.922 292.586 311.234 292.34 311.336 291.926H311.936C311.78 292.634 311.234 293.06 310.484 293.06ZM310.454 290.216C309.968 290.216 309.638 290.564 309.572 291.158H311.294C311.264 290.57 310.946 290.216 310.454 290.216ZM313.186 291.206V293H312.58V289.82H313.144V290.348C313.36 289.994 313.72 289.76 314.158 289.76C314.812 289.76 315.244 290.18 315.244 290.942V293H314.638V291.146C314.638 290.6 314.398 290.294 313.948 290.294C313.534 290.294 313.186 290.642 313.186 291.206ZM317.321 294.224C316.487 294.224 315.947 293.78 315.911 293.06H316.499C316.535 293.504 316.823 293.744 317.315 293.744C317.861 293.744 318.149 293.45 318.149 292.904V292.328C317.969 292.712 317.609 292.934 317.177 292.934C316.385 292.934 315.821 292.28 315.821 291.344C315.821 290.396 316.361 289.76 317.159 289.76C317.615 289.76 317.975 289.982 318.191 290.384V289.82H318.755V292.892C318.755 293.726 318.221 294.224 317.321 294.224ZM316.433 291.344C316.433 292.004 316.757 292.406 317.285 292.406C317.801 292.406 318.149 291.992 318.149 291.362C318.149 290.702 317.807 290.282 317.285 290.282C316.763 290.282 316.433 290.69 316.433 291.344ZM320.332 289.082C320.332 289.31 320.152 289.484 319.894 289.484C319.636 289.484 319.45 289.31 319.45 289.082C319.45 288.848 319.636 288.68 319.894 288.68C320.152 288.68 320.332 288.848 320.332 289.082ZM320.2 293H319.594V289.82H320.2V293ZM321.647 291.206V293H321.041V289.82H321.605V290.348C321.821 289.994 322.181 289.76 322.619 289.76C323.273 289.76 323.705 290.18 323.705 290.942V293H323.099V291.146C323.099 290.6 322.859 290.294 322.409 290.294C321.995 290.294 321.647 290.642 321.647 291.206ZM325.818 293.06C324.9 293.06 324.282 292.394 324.282 291.392C324.282 290.45 324.924 289.76 325.8 289.76C326.748 289.76 327.378 290.528 327.27 291.56H324.9C324.948 292.208 325.272 292.586 325.806 292.586C326.256 292.586 326.568 292.34 326.67 291.926H327.27C327.114 292.634 326.568 293.06 325.818 293.06ZM325.788 290.216C325.302 290.216 324.972 290.564 324.906 291.158H326.628C326.598 290.57 326.28 290.216 325.788 290.216ZM329.906 289.082C329.906 289.31 329.726 289.484 329.468 289.484C329.21 289.484 329.024 289.31 329.024 289.082C329.024 288.848 329.21 288.68 329.468 288.68C329.726 288.68 329.906 288.848 329.906 289.082ZM329.774 293H329.168V289.82H329.774V293ZM333.135 292.052C333.135 292.676 332.649 293.06 331.803 293.06C330.963 293.06 330.465 292.646 330.405 291.962H330.987C331.011 292.358 331.329 292.604 331.815 292.604C332.241 292.604 332.523 292.454 332.523 292.154C332.523 291.89 332.361 291.776 331.965 291.698L331.449 291.602C330.861 291.488 330.531 291.188 330.531 290.708C330.531 290.15 331.017 289.76 331.755 289.76C332.517 289.76 333.033 290.168 333.087 290.822H332.505C332.469 290.438 332.187 290.216 331.761 290.216C331.377 290.216 331.119 290.378 331.119 290.654C331.119 290.912 331.281 291.032 331.665 291.104L332.205 291.206C332.835 291.32 333.135 291.596 333.135 292.052ZM286.346 301V300.508C286.148 300.862 285.794 301.06 285.326 301.06C284.666 301.06 284.234 300.682 284.234 300.1C284.234 299.476 284.732 299.152 285.68 299.152C285.866 299.152 286.016 299.158 286.274 299.188V298.954C286.274 298.498 286.028 298.24 285.608 298.24C285.164 298.24 284.894 298.504 284.876 298.948H284.324C284.354 298.234 284.864 297.76 285.608 297.76C286.394 297.76 286.85 298.204 286.85 298.96V301H286.346ZM284.81 300.082C284.81 300.412 285.056 300.628 285.446 300.628C285.956 300.628 286.274 300.31 286.274 299.824V299.566C286.04 299.536 285.872 299.53 285.716 299.53C285.11 299.53 284.81 299.71 284.81 300.082ZM289.652 297.082C289.652 297.31 289.472 297.484 289.214 297.484C288.956 297.484 288.77 297.31 288.77 297.082C288.77 296.848 288.956 296.68 289.214 296.68C289.472 296.68 289.652 296.848 289.652 297.082ZM289.514 297.82V301.156C289.514 301.882 289.118 302.218 288.536 302.218C288.404 302.218 288.254 302.212 288.116 302.158V301.588C288.218 301.636 288.332 301.654 288.464 301.654C288.734 301.654 288.908 301.51 288.908 301.144V297.82H289.514ZM291.664 301.06C290.746 301.06 290.128 300.394 290.128 299.392C290.128 298.45 290.77 297.76 291.646 297.76C292.594 297.76 293.224 298.528 293.116 299.56H290.746C290.794 300.208 291.118 300.586 291.652 300.586C292.102 300.586 292.414 300.34 292.516 299.926H293.116C292.96 300.634 292.414 301.06 291.664 301.06ZM291.634 298.216C291.148 298.216 290.818 298.564 290.752 299.158H292.474C292.444 298.57 292.126 298.216 291.634 298.216ZM295.542 300.412V300.946C295.356 301.03 295.194 301.06 295.002 301.06C294.414 301.06 294.006 300.742 294.006 300.04V298.336H293.304V297.82H294.006V296.878H294.612V297.82H295.572V298.336H294.612V299.902C294.612 300.34 294.822 300.496 295.146 300.496C295.29 300.496 295.416 300.472 295.542 300.412ZM298.712 301.06C297.794 301.06 297.176 300.394 297.176 299.392C297.176 298.45 297.818 297.76 298.694 297.76C299.642 297.76 300.272 298.528 300.164 299.56H297.794C297.842 300.208 298.166 300.586 298.7 300.586C299.15 300.586 299.462 300.34 299.564 299.926H300.164C300.008 300.634 299.462 301.06 298.712 301.06ZM298.682 298.216C298.196 298.216 297.866 298.564 297.8 299.158H299.522C299.492 298.57 299.174 298.216 298.682 298.216ZM301.415 299.206V301H300.809V297.82H301.373V298.348C301.589 297.994 301.949 297.76 302.387 297.76C303.041 297.76 303.473 298.18 303.473 298.942V301H302.867V299.146C302.867 298.6 302.627 298.294 302.177 298.294C301.763 298.294 301.415 298.642 301.415 299.206ZM305.549 302.224C304.715 302.224 304.175 301.78 304.139 301.06H304.727C304.763 301.504 305.051 301.744 305.543 301.744C306.089 301.744 306.377 301.45 306.377 300.904V300.328C306.197 300.712 305.837 300.934 305.405 300.934C304.613 300.934 304.049 300.28 304.049 299.344C304.049 298.396 304.589 297.76 305.387 297.76C305.843 297.76 306.203 297.982 306.419 298.384V297.82H306.983V300.892C306.983 301.726 306.449 302.224 305.549 302.224ZM304.661 299.344C304.661 300.004 304.985 300.406 305.513 300.406C306.029 300.406 306.377 299.992 306.377 299.362C306.377 298.702 306.035 298.282 305.513 298.282C304.991 298.282 304.661 298.69 304.661 299.344ZM308.56 297.082C308.56 297.31 308.38 297.484 308.122 297.484C307.864 297.484 307.678 297.31 307.678 297.082C307.678 296.848 307.864 296.68 308.122 296.68C308.38 296.68 308.56 296.848 308.56 297.082ZM308.428 301H307.822V297.82H308.428V301ZM309.876 299.206V301H309.27V297.82H309.834V298.348C310.05 297.994 310.41 297.76 310.848 297.76C311.502 297.76 311.934 298.18 311.934 298.942V301H311.328V299.146C311.328 298.6 311.088 298.294 310.638 298.294C310.224 298.294 309.876 298.642 309.876 299.206ZM314.046 301.06C313.128 301.06 312.51 300.394 312.51 299.392C312.51 298.45 313.152 297.76 314.028 297.76C314.976 297.76 315.606 298.528 315.498 299.56H313.128C313.176 300.208 313.5 300.586 314.034 300.586C314.484 300.586 314.796 300.34 314.898 299.926H315.498C315.342 300.634 314.796 301.06 314.046 301.06ZM314.016 298.216C313.53 298.216 313.2 298.564 313.134 299.158H314.856C314.826 298.57 314.508 298.216 314.016 298.216ZM319.191 300.412V300.946C319.005 301.03 318.843 301.06 318.651 301.06C318.063 301.06 317.655 300.742 317.655 300.04V298.336H316.953V297.82H317.655V296.878H318.261V297.82H319.221V298.336H318.261V299.902C318.261 300.34 318.471 300.496 318.795 300.496C318.939 300.496 319.065 300.472 319.191 300.412ZM320.405 299.206V301H319.799V296.692H320.405V298.33C320.615 297.988 320.939 297.76 321.377 297.76C322.031 297.76 322.463 298.18 322.463 298.942V301H321.857V299.146C321.857 298.6 321.617 298.294 321.167 298.294C320.753 298.294 320.405 298.642 320.405 299.206ZM325.194 301V300.508C324.996 300.862 324.642 301.06 324.174 301.06C323.514 301.06 323.082 300.682 323.082 300.1C323.082 299.476 323.58 299.152 324.528 299.152C324.714 299.152 324.864 299.158 325.122 299.188V298.954C325.122 298.498 324.876 298.24 324.456 298.24C324.012 298.24 323.742 298.504 323.724 298.948H323.172C323.202 298.234 323.712 297.76 324.456 297.76C325.242 297.76 325.698 298.204 325.698 298.96V301H325.194ZM323.658 300.082C323.658 300.412 323.904 300.628 324.294 300.628C324.804 300.628 325.122 300.31 325.122 299.824V299.566C324.888 299.536 324.72 299.53 324.564 299.53C323.958 299.53 323.658 299.71 323.658 300.082ZM328.273 300.412V300.946C328.087 301.03 327.925 301.06 327.733 301.06C327.145 301.06 326.737 300.742 326.737 300.04V298.336H326.035V297.82H326.737V296.878H327.343V297.82H328.303V298.336H327.343V299.902C327.343 300.34 327.553 300.496 327.877 300.496C328.021 300.496 328.147 300.472 328.273 300.412ZM286.406 307.692V305.82H287.012V309H286.448V308.496C286.28 308.826 285.908 309.06 285.476 309.06C284.834 309.06 284.39 308.682 284.39 307.866V305.82H284.996V307.746C284.996 308.298 285.272 308.526 285.668 308.526C286.076 308.526 286.406 308.19 286.406 307.692ZM290.374 308.052C290.374 308.676 289.888 309.06 289.042 309.06C288.202 309.06 287.704 308.646 287.644 307.962H288.226C288.25 308.358 288.568 308.604 289.054 308.604C289.48 308.604 289.762 308.454 289.762 308.154C289.762 307.89 289.6 307.776 289.204 307.698L288.688 307.602C288.1 307.488 287.77 307.188 287.77 306.708C287.77 306.15 288.256 305.76 288.994 305.76C289.756 305.76 290.272 306.168 290.326 306.822H289.744C289.708 306.438 289.426 306.216 289 306.216C288.616 306.216 288.358 306.378 288.358 306.654C288.358 306.912 288.52 307.032 288.904 307.104L289.444 307.206C290.074 307.32 290.374 307.596 290.374 308.052ZM292.343 309.06C291.425 309.06 290.807 308.394 290.807 307.392C290.807 306.45 291.449 305.76 292.325 305.76C293.273 305.76 293.903 306.528 293.795 307.56H291.425C291.473 308.208 291.797 308.586 292.331 308.586C292.781 308.586 293.093 308.34 293.195 307.926H293.795C293.639 308.634 293.093 309.06 292.343 309.06ZM292.313 306.216C291.827 306.216 291.497 306.564 291.431 307.158H293.153C293.123 306.57 292.805 306.216 292.313 306.216ZM296.96 308.052C296.96 308.676 296.474 309.06 295.628 309.06C294.788 309.06 294.29 308.646 294.23 307.962H294.812C294.836 308.358 295.154 308.604 295.64 308.604C296.066 308.604 296.348 308.454 296.348 308.154C296.348 307.89 296.186 307.776 295.79 307.698L295.274 307.602C294.686 307.488 294.356 307.188 294.356 306.708C294.356 306.15 294.842 305.76 295.58 305.76C296.342 305.76 296.858 306.168 296.912 306.822H296.33C296.294 306.438 296.012 306.216 295.586 306.216C295.202 306.216 294.944 306.378 294.944 306.654C294.944 306.912 295.106 307.032 295.49 307.104L296.03 307.206C296.66 307.32 296.96 307.596 296.96 308.052ZM299.481 307.206V309H298.875V305.82H299.439V306.348C299.655 305.994 300.015 305.76 300.453 305.76C301.107 305.76 301.539 306.18 301.539 306.942V309H300.933V307.146C300.933 306.6 300.693 306.294 300.243 306.294C299.829 306.294 299.481 306.642 299.481 307.206ZM303.652 309.06C302.734 309.06 302.116 308.394 302.116 307.392C302.116 306.45 302.758 305.76 303.634 305.76C304.582 305.76 305.212 306.528 305.104 307.56H302.734C302.782 308.208 303.106 308.586 303.64 308.586C304.09 308.586 304.402 308.34 304.504 307.926H305.104C304.948 308.634 304.402 309.06 303.652 309.06ZM303.622 306.216C303.136 306.216 302.806 306.564 302.74 307.158H304.462C304.432 306.57 304.114 306.216 303.622 306.216ZM306.486 305.082C306.486 305.31 306.306 305.484 306.048 305.484C305.79 305.484 305.604 305.31 305.604 305.082C305.604 304.848 305.79 304.68 306.048 304.68C306.306 304.68 306.486 304.848 306.486 305.082ZM306.354 309H305.748V305.82H306.354V309ZM308.989 308.412V308.946C308.803 309.03 308.641 309.06 308.449 309.06C307.861 309.06 307.453 308.742 307.453 308.04V306.336H306.751V305.82H307.453V304.878H308.059V305.82H309.019V306.336H308.059V307.902C308.059 308.34 308.269 308.496 308.593 308.496C308.737 308.496 308.863 308.472 308.989 308.412ZM310.204 307.206V309H309.598V304.692H310.204V306.33C310.414 305.988 310.738 305.76 311.176 305.76C311.83 305.76 312.262 306.18 312.262 306.942V309H311.656V307.146C311.656 306.6 311.416 306.294 310.966 306.294C310.552 306.294 310.204 306.642 310.204 307.206ZM314.374 309.06C313.456 309.06 312.838 308.394 312.838 307.392C312.838 306.45 313.48 305.76 314.356 305.76C315.304 305.76 315.934 306.528 315.826 307.56H313.456C313.504 308.208 313.828 308.586 314.362 308.586C314.812 308.586 315.124 308.34 315.226 307.926H315.826C315.67 308.634 315.124 309.06 314.374 309.06ZM314.344 306.216C313.858 306.216 313.528 306.564 313.462 307.158H315.184C315.154 306.57 314.836 306.216 314.344 306.216ZM317.077 307.374V309H316.471V305.82H317.035V306.492C317.257 306.054 317.737 305.778 318.259 305.778V306.408C317.575 306.372 317.077 306.672 317.077 307.374ZM285.728 317.06C284.81 317.06 284.192 316.394 284.192 315.392C284.192 314.45 284.834 313.76 285.71 313.76C286.658 313.76 287.288 314.528 287.18 315.56H284.81C284.858 316.208 285.182 316.586 285.716 316.586C286.166 316.586 286.478 316.34 286.58 315.926H287.18C287.024 316.634 286.478 317.06 285.728 317.06ZM285.698 314.216C285.212 314.216 284.882 314.564 284.816 315.158H286.538C286.508 314.57 286.19 314.216 285.698 314.216ZM288.43 315.206V317H287.824V313.82H288.388V314.348C288.604 313.994 288.964 313.76 289.402 313.76C290.056 313.76 290.488 314.18 290.488 314.942V317H289.882V315.146C289.882 314.6 289.642 314.294 289.192 314.294C288.778 314.294 288.43 314.642 288.43 315.206ZM292.601 317.06C291.683 317.06 291.065 316.394 291.065 315.392C291.065 314.45 291.707 313.76 292.583 313.76C293.531 313.76 294.161 314.528 294.053 315.56H291.683C291.731 316.208 292.055 316.586 292.589 316.586C293.039 316.586 293.351 316.34 293.453 315.926H294.053C293.897 316.634 293.351 317.06 292.601 317.06ZM292.571 314.216C292.085 314.216 291.755 314.564 291.689 315.158H293.411C293.381 314.57 293.063 314.216 292.571 314.216ZM295.303 315.374V317H294.697V313.82H295.261V314.492C295.483 314.054 295.963 313.778 296.485 313.778V314.408C295.801 314.372 295.303 314.672 295.303 315.374ZM298.237 318.224C297.403 318.224 296.863 317.78 296.827 317.06H297.415C297.451 317.504 297.739 317.744 298.231 317.744C298.777 317.744 299.065 317.45 299.065 316.904V316.328C298.885 316.712 298.525 316.934 298.093 316.934C297.301 316.934 296.737 316.28 296.737 315.344C296.737 314.396 297.277 313.76 298.075 313.76C298.531 313.76 298.891 313.982 299.107 314.384V313.82H299.671V316.892C299.671 317.726 299.137 318.224 298.237 318.224ZM297.349 315.344C297.349 316.004 297.673 316.406 298.201 316.406C298.717 316.406 299.065 315.992 299.065 315.362C299.065 314.702 298.723 314.282 298.201 314.282C297.679 314.282 297.349 314.69 297.349 315.344ZM303.15 313.82L301.56 318.158H300.9L301.356 316.958L300.102 313.82H300.756L301.68 316.244L302.538 313.82H303.15ZM305.44 315.206V317H304.834V313.82H305.398V314.348C305.614 313.994 305.974 313.76 306.412 313.76C307.066 313.76 307.498 314.18 307.498 314.942V317H306.892V315.146C306.892 314.6 306.652 314.294 306.202 314.294C305.788 314.294 305.44 314.642 305.44 315.206ZM309.635 317.06C308.735 317.06 308.075 316.352 308.075 315.41C308.075 314.468 308.735 313.76 309.635 313.76C310.535 313.76 311.195 314.468 311.195 315.41C311.195 316.352 310.535 317.06 309.635 317.06ZM309.635 316.526C310.157 316.526 310.571 316.106 310.571 315.41C310.571 314.714 310.157 314.3 309.635 314.3C309.113 314.3 308.705 314.714 308.705 315.41C308.705 316.106 309.113 316.526 309.635 316.526ZM312.419 315.374V317H311.813V313.82H312.377V314.492C312.599 314.054 313.079 313.778 313.601 313.778V314.408C312.917 314.372 312.419 314.672 312.419 315.374ZM317.26 317V316.508C317.062 316.862 316.708 317.06 316.24 317.06C315.58 317.06 315.148 316.682 315.148 316.1C315.148 315.476 315.646 315.152 316.594 315.152C316.78 315.152 316.93 315.158 317.188 315.188V314.954C317.188 314.498 316.942 314.24 316.522 314.24C316.078 314.24 315.808 314.504 315.79 314.948H315.238C315.268 314.234 315.778 313.76 316.522 313.76C317.308 313.76 317.764 314.204 317.764 314.96V317H317.26ZM315.724 316.082C315.724 316.412 315.97 316.628 316.36 316.628C316.87 316.628 317.188 316.31 317.188 315.824V315.566C316.954 315.536 316.786 315.53 316.63 315.53C316.024 315.53 315.724 315.71 315.724 316.082ZM287.048 325L286.328 322.636L285.602 325H284.99L284.072 321.82H284.666L285.308 324.136L286.028 321.82H286.628L287.336 324.142L287.978 321.82H288.578L287.654 325H287.048ZM290.334 325.06C289.434 325.06 288.774 324.352 288.774 323.41C288.774 322.468 289.434 321.76 290.334 321.76C291.234 321.76 291.894 322.468 291.894 323.41C291.894 324.352 291.234 325.06 290.334 325.06ZM290.334 324.526C290.856 324.526 291.27 324.106 291.27 323.41C291.27 322.714 290.856 322.3 290.334 322.3C289.812 322.3 289.404 322.714 289.404 323.41C289.404 324.106 289.812 324.526 290.334 324.526ZM293.118 323.374V325H292.512V321.82H293.076V322.492C293.298 322.054 293.778 321.778 294.3 321.778V322.408C293.616 322.372 293.118 322.672 293.118 323.374ZM295.385 325H294.779V320.692H295.385V323.242L296.747 321.82H297.461L295.991 323.362L297.599 325H296.819L295.385 323.494V325ZM298.763 321.082C298.763 321.31 298.583 321.484 298.325 321.484C298.067 321.484 297.881 321.31 297.881 321.082C297.881 320.848 298.067 320.68 298.325 320.68C298.583 320.68 298.763 320.848 298.763 321.082ZM298.631 325H298.025V321.82H298.631V325ZM300.079 323.206V325H299.473V321.82H300.037V322.348C300.253 321.994 300.613 321.76 301.051 321.76C301.705 321.76 302.137 322.18 302.137 322.942V325H301.531V323.146C301.531 322.6 301.291 322.294 300.841 322.294C300.427 322.294 300.079 322.642 300.079 323.206ZM304.213 326.224C303.379 326.224 302.839 325.78 302.803 325.06H303.391C303.427 325.504 303.715 325.744 304.207 325.744C304.753 325.744 305.041 325.45 305.041 324.904V324.328C304.861 324.712 304.501 324.934 304.069 324.934C303.277 324.934 302.713 324.28 302.713 323.344C302.713 322.396 303.253 321.76 304.051 321.76C304.507 321.76 304.867 321.982 305.083 322.384V321.82H305.647V324.892C305.647 325.726 305.113 326.224 304.213 326.224ZM303.325 323.344C303.325 324.004 303.649 324.406 304.177 324.406C304.693 324.406 305.041 323.992 305.041 323.362C305.041 322.702 304.699 322.282 304.177 322.282C303.655 322.282 303.325 322.69 303.325 323.344ZM310.776 323.41C310.776 324.364 310.224 325.06 309.366 325.06C308.916 325.06 308.532 324.832 308.304 324.43V325H307.74V320.692H308.346V322.366C308.568 321.976 308.934 321.76 309.366 321.76C310.218 321.76 310.776 322.444 310.776 323.41ZM310.146 323.41C310.146 322.69 309.768 322.294 309.246 322.294C308.742 322.294 308.346 322.684 308.346 323.398C308.346 324.1 308.73 324.52 309.246 324.52C309.768 324.52 310.146 324.118 310.146 323.41ZM312.723 325.06C311.823 325.06 311.163 324.352 311.163 323.41C311.163 322.468 311.823 321.76 312.723 321.76C313.623 321.76 314.283 322.468 314.283 323.41C314.283 324.352 313.623 325.06 312.723 325.06ZM312.723 324.526C313.245 324.526 313.659 324.106 313.659 323.41C313.659 322.714 313.245 322.3 312.723 322.3C312.201 322.3 311.793 322.714 311.793 323.41C311.793 324.106 312.201 324.526 312.723 324.526ZM314.672 323.41C314.672 322.444 315.224 321.76 316.082 321.76C316.508 321.76 316.88 321.976 317.102 322.366V320.692H317.708V325H317.144V324.43C316.916 324.832 316.532 325.06 316.082 325.06C315.224 325.06 314.672 324.364 314.672 323.41ZM315.302 323.41C315.302 324.118 315.674 324.52 316.202 324.52C316.718 324.52 317.102 324.1 317.102 323.398C317.102 322.684 316.706 322.294 316.202 322.294C315.674 322.294 315.302 322.69 315.302 323.41ZM321.191 321.82L319.601 326.158H318.941L319.397 324.958L318.143 321.82H318.797L319.721 324.244L320.579 321.82H321.191ZM285.314 333H284.708V330.336H284.006V329.82H284.708V329.586C284.708 328.974 285.038 328.638 285.638 328.638C285.818 328.638 285.962 328.668 286.082 328.716V329.208C285.986 329.166 285.878 329.154 285.77 329.154C285.482 329.154 285.314 329.286 285.314 329.592V329.82H286.202V330.336H285.314V333ZM287.27 331.374V333H286.664V329.82H287.228V330.492C287.45 330.054 287.93 329.778 288.452 329.778V330.408C287.768 330.372 287.27 330.672 287.27 331.374ZM290.252 333.06C289.352 333.06 288.692 332.352 288.692 331.41C288.692 330.468 289.352 329.76 290.252 329.76C291.152 329.76 291.812 330.468 291.812 331.41C291.812 332.352 291.152 333.06 290.252 333.06ZM290.252 332.526C290.774 332.526 291.188 332.106 291.188 331.41C291.188 330.714 290.774 330.3 290.252 330.3C289.73 330.3 289.322 330.714 289.322 331.41C289.322 332.106 289.73 332.526 290.252 332.526ZM293.036 333H292.43V329.82H292.994V330.348C293.21 329.982 293.552 329.76 293.99 329.76C294.458 329.76 294.812 330 294.956 330.42C295.178 330.012 295.544 329.76 296.03 329.76C296.684 329.76 297.104 330.186 297.104 330.942V333H296.498V331.134C296.498 330.606 296.264 330.294 295.82 330.294C295.406 330.294 295.07 330.642 295.07 331.176V333H294.464V331.134C294.464 330.606 294.23 330.294 293.786 330.294C293.366 330.294 293.036 330.642 293.036 331.176V333ZM300.962 332.412V332.946C300.776 333.03 300.614 333.06 300.422 333.06C299.834 333.06 299.426 332.742 299.426 332.04V330.336H298.724V329.82H299.426V328.878H300.032V329.82H300.992V330.336H300.032V331.902C300.032 332.34 300.242 332.496 300.566 332.496C300.71 332.496 300.836 332.472 300.962 332.412ZM302.176 331.206V333H301.57V328.692H302.176V330.33C302.386 329.988 302.71 329.76 303.148 329.76C303.802 329.76 304.234 330.18 304.234 330.942V333H303.628V331.146C303.628 330.6 303.388 330.294 302.938 330.294C302.524 330.294 302.176 330.642 302.176 331.206ZM306.347 333.06C305.429 333.06 304.811 332.394 304.811 331.392C304.811 330.45 305.453 329.76 306.329 329.76C307.277 329.76 307.907 330.528 307.799 331.56H305.429C305.477 332.208 305.801 332.586 306.335 332.586C306.785 332.586 307.097 332.34 307.199 331.926H307.799C307.643 332.634 307.097 333.06 306.347 333.06ZM306.317 330.216C305.831 330.216 305.501 330.564 305.435 331.158H307.157C307.127 330.57 306.809 330.216 306.317 330.216ZM285.728 341.06C284.81 341.06 284.192 340.394 284.192 339.392C284.192 338.45 284.834 337.76 285.71 337.76C286.658 337.76 287.288 338.528 287.18 339.56H284.81C284.858 340.208 285.182 340.586 285.716 340.586C286.166 340.586 286.478 340.34 286.58 339.926H287.18C287.024 340.634 286.478 341.06 285.728 341.06ZM285.698 338.216C285.212 338.216 284.882 338.564 284.816 339.158H286.538C286.508 338.57 286.19 338.216 285.698 338.216ZM288.43 339.206V341H287.824V337.82H288.388V338.348C288.604 337.994 288.964 337.76 289.402 337.76C290.056 337.76 290.488 338.18 290.488 338.942V341H289.882V339.146C289.882 338.6 289.642 338.294 289.192 338.294C288.778 338.294 288.43 338.642 288.43 339.206ZM293.816 337.82L292.622 341H291.962L290.768 337.82H291.422L292.304 340.304L293.198 337.82H293.816ZM294.984 337.082C294.984 337.31 294.804 337.484 294.546 337.484C294.288 337.484 294.102 337.31 294.102 337.082C294.102 336.848 294.288 336.68 294.546 336.68C294.804 336.68 294.984 336.848 294.984 337.082ZM294.852 341H294.246V337.82H294.852V341ZM296.299 339.374V341H295.693V337.82H296.257V338.492C296.479 338.054 296.959 337.778 297.481 337.778V338.408C296.797 338.372 296.299 338.672 296.299 339.374ZM299.281 341.06C298.381 341.06 297.721 340.352 297.721 339.41C297.721 338.468 298.381 337.76 299.281 337.76C300.181 337.76 300.841 338.468 300.841 339.41C300.841 340.352 300.181 341.06 299.281 341.06ZM299.281 340.526C299.803 340.526 300.217 340.106 300.217 339.41C300.217 338.714 299.803 338.3 299.281 338.3C298.759 338.3 298.351 338.714 298.351 339.41C298.351 340.106 298.759 340.526 299.281 340.526ZM302.065 339.206V341H301.459V337.82H302.023V338.348C302.239 337.994 302.599 337.76 303.037 337.76C303.691 337.76 304.123 338.18 304.123 338.942V341H303.517V339.146C303.517 338.6 303.277 338.294 302.827 338.294C302.413 338.294 302.065 338.642 302.065 339.206ZM305.534 341H304.928V337.82H305.492V338.348C305.708 337.982 306.05 337.76 306.488 337.76C306.956 337.76 307.31 338 307.454 338.42C307.676 338.012 308.042 337.76 308.528 337.76C309.182 337.76 309.602 338.186 309.602 338.942V341H308.996V339.134C308.996 338.606 308.762 338.294 308.318 338.294C307.904 338.294 307.568 338.642 307.568 339.176V341H306.962V339.134C306.962 338.606 306.728 338.294 306.284 338.294C305.864 338.294 305.534 338.642 305.534 339.176V341ZM311.72 341.06C310.802 341.06 310.184 340.394 310.184 339.392C310.184 338.45 310.826 337.76 311.702 337.76C312.65 337.76 313.28 338.528 313.172 339.56H310.802C310.85 340.208 311.174 340.586 311.708 340.586C312.158 340.586 312.47 340.34 312.572 339.926H313.172C313.016 340.634 312.47 341.06 311.72 341.06ZM311.69 338.216C311.204 338.216 310.874 338.564 310.808 339.158H312.53C312.5 338.57 312.182 338.216 311.69 338.216ZM314.422 339.206V341H313.816V337.82H314.38V338.348C314.596 337.994 314.956 337.76 315.394 337.76C316.048 337.76 316.48 338.18 316.48 338.942V341H315.874V339.146C315.874 338.6 315.634 338.294 315.184 338.294C314.77 338.294 314.422 338.642 314.422 339.206ZM319.068 340.412V340.946C318.882 341.03 318.72 341.06 318.528 341.06C317.94 341.06 317.532 340.742 317.532 340.04V338.336H316.83V337.82H317.532V336.878H318.138V337.82H319.098V338.336H318.138V339.902C318.138 340.34 318.348 340.496 318.672 340.496C318.816 340.496 318.942 340.472 319.068 340.412ZM321.824 341H321.218V338.336H320.516V337.82H321.218V337.586C321.218 336.974 321.548 336.638 322.148 336.638C322.328 336.638 322.472 336.668 322.592 336.716V337.208C322.496 337.166 322.388 337.154 322.28 337.154C321.992 337.154 321.824 337.286 321.824 337.592V337.82H322.712V338.336H321.824V341ZM324.418 341.06C323.518 341.06 322.858 340.352 322.858 339.41C322.858 338.468 323.518 337.76 324.418 337.76C325.318 337.76 325.978 338.468 325.978 339.41C325.978 340.352 325.318 341.06 324.418 341.06ZM324.418 340.526C324.94 340.526 325.354 340.106 325.354 339.41C325.354 338.714 324.94 338.3 324.418 338.3C323.896 338.3 323.488 338.714 323.488 339.41C323.488 340.106 323.896 340.526 324.418 340.526ZM327.202 339.374V341H326.596V337.82H327.16V338.492C327.382 338.054 327.862 337.778 328.384 337.778V338.408C327.7 338.372 327.202 338.672 327.202 339.374ZM285.158 345.082C285.158 345.31 284.978 345.484 284.72 345.484C284.462 345.484 284.276 345.31 284.276 345.082C284.276 344.848 284.462 344.68 284.72 344.68C284.978 344.68 285.158 344.848 285.158 345.082ZM285.026 349H284.42V345.82H285.026V349ZM287.661 348.412V348.946C287.475 349.03 287.313 349.06 287.121 349.06C286.533 349.06 286.125 348.742 286.125 348.04V346.336H285.423V345.82H286.125V344.878H286.731V345.82H287.691V346.336H286.731V347.902C286.731 348.34 286.941 348.496 287.265 348.496C287.409 348.496 287.535 348.472 287.661 348.412ZM290.778 348.052C290.778 348.676 290.292 349.06 289.446 349.06C288.606 349.06 288.108 348.646 288.048 347.962H288.63C288.654 348.358 288.972 348.604 289.458 348.604C289.884 348.604 290.166 348.454 290.166 348.154C290.166 347.89 290.004 347.776 289.608 347.698L289.092 347.602C288.504 347.488 288.174 347.188 288.174 346.708C288.174 346.15 288.66 345.76 289.398 345.76C290.16 345.76 290.676 346.168 290.73 346.822H290.148C290.112 346.438 289.83 346.216 289.404 346.216C289.02 346.216 288.762 346.378 288.762 346.654C288.762 346.912 288.924 347.032 289.308 347.104L289.848 347.206C290.478 347.32 290.778 347.596 290.778 348.052ZM294.025 349.06C293.125 349.06 292.465 348.352 292.465 347.41C292.465 346.468 293.125 345.76 294.025 345.76C294.925 345.76 295.585 346.468 295.585 347.41C295.585 348.352 294.925 349.06 294.025 349.06ZM294.025 348.526C294.547 348.526 294.961 348.106 294.961 347.41C294.961 346.714 294.547 346.3 294.025 346.3C293.503 346.3 293.095 346.714 293.095 347.41C293.095 348.106 293.503 348.526 294.025 348.526ZM299.239 347.41C299.239 348.37 298.687 349.06 297.835 349.06C297.403 349.06 297.037 348.844 296.809 348.46V350.158H296.203V345.82H296.767V346.402C296.995 345.994 297.385 345.76 297.835 345.76C298.681 345.76 299.239 346.45 299.239 347.41ZM298.609 347.41C298.609 346.696 298.231 346.294 297.709 346.294C297.205 346.294 296.809 346.696 296.809 347.41C296.809 348.112 297.199 348.52 297.709 348.52C298.231 348.52 298.609 348.124 298.609 347.41ZM301.162 349.06C300.244 349.06 299.626 348.394 299.626 347.392C299.626 346.45 300.268 345.76 301.144 345.76C302.092 345.76 302.722 346.528 302.614 347.56H300.244C300.292 348.208 300.616 348.586 301.15 348.586C301.6 348.586 301.912 348.34 302.014 347.926H302.614C302.458 348.634 301.912 349.06 301.162 349.06ZM301.132 346.216C300.646 346.216 300.316 346.564 300.25 347.158H301.972C301.942 346.57 301.624 346.216 301.132 346.216ZM303.864 347.374V349H303.258V345.82H303.822V346.492C304.044 346.054 304.524 345.778 305.046 345.778V346.408C304.362 346.372 303.864 346.672 303.864 347.374ZM307.451 349V348.508C307.253 348.862 306.899 349.06 306.431 349.06C305.771 349.06 305.339 348.682 305.339 348.1C305.339 347.476 305.837 347.152 306.785 347.152C306.971 347.152 307.121 347.158 307.379 347.188V346.954C307.379 346.498 307.133 346.24 306.713 346.24C306.269 346.24 305.999 346.504 305.981 346.948H305.429C305.459 346.234 305.969 345.76 306.713 345.76C307.499 345.76 307.955 346.204 307.955 346.96V349H307.451ZM305.915 348.082C305.915 348.412 306.161 348.628 306.551 348.628C307.061 348.628 307.379 348.31 307.379 347.824V347.566C307.145 347.536 306.977 347.53 306.821 347.53C306.215 347.53 305.915 347.71 305.915 348.082ZM310.53 348.412V348.946C310.344 349.03 310.182 349.06 309.99 349.06C309.402 349.06 308.994 348.742 308.994 348.04V346.336H308.292V345.82H308.994V344.878H309.6V345.82H310.56V346.336H309.6V347.902C309.6 348.34 309.81 348.496 310.134 348.496C310.278 348.496 310.404 348.472 310.53 348.412ZM311.877 345.082C311.877 345.31 311.697 345.484 311.439 345.484C311.181 345.484 310.995 345.31 310.995 345.082C310.995 344.848 311.181 344.68 311.439 344.68C311.697 344.68 311.877 344.848 311.877 345.082ZM311.745 349H311.139V345.82H311.745V349ZM313.918 349.06C313.018 349.06 312.358 348.352 312.358 347.41C312.358 346.468 313.018 345.76 313.918 345.76C314.818 345.76 315.478 346.468 315.478 347.41C315.478 348.352 314.818 349.06 313.918 349.06ZM313.918 348.526C314.44 348.526 314.854 348.106 314.854 347.41C314.854 346.714 314.44 346.3 313.918 346.3C313.396 346.3 312.988 346.714 312.988 347.41C312.988 348.106 313.396 348.526 313.918 348.526ZM316.702 347.206V349H316.096V345.82H316.66V346.348C316.876 345.994 317.236 345.76 317.674 345.76C318.328 345.76 318.76 346.18 318.76 346.942V349H318.154V347.146C318.154 346.6 317.914 346.294 317.464 346.294C317.05 346.294 316.702 346.642 316.702 347.206ZM320.387 348.568C320.387 348.838 320.201 349.03 319.925 349.03C319.655 349.03 319.463 348.838 319.463 348.568C319.463 348.286 319.655 348.094 319.925 348.094C320.201 348.094 320.387 348.286 320.387 348.568Z" fill="white" fill-opacity="0.05"/>
<path d="M37.255 322H36.745V319.06H36.09V318.62H37.255V322ZM38.9054 322H38.3954V319.06H37.7404V318.62H38.9054V322ZM39.5458 320.315C39.5458 319.195 39.9908 318.57 40.7908 318.57C41.5908 318.57 42.0408 319.195 42.0408 320.315C42.0408 321.435 41.6008 322.05 40.7908 322.05C39.9808 322.05 39.5458 321.435 39.5458 320.315ZM40.0658 320.315C40.0658 321.15 40.3158 321.595 40.7908 321.595C41.2658 321.595 41.5208 321.155 41.5208 320.315C41.5208 319.47 41.2658 319.025 40.7908 319.025C40.3258 319.025 40.0658 319.47 40.0658 320.315ZM43.5741 320.315C43.5741 319.195 44.0191 318.57 44.8191 318.57C45.6191 318.57 46.0691 319.195 46.0691 320.315C46.0691 321.435 45.6291 322.05 44.8191 322.05C44.0091 322.05 43.5741 321.435 43.5741 320.315ZM44.0941 320.315C44.0941 321.15 44.3441 321.595 44.8191 321.595C45.2941 321.595 45.5491 321.155 45.5491 320.315C45.5491 319.47 45.2941 319.025 44.8191 319.025C44.3541 319.025 44.0941 319.47 44.0941 320.315ZM46.5575 320.315C46.5575 319.195 47.0025 318.57 47.8025 318.57C48.6025 318.57 49.0525 319.195 49.0525 320.315C49.0525 321.435 48.6125 322.05 47.8025 322.05C46.9925 322.05 46.5575 321.435 46.5575 320.315ZM47.0775 320.315C47.0775 321.15 47.3275 321.595 47.8025 321.595C48.2775 321.595 48.5325 321.155 48.5325 320.315C48.5325 319.47 48.2775 319.025 47.8025 319.025C47.3375 319.025 47.0775 319.47 47.0775 320.315ZM49.5409 320.315C49.5409 319.195 49.9859 318.57 50.7859 318.57C51.5859 318.57 52.0359 319.195 52.0359 320.315C52.0359 321.435 51.5959 322.05 50.7859 322.05C49.9759 322.05 49.5409 321.435 49.5409 320.315ZM50.0609 320.315C50.0609 321.15 50.3109 321.595 50.7859 321.595C51.2609 321.595 51.5159 321.155 51.5159 320.315C51.5159 319.47 51.2609 319.025 50.7859 319.025C50.3209 319.025 50.0609 319.47 50.0609 320.315ZM56.6242 319.32V322H56.2292V320.29C56.2292 320.22 56.2309 320.147 56.2342 320.07C56.2409 319.993 56.2476 319.918 56.2542 319.845H56.2392L55.3642 322H54.9942L54.1442 319.845H54.1292C54.1359 319.918 54.1392 319.993 54.1392 320.07C54.1426 320.147 54.1442 320.225 54.1442 320.305V322H53.7492V319.32H54.3342L55.1792 321.475L56.0392 319.32H56.6242ZM57.4347 322.965H56.9297L59.1447 318.41H59.6447L57.4347 322.965ZM61.0254 322.05C60.7887 322.05 60.5771 322.002 60.3904 321.905C60.2071 321.808 60.0621 321.658 59.9554 321.455C59.8521 321.252 59.8004 320.992 59.8004 320.675C59.8004 320.345 59.8554 320.077 59.9654 319.87C60.0754 319.663 60.2237 319.512 60.4104 319.415C60.6004 319.318 60.8154 319.27 61.0554 319.27C61.1921 319.27 61.3237 319.285 61.4504 319.315C61.5771 319.342 61.6804 319.375 61.7604 319.415L61.6254 319.78C61.5454 319.75 61.4521 319.722 61.3454 319.695C61.2387 319.668 61.1387 319.655 61.0454 319.655C60.8654 319.655 60.7171 319.693 60.6004 319.77C60.4837 319.847 60.3971 319.96 60.3404 320.11C60.2837 320.26 60.2554 320.447 60.2554 320.67C60.2554 320.883 60.2837 321.065 60.3404 321.215C60.3971 321.365 60.4821 321.478 60.5954 321.555C60.7087 321.632 60.8504 321.67 61.0204 321.67C61.1671 321.67 61.2954 321.655 61.4054 321.625C61.5187 321.595 61.6221 321.558 61.7154 321.515V321.905C61.6254 321.952 61.5254 321.987 61.4154 322.01C61.3087 322.037 61.1787 322.05 61.0254 322.05Z" fill="white" fill-opacity="0.05"/>
<path d="M318.255 553H317.745V550.06H317.09V549.62H318.255V553ZM319.905 553H319.395V550.06H318.74V549.62H319.905V553ZM320.546 551.315C320.546 550.195 320.991 549.57 321.791 549.57C322.591 549.57 323.041 550.195 323.041 551.315C323.041 552.435 322.601 553.05 321.791 553.05C320.981 553.05 320.546 552.435 320.546 551.315ZM321.066 551.315C321.066 552.15 321.316 552.595 321.791 552.595C322.266 552.595 322.521 552.155 322.521 551.315C322.521 550.47 322.266 550.025 321.791 550.025C321.326 550.025 321.066 550.47 321.066 551.315ZM324.574 551.315C324.574 550.195 325.019 549.57 325.819 549.57C326.619 549.57 327.069 550.195 327.069 551.315C327.069 552.435 326.629 553.05 325.819 553.05C325.009 553.05 324.574 552.435 324.574 551.315ZM325.094 551.315C325.094 552.15 325.344 552.595 325.819 552.595C326.294 552.595 326.549 552.155 326.549 551.315C326.549 550.47 326.294 550.025 325.819 550.025C325.354 550.025 325.094 550.47 325.094 551.315ZM327.558 551.315C327.558 550.195 328.003 549.57 328.803 549.57C329.603 549.57 330.053 550.195 330.053 551.315C330.053 552.435 329.613 553.05 328.803 553.05C327.993 553.05 327.558 552.435 327.558 551.315ZM328.078 551.315C328.078 552.15 328.328 552.595 328.803 552.595C329.278 552.595 329.533 552.155 329.533 551.315C329.533 550.47 329.278 550.025 328.803 550.025C328.338 550.025 328.078 550.47 328.078 551.315ZM330.541 551.315C330.541 550.195 330.986 549.57 331.786 549.57C332.586 549.57 333.036 550.195 333.036 551.315C333.036 552.435 332.596 553.05 331.786 553.05C330.976 553.05 330.541 552.435 330.541 551.315ZM331.061 551.315C331.061 552.15 331.311 552.595 331.786 552.595C332.261 552.595 332.516 552.155 332.516 551.315C332.516 550.47 332.261 550.025 331.786 550.025C331.321 550.025 331.061 550.47 331.061 551.315ZM337.624 550.32V553H337.229V551.29C337.229 551.22 337.231 551.147 337.234 551.07C337.241 550.993 337.248 550.918 337.254 550.845H337.239L336.364 553H335.994L335.144 550.845H335.129C335.136 550.918 335.139 550.993 335.139 551.07C335.143 551.147 335.144 551.225 335.144 551.305V553H334.749V550.32H335.334L336.179 552.475L337.039 550.32H337.624ZM338.435 553.965H337.93L340.145 549.41H340.645L338.435 553.965ZM342.025 553.05C341.789 553.05 341.577 553.002 341.39 552.905C341.207 552.808 341.062 552.658 340.955 552.455C340.852 552.252 340.8 551.992 340.8 551.675C340.8 551.345 340.855 551.077 340.965 550.87C341.075 550.663 341.224 550.512 341.41 550.415C341.6 550.318 341.815 550.27 342.055 550.27C342.192 550.27 342.324 550.285 342.45 550.315C342.577 550.342 342.68 550.375 342.76 550.415L342.625 550.78C342.545 550.75 342.452 550.722 342.345 550.695C342.239 550.668 342.139 550.655 342.045 550.655C341.865 550.655 341.717 550.693 341.6 550.77C341.484 550.847 341.397 550.96 341.34 551.11C341.284 551.26 341.255 551.447 341.255 551.67C341.255 551.883 341.284 552.065 341.34 552.215C341.397 552.365 341.482 552.478 341.595 552.555C341.709 552.632 341.85 552.67 342.02 552.67C342.167 552.67 342.295 552.655 342.405 552.625C342.519 552.595 342.622 552.558 342.715 552.515V552.905C342.625 552.952 342.525 552.987 342.415 553.01C342.309 553.037 342.179 553.05 342.025 553.05Z" fill="white" fill-opacity="0.05"/>
<path d="M148.255 299H147.745V296.06H147.09V295.62H148.255V299ZM148.895 297.315C148.895 296.195 149.34 295.57 150.14 295.57C150.94 295.57 151.39 296.195 151.39 297.315C151.39 298.435 150.95 299.05 150.14 299.05C149.33 299.05 148.895 298.435 148.895 297.315ZM149.415 297.315C149.415 298.15 149.665 298.595 150.14 298.595C150.615 298.595 150.87 298.155 150.87 297.315C150.87 296.47 150.615 296.025 150.14 296.025C149.675 296.025 149.415 296.47 149.415 297.315ZM152.924 297.315C152.924 296.195 153.369 295.57 154.169 295.57C154.969 295.57 155.419 296.195 155.419 297.315C155.419 298.435 154.979 299.05 154.169 299.05C153.359 299.05 152.924 298.435 152.924 297.315ZM153.444 297.315C153.444 298.15 153.694 298.595 154.169 298.595C154.644 298.595 154.899 298.155 154.899 297.315C154.899 296.47 154.644 296.025 154.169 296.025C153.704 296.025 153.444 296.47 153.444 297.315ZM155.907 297.315C155.907 296.195 156.352 295.57 157.152 295.57C157.952 295.57 158.402 296.195 158.402 297.315C158.402 298.435 157.962 299.05 157.152 299.05C156.342 299.05 155.907 298.435 155.907 297.315ZM156.427 297.315C156.427 298.15 156.677 298.595 157.152 298.595C157.627 298.595 157.882 298.155 157.882 297.315C157.882 296.47 157.627 296.025 157.152 296.025C156.687 296.025 156.427 296.47 156.427 297.315ZM158.891 297.315C158.891 296.195 159.336 295.57 160.136 295.57C160.936 295.57 161.386 296.195 161.386 297.315C161.386 298.435 160.946 299.05 160.136 299.05C159.326 299.05 158.891 298.435 158.891 297.315ZM159.411 297.315C159.411 298.15 159.661 298.595 160.136 298.595C160.611 298.595 160.866 298.155 160.866 297.315C160.866 296.47 160.611 296.025 160.136 296.025C159.671 296.025 159.411 296.47 159.411 297.315ZM165.974 296.32V299H165.579V297.29C165.579 297.22 165.58 297.147 165.584 297.07C165.59 296.993 165.597 296.918 165.604 296.845H165.589L164.714 299H164.344L163.494 296.845H163.479C163.485 296.918 163.489 296.993 163.489 297.07C163.492 297.147 163.494 297.225 163.494 297.305V299H163.099V296.32H163.684L164.529 298.475L165.389 296.32H165.974ZM166.784 299.965H166.279L168.494 295.41H168.994L166.784 299.965ZM170.375 299.05C170.138 299.05 169.927 299.002 169.74 298.905C169.557 298.808 169.412 298.658 169.305 298.455C169.202 298.252 169.15 297.992 169.15 297.675C169.15 297.345 169.205 297.077 169.315 296.87C169.425 296.663 169.573 296.512 169.76 296.415C169.95 296.318 170.165 296.27 170.405 296.27C170.542 296.27 170.673 296.285 170.8 296.315C170.927 296.342 171.03 296.375 171.11 296.415L170.975 296.78C170.895 296.75 170.802 296.722 170.695 296.695C170.588 296.668 170.488 296.655 170.395 296.655C170.215 296.655 170.067 296.693 169.95 296.77C169.833 296.847 169.747 296.96 169.69 297.11C169.633 297.26 169.605 297.447 169.605 297.67C169.605 297.883 169.633 298.065 169.69 298.215C169.747 298.365 169.832 298.478 169.945 298.555C170.058 298.632 170.2 298.67 170.37 298.67C170.517 298.67 170.645 298.655 170.755 298.625C170.868 298.595 170.972 298.558 171.065 298.515V298.905C170.975 298.952 170.875 298.987 170.765 299.01C170.658 299.037 170.528 299.05 170.375 299.05Z" fill="white" fill-opacity="0.05"/>
</g>
<defs>
<clipPath id="clip0_290_5224">
<rect width="375" height="812" fill="white"/>
</clipPath>
<clipPath id="clip1_290_5224">
<rect width="374" height="812" fill="white" transform="translate(1 -1)"/>
</clipPath>
</defs>
</svg>
