<svg width="16" height="22" viewBox="0 0 16 22" fill="none" xmlns="http://www.w3.org/2000/svg">
<g clip-path="url(#clip0_1_11)">
<path d="M8 22C3.6 22 0 18.4217 0 14.0482V7.95181C0 3.57831 3.6 0 8 0C12.4 0 16 3.57831 16 7.95181V14.0212C16 18.4217 12.4 22 8 22ZM8 1.3253C4.31973 1.3253 1.33333 4.29371 1.33333 7.95181V14.0212C1.33333 17.6793 4.31973 20.6477 8 20.6477C11.6803 20.6477 14.6667 17.6793 14.6667 14.0212V7.95181C14.6667 4.32075 11.6803 1.3253 8 1.3253ZM8.05313 8.61446H7.94688C6.93333 8.61446 6.1073 7.79235 6.1073 6.78597V5.51347C6.1073 4.50602 6.9344 3.68497 7.94688 3.68497H8.05313C9.06667 3.68497 9.8927 4.50708 9.8927 5.51347V6.78597C9.89374 7.81928 9.06665 8.61446 8.05313 8.61446ZM7.94688 5.03614C7.68021 5.03614 7.44064 5.2484 7.44064 5.53933V6.81184C7.44064 7.0769 7.65418 7.31503 7.94688 7.31503H8.05313C8.31979 7.31503 8.55937 7.10277 8.55937 6.81184V5.53933C8.55937 5.27427 8.34582 5.03614 8.05313 5.03614H7.94688Z" fill="white"/>
</g>
<defs>
<clipPath id="clip0_1_11">
<rect width="16" height="22" fill="white"/>
</clipPath>
</defs>
</svg>
