<svg width="859" height="800" viewBox="0 0 859 800" fill="none" xmlns="http://www.w3.org/2000/svg">
<line x1="858.341" y1="0.365368" x2="478.341" y2="355.365" stroke="#767676" stroke-opacity="0.1"/>
<line x1="380.341" y1="444.365" x2="0.341339" y2="799.365" stroke="#767676" stroke-opacity="0.1"/>
<line x1="1" y1="400.5" x2="348" y2="400.5" stroke="#767676" stroke-opacity="0.1"/>
<line x1="511" y1="400.5" x2="858" y2="400.5" stroke="#767676" stroke-opacity="0.1"/>
<line x1="843.5" y1="178" x2="843.5" y2="300" stroke="white" stroke-opacity="0.1"/>
<line x1="830" y1="213.5" x2="838" y2="213.5" stroke="white" stroke-opacity="0.1"/>
<line x1="824" y1="223.5" x2="838" y2="223.5" stroke="white" stroke-opacity="0.1"/>
<line x1="833" y1="233.5" x2="838" y2="233.5" stroke="white" stroke-opacity="0.1"/>
<line x1="826" y1="243.5" x2="838" y2="243.5" stroke="white" stroke-opacity="0.1"/>
<line x1="835" y1="253.5" x2="838" y2="253.5" stroke="white" stroke-opacity="0.1"/>
<line x1="824" y1="263.5" x2="838" y2="263.5" stroke="white" stroke-opacity="0.1"/>
<line y1="-0.5" x2="122" y2="-0.5" transform="matrix(4.37114e-08 1 1 -4.37114e-08 15 528)" stroke="white" stroke-opacity="0.1"/>
<line y1="-0.5" x2="8" y2="-0.5" transform="matrix(-1 0 0 1 28 564)" stroke="white" stroke-opacity="0.1"/>
<line y1="-0.5" x2="14" y2="-0.5" transform="matrix(-1 8.74228e-08 8.74228e-08 1 34 574)" stroke="white" stroke-opacity="0.1"/>
<line y1="-0.5" x2="5" y2="-0.5" transform="matrix(-1 8.74228e-08 8.74228e-08 1 25 584)" stroke="white" stroke-opacity="0.1"/>
<line y1="-0.5" x2="12" y2="-0.5" transform="matrix(-1 -8.74228e-08 -8.74228e-08 1 32 594)" stroke="white" stroke-opacity="0.1"/>
<line y1="-0.5" x2="3" y2="-0.5" transform="matrix(-1 8.74231e-08 8.74231e-08 1 23 604)" stroke="white" stroke-opacity="0.1"/>
<line y1="-0.5" x2="14" y2="-0.5" transform="matrix(-1 -8.74228e-08 -8.74228e-08 1 34 614)" stroke="white" stroke-opacity="0.1"/>
</svg>
