<svg width="338" height="425" viewBox="0 0 338 425" fill="none" xmlns="http://www.w3.org/2000/svg">
<line x1="337.393" y1="0.309175" x2="182.187" y2="197.571" stroke="#767676" stroke-opacity="0.1"/>
<line x1="149.391" y1="238.312" x2="0.827355" y2="424.25" stroke="#767676" stroke-opacity="0.1"/>
<line x1="221" y1="211.5" x2="337" y2="211.5" stroke="#767676" stroke-opacity="0.1"/>
<line x1="1" y1="211.5" x2="117" y2="211.5" stroke="#767676" stroke-opacity="0.1"/>
<line x1="7.5" y1="274" x2="7.5" y2="346" stroke="white" stroke-opacity="0.1"/>
<line x1="17" y1="290.5" x2="9" y2="290.5" stroke="white" stroke-opacity="0.1"/>
<line x1="20" y1="298.5" x2="9" y2="298.5" stroke="white" stroke-opacity="0.1"/>
<line x1="15" y1="306.5" x2="9" y2="306.5" stroke="white" stroke-opacity="0.1"/>
<line x1="19" y1="314.5" x2="9" y2="314.5" stroke="white" stroke-opacity="0.1"/>
<line x1="13" y1="322.5" x2="9" y2="322.5" stroke="white" stroke-opacity="0.1"/>
<line x1="17" y1="330.5" x2="9" y2="330.5" stroke="white" stroke-opacity="0.1"/>
<line y1="-0.5" x2="72" y2="-0.5" transform="matrix(4.37114e-08 1 1 -4.37114e-08 332 83)" stroke="white" stroke-opacity="0.1"/>
<line y1="-0.5" x2="8" y2="-0.5" transform="matrix(1 0 0 -1 322 99)" stroke="white" stroke-opacity="0.1"/>
<line y1="-0.5" x2="11" y2="-0.5" transform="matrix(1 0 0 -1 319 107)" stroke="white" stroke-opacity="0.1"/>
<line y1="-0.5" x2="6" y2="-0.5" transform="matrix(1 0 0 -1 324 115)" stroke="white" stroke-opacity="0.1"/>
<line y1="-0.5" x2="10" y2="-0.5" transform="matrix(1 0 0 -1 320 123)" stroke="white" stroke-opacity="0.1"/>
<line y1="-0.5" x2="4" y2="-0.5" transform="matrix(1 0 0 -1 326 131)" stroke="white" stroke-opacity="0.1"/>
<line y1="-0.5" x2="8" y2="-0.5" transform="matrix(1 0 0 -1 322 139)" stroke="white" stroke-opacity="0.1"/>
</svg>
