<svg width="127" height="18" viewBox="0 0 127 18" fill="none" xmlns="http://www.w3.org/2000/svg">
<circle cx="117" cy="9" r="4" transform="rotate(90 117 9)" fill="#373839"/>
<circle cx="99" cy="9" r="4" transform="rotate(90 99 9)" fill="#373839"/>
<circle cx="81" cy="9" r="4" transform="rotate(90 81 9)" fill="#373839"/>
<circle cx="63" cy="9" r="4" transform="rotate(90 63 9)" fill="#373839"/>
<circle cx="45" cy="9" r="4" transform="rotate(90 45 9)" fill="#373839"/>
<circle cx="27" cy="9" r="4" transform="rotate(90 27 9)" fill="#DC4444"/>
<circle cx="9" cy="9" r="4" transform="rotate(90 9 9)" fill="#373839"/>
<line x1="18.5" y1="-2.18558e-08" x2="18.5" y2="18" stroke="#373839"/>
<line x1="36.5" y1="-2.18558e-08" x2="36.5" y2="18" stroke="#373839"/>
<line x1="54.5" y1="-2.18558e-08" x2="54.5" y2="18" stroke="#373839"/>
<line x1="72.5" y1="-2.18558e-08" x2="72.5" y2="18" stroke="#373839"/>
<line x1="90.5" y1="-2.18558e-08" x2="90.5" y2="18" stroke="#373839"/>
<line x1="108.5" y1="-2.18558e-08" x2="108.5" y2="18" stroke="#373839"/>
<line x1="126.5" y1="-2.18558e-08" x2="126.5" y2="18" stroke="#373839"/>
<line x1="0.5" y1="-2.18558e-08" x2="0.500001" y2="18" stroke="#373839"/>
</svg>
