<svg width="1607" height="1080" viewBox="0 0 1607 1080" fill="none" xmlns="http://www.w3.org/2000/svg">
<circle cx="803.5" cy="341.5" r="107" stroke="#DC4444" stroke-opacity="0.15"/>
<circle cx="803.5" cy="515.5" r="625" stroke="#DC4444" stroke-opacity="0.15"/>
<circle cx="803.5" cy="1252.5" r="803" stroke="#DC4444" stroke-opacity="0.15"/>
<path d="M1363.5 1243.5C1363.5 1551.67 1112.78 1801.5 803.5 1801.5C494.219 1801.5 243.5 1551.67 243.5 1243.5C243.5 935.327 494.219 685.5 803.5 685.5C1112.78 685.5 1363.5 935.327 1363.5 1243.5Z" stroke="#DC4444" stroke-opacity="0.15"/>
<path d="M577.87 235.037C592.859 186.715 622.979 144.49 663.789 114.588C704.599 84.6853 753.938 68.6891 804.53 68.9581C855.122 69.2272 904.288 85.7472 944.778 116.082C985.267 146.416 1014.94 188.96 1029.41 237.438" stroke="#DC4444" stroke-opacity="0.15"/>
</svg>
