<svg width="1607" height="1080" viewBox="0 0 1607 1080" fill="none" xmlns="http://www.w3.org/2000/svg">
<circle cx="803.5" cy="163.5" r="144" stroke="#DC4444" stroke-opacity="0.2"/>
<circle cx="803.5" cy="374.5" r="625" stroke="#DC4444" stroke-opacity="0.2"/>
<circle cx="803.5" cy="1111.5" r="803" stroke="#DC4444" stroke-opacity="0.2"/>
<path d="M1363.5 1102.5C1363.5 1410.67 1112.78 1660.5 803.5 1660.5C494.219 1660.5 243.5 1410.67 243.5 1102.5C243.5 794.327 494.219 544.5 803.5 544.5C1112.78 544.5 1363.5 794.327 1363.5 1102.5Z" stroke="#DC4444" stroke-opacity="0.2"/>
<circle cx="803.5" cy="163.5" r="14.5" fill="#1E1D1D"/>
<path d="M577.87 94.0365C592.859 45.7153 622.979 3.48989 663.789 -26.4124C704.599 -56.3147 753.938 -72.3109 804.53 -72.0419C855.122 -71.7728 904.288 -55.2528 944.778 -24.9182C985.267 5.41639 1014.94 47.9598 1029.41 96.4376" stroke="#DC4444" stroke-opacity="0.2"/>
<circle cx="803.5" cy="1099.5" r="100" stroke="#767676" stroke-opacity="0.2"/>
</svg>
