<svg width="1732" height="1080" viewBox="0 0 1732 1080" fill="none" xmlns="http://www.w3.org/2000/svg">
<line x1="0.5" y1="-2.18557e-08" x2="0.500047" y2="1080" stroke="#DC4444" stroke-opacity="0.11"/>
<line x1="95.5" y1="-2.18557e-08" x2="95.5" y2="1080" stroke="#767676" stroke-opacity="0.11"/>
<line x1="190.5" y1="-2.18557e-08" x2="190.5" y2="1080" stroke="#767676" stroke-opacity="0.11"/>
<line x1="288.5" y1="-2.18557e-08" x2="288.5" y2="1080" stroke="#767676" stroke-opacity="0.11"/>
<line x1="386.5" y1="-2.18557e-08" x2="386.5" y2="1080" stroke="#767676" stroke-opacity="0.11"/>
<line x1="482.5" y1="-2.18557e-08" x2="482.5" y2="1080" stroke="#767676" stroke-opacity="0.11"/>
<line x1="578.5" y1="-2.18557e-08" x2="578.5" y2="1080" stroke="#767676" stroke-opacity="0.11"/>
<line x1="674.5" y1="-2.18557e-08" x2="674.5" y2="1080" stroke="#767676" stroke-opacity="0.11"/>
<line x1="770.5" y1="-2.18557e-08" x2="770.5" y2="1080" stroke="#767676" stroke-opacity="0.11"/>
<line x1="866.5" y1="-2.18557e-08" x2="866.5" y2="1080" stroke="#767676" stroke-opacity="0.11"/>
<line x1="963.5" y1="-2.18557e-08" x2="963.5" y2="1080" stroke="#767676" stroke-opacity="0.11"/>
<line x1="1060.5" y1="-2.18557e-08" x2="1060.5" y2="1080" stroke="#767676" stroke-opacity="0.11"/>
<line x1="1156.5" y1="-2.18557e-08" x2="1156.5" y2="1080" stroke="#767676" stroke-opacity="0.11"/>
<line x1="1252.5" y1="-2.18557e-08" x2="1252.5" y2="1080" stroke="#767676" stroke-opacity="0.11"/>
<line x1="1347.5" y1="-2.18557e-08" x2="1347.5" y2="1080" stroke="#767676" stroke-opacity="0.11"/>
<line x1="1444.5" y1="-2.18557e-08" x2="1444.5" y2="1080" stroke="#767676" stroke-opacity="0.11"/>
<line x1="1539.5" y1="-2.18557e-08" x2="1539.5" y2="1080" stroke="#767676" stroke-opacity="0.11"/>
<line x1="1731.5" y1="-2.18557e-08" x2="1731.5" y2="1080" stroke="#DC4444" stroke-opacity="0.11"/>
<line x1="1636.5" y1="-2.18557e-08" x2="1636.5" y2="1080" stroke="#767676" stroke-opacity="0.11"/>
</svg>
