<svg width="1920" height="1057" viewBox="0 0 1920 1057" fill="none" xmlns="http://www.w3.org/2000/svg">
<line y1="0.5" x2="1920" y2="0.5" stroke="#767676" stroke-opacity="0.07"/>
<line y1="11.5" x2="1920" y2="11.5" stroke="#767676" stroke-opacity="0.07"/>
<line y1="22.5" x2="1920" y2="22.5" stroke="#767676" stroke-opacity="0.07"/>
<line y1="33.5" x2="1920" y2="33.5" stroke="#767676" stroke-opacity="0.07"/>
<line y1="44.5" x2="1920" y2="44.5" stroke="#767676" stroke-opacity="0.07"/>
<line y1="55.5" x2="1920" y2="55.5" stroke="#767676" stroke-opacity="0.07"/>
<line y1="66.5" x2="1920" y2="66.5" stroke="#767676" stroke-opacity="0.07"/>
<line y1="77.5" x2="1920" y2="77.5" stroke="#767676" stroke-opacity="0.07"/>
<line y1="88.5" x2="1920" y2="88.5" stroke="#767676" stroke-opacity="0.07"/>
<line y1="99.5" x2="1920" y2="99.5" stroke="#767676" stroke-opacity="0.07"/>
<line y1="110.5" x2="1920" y2="110.5" stroke="#767676" stroke-opacity="0.07"/>
<line y1="121.5" x2="1920" y2="121.5" stroke="#767676" stroke-opacity="0.07"/>
<line y1="132.5" x2="1920" y2="132.5" stroke="#767676" stroke-opacity="0.07"/>
<line y1="143.5" x2="1920" y2="143.5" stroke="#767676" stroke-opacity="0.07"/>
<line y1="154.5" x2="1920" y2="154.5" stroke="#767676" stroke-opacity="0.07"/>
<line y1="165.5" x2="1920" y2="165.5" stroke="#767676" stroke-opacity="0.07"/>
<line y1="176.5" x2="1920" y2="176.5" stroke="#767676" stroke-opacity="0.07"/>
<line y1="187.5" x2="1920" y2="187.5" stroke="#767676" stroke-opacity="0.07"/>
<line y1="198.5" x2="1920" y2="198.5" stroke="#767676" stroke-opacity="0.07"/>
<line y1="209.5" x2="1920" y2="209.5" stroke="#767676" stroke-opacity="0.07"/>
<line y1="220.5" x2="1920" y2="220.5" stroke="#767676" stroke-opacity="0.07"/>
<line y1="231.5" x2="1920" y2="231.5" stroke="#767676" stroke-opacity="0.07"/>
<line y1="242.5" x2="1920" y2="242.5" stroke="#767676" stroke-opacity="0.07"/>
<line y1="253.5" x2="1920" y2="253.5" stroke="#767676" stroke-opacity="0.07"/>
<line y1="264.5" x2="1920" y2="264.5" stroke="#767676" stroke-opacity="0.07"/>
<line y1="275.5" x2="1920" y2="275.5" stroke="#767676" stroke-opacity="0.07"/>
<line y1="286.5" x2="1920" y2="286.5" stroke="#767676" stroke-opacity="0.07"/>
<line y1="297.5" x2="1920" y2="297.5" stroke="#767676" stroke-opacity="0.07"/>
<line y1="308.5" x2="1920" y2="308.5" stroke="#767676" stroke-opacity="0.07"/>
<line y1="319.5" x2="1920" y2="319.5" stroke="#767676" stroke-opacity="0.07"/>
<line y1="330.5" x2="1920" y2="330.5" stroke="#767676" stroke-opacity="0.07"/>
<line y1="341.5" x2="1920" y2="341.5" stroke="#767676" stroke-opacity="0.07"/>
<line y1="352.5" x2="1920" y2="352.5" stroke="#767676" stroke-opacity="0.07"/>
<line y1="363.5" x2="1920" y2="363.5" stroke="#767676" stroke-opacity="0.07"/>
<line y1="374.5" x2="1920" y2="374.5" stroke="#767676" stroke-opacity="0.07"/>
<line y1="385.5" x2="1920" y2="385.5" stroke="#767676" stroke-opacity="0.07"/>
<line y1="396.5" x2="1920" y2="396.5" stroke="#767676" stroke-opacity="0.07"/>
<line y1="407.5" x2="1920" y2="407.5" stroke="#767676" stroke-opacity="0.07"/>
<line y1="418.5" x2="1920" y2="418.5" stroke="#767676" stroke-opacity="0.07"/>
<line y1="429.5" x2="1920" y2="429.5" stroke="#767676" stroke-opacity="0.07"/>
<line y1="440.5" x2="1920" y2="440.5" stroke="#767676" stroke-opacity="0.07"/>
<line y1="451.5" x2="1920" y2="451.5" stroke="#767676" stroke-opacity="0.07"/>
<line y1="462.5" x2="1920" y2="462.5" stroke="#767676" stroke-opacity="0.07"/>
<line y1="473.5" x2="1920" y2="473.5" stroke="#767676" stroke-opacity="0.07"/>
<line y1="484.5" x2="1920" y2="484.5" stroke="#767676" stroke-opacity="0.07"/>
<line y1="495.5" x2="1920" y2="495.5" stroke="#767676" stroke-opacity="0.07"/>
<line y1="506.5" x2="1920" y2="506.5" stroke="#767676" stroke-opacity="0.07"/>
<line y1="517.5" x2="1920" y2="517.5" stroke="#767676" stroke-opacity="0.07"/>
<line y1="528.5" x2="1920" y2="528.5" stroke="#767676" stroke-opacity="0.07"/>
<line y1="539.5" x2="1920" y2="539.5" stroke="#767676" stroke-opacity="0.07"/>
<line y1="550.5" x2="1920" y2="550.5" stroke="#767676" stroke-opacity="0.07"/>
<line y1="561.5" x2="1920" y2="561.5" stroke="#767676" stroke-opacity="0.07"/>
<line y1="572.5" x2="1920" y2="572.5" stroke="#767676" stroke-opacity="0.07"/>
<line y1="583.5" x2="1920" y2="583.5" stroke="#767676" stroke-opacity="0.07"/>
<line y1="594.5" x2="1920" y2="594.5" stroke="#767676" stroke-opacity="0.07"/>
<line y1="605.5" x2="1920" y2="605.5" stroke="#767676" stroke-opacity="0.07"/>
<line y1="616.5" x2="1920" y2="616.5" stroke="#767676" stroke-opacity="0.07"/>
<line y1="627.5" x2="1920" y2="627.5" stroke="#767676" stroke-opacity="0.07"/>
<line y1="638.5" x2="1920" y2="638.5" stroke="#767676" stroke-opacity="0.07"/>
<line y1="649.5" x2="1920" y2="649.5" stroke="#767676" stroke-opacity="0.07"/>
<line y1="660.5" x2="1920" y2="660.5" stroke="#767676" stroke-opacity="0.07"/>
<line y1="671.5" x2="1920" y2="671.5" stroke="#767676" stroke-opacity="0.07"/>
<line y1="682.5" x2="1920" y2="682.5" stroke="#767676" stroke-opacity="0.07"/>
<line y1="693.5" x2="1920" y2="693.5" stroke="#767676" stroke-opacity="0.07"/>
<line y1="704.5" x2="1920" y2="704.5" stroke="#767676" stroke-opacity="0.07"/>
<line y1="715.5" x2="1920" y2="715.5" stroke="#767676" stroke-opacity="0.07"/>
<line y1="726.5" x2="1920" y2="726.5" stroke="#767676" stroke-opacity="0.07"/>
<line y1="737.5" x2="1920" y2="737.5" stroke="#767676" stroke-opacity="0.07"/>
<line y1="748.5" x2="1920" y2="748.5" stroke="#767676" stroke-opacity="0.07"/>
<line y1="759.5" x2="1920" y2="759.5" stroke="#767676" stroke-opacity="0.07"/>
<line y1="770.5" x2="1920" y2="770.5" stroke="#767676" stroke-opacity="0.07"/>
<line y1="781.5" x2="1920" y2="781.5" stroke="#767676" stroke-opacity="0.07"/>
<line y1="792.5" x2="1920" y2="792.5" stroke="#767676" stroke-opacity="0.07"/>
<line y1="803.5" x2="1920" y2="803.5" stroke="#767676" stroke-opacity="0.07"/>
<line y1="814.5" x2="1920" y2="814.5" stroke="#767676" stroke-opacity="0.07"/>
<line y1="825.5" x2="1920" y2="825.5" stroke="#767676" stroke-opacity="0.07"/>
<line y1="836.5" x2="1920" y2="836.5" stroke="#767676" stroke-opacity="0.07"/>
<line y1="847.5" x2="1920" y2="847.5" stroke="#767676" stroke-opacity="0.07"/>
<line y1="858.5" x2="1920" y2="858.5" stroke="#767676" stroke-opacity="0.07"/>
<line y1="869.5" x2="1920" y2="869.5" stroke="#767676" stroke-opacity="0.07"/>
<line y1="880.5" x2="1920" y2="880.5" stroke="#767676" stroke-opacity="0.07"/>
<line y1="891.5" x2="1920" y2="891.5" stroke="#767676" stroke-opacity="0.07"/>
<line y1="902.5" x2="1920" y2="902.5" stroke="#767676" stroke-opacity="0.07"/>
<line y1="913.5" x2="1920" y2="913.5" stroke="#767676" stroke-opacity="0.07"/>
<line y1="924.5" x2="1920" y2="924.5" stroke="#767676" stroke-opacity="0.07"/>
<line y1="935.5" x2="1920" y2="935.5" stroke="#767676" stroke-opacity="0.07"/>
<line y1="946.5" x2="1920" y2="946.5" stroke="#767676" stroke-opacity="0.07"/>
<line y1="957.5" x2="1920" y2="957.5" stroke="#767676" stroke-opacity="0.07"/>
<line y1="968.5" x2="1920" y2="968.5" stroke="#767676" stroke-opacity="0.07"/>
<line y1="979.5" x2="1920" y2="979.5" stroke="#767676" stroke-opacity="0.07"/>
<line y1="990.5" x2="1920" y2="990.5" stroke="#767676" stroke-opacity="0.07"/>
<line y1="1001.5" x2="1920" y2="1001.5" stroke="#767676" stroke-opacity="0.07"/>
<line y1="1012.5" x2="1920" y2="1012.5" stroke="#767676" stroke-opacity="0.07"/>
<line y1="1023.5" x2="1920" y2="1023.5" stroke="#767676" stroke-opacity="0.07"/>
<line y1="1034.5" x2="1920" y2="1034.5" stroke="#767676" stroke-opacity="0.07"/>
<line y1="1045.5" x2="1920" y2="1045.5" stroke="#767676" stroke-opacity="0.07"/>
<line y1="1056.5" x2="1920" y2="1056.5" stroke="#767676" stroke-opacity="0.07"/>
</svg>
