<svg width="1920" height="1326" viewBox="0 0 1920 1326" fill="none" xmlns="http://www.w3.org/2000/svg">
<line y1="774.5" x2="743" y2="774.5" stroke="#767676" stroke-opacity="0.1"/>
<line x1="1175" y1="774.5" x2="1920" y2="774.5" stroke="#767676" stroke-opacity="0.1"/>
<line x1="959.5" y1="1002" x2="959.5" y2="1326" stroke="#767676" stroke-opacity="0.1"/>
<line x1="946" y1="1172.5" x2="954" y2="1172.5" stroke="white" stroke-opacity="0.05"/>
<line x1="940" y1="1182.5" x2="954" y2="1182.5" stroke="white" stroke-opacity="0.05"/>
<line x1="949" y1="1192.5" x2="954" y2="1192.5" stroke="white" stroke-opacity="0.05"/>
<line x1="942" y1="1202.5" x2="954" y2="1202.5" stroke="white" stroke-opacity="0.05"/>
<line x1="946" y1="1112.5" x2="954" y2="1112.5" stroke="white" stroke-opacity="0.05"/>
<line x1="940" y1="1122.5" x2="954" y2="1122.5" stroke="white" stroke-opacity="0.05"/>
<line x1="949" y1="1132.5" x2="954" y2="1132.5" stroke="white" stroke-opacity="0.05"/>
<line x1="942" y1="1142.5" x2="954" y2="1142.5" stroke="white" stroke-opacity="0.05"/>
<line x1="951" y1="1152.5" x2="954" y2="1152.5" stroke="white" stroke-opacity="0.05"/>
<line x1="940" y1="1162.5" x2="954" y2="1162.5" stroke="white" stroke-opacity="0.05"/>
<line x1="946" y1="1052.5" x2="954" y2="1052.5" stroke="white" stroke-opacity="0.05"/>
<line x1="940" y1="1062.5" x2="954" y2="1062.5" stroke="white" stroke-opacity="0.05"/>
<line x1="949" y1="1072.5" x2="954" y2="1072.5" stroke="white" stroke-opacity="0.05"/>
<line x1="942" y1="1082.5" x2="954" y2="1082.5" stroke="white" stroke-opacity="0.05"/>
<line x1="951" y1="1092.5" x2="954" y2="1092.5" stroke="white" stroke-opacity="0.05"/>
<line x1="940" y1="1102.5" x2="954" y2="1102.5" stroke="white" stroke-opacity="0.05"/>
<line y1="-0.5" x2="8" y2="-0.5" transform="matrix(-1 0 0 1 973 1173)" stroke="white" stroke-opacity="0.05"/>
<line y1="-0.5" x2="14" y2="-0.5" transform="matrix(-1 8.74228e-08 8.74228e-08 1 979 1183)" stroke="white" stroke-opacity="0.05"/>
<line y1="-0.5" x2="5" y2="-0.5" transform="matrix(-1 8.74228e-08 8.74228e-08 1 970 1193)" stroke="white" stroke-opacity="0.05"/>
<line y1="-0.5" x2="12" y2="-0.5" transform="matrix(-1 -8.74228e-08 -8.74228e-08 1 977 1203)" stroke="white" stroke-opacity="0.05"/>
<line y1="-0.5" x2="8" y2="-0.5" transform="matrix(-1 0 0 1 973 1113)" stroke="white" stroke-opacity="0.05"/>
<line y1="-0.5" x2="14" y2="-0.5" transform="matrix(-1 8.74228e-08 8.74228e-08 1 979 1123)" stroke="white" stroke-opacity="0.05"/>
<line y1="-0.5" x2="5" y2="-0.5" transform="matrix(-1 8.74228e-08 8.74228e-08 1 970 1133)" stroke="white" stroke-opacity="0.05"/>
<line y1="-0.5" x2="12" y2="-0.5" transform="matrix(-1 -8.74228e-08 -8.74228e-08 1 977 1143)" stroke="white" stroke-opacity="0.05"/>
<line y1="-0.5" x2="3" y2="-0.5" transform="matrix(-1 8.74231e-08 8.74231e-08 1 968 1153)" stroke="white" stroke-opacity="0.05"/>
<line y1="-0.5" x2="14" y2="-0.5" transform="matrix(-1 -8.74228e-08 -8.74228e-08 1 979 1163)" stroke="white" stroke-opacity="0.05"/>
<line y1="-0.5" x2="8" y2="-0.5" transform="matrix(-1 0 0 1 973 1053)" stroke="white" stroke-opacity="0.05"/>
<line y1="-0.5" x2="14" y2="-0.5" transform="matrix(-1 8.74228e-08 8.74228e-08 1 979 1063)" stroke="white" stroke-opacity="0.05"/>
<line y1="-0.5" x2="5" y2="-0.5" transform="matrix(-1 8.74228e-08 8.74228e-08 1 970 1073)" stroke="white" stroke-opacity="0.05"/>
<line y1="-0.5" x2="12" y2="-0.5" transform="matrix(-1 -8.74228e-08 -8.74228e-08 1 977 1083)" stroke="white" stroke-opacity="0.05"/>
<line y1="-0.5" x2="3" y2="-0.5" transform="matrix(-1 8.74231e-08 8.74231e-08 1 968 1093)" stroke="white" stroke-opacity="0.05"/>
<line y1="-0.5" x2="14" y2="-0.5" transform="matrix(-1 -8.74228e-08 -8.74228e-08 1 979 1103)" stroke="white" stroke-opacity="0.05"/>
<line x1="271.5" y1="762" x2="271.5" y2="770" stroke="white" stroke-opacity="0.05"/>
<line x1="261.5" y1="756" x2="261.5" y2="770" stroke="white" stroke-opacity="0.05"/>
<line x1="251.5" y1="765" x2="251.5" y2="770" stroke="white" stroke-opacity="0.05"/>
<line x1="241.5" y1="758" x2="241.5" y2="770" stroke="white" stroke-opacity="0.05"/>
<line x1="231.5" y1="767" x2="231.5" y2="770" stroke="white" stroke-opacity="0.05"/>
<line x1="221.5" y1="756" x2="221.5" y2="770" stroke="white" stroke-opacity="0.05"/>
<line x1="153.5" y1="762" x2="153.5" y2="770" stroke="white" stroke-opacity="0.05"/>
<line x1="143.5" y1="756" x2="143.5" y2="770" stroke="white" stroke-opacity="0.05"/>
<line x1="133.5" y1="765" x2="133.5" y2="770" stroke="white" stroke-opacity="0.05"/>
<line x1="123.5" y1="758" x2="123.5" y2="770" stroke="white" stroke-opacity="0.05"/>
<line x1="113.5" y1="767" x2="113.5" y2="770" stroke="white" stroke-opacity="0.05"/>
<line x1="103.5" y1="756" x2="103.5" y2="770" stroke="white" stroke-opacity="0.05"/>
<line x1="331.5" y1="762" x2="331.5" y2="770" stroke="white" stroke-opacity="0.05"/>
<line x1="321.5" y1="756" x2="321.5" y2="770" stroke="white" stroke-opacity="0.05"/>
<line x1="311.5" y1="765" x2="311.5" y2="770" stroke="white" stroke-opacity="0.05"/>
<line x1="301.5" y1="758" x2="301.5" y2="770" stroke="white" stroke-opacity="0.05"/>
<line x1="291.5" y1="767" x2="291.5" y2="770" stroke="white" stroke-opacity="0.05"/>
<line x1="281.5" y1="756" x2="281.5" y2="770" stroke="white" stroke-opacity="0.05"/>
<line x1="213.5" y1="762" x2="213.5" y2="770" stroke="white" stroke-opacity="0.05"/>
<line x1="203.5" y1="756" x2="203.5" y2="770" stroke="white" stroke-opacity="0.05"/>
<line x1="193.5" y1="765" x2="193.5" y2="770" stroke="white" stroke-opacity="0.05"/>
<line x1="183.5" y1="758" x2="183.5" y2="770" stroke="white" stroke-opacity="0.05"/>
<line x1="173.5" y1="767" x2="173.5" y2="770" stroke="white" stroke-opacity="0.05"/>
<line x1="163.5" y1="756" x2="163.5" y2="770" stroke="white" stroke-opacity="0.05"/>
<line x1="391.5" y1="762" x2="391.5" y2="770" stroke="white" stroke-opacity="0.05"/>
<line x1="381.5" y1="756" x2="381.5" y2="770" stroke="white" stroke-opacity="0.05"/>
<line x1="371.5" y1="765" x2="371.5" y2="770" stroke="white" stroke-opacity="0.05"/>
<line x1="361.5" y1="758" x2="361.5" y2="770" stroke="white" stroke-opacity="0.05"/>
<line x1="351.5" y1="767" x2="351.5" y2="770" stroke="white" stroke-opacity="0.05"/>
<line x1="341.5" y1="756" x2="341.5" y2="770" stroke="white" stroke-opacity="0.05"/>
<line y1="-0.5" x2="8" y2="-0.5" transform="matrix(4.37114e-08 -1 -1 -4.37114e-08 271 789)" stroke="white" stroke-opacity="0.05"/>
<line y1="-0.5" x2="14" y2="-0.5" transform="matrix(-4.37115e-08 -1 -1 4.37115e-08 261 795)" stroke="white" stroke-opacity="0.05"/>
<line y1="-0.5" x2="5" y2="-0.5" transform="matrix(-4.37114e-08 -1 -1 4.37114e-08 251 786)" stroke="white" stroke-opacity="0.05"/>
<line y1="-0.5" x2="12" y2="-0.5" transform="matrix(1.31134e-07 -1 -1 -1.31134e-07 241 793)" stroke="white" stroke-opacity="0.05"/>
<line y1="-0.5" x2="3" y2="-0.5" transform="matrix(-4.37117e-08 -1 -1 4.37117e-08 231 784)" stroke="white" stroke-opacity="0.05"/>
<line y1="-0.5" x2="14" y2="-0.5" transform="matrix(1.31134e-07 -1 -1 -1.31134e-07 221 795)" stroke="white" stroke-opacity="0.05"/>
<line y1="-0.5" x2="8" y2="-0.5" transform="matrix(4.37114e-08 -1 -1 -4.37114e-08 153 789)" stroke="white" stroke-opacity="0.05"/>
<line y1="-0.5" x2="14" y2="-0.5" transform="matrix(-4.37115e-08 -1 -1 4.37115e-08 143 795)" stroke="white" stroke-opacity="0.05"/>
<line y1="-0.5" x2="5" y2="-0.5" transform="matrix(-4.37114e-08 -1 -1 4.37114e-08 133 786)" stroke="white" stroke-opacity="0.05"/>
<line y1="-0.5" x2="12" y2="-0.5" transform="matrix(1.31134e-07 -1 -1 -1.31134e-07 123 793)" stroke="white" stroke-opacity="0.05"/>
<line y1="-0.5" x2="3" y2="-0.5" transform="matrix(-4.37117e-08 -1 -1 4.37117e-08 113 784)" stroke="white" stroke-opacity="0.05"/>
<line y1="-0.5" x2="14" y2="-0.5" transform="matrix(1.31134e-07 -1 -1 -1.31134e-07 103 795)" stroke="white" stroke-opacity="0.05"/>
<line y1="-0.5" x2="8" y2="-0.5" transform="matrix(4.37114e-08 -1 -1 -4.37114e-08 331 789)" stroke="white" stroke-opacity="0.05"/>
<line y1="-0.5" x2="14" y2="-0.5" transform="matrix(-4.37115e-08 -1 -1 4.37115e-08 321 795)" stroke="white" stroke-opacity="0.05"/>
<line y1="-0.5" x2="5" y2="-0.5" transform="matrix(-4.37114e-08 -1 -1 4.37114e-08 311 786)" stroke="white" stroke-opacity="0.05"/>
<line y1="-0.5" x2="12" y2="-0.5" transform="matrix(1.31134e-07 -1 -1 -1.31134e-07 301 793)" stroke="white" stroke-opacity="0.05"/>
<line y1="-0.5" x2="3" y2="-0.5" transform="matrix(-4.37117e-08 -1 -1 4.37117e-08 291 784)" stroke="white" stroke-opacity="0.05"/>
<line y1="-0.5" x2="14" y2="-0.5" transform="matrix(1.31134e-07 -1 -1 -1.31134e-07 281 795)" stroke="white" stroke-opacity="0.05"/>
<line y1="-0.5" x2="8" y2="-0.5" transform="matrix(4.37114e-08 -1 -1 -4.37114e-08 213 789)" stroke="white" stroke-opacity="0.05"/>
<line y1="-0.5" x2="14" y2="-0.5" transform="matrix(-4.37115e-08 -1 -1 4.37115e-08 203 795)" stroke="white" stroke-opacity="0.05"/>
<line y1="-0.5" x2="5" y2="-0.5" transform="matrix(-4.37114e-08 -1 -1 4.37114e-08 193 786)" stroke="white" stroke-opacity="0.05"/>
<line y1="-0.5" x2="12" y2="-0.5" transform="matrix(1.31134e-07 -1 -1 -1.31134e-07 183 793)" stroke="white" stroke-opacity="0.05"/>
<line y1="-0.5" x2="3" y2="-0.5" transform="matrix(-4.37117e-08 -1 -1 4.37117e-08 173 784)" stroke="white" stroke-opacity="0.05"/>
<line y1="-0.5" x2="14" y2="-0.5" transform="matrix(1.31134e-07 -1 -1 -1.31134e-07 163 795)" stroke="white" stroke-opacity="0.05"/>
<line y1="-0.5" x2="8" y2="-0.5" transform="matrix(4.37114e-08 -1 -1 -4.37114e-08 391 789)" stroke="white" stroke-opacity="0.05"/>
<line y1="-0.5" x2="14" y2="-0.5" transform="matrix(-4.37115e-08 -1 -1 4.37115e-08 381 795)" stroke="white" stroke-opacity="0.05"/>
<line y1="-0.5" x2="5" y2="-0.5" transform="matrix(-4.37114e-08 -1 -1 4.37114e-08 371 786)" stroke="white" stroke-opacity="0.05"/>
<line y1="-0.5" x2="12" y2="-0.5" transform="matrix(1.31134e-07 -1 -1 -1.31134e-07 361 793)" stroke="white" stroke-opacity="0.05"/>
<line y1="-0.5" x2="3" y2="-0.5" transform="matrix(-4.37117e-08 -1 -1 4.37117e-08 351 784)" stroke="white" stroke-opacity="0.05"/>
<line y1="-0.5" x2="14" y2="-0.5" transform="matrix(1.31134e-07 -1 -1 -1.31134e-07 341 795)" stroke="white" stroke-opacity="0.05"/>
<line x1="1704.5" y1="762" x2="1704.5" y2="770" stroke="white" stroke-opacity="0.05"/>
<line x1="1694.5" y1="756" x2="1694.5" y2="770" stroke="white" stroke-opacity="0.05"/>
<line x1="1684.5" y1="765" x2="1684.5" y2="770" stroke="white" stroke-opacity="0.05"/>
<line x1="1674.5" y1="758" x2="1674.5" y2="770" stroke="white" stroke-opacity="0.05"/>
<line x1="1664.5" y1="767" x2="1664.5" y2="770" stroke="white" stroke-opacity="0.05"/>
<line x1="1654.5" y1="756" x2="1654.5" y2="770" stroke="white" stroke-opacity="0.05"/>
<line x1="1586.5" y1="762" x2="1586.5" y2="770" stroke="white" stroke-opacity="0.05"/>
<line x1="1576.5" y1="756" x2="1576.5" y2="770" stroke="white" stroke-opacity="0.05"/>
<line x1="1566.5" y1="765" x2="1566.5" y2="770" stroke="white" stroke-opacity="0.05"/>
<line x1="1556.5" y1="758" x2="1556.5" y2="770" stroke="white" stroke-opacity="0.05"/>
<line x1="1546.5" y1="767" x2="1546.5" y2="770" stroke="white" stroke-opacity="0.05"/>
<line x1="1536.5" y1="756" x2="1536.5" y2="770" stroke="white" stroke-opacity="0.05"/>
<line x1="1764.5" y1="762" x2="1764.5" y2="770" stroke="white" stroke-opacity="0.05"/>
<line x1="1754.5" y1="756" x2="1754.5" y2="770" stroke="white" stroke-opacity="0.05"/>
<line x1="1744.5" y1="765" x2="1744.5" y2="770" stroke="white" stroke-opacity="0.05"/>
<line x1="1734.5" y1="758" x2="1734.5" y2="770" stroke="white" stroke-opacity="0.05"/>
<line x1="1724.5" y1="767" x2="1724.5" y2="770" stroke="white" stroke-opacity="0.05"/>
<line x1="1714.5" y1="756" x2="1714.5" y2="770" stroke="white" stroke-opacity="0.05"/>
<line x1="1646.5" y1="762" x2="1646.5" y2="770" stroke="white" stroke-opacity="0.05"/>
<line x1="1636.5" y1="756" x2="1636.5" y2="770" stroke="white" stroke-opacity="0.05"/>
<line x1="1626.5" y1="765" x2="1626.5" y2="770" stroke="white" stroke-opacity="0.05"/>
<line x1="1616.5" y1="758" x2="1616.5" y2="770" stroke="white" stroke-opacity="0.05"/>
<line x1="1606.5" y1="767" x2="1606.5" y2="770" stroke="white" stroke-opacity="0.05"/>
<line x1="1596.5" y1="756" x2="1596.5" y2="770" stroke="white" stroke-opacity="0.05"/>
<line x1="1824.5" y1="762" x2="1824.5" y2="770" stroke="white" stroke-opacity="0.05"/>
<line x1="1814.5" y1="756" x2="1814.5" y2="770" stroke="white" stroke-opacity="0.05"/>
<line x1="1804.5" y1="765" x2="1804.5" y2="770" stroke="white" stroke-opacity="0.05"/>
<line x1="1794.5" y1="758" x2="1794.5" y2="770" stroke="white" stroke-opacity="0.05"/>
<line x1="1784.5" y1="767" x2="1784.5" y2="770" stroke="white" stroke-opacity="0.05"/>
<line x1="1774.5" y1="756" x2="1774.5" y2="770" stroke="white" stroke-opacity="0.05"/>
<line y1="-0.5" x2="8" y2="-0.5" transform="matrix(4.37114e-08 -1 -1 -4.37114e-08 1704 789)" stroke="white" stroke-opacity="0.05"/>
<line y1="-0.5" x2="14" y2="-0.5" transform="matrix(-4.37115e-08 -1 -1 4.37115e-08 1694 795)" stroke="white" stroke-opacity="0.05"/>
<line y1="-0.5" x2="5" y2="-0.5" transform="matrix(-4.37114e-08 -1 -1 4.37114e-08 1684 786)" stroke="white" stroke-opacity="0.05"/>
<line y1="-0.5" x2="12" y2="-0.5" transform="matrix(1.31134e-07 -1 -1 -1.31134e-07 1674 793)" stroke="white" stroke-opacity="0.05"/>
<line y1="-0.5" x2="3" y2="-0.5" transform="matrix(-4.37117e-08 -1 -1 4.37117e-08 1664 784)" stroke="white" stroke-opacity="0.05"/>
<line y1="-0.5" x2="14" y2="-0.5" transform="matrix(1.31134e-07 -1 -1 -1.31134e-07 1654 795)" stroke="white" stroke-opacity="0.05"/>
<line y1="-0.5" x2="8" y2="-0.5" transform="matrix(4.37114e-08 -1 -1 -4.37114e-08 1586 789)" stroke="white" stroke-opacity="0.05"/>
<line y1="-0.5" x2="14" y2="-0.5" transform="matrix(-4.37115e-08 -1 -1 4.37115e-08 1576 795)" stroke="white" stroke-opacity="0.05"/>
<line y1="-0.5" x2="5" y2="-0.5" transform="matrix(-4.37114e-08 -1 -1 4.37114e-08 1566 786)" stroke="white" stroke-opacity="0.05"/>
<line y1="-0.5" x2="12" y2="-0.5" transform="matrix(1.31134e-07 -1 -1 -1.31134e-07 1556 793)" stroke="white" stroke-opacity="0.05"/>
<line y1="-0.5" x2="3" y2="-0.5" transform="matrix(-4.37117e-08 -1 -1 4.37117e-08 1546 784)" stroke="white" stroke-opacity="0.05"/>
<line y1="-0.5" x2="14" y2="-0.5" transform="matrix(1.31134e-07 -1 -1 -1.31134e-07 1536 795)" stroke="white" stroke-opacity="0.05"/>
<line y1="-0.5" x2="8" y2="-0.5" transform="matrix(4.37114e-08 -1 -1 -4.37114e-08 1764 789)" stroke="white" stroke-opacity="0.05"/>
<line y1="-0.5" x2="14" y2="-0.5" transform="matrix(-4.37115e-08 -1 -1 4.37115e-08 1754 795)" stroke="white" stroke-opacity="0.05"/>
<line y1="-0.5" x2="5" y2="-0.5" transform="matrix(-4.37114e-08 -1 -1 4.37114e-08 1744 786)" stroke="white" stroke-opacity="0.05"/>
<line y1="-0.5" x2="12" y2="-0.5" transform="matrix(1.31134e-07 -1 -1 -1.31134e-07 1734 793)" stroke="white" stroke-opacity="0.05"/>
<line y1="-0.5" x2="3" y2="-0.5" transform="matrix(-4.37117e-08 -1 -1 4.37117e-08 1724 784)" stroke="white" stroke-opacity="0.05"/>
<line y1="-0.5" x2="14" y2="-0.5" transform="matrix(1.31134e-07 -1 -1 -1.31134e-07 1714 795)" stroke="white" stroke-opacity="0.05"/>
<line y1="-0.5" x2="8" y2="-0.5" transform="matrix(4.37114e-08 -1 -1 -4.37114e-08 1646 789)" stroke="white" stroke-opacity="0.05"/>
<line y1="-0.5" x2="14" y2="-0.5" transform="matrix(-4.37115e-08 -1 -1 4.37115e-08 1636 795)" stroke="white" stroke-opacity="0.05"/>
<line y1="-0.5" x2="5" y2="-0.5" transform="matrix(-4.37114e-08 -1 -1 4.37114e-08 1626 786)" stroke="white" stroke-opacity="0.05"/>
<line y1="-0.5" x2="12" y2="-0.5" transform="matrix(1.31134e-07 -1 -1 -1.31134e-07 1616 793)" stroke="white" stroke-opacity="0.05"/>
<line y1="-0.5" x2="3" y2="-0.5" transform="matrix(-4.37117e-08 -1 -1 4.37117e-08 1606 784)" stroke="white" stroke-opacity="0.05"/>
<line y1="-0.5" x2="14" y2="-0.5" transform="matrix(1.31134e-07 -1 -1 -1.31134e-07 1596 795)" stroke="white" stroke-opacity="0.05"/>
<line y1="-0.5" x2="8" y2="-0.5" transform="matrix(4.37114e-08 -1 -1 -4.37114e-08 1824 789)" stroke="white" stroke-opacity="0.05"/>
<line y1="-0.5" x2="14" y2="-0.5" transform="matrix(-4.37115e-08 -1 -1 4.37115e-08 1814 795)" stroke="white" stroke-opacity="0.05"/>
<line y1="-0.5" x2="5" y2="-0.5" transform="matrix(-4.37114e-08 -1 -1 4.37114e-08 1804 786)" stroke="white" stroke-opacity="0.05"/>
<line y1="-0.5" x2="12" y2="-0.5" transform="matrix(1.31134e-07 -1 -1 -1.31134e-07 1794 793)" stroke="white" stroke-opacity="0.05"/>
<line y1="-0.5" x2="3" y2="-0.5" transform="matrix(-4.37117e-08 -1 -1 4.37117e-08 1784 784)" stroke="white" stroke-opacity="0.05"/>
<line y1="-0.5" x2="14" y2="-0.5" transform="matrix(1.31134e-07 -1 -1 -1.31134e-07 1774 795)" stroke="white" stroke-opacity="0.05"/>
<circle cx="960" cy="787" r="214.5" stroke="#767676" stroke-opacity="0.1"/>
<line x1="959.5" y1="248" x2="959.5" y2="572" stroke="#767676" stroke-opacity="0.1"/>
</svg>
