<svg width="375" height="2009" viewBox="0 0 375 2009" fill="none" xmlns="http://www.w3.org/2000/svg">
<line y1="6.5" x2="375" y2="6.5" stroke="#767676" stroke-opacity="0.05"/>
<line y1="17.5" x2="375" y2="17.5" stroke="#767676" stroke-opacity="0.05"/>
<line y1="28.5" x2="375" y2="28.5" stroke="#767676" stroke-opacity="0.05"/>
<line y1="39.5" x2="375" y2="39.5" stroke="#767676" stroke-opacity="0.05"/>
<line y1="50.5" x2="375" y2="50.5" stroke="#767676" stroke-opacity="0.05"/>
<line y1="61.5" x2="375" y2="61.5" stroke="#767676" stroke-opacity="0.05"/>
<line y1="72.5" x2="375" y2="72.5" stroke="#767676" stroke-opacity="0.05"/>
<line y1="83.5" x2="375" y2="83.5" stroke="#767676" stroke-opacity="0.05"/>
<line y1="94.5" x2="375" y2="94.5" stroke="#767676" stroke-opacity="0.05"/>
<line y1="105.5" x2="375" y2="105.5" stroke="#767676" stroke-opacity="0.05"/>
<line y1="116.5" x2="375" y2="116.5" stroke="#767676" stroke-opacity="0.05"/>
<line y1="127.5" x2="375" y2="127.5" stroke="#767676" stroke-opacity="0.05"/>
<line y1="138.5" x2="375" y2="138.5" stroke="#767676" stroke-opacity="0.05"/>
<line y1="149.5" x2="375" y2="149.5" stroke="#767676" stroke-opacity="0.05"/>
<line y1="160.5" x2="375" y2="160.5" stroke="#767676" stroke-opacity="0.05"/>
<line y1="171.5" x2="375" y2="171.5" stroke="#767676" stroke-opacity="0.05"/>
<line y1="182.5" x2="375" y2="182.5" stroke="#767676" stroke-opacity="0.05"/>
<line y1="193.5" x2="375" y2="193.5" stroke="#767676" stroke-opacity="0.05"/>
<line y1="204.5" x2="375" y2="204.5" stroke="#767676" stroke-opacity="0.05"/>
<line y1="215.5" x2="375" y2="215.5" stroke="#767676" stroke-opacity="0.05"/>
<line y1="226.5" x2="375" y2="226.5" stroke="#767676" stroke-opacity="0.05"/>
<line y1="237.5" x2="375" y2="237.5" stroke="#767676" stroke-opacity="0.05"/>
<line y1="248.5" x2="375" y2="248.5" stroke="#767676" stroke-opacity="0.05"/>
<line y1="259.5" x2="375" y2="259.5" stroke="#767676" stroke-opacity="0.05"/>
<line y1="270.5" x2="375" y2="270.5" stroke="#767676" stroke-opacity="0.05"/>
<line y1="281.5" x2="375" y2="281.5" stroke="#767676" stroke-opacity="0.05"/>
<line y1="292.5" x2="375" y2="292.5" stroke="#767676" stroke-opacity="0.05"/>
<line y1="303.5" x2="375" y2="303.5" stroke="#767676" stroke-opacity="0.05"/>
<line y1="314.5" x2="375" y2="314.5" stroke="#767676" stroke-opacity="0.05"/>
<line y1="325.5" x2="375" y2="325.5" stroke="#767676" stroke-opacity="0.05"/>
<line y1="336.5" x2="375" y2="336.5" stroke="#767676" stroke-opacity="0.05"/>
<line y1="347.5" x2="375" y2="347.5" stroke="#767676" stroke-opacity="0.05"/>
<line y1="358.5" x2="375" y2="358.5" stroke="#767676" stroke-opacity="0.05"/>
<line y1="369.5" x2="375" y2="369.5" stroke="#767676" stroke-opacity="0.05"/>
<line y1="380.5" x2="375" y2="380.5" stroke="#767676" stroke-opacity="0.05"/>
<line y1="391.5" x2="375" y2="391.5" stroke="#767676" stroke-opacity="0.05"/>
<line y1="402.5" x2="375" y2="402.5" stroke="#767676" stroke-opacity="0.05"/>
<line y1="413.5" x2="375" y2="413.5" stroke="#767676" stroke-opacity="0.05"/>
<line y1="424.5" x2="375" y2="424.5" stroke="#767676" stroke-opacity="0.05"/>
<line y1="435.5" x2="375" y2="435.5" stroke="#767676" stroke-opacity="0.05"/>
<line y1="446.5" x2="375" y2="446.5" stroke="#767676" stroke-opacity="0.05"/>
<line y1="457.5" x2="375" y2="457.5" stroke="#767676" stroke-opacity="0.05"/>
<line y1="468.5" x2="375" y2="468.5" stroke="#767676" stroke-opacity="0.05"/>
<line y1="479.5" x2="375" y2="479.5" stroke="#767676" stroke-opacity="0.05"/>
<line y1="490.5" x2="375" y2="490.5" stroke="#767676" stroke-opacity="0.05"/>
<line y1="501.5" x2="375" y2="501.5" stroke="#767676" stroke-opacity="0.05"/>
<line y1="512.5" x2="375" y2="512.5" stroke="#767676" stroke-opacity="0.05"/>
<line y1="523.5" x2="375" y2="523.5" stroke="#767676" stroke-opacity="0.05"/>
<line y1="534.5" x2="375" y2="534.5" stroke="#767676" stroke-opacity="0.05"/>
<line y1="545.5" x2="375" y2="545.5" stroke="#767676" stroke-opacity="0.05"/>
<line y1="556.5" x2="375" y2="556.5" stroke="#767676" stroke-opacity="0.05"/>
<line y1="567.5" x2="375" y2="567.5" stroke="#767676" stroke-opacity="0.05"/>
<line y1="578.5" x2="375" y2="578.5" stroke="#767676" stroke-opacity="0.05"/>
<line y1="589.5" x2="375" y2="589.5" stroke="#767676" stroke-opacity="0.05"/>
<line y1="600.5" x2="375" y2="600.5" stroke="#767676" stroke-opacity="0.05"/>
<line y1="611.5" x2="375" y2="611.5" stroke="#767676" stroke-opacity="0.05"/>
<line y1="622.5" x2="375" y2="622.5" stroke="#767676" stroke-opacity="0.05"/>
<line y1="633.5" x2="375" y2="633.5" stroke="#767676" stroke-opacity="0.05"/>
<line y1="644.5" x2="375" y2="644.5" stroke="#767676" stroke-opacity="0.05"/>
<line y1="655.5" x2="375" y2="655.5" stroke="#767676" stroke-opacity="0.05"/>
<line y1="666.5" x2="375" y2="666.5" stroke="#767676" stroke-opacity="0.05"/>
<line y1="677.5" x2="375" y2="677.5" stroke="#767676" stroke-opacity="0.05"/>
<line y1="688.5" x2="375" y2="688.5" stroke="#767676" stroke-opacity="0.05"/>
<line y1="699.5" x2="375" y2="699.5" stroke="#767676" stroke-opacity="0.05"/>
<line y1="710.5" x2="375" y2="710.5" stroke="#767676" stroke-opacity="0.05"/>
<line y1="721.5" x2="375" y2="721.5" stroke="#767676" stroke-opacity="0.05"/>
<line y1="732.5" x2="375" y2="732.5" stroke="#767676" stroke-opacity="0.05"/>
<line y1="743.5" x2="375" y2="743.5" stroke="#767676" stroke-opacity="0.05"/>
<line y1="754.5" x2="375" y2="754.5" stroke="#767676" stroke-opacity="0.05"/>
<line y1="765.5" x2="375" y2="765.5" stroke="#767676" stroke-opacity="0.05"/>
<line y1="776.5" x2="375" y2="776.5" stroke="#767676" stroke-opacity="0.05"/>
<line y1="787.5" x2="375" y2="787.5" stroke="#767676" stroke-opacity="0.05"/>
<line y1="798.5" x2="375" y2="798.5" stroke="#767676" stroke-opacity="0.05"/>
<line y1="809.5" x2="375" y2="809.5" stroke="#767676" stroke-opacity="0.05"/>
<line y1="820.5" x2="375" y2="820.5" stroke="#767676" stroke-opacity="0.05"/>
<line y1="831.5" x2="375" y2="831.5" stroke="#767676" stroke-opacity="0.05"/>
<line y1="842.5" x2="375" y2="842.5" stroke="#767676" stroke-opacity="0.05"/>
<line y1="853.5" x2="375" y2="853.5" stroke="#767676" stroke-opacity="0.05"/>
<line y1="864.5" x2="375" y2="864.5" stroke="#767676" stroke-opacity="0.05"/>
<line y1="875.5" x2="375" y2="875.5" stroke="#767676" stroke-opacity="0.05"/>
<line y1="886.5" x2="375" y2="886.5" stroke="#767676" stroke-opacity="0.05"/>
<line y1="897.5" x2="375" y2="897.5" stroke="#767676" stroke-opacity="0.05"/>
<line y1="908.5" x2="375" y2="908.5" stroke="#767676" stroke-opacity="0.05"/>
<line y1="919.5" x2="375" y2="919.5" stroke="#767676" stroke-opacity="0.05"/>
<line y1="930.5" x2="375" y2="930.5" stroke="#767676" stroke-opacity="0.05"/>
<line y1="941.5" x2="375" y2="941.5" stroke="#767676" stroke-opacity="0.05"/>
<line y1="952.5" x2="375" y2="952.5" stroke="#767676" stroke-opacity="0.05"/>
<line y1="963.5" x2="375" y2="963.5" stroke="#767676" stroke-opacity="0.05"/>
<line y1="974.5" x2="375" y2="974.5" stroke="#767676" stroke-opacity="0.05"/>
<line y1="985.5" x2="375" y2="985.5" stroke="#767676" stroke-opacity="0.05"/>
<line y1="996.5" x2="375" y2="996.5" stroke="#767676" stroke-opacity="0.05"/>
<line y1="1007.5" x2="375" y2="1007.5" stroke="#767676" stroke-opacity="0.05"/>
<line y1="1018.5" x2="375" y2="1018.5" stroke="#767676" stroke-opacity="0.05"/>
<line y1="1029.5" x2="375" y2="1029.5" stroke="#767676" stroke-opacity="0.05"/>
<line y1="1040.5" x2="375" y2="1040.5" stroke="#767676" stroke-opacity="0.05"/>
<line y1="1051.5" x2="375" y2="1051.5" stroke="#767676" stroke-opacity="0.05"/>
<line y1="1062.5" x2="375" y2="1062.5" stroke="#767676" stroke-opacity="0.05"/>
<line y1="1073.5" x2="375" y2="1073.5" stroke="#767676" stroke-opacity="0.05"/>
<line y1="1084.5" x2="375" y2="1084.5" stroke="#767676" stroke-opacity="0.05"/>
<line y1="1095.5" x2="375" y2="1095.5" stroke="#767676" stroke-opacity="0.05"/>
<line y1="1106.5" x2="375" y2="1106.5" stroke="#767676" stroke-opacity="0.05"/>
<line y1="1117.5" x2="375" y2="1117.5" stroke="#767676" stroke-opacity="0.05"/>
<line y1="1128.5" x2="375" y2="1128.5" stroke="#767676" stroke-opacity="0.05"/>
<line y1="1139.5" x2="375" y2="1139.5" stroke="#767676" stroke-opacity="0.05"/>
<line y1="1150.5" x2="375" y2="1150.5" stroke="#767676" stroke-opacity="0.05"/>
<line y1="1161.5" x2="375" y2="1161.5" stroke="#767676" stroke-opacity="0.05"/>
<line y1="1172.5" x2="375" y2="1172.5" stroke="#767676" stroke-opacity="0.05"/>
<line y1="1183.5" x2="375" y2="1183.5" stroke="#767676" stroke-opacity="0.05"/>
<line y1="1194.5" x2="375" y2="1194.5" stroke="#767676" stroke-opacity="0.05"/>
<line y1="1205.5" x2="375" y2="1205.5" stroke="#767676" stroke-opacity="0.05"/>
<line y1="1216.5" x2="375" y2="1216.5" stroke="#767676" stroke-opacity="0.05"/>
<line y1="1227.5" x2="375" y2="1227.5" stroke="#767676" stroke-opacity="0.05"/>
<line y1="1238.5" x2="375" y2="1238.5" stroke="#767676" stroke-opacity="0.05"/>
<line y1="1249.5" x2="375" y2="1249.5" stroke="#767676" stroke-opacity="0.05"/>
<line y1="1260.5" x2="375" y2="1260.5" stroke="#767676" stroke-opacity="0.05"/>
<line y1="1271.5" x2="375" y2="1271.5" stroke="#767676" stroke-opacity="0.05"/>
<line y1="1282.5" x2="375" y2="1282.5" stroke="#767676" stroke-opacity="0.05"/>
<line y1="1293.5" x2="375" y2="1293.5" stroke="#767676" stroke-opacity="0.05"/>
<line y1="1304.5" x2="375" y2="1304.5" stroke="#767676" stroke-opacity="0.05"/>
<line y1="1315.5" x2="375" y2="1315.5" stroke="#767676" stroke-opacity="0.05"/>
<line y1="1326.5" x2="375" y2="1326.5" stroke="#767676" stroke-opacity="0.05"/>
<line y1="1337.5" x2="375" y2="1337.5" stroke="#767676" stroke-opacity="0.05"/>
<line y1="1348.5" x2="375" y2="1348.5" stroke="#767676" stroke-opacity="0.05"/>
<line y1="1359.5" x2="375" y2="1359.5" stroke="#767676" stroke-opacity="0.05"/>
<line y1="1370.5" x2="375" y2="1370.5" stroke="#767676" stroke-opacity="0.05"/>
<line y1="1381.5" x2="375" y2="1381.5" stroke="#767676" stroke-opacity="0.05"/>
<line y1="1392.5" x2="375" y2="1392.5" stroke="#767676" stroke-opacity="0.05"/>
<line y1="1403.5" x2="375" y2="1403.5" stroke="#767676" stroke-opacity="0.05"/>
<line y1="1414.5" x2="375" y2="1414.5" stroke="#767676" stroke-opacity="0.05"/>
<line y1="1425.5" x2="375" y2="1425.5" stroke="#767676" stroke-opacity="0.05"/>
<line y1="1436.5" x2="375" y2="1436.5" stroke="#767676" stroke-opacity="0.05"/>
<line y1="1447.5" x2="375" y2="1447.5" stroke="#767676" stroke-opacity="0.05"/>
<line y1="1458.5" x2="375" y2="1458.5" stroke="#767676" stroke-opacity="0.05"/>
<line y1="1469.5" x2="375" y2="1469.5" stroke="#767676" stroke-opacity="0.05"/>
<line y1="1480.5" x2="375" y2="1480.5" stroke="#767676" stroke-opacity="0.05"/>
<line y1="1491.5" x2="375" y2="1491.5" stroke="#767676" stroke-opacity="0.05"/>
<line y1="1502.5" x2="375" y2="1502.5" stroke="#767676" stroke-opacity="0.05"/>
<line y1="1513.5" x2="375" y2="1513.5" stroke="#767676" stroke-opacity="0.05"/>
<line y1="1524.5" x2="375" y2="1524.5" stroke="#767676" stroke-opacity="0.05"/>
<line y1="1535.5" x2="375" y2="1535.5" stroke="#767676" stroke-opacity="0.05"/>
<line y1="1546.5" x2="375" y2="1546.5" stroke="#767676" stroke-opacity="0.05"/>
<line y1="1557.5" x2="375" y2="1557.5" stroke="#767676" stroke-opacity="0.05"/>
<line y1="1568.5" x2="375" y2="1568.5" stroke="#767676" stroke-opacity="0.05"/>
<line y1="1579.5" x2="375" y2="1579.5" stroke="#767676" stroke-opacity="0.05"/>
<line y1="1590.5" x2="375" y2="1590.5" stroke="#767676" stroke-opacity="0.05"/>
<line y1="1601.5" x2="375" y2="1601.5" stroke="#767676" stroke-opacity="0.05"/>
<line y1="1612.5" x2="375" y2="1612.5" stroke="#767676" stroke-opacity="0.05"/>
<line y1="1623.5" x2="375" y2="1623.5" stroke="#767676" stroke-opacity="0.05"/>
<line y1="1634.5" x2="375" y2="1634.5" stroke="#767676" stroke-opacity="0.05"/>
<line y1="1645.5" x2="375" y2="1645.5" stroke="#767676" stroke-opacity="0.05"/>
<line y1="1656.5" x2="375" y2="1656.5" stroke="#767676" stroke-opacity="0.05"/>
<line y1="1667.5" x2="375" y2="1667.5" stroke="#767676" stroke-opacity="0.05"/>
<line y1="1678.5" x2="375" y2="1678.5" stroke="#767676" stroke-opacity="0.05"/>
<line y1="1689.5" x2="375" y2="1689.5" stroke="#767676" stroke-opacity="0.05"/>
<line y1="1700.5" x2="375" y2="1700.5" stroke="#767676" stroke-opacity="0.05"/>
<line y1="1711.5" x2="375" y2="1711.5" stroke="#767676" stroke-opacity="0.05"/>
<line y1="1722.5" x2="375" y2="1722.5" stroke="#767676" stroke-opacity="0.05"/>
<line y1="1733.5" x2="375" y2="1733.5" stroke="#767676" stroke-opacity="0.05"/>
<line y1="1744.5" x2="375" y2="1744.5" stroke="#767676" stroke-opacity="0.05"/>
<line y1="1755.5" x2="375" y2="1755.5" stroke="#767676" stroke-opacity="0.05"/>
<line y1="1766.5" x2="375" y2="1766.5" stroke="#767676" stroke-opacity="0.05"/>
<line y1="1777.5" x2="375" y2="1777.5" stroke="#767676" stroke-opacity="0.05"/>
<line y1="1788.5" x2="375" y2="1788.5" stroke="#767676" stroke-opacity="0.05"/>
<line y1="1799.5" x2="375" y2="1799.5" stroke="#767676" stroke-opacity="0.05"/>
<line y1="1810.5" x2="375" y2="1810.5" stroke="#767676" stroke-opacity="0.05"/>
<line y1="1821.5" x2="375" y2="1821.5" stroke="#767676" stroke-opacity="0.05"/>
<line y1="1832.5" x2="375" y2="1832.5" stroke="#767676" stroke-opacity="0.05"/>
<line y1="1843.5" x2="375" y2="1843.5" stroke="#767676" stroke-opacity="0.05"/>
<line y1="1854.5" x2="375" y2="1854.5" stroke="#767676" stroke-opacity="0.05"/>
<line y1="1865.5" x2="375" y2="1865.5" stroke="#767676" stroke-opacity="0.05"/>
<line y1="1876.5" x2="375" y2="1876.5" stroke="#767676" stroke-opacity="0.05"/>
<line y1="1887.5" x2="375" y2="1887.5" stroke="#767676" stroke-opacity="0.05"/>
<line y1="1898.5" x2="375" y2="1898.5" stroke="#767676" stroke-opacity="0.05"/>
<line y1="1909.5" x2="375" y2="1909.5" stroke="#767676" stroke-opacity="0.05"/>
<line y1="1964.5" x2="375" y2="1964.5" stroke="#767676" stroke-opacity="0.05"/>
<line y1="1920.5" x2="375" y2="1920.5" stroke="#767676" stroke-opacity="0.05"/>
<line y1="1975.5" x2="375" y2="1975.5" stroke="#767676" stroke-opacity="0.05"/>
<line y1="1931.5" x2="375" y2="1931.5" stroke="#767676" stroke-opacity="0.05"/>
<line y1="1986.5" x2="375" y2="1986.5" stroke="#767676" stroke-opacity="0.05"/>
<line y1="1942.5" x2="375" y2="1942.5" stroke="#767676" stroke-opacity="0.05"/>
<line y1="1997.5" x2="375" y2="1997.5" stroke="#767676" stroke-opacity="0.05"/>
<line y1="1953.5" x2="375" y2="1953.5" stroke="#767676" stroke-opacity="0.05"/>
<line y1="2008.5" x2="375" y2="2008.5" stroke="#767676" stroke-opacity="0.05"/>
<line x1="22.5" y1="-2.18557e-08" x2="22.5001" y2="2009" stroke="#767676" stroke-opacity="0.08"/>
<line x1="120.5" y1="-2.18557e-08" x2="120.5" y2="2009" stroke="#767676" stroke-opacity="0.08"/>
<line x1="198.5" y1="-2.18557e-08" x2="198.5" y2="2009" stroke="#767676" stroke-opacity="0.08"/>
<line x1="277.5" y1="-2.18557e-08" x2="277.5" y2="2009" stroke="#767676" stroke-opacity="0.08"/>
<line x1="353.5" y1="-2.18557e-08" x2="353.5" y2="2009" stroke="#767676" stroke-opacity="0.08"/>
<circle cx="188" cy="1456" r="60.5" stroke="#767676" stroke-opacity="0.1"/>
<line x1="4.37114e-08" y1="1458.5" x2="128" y2="1458.5" stroke="#767676" stroke-opacity="0.1"/>
<line x1="248" y1="1458.5" x2="375" y2="1458.5" stroke="#767676" stroke-opacity="0.1"/>
<line x1="44.5" y1="1448" x2="44.5" y2="1456" stroke="white" stroke-opacity="0.1"/>
<line x1="52.5" y1="1445" x2="52.5" y2="1456" stroke="white" stroke-opacity="0.1"/>
<line x1="60.5" y1="1450" x2="60.5" y2="1456" stroke="white" stroke-opacity="0.1"/>
<line x1="68.5" y1="1446" x2="68.5" y2="1456" stroke="white" stroke-opacity="0.1"/>
<line x1="76.5" y1="1452" x2="76.5" y2="1456" stroke="white" stroke-opacity="0.1"/>
<line x1="84.5" y1="1448" x2="84.5" y2="1456" stroke="white" stroke-opacity="0.1"/>
<line y1="-0.5" x2="8" y2="-0.5" transform="matrix(4.37114e-08 -1 -1 -4.37114e-08 44 1470)" stroke="white" stroke-opacity="0.1"/>
<line y1="-0.5" x2="11" y2="-0.5" transform="matrix(4.37114e-08 -1 -1 -4.37114e-08 52 1473)" stroke="white" stroke-opacity="0.1"/>
<line y1="-0.5" x2="6" y2="-0.5" transform="matrix(4.37114e-08 -1 -1 -4.37114e-08 60 1468)" stroke="white" stroke-opacity="0.1"/>
<line y1="-0.5" x2="10" y2="-0.5" transform="matrix(4.37114e-08 -1 -1 -4.37114e-08 68 1472)" stroke="white" stroke-opacity="0.1"/>
<line y1="-0.5" x2="4" y2="-0.5" transform="matrix(4.37114e-08 -1 -1 -4.37114e-08 76 1466)" stroke="white" stroke-opacity="0.1"/>
<line y1="-0.5" x2="8" y2="-0.5" transform="matrix(4.37114e-08 -1 -1 -4.37114e-08 84 1470)" stroke="white" stroke-opacity="0.1"/>
<line x1="291.5" y1="1448" x2="291.5" y2="1456" stroke="white" stroke-opacity="0.1"/>
<line x1="299.5" y1="1445" x2="299.5" y2="1456" stroke="white" stroke-opacity="0.1"/>
<line x1="307.5" y1="1450" x2="307.5" y2="1456" stroke="white" stroke-opacity="0.1"/>
<line x1="315.5" y1="1446" x2="315.5" y2="1456" stroke="white" stroke-opacity="0.1"/>
<line x1="323.5" y1="1452" x2="323.5" y2="1456" stroke="white" stroke-opacity="0.1"/>
<line x1="331.5" y1="1448" x2="331.5" y2="1456" stroke="white" stroke-opacity="0.1"/>
<line y1="-0.5" x2="8" y2="-0.5" transform="matrix(4.37114e-08 -1 -1 -4.37114e-08 291 1470)" stroke="white" stroke-opacity="0.1"/>
<line y1="-0.5" x2="11" y2="-0.5" transform="matrix(4.37114e-08 -1 -1 -4.37114e-08 299 1473)" stroke="white" stroke-opacity="0.1"/>
<line y1="-0.5" x2="6" y2="-0.5" transform="matrix(4.37114e-08 -1 -1 -4.37114e-08 307 1468)" stroke="white" stroke-opacity="0.1"/>
<line y1="-0.5" x2="10" y2="-0.5" transform="matrix(4.37114e-08 -1 -1 -4.37114e-08 315 1472)" stroke="white" stroke-opacity="0.1"/>
<line y1="-0.5" x2="4" y2="-0.5" transform="matrix(4.37114e-08 -1 -1 -4.37114e-08 323 1466)" stroke="white" stroke-opacity="0.1"/>
<line y1="-0.5" x2="8" y2="-0.5" transform="matrix(4.37114e-08 -1 -1 -4.37114e-08 331 1470)" stroke="white" stroke-opacity="0.1"/>
<circle cx="188" cy="477" r="60.5" stroke="#767676" stroke-opacity="0.1"/>
<line x1="4.37114e-08" y1="479.5" x2="128" y2="479.5" stroke="#767676" stroke-opacity="0.1"/>
<line x1="248" y1="479.5" x2="375" y2="479.5" stroke="#767676" stroke-opacity="0.1"/>
<line x1="44.5" y1="469" x2="44.5" y2="477" stroke="white" stroke-opacity="0.1"/>
<line x1="52.5" y1="466" x2="52.5" y2="477" stroke="white" stroke-opacity="0.1"/>
<line x1="60.5" y1="471" x2="60.5" y2="477" stroke="white" stroke-opacity="0.1"/>
<line x1="68.5" y1="467" x2="68.5" y2="477" stroke="white" stroke-opacity="0.1"/>
<line x1="76.5" y1="473" x2="76.5" y2="477" stroke="white" stroke-opacity="0.1"/>
<line x1="84.5" y1="469" x2="84.5" y2="477" stroke="white" stroke-opacity="0.1"/>
<line y1="-0.5" x2="8" y2="-0.5" transform="matrix(4.37114e-08 -1 -1 -4.37114e-08 44 491)" stroke="white" stroke-opacity="0.1"/>
<line y1="-0.5" x2="11" y2="-0.5" transform="matrix(4.37114e-08 -1 -1 -4.37114e-08 52 494)" stroke="white" stroke-opacity="0.1"/>
<line y1="-0.5" x2="6" y2="-0.5" transform="matrix(4.37114e-08 -1 -1 -4.37114e-08 60 489)" stroke="white" stroke-opacity="0.1"/>
<line y1="-0.5" x2="10" y2="-0.5" transform="matrix(4.37114e-08 -1 -1 -4.37114e-08 68 493)" stroke="white" stroke-opacity="0.1"/>
<line y1="-0.5" x2="4" y2="-0.5" transform="matrix(4.37114e-08 -1 -1 -4.37114e-08 76 487)" stroke="white" stroke-opacity="0.1"/>
<line y1="-0.5" x2="8" y2="-0.5" transform="matrix(4.37114e-08 -1 -1 -4.37114e-08 84 491)" stroke="white" stroke-opacity="0.1"/>
<line x1="291.5" y1="469" x2="291.5" y2="477" stroke="white" stroke-opacity="0.1"/>
<line x1="299.5" y1="466" x2="299.5" y2="477" stroke="white" stroke-opacity="0.1"/>
<line x1="307.5" y1="471" x2="307.5" y2="477" stroke="white" stroke-opacity="0.1"/>
<line x1="315.5" y1="467" x2="315.5" y2="477" stroke="white" stroke-opacity="0.1"/>
<line x1="323.5" y1="473" x2="323.5" y2="477" stroke="white" stroke-opacity="0.1"/>
<line x1="331.5" y1="469" x2="331.5" y2="477" stroke="white" stroke-opacity="0.1"/>
<line y1="-0.5" x2="8" y2="-0.5" transform="matrix(4.37114e-08 -1 -1 -4.37114e-08 291 491)" stroke="white" stroke-opacity="0.1"/>
<line y1="-0.5" x2="11" y2="-0.5" transform="matrix(4.37114e-08 -1 -1 -4.37114e-08 299 494)" stroke="white" stroke-opacity="0.1"/>
<line y1="-0.5" x2="6" y2="-0.5" transform="matrix(4.37114e-08 -1 -1 -4.37114e-08 307 489)" stroke="white" stroke-opacity="0.1"/>
<line y1="-0.5" x2="10" y2="-0.5" transform="matrix(4.37114e-08 -1 -1 -4.37114e-08 315 493)" stroke="white" stroke-opacity="0.1"/>
<line y1="-0.5" x2="4" y2="-0.5" transform="matrix(4.37114e-08 -1 -1 -4.37114e-08 323 487)" stroke="white" stroke-opacity="0.1"/>
<line y1="-0.5" x2="8" y2="-0.5" transform="matrix(4.37114e-08 -1 -1 -4.37114e-08 331 491)" stroke="white" stroke-opacity="0.1"/>
</svg>
