<svg width="1733" height="1000" viewBox="0 0 1733 1000" fill="none" xmlns="http://www.w3.org/2000/svg">
<line x1="853" y1="120.5" x2="861" y2="120.5" stroke="white" stroke-opacity="0.05"/>
<line x1="847" y1="130.5" x2="861" y2="130.5" stroke="white" stroke-opacity="0.05"/>
<line x1="856" y1="140.5" x2="861" y2="140.5" stroke="white" stroke-opacity="0.05"/>
<line x1="849" y1="150.5" x2="861" y2="150.5" stroke="white" stroke-opacity="0.05"/>
<line x1="853" y1="60.5" x2="861" y2="60.5" stroke="white" stroke-opacity="0.05"/>
<line x1="847" y1="70.5" x2="861" y2="70.5" stroke="white" stroke-opacity="0.05"/>
<line x1="856" y1="80.5" x2="861" y2="80.5" stroke="white" stroke-opacity="0.05"/>
<line x1="849" y1="90.5" x2="861" y2="90.5" stroke="white" stroke-opacity="0.05"/>
<line x1="858" y1="100.5" x2="861" y2="100.5" stroke="white" stroke-opacity="0.05"/>
<line x1="847" y1="110.5" x2="861" y2="110.5" stroke="white" stroke-opacity="0.05"/>
<line x1="853" y1="0.5" x2="861" y2="0.5" stroke="white" stroke-opacity="0.05"/>
<line x1="847" y1="10.5" x2="861" y2="10.5" stroke="white" stroke-opacity="0.05"/>
<line x1="856" y1="20.5" x2="861" y2="20.5" stroke="white" stroke-opacity="0.05"/>
<line x1="849" y1="30.5" x2="861" y2="30.5" stroke="white" stroke-opacity="0.05"/>
<line x1="858" y1="40.5" x2="861" y2="40.5" stroke="white" stroke-opacity="0.05"/>
<line x1="847" y1="50.5" x2="861" y2="50.5" stroke="white" stroke-opacity="0.05"/>
<line y1="-0.5" x2="8" y2="-0.5" transform="matrix(-1 0 0 1 880 121)" stroke="white" stroke-opacity="0.05"/>
<line y1="-0.5" x2="14" y2="-0.5" transform="matrix(-1 8.74228e-08 8.74228e-08 1 886 131)" stroke="white" stroke-opacity="0.05"/>
<line y1="-0.5" x2="5" y2="-0.5" transform="matrix(-1 8.74228e-08 8.74228e-08 1 877 141)" stroke="white" stroke-opacity="0.05"/>
<line y1="-0.5" x2="12" y2="-0.5" transform="matrix(-1 -8.74228e-08 -8.74228e-08 1 884 151)" stroke="white" stroke-opacity="0.05"/>
<line y1="-0.5" x2="8" y2="-0.5" transform="matrix(-1 0 0 1 880 61)" stroke="white" stroke-opacity="0.05"/>
<line y1="-0.5" x2="14" y2="-0.5" transform="matrix(-1 8.74228e-08 8.74228e-08 1 886 71)" stroke="white" stroke-opacity="0.05"/>
<line y1="-0.5" x2="5" y2="-0.5" transform="matrix(-1 8.74228e-08 8.74228e-08 1 877 81)" stroke="white" stroke-opacity="0.05"/>
<line y1="-0.5" x2="12" y2="-0.5" transform="matrix(-1 -8.74228e-08 -8.74228e-08 1 884 91)" stroke="white" stroke-opacity="0.05"/>
<line y1="-0.5" x2="3" y2="-0.5" transform="matrix(-1 8.74231e-08 8.74231e-08 1 875 101)" stroke="white" stroke-opacity="0.05"/>
<line y1="-0.5" x2="14" y2="-0.5" transform="matrix(-1 -8.74228e-08 -8.74228e-08 1 886 111)" stroke="white" stroke-opacity="0.05"/>
<line y1="-0.5" x2="8" y2="-0.5" transform="matrix(-1 0 0 1 880 1)" stroke="white" stroke-opacity="0.05"/>
<line y1="-0.5" x2="14" y2="-0.5" transform="matrix(-1 8.74228e-08 8.74228e-08 1 886 11)" stroke="white" stroke-opacity="0.05"/>
<line y1="-0.5" x2="5" y2="-0.5" transform="matrix(-1 8.74228e-08 8.74228e-08 1 877 21)" stroke="white" stroke-opacity="0.05"/>
<line y1="-0.5" x2="12" y2="-0.5" transform="matrix(-1 -8.74228e-08 -8.74228e-08 1 884 31)" stroke="white" stroke-opacity="0.05"/>
<line y1="-0.5" x2="3" y2="-0.5" transform="matrix(-1 8.74231e-08 8.74231e-08 1 875 41)" stroke="white" stroke-opacity="0.05"/>
<line y1="-0.5" x2="14" y2="-0.5" transform="matrix(-1 -8.74228e-08 -8.74228e-08 1 886 51)" stroke="white" stroke-opacity="0.05"/>
<line x1="853" y1="969.5" x2="861" y2="969.5" stroke="white" stroke-opacity="0.05"/>
<line x1="847" y1="979.5" x2="861" y2="979.5" stroke="white" stroke-opacity="0.05"/>
<line x1="856" y1="989.5" x2="861" y2="989.5" stroke="white" stroke-opacity="0.05"/>
<line x1="849" y1="999.5" x2="861" y2="999.5" stroke="white" stroke-opacity="0.05"/>
<line x1="853" y1="909.5" x2="861" y2="909.5" stroke="white" stroke-opacity="0.05"/>
<line x1="847" y1="919.5" x2="861" y2="919.5" stroke="white" stroke-opacity="0.05"/>
<line x1="856" y1="929.5" x2="861" y2="929.5" stroke="white" stroke-opacity="0.05"/>
<line x1="849" y1="939.5" x2="861" y2="939.5" stroke="white" stroke-opacity="0.05"/>
<line x1="858" y1="949.5" x2="861" y2="949.5" stroke="white" stroke-opacity="0.05"/>
<line x1="847" y1="959.5" x2="861" y2="959.5" stroke="white" stroke-opacity="0.05"/>
<line x1="853" y1="849.5" x2="861" y2="849.5" stroke="white" stroke-opacity="0.05"/>
<line x1="847" y1="859.5" x2="861" y2="859.5" stroke="white" stroke-opacity="0.05"/>
<line x1="856" y1="869.5" x2="861" y2="869.5" stroke="white" stroke-opacity="0.05"/>
<line x1="849" y1="879.5" x2="861" y2="879.5" stroke="white" stroke-opacity="0.05"/>
<line x1="858" y1="889.5" x2="861" y2="889.5" stroke="white" stroke-opacity="0.05"/>
<line x1="847" y1="899.5" x2="861" y2="899.5" stroke="white" stroke-opacity="0.05"/>
<line y1="-0.5" x2="8" y2="-0.5" transform="matrix(-1 0 0 1 880 970)" stroke="white" stroke-opacity="0.05"/>
<line y1="-0.5" x2="14" y2="-0.5" transform="matrix(-1 8.74228e-08 8.74228e-08 1 886 980)" stroke="white" stroke-opacity="0.05"/>
<line y1="-0.5" x2="5" y2="-0.5" transform="matrix(-1 8.74228e-08 8.74228e-08 1 877 990)" stroke="white" stroke-opacity="0.05"/>
<line y1="-0.5" x2="12" y2="-0.5" transform="matrix(-1 -8.74228e-08 -8.74228e-08 1 884 1000)" stroke="white" stroke-opacity="0.05"/>
<line y1="-0.5" x2="8" y2="-0.5" transform="matrix(-1 0 0 1 880 910)" stroke="white" stroke-opacity="0.05"/>
<line y1="-0.5" x2="14" y2="-0.5" transform="matrix(-1 8.74228e-08 8.74228e-08 1 886 920)" stroke="white" stroke-opacity="0.05"/>
<line y1="-0.5" x2="5" y2="-0.5" transform="matrix(-1 8.74228e-08 8.74228e-08 1 877 930)" stroke="white" stroke-opacity="0.05"/>
<line y1="-0.5" x2="12" y2="-0.5" transform="matrix(-1 -8.74228e-08 -8.74228e-08 1 884 940)" stroke="white" stroke-opacity="0.05"/>
<line y1="-0.5" x2="3" y2="-0.5" transform="matrix(-1 8.74231e-08 8.74231e-08 1 875 950)" stroke="white" stroke-opacity="0.05"/>
<line y1="-0.5" x2="14" y2="-0.5" transform="matrix(-1 -8.74228e-08 -8.74228e-08 1 886 960)" stroke="white" stroke-opacity="0.05"/>
<line y1="-0.5" x2="8" y2="-0.5" transform="matrix(-1 0 0 1 880 850)" stroke="white" stroke-opacity="0.05"/>
<line y1="-0.5" x2="14" y2="-0.5" transform="matrix(-1 8.74228e-08 8.74228e-08 1 886 860)" stroke="white" stroke-opacity="0.05"/>
<line y1="-0.5" x2="5" y2="-0.5" transform="matrix(-1 8.74228e-08 8.74228e-08 1 877 870)" stroke="white" stroke-opacity="0.05"/>
<line y1="-0.5" x2="12" y2="-0.5" transform="matrix(-1 -8.74228e-08 -8.74228e-08 1 884 880)" stroke="white" stroke-opacity="0.05"/>
<line y1="-0.5" x2="3" y2="-0.5" transform="matrix(-1 8.74231e-08 8.74231e-08 1 875 890)" stroke="white" stroke-opacity="0.05"/>
<line y1="-0.5" x2="14" y2="-0.5" transform="matrix(-1 -8.74228e-08 -8.74228e-08 1 886 900)" stroke="white" stroke-opacity="0.05"/>
<line x1="1612.5" y1="490" x2="1612.5" y2="498" stroke="white" stroke-opacity="0.05"/>
<line x1="1602.5" y1="484" x2="1602.5" y2="498" stroke="white" stroke-opacity="0.05"/>
<line x1="1592.5" y1="493" x2="1592.5" y2="498" stroke="white" stroke-opacity="0.05"/>
<line x1="1582.5" y1="486" x2="1582.5" y2="498" stroke="white" stroke-opacity="0.05"/>
<line x1="1572.5" y1="495" x2="1572.5" y2="498" stroke="white" stroke-opacity="0.05"/>
<line x1="1562.5" y1="484" x2="1562.5" y2="498" stroke="white" stroke-opacity="0.05"/>
<line x1="1494.5" y1="490" x2="1494.5" y2="498" stroke="white" stroke-opacity="0.05"/>
<line x1="1484.5" y1="484" x2="1484.5" y2="498" stroke="white" stroke-opacity="0.05"/>
<line x1="1474.5" y1="493" x2="1474.5" y2="498" stroke="white" stroke-opacity="0.05"/>
<line x1="1464.5" y1="486" x2="1464.5" y2="498" stroke="white" stroke-opacity="0.05"/>
<line x1="1454.5" y1="495" x2="1454.5" y2="498" stroke="white" stroke-opacity="0.05"/>
<line x1="1444.5" y1="484" x2="1444.5" y2="498" stroke="white" stroke-opacity="0.05"/>
<line x1="1672.5" y1="490" x2="1672.5" y2="498" stroke="white" stroke-opacity="0.05"/>
<line x1="1662.5" y1="484" x2="1662.5" y2="498" stroke="white" stroke-opacity="0.05"/>
<line x1="1652.5" y1="493" x2="1652.5" y2="498" stroke="white" stroke-opacity="0.05"/>
<line x1="1642.5" y1="486" x2="1642.5" y2="498" stroke="white" stroke-opacity="0.05"/>
<line x1="1632.5" y1="495" x2="1632.5" y2="498" stroke="white" stroke-opacity="0.05"/>
<line x1="1622.5" y1="484" x2="1622.5" y2="498" stroke="white" stroke-opacity="0.05"/>
<line x1="1554.5" y1="490" x2="1554.5" y2="498" stroke="white" stroke-opacity="0.05"/>
<line x1="1544.5" y1="484" x2="1544.5" y2="498" stroke="white" stroke-opacity="0.05"/>
<line x1="1534.5" y1="493" x2="1534.5" y2="498" stroke="white" stroke-opacity="0.05"/>
<line x1="1524.5" y1="486" x2="1524.5" y2="498" stroke="white" stroke-opacity="0.05"/>
<line x1="1514.5" y1="495" x2="1514.5" y2="498" stroke="white" stroke-opacity="0.05"/>
<line x1="1504.5" y1="484" x2="1504.5" y2="498" stroke="white" stroke-opacity="0.05"/>
<line x1="1732.5" y1="490" x2="1732.5" y2="498" stroke="white" stroke-opacity="0.05"/>
<line x1="1722.5" y1="484" x2="1722.5" y2="498" stroke="white" stroke-opacity="0.05"/>
<line x1="1712.5" y1="493" x2="1712.5" y2="498" stroke="white" stroke-opacity="0.05"/>
<line x1="1702.5" y1="486" x2="1702.5" y2="498" stroke="white" stroke-opacity="0.05"/>
<line x1="1692.5" y1="495" x2="1692.5" y2="498" stroke="white" stroke-opacity="0.05"/>
<line x1="1682.5" y1="484" x2="1682.5" y2="498" stroke="white" stroke-opacity="0.05"/>
<line y1="-0.5" x2="8" y2="-0.5" transform="matrix(4.37114e-08 -1 -1 -4.37114e-08 1612 517)" stroke="white" stroke-opacity="0.05"/>
<line y1="-0.5" x2="14" y2="-0.5" transform="matrix(-4.37115e-08 -1 -1 4.37115e-08 1602 523)" stroke="white" stroke-opacity="0.05"/>
<line y1="-0.5" x2="5" y2="-0.5" transform="matrix(-4.37114e-08 -1 -1 4.37114e-08 1592 514)" stroke="white" stroke-opacity="0.05"/>
<line y1="-0.5" x2="12" y2="-0.5" transform="matrix(1.31134e-07 -1 -1 -1.31134e-07 1582 521)" stroke="white" stroke-opacity="0.05"/>
<line y1="-0.5" x2="3" y2="-0.5" transform="matrix(-4.37117e-08 -1 -1 4.37117e-08 1572 512)" stroke="white" stroke-opacity="0.05"/>
<line y1="-0.5" x2="14" y2="-0.5" transform="matrix(1.31134e-07 -1 -1 -1.31134e-07 1562 523)" stroke="white" stroke-opacity="0.05"/>
<line y1="-0.5" x2="8" y2="-0.5" transform="matrix(4.37114e-08 -1 -1 -4.37114e-08 1494 517)" stroke="white" stroke-opacity="0.05"/>
<line y1="-0.5" x2="14" y2="-0.5" transform="matrix(-4.37115e-08 -1 -1 4.37115e-08 1484 523)" stroke="white" stroke-opacity="0.05"/>
<line y1="-0.5" x2="5" y2="-0.5" transform="matrix(-4.37114e-08 -1 -1 4.37114e-08 1474 514)" stroke="white" stroke-opacity="0.05"/>
<line y1="-0.5" x2="12" y2="-0.5" transform="matrix(1.31134e-07 -1 -1 -1.31134e-07 1464 521)" stroke="white" stroke-opacity="0.05"/>
<line y1="-0.5" x2="3" y2="-0.5" transform="matrix(-4.37117e-08 -1 -1 4.37117e-08 1454 512)" stroke="white" stroke-opacity="0.05"/>
<line y1="-0.5" x2="14" y2="-0.5" transform="matrix(1.31134e-07 -1 -1 -1.31134e-07 1444 523)" stroke="white" stroke-opacity="0.05"/>
<line y1="-0.5" x2="8" y2="-0.5" transform="matrix(4.37114e-08 -1 -1 -4.37114e-08 1672 517)" stroke="white" stroke-opacity="0.05"/>
<line y1="-0.5" x2="14" y2="-0.5" transform="matrix(-4.37115e-08 -1 -1 4.37115e-08 1662 523)" stroke="white" stroke-opacity="0.05"/>
<line y1="-0.5" x2="5" y2="-0.5" transform="matrix(-4.37114e-08 -1 -1 4.37114e-08 1652 514)" stroke="white" stroke-opacity="0.05"/>
<line y1="-0.5" x2="12" y2="-0.5" transform="matrix(1.31134e-07 -1 -1 -1.31134e-07 1642 521)" stroke="white" stroke-opacity="0.05"/>
<line y1="-0.5" x2="3" y2="-0.5" transform="matrix(-4.37117e-08 -1 -1 4.37117e-08 1632 512)" stroke="white" stroke-opacity="0.05"/>
<line y1="-0.5" x2="14" y2="-0.5" transform="matrix(1.31134e-07 -1 -1 -1.31134e-07 1622 523)" stroke="white" stroke-opacity="0.05"/>
<line y1="-0.5" x2="8" y2="-0.5" transform="matrix(4.37114e-08 -1 -1 -4.37114e-08 1554 517)" stroke="white" stroke-opacity="0.05"/>
<line y1="-0.5" x2="14" y2="-0.5" transform="matrix(-4.37115e-08 -1 -1 4.37115e-08 1544 523)" stroke="white" stroke-opacity="0.05"/>
<line y1="-0.5" x2="5" y2="-0.5" transform="matrix(-4.37114e-08 -1 -1 4.37114e-08 1534 514)" stroke="white" stroke-opacity="0.05"/>
<line y1="-0.5" x2="12" y2="-0.5" transform="matrix(1.31134e-07 -1 -1 -1.31134e-07 1524 521)" stroke="white" stroke-opacity="0.05"/>
<line y1="-0.5" x2="3" y2="-0.5" transform="matrix(-4.37117e-08 -1 -1 4.37117e-08 1514 512)" stroke="white" stroke-opacity="0.05"/>
<line y1="-0.5" x2="14" y2="-0.5" transform="matrix(1.31134e-07 -1 -1 -1.31134e-07 1504 523)" stroke="white" stroke-opacity="0.05"/>
<line y1="-0.5" x2="8" y2="-0.5" transform="matrix(4.37114e-08 -1 -1 -4.37114e-08 1732 517)" stroke="white" stroke-opacity="0.05"/>
<line y1="-0.5" x2="14" y2="-0.5" transform="matrix(-4.37115e-08 -1 -1 4.37115e-08 1722 523)" stroke="white" stroke-opacity="0.05"/>
<line y1="-0.5" x2="5" y2="-0.5" transform="matrix(-4.37114e-08 -1 -1 4.37114e-08 1712 514)" stroke="white" stroke-opacity="0.05"/>
<line y1="-0.5" x2="12" y2="-0.5" transform="matrix(1.31134e-07 -1 -1 -1.31134e-07 1702 521)" stroke="white" stroke-opacity="0.05"/>
<line y1="-0.5" x2="3" y2="-0.5" transform="matrix(-4.37117e-08 -1 -1 4.37117e-08 1692 512)" stroke="white" stroke-opacity="0.05"/>
<line y1="-0.5" x2="14" y2="-0.5" transform="matrix(1.31134e-07 -1 -1 -1.31134e-07 1682 523)" stroke="white" stroke-opacity="0.05"/>
<line x1="168.5" y1="491" x2="168.5" y2="499" stroke="white" stroke-opacity="0.05"/>
<line x1="158.5" y1="485" x2="158.5" y2="499" stroke="white" stroke-opacity="0.05"/>
<line x1="148.5" y1="494" x2="148.5" y2="499" stroke="white" stroke-opacity="0.05"/>
<line x1="138.5" y1="487" x2="138.5" y2="499" stroke="white" stroke-opacity="0.05"/>
<line x1="128.5" y1="496" x2="128.5" y2="499" stroke="white" stroke-opacity="0.05"/>
<line x1="118.5" y1="485" x2="118.5" y2="499" stroke="white" stroke-opacity="0.05"/>
<line x1="50.5" y1="491" x2="50.5" y2="499" stroke="white" stroke-opacity="0.05"/>
<line x1="40.5" y1="485" x2="40.5" y2="499" stroke="white" stroke-opacity="0.05"/>
<line x1="30.5" y1="494" x2="30.5" y2="499" stroke="white" stroke-opacity="0.05"/>
<line x1="20.5" y1="487" x2="20.5" y2="499" stroke="white" stroke-opacity="0.05"/>
<line x1="10.5" y1="496" x2="10.5" y2="499" stroke="white" stroke-opacity="0.05"/>
<line x1="0.5" y1="485" x2="0.500001" y2="499" stroke="white" stroke-opacity="0.05"/>
<line x1="228.5" y1="491" x2="228.5" y2="499" stroke="white" stroke-opacity="0.05"/>
<line x1="218.5" y1="485" x2="218.5" y2="499" stroke="white" stroke-opacity="0.05"/>
<line x1="208.5" y1="494" x2="208.5" y2="499" stroke="white" stroke-opacity="0.05"/>
<line x1="198.5" y1="487" x2="198.5" y2="499" stroke="white" stroke-opacity="0.05"/>
<line x1="188.5" y1="496" x2="188.5" y2="499" stroke="white" stroke-opacity="0.05"/>
<line x1="178.5" y1="485" x2="178.5" y2="499" stroke="white" stroke-opacity="0.05"/>
<line x1="110.5" y1="491" x2="110.5" y2="499" stroke="white" stroke-opacity="0.05"/>
<line x1="100.5" y1="485" x2="100.5" y2="499" stroke="white" stroke-opacity="0.05"/>
<line x1="90.5" y1="494" x2="90.5" y2="499" stroke="white" stroke-opacity="0.05"/>
<line x1="80.5" y1="487" x2="80.5" y2="499" stroke="white" stroke-opacity="0.05"/>
<line x1="70.5" y1="496" x2="70.5" y2="499" stroke="white" stroke-opacity="0.05"/>
<line x1="60.5" y1="485" x2="60.5" y2="499" stroke="white" stroke-opacity="0.05"/>
<line x1="288.5" y1="491" x2="288.5" y2="499" stroke="white" stroke-opacity="0.05"/>
<line x1="278.5" y1="485" x2="278.5" y2="499" stroke="white" stroke-opacity="0.05"/>
<line x1="268.5" y1="494" x2="268.5" y2="499" stroke="white" stroke-opacity="0.05"/>
<line x1="258.5" y1="487" x2="258.5" y2="499" stroke="white" stroke-opacity="0.05"/>
<line x1="248.5" y1="496" x2="248.5" y2="499" stroke="white" stroke-opacity="0.05"/>
<line x1="238.5" y1="485" x2="238.5" y2="499" stroke="white" stroke-opacity="0.05"/>
<line y1="-0.5" x2="8" y2="-0.5" transform="matrix(4.37114e-08 -1 -1 -4.37114e-08 168 518)" stroke="white" stroke-opacity="0.05"/>
<line y1="-0.5" x2="14" y2="-0.5" transform="matrix(-4.37115e-08 -1 -1 4.37115e-08 158 524)" stroke="white" stroke-opacity="0.05"/>
<line y1="-0.5" x2="5" y2="-0.5" transform="matrix(-4.37114e-08 -1 -1 4.37114e-08 148 515)" stroke="white" stroke-opacity="0.05"/>
<line y1="-0.5" x2="12" y2="-0.5" transform="matrix(1.31134e-07 -1 -1 -1.31134e-07 138 522)" stroke="white" stroke-opacity="0.05"/>
<line y1="-0.5" x2="3" y2="-0.5" transform="matrix(-4.37117e-08 -1 -1 4.37117e-08 128 513)" stroke="white" stroke-opacity="0.05"/>
<line y1="-0.5" x2="14" y2="-0.5" transform="matrix(1.31134e-07 -1 -1 -1.31134e-07 118 524)" stroke="white" stroke-opacity="0.05"/>
<line y1="-0.5" x2="8" y2="-0.5" transform="matrix(4.37114e-08 -1 -1 -4.37114e-08 50 518)" stroke="white" stroke-opacity="0.05"/>
<line y1="-0.5" x2="14" y2="-0.5" transform="matrix(-4.37115e-08 -1 -1 4.37115e-08 40 524)" stroke="white" stroke-opacity="0.05"/>
<line y1="-0.5" x2="5" y2="-0.5" transform="matrix(-4.37114e-08 -1 -1 4.37114e-08 30 515)" stroke="white" stroke-opacity="0.05"/>
<line y1="-0.5" x2="12" y2="-0.5" transform="matrix(1.31134e-07 -1 -1 -1.31134e-07 20 522)" stroke="white" stroke-opacity="0.05"/>
<line y1="-0.5" x2="3" y2="-0.5" transform="matrix(-4.37117e-08 -1 -1 4.37117e-08 10 513)" stroke="white" stroke-opacity="0.05"/>
<line y1="-0.5" x2="14" y2="-0.5" transform="matrix(1.31134e-07 -1 -1 -1.31134e-07 0 524)" stroke="white" stroke-opacity="0.05"/>
<line y1="-0.5" x2="8" y2="-0.5" transform="matrix(4.37114e-08 -1 -1 -4.37114e-08 228 518)" stroke="white" stroke-opacity="0.05"/>
<line y1="-0.5" x2="14" y2="-0.5" transform="matrix(-4.37115e-08 -1 -1 4.37115e-08 218 524)" stroke="white" stroke-opacity="0.05"/>
<line y1="-0.5" x2="5" y2="-0.5" transform="matrix(-4.37114e-08 -1 -1 4.37114e-08 208 515)" stroke="white" stroke-opacity="0.05"/>
<line y1="-0.5" x2="12" y2="-0.5" transform="matrix(1.31134e-07 -1 -1 -1.31134e-07 198 522)" stroke="white" stroke-opacity="0.05"/>
<line y1="-0.5" x2="3" y2="-0.5" transform="matrix(-4.37117e-08 -1 -1 4.37117e-08 188 513)" stroke="white" stroke-opacity="0.05"/>
<line y1="-0.5" x2="14" y2="-0.5" transform="matrix(1.31134e-07 -1 -1 -1.31134e-07 178 524)" stroke="white" stroke-opacity="0.05"/>
<line y1="-0.5" x2="8" y2="-0.5" transform="matrix(4.37114e-08 -1 -1 -4.37114e-08 110 518)" stroke="white" stroke-opacity="0.05"/>
<line y1="-0.5" x2="14" y2="-0.5" transform="matrix(-4.37115e-08 -1 -1 4.37115e-08 100 524)" stroke="white" stroke-opacity="0.05"/>
<line y1="-0.5" x2="5" y2="-0.5" transform="matrix(-4.37114e-08 -1 -1 4.37114e-08 90 515)" stroke="white" stroke-opacity="0.05"/>
<line y1="-0.5" x2="12" y2="-0.5" transform="matrix(1.31134e-07 -1 -1 -1.31134e-07 80 522)" stroke="white" stroke-opacity="0.05"/>
<line y1="-0.5" x2="3" y2="-0.5" transform="matrix(-4.37117e-08 -1 -1 4.37117e-08 70 513)" stroke="white" stroke-opacity="0.05"/>
<line y1="-0.5" x2="14" y2="-0.5" transform="matrix(1.31134e-07 -1 -1 -1.31134e-07 60 524)" stroke="white" stroke-opacity="0.05"/>
<line y1="-0.5" x2="8" y2="-0.5" transform="matrix(4.37114e-08 -1 -1 -4.37114e-08 288 518)" stroke="white" stroke-opacity="0.05"/>
<line y1="-0.5" x2="14" y2="-0.5" transform="matrix(-4.37115e-08 -1 -1 4.37115e-08 278 524)" stroke="white" stroke-opacity="0.05"/>
<line y1="-0.5" x2="5" y2="-0.5" transform="matrix(-4.37114e-08 -1 -1 4.37114e-08 268 515)" stroke="white" stroke-opacity="0.05"/>
<line y1="-0.5" x2="12" y2="-0.5" transform="matrix(1.31134e-07 -1 -1 -1.31134e-07 258 522)" stroke="white" stroke-opacity="0.05"/>
<line y1="-0.5" x2="3" y2="-0.5" transform="matrix(-4.37117e-08 -1 -1 4.37117e-08 248 513)" stroke="white" stroke-opacity="0.05"/>
<line y1="-0.5" x2="14" y2="-0.5" transform="matrix(1.31134e-07 -1 -1 -1.31134e-07 238 524)" stroke="white" stroke-opacity="0.05"/>
</svg>
