<svg width="577" height="417" viewBox="0 0 577 417" fill="none" xmlns="http://www.w3.org/2000/svg">
<path d="M1 363.823V24.5139V21C1 9.9543 9.9543 1 21 1H250.399C257.518 1 264.1 4.7839 267.682 10.9356L272.686 19.5286C276.268 25.6803 282.851 29.4642 289.969 29.4642H556C567.046 29.4642 576 38.4185 576 49.4642V374.748V395.3C576 399.339 574.778 403.282 572.493 406.613L572.013 407.312C568.284 412.75 562.114 416 555.52 416H149.56C142.273 416 135.562 412.036 132.044 405.654L125.714 394.169C122.196 387.787 115.485 383.823 108.198 383.823H21C9.9543 383.823 1 374.869 1 363.823Z" fill="black" stroke="white" stroke-opacity="0.2"/>
</svg>
