<svg width="341" height="287" viewBox="0 0 341 287" fill="none" xmlns="http://www.w3.org/2000/svg">
<path d="M1 253.903V17.1481V11C1 5.47715 5.47716 1 11 1H148.635C152.423 1 155.885 3.14028 157.579 6.52844L161.824 15.0193C163.518 18.4074 166.981 20.5477 170.769 20.5477H330C335.523 20.5477 340 25.0249 340 30.5477V257.67V273.317C340 275.101 339.523 276.853 338.617 278.391L337.037 281.074C335.24 284.126 331.962 286 328.42 286H87.9523C84.0864 286 80.5668 283.772 78.9132 280.277L73.8729 269.625C72.2193 266.131 68.6997 263.903 64.8338 263.903H11C5.47715 263.903 1 259.425 1 253.903Z" fill="black" stroke="white" stroke-opacity="0.2"/>
<path d="M8 229V246C8 251.523 12.4772 256 18 256H35" stroke="#767676"/>
<path d="M332 60V43C332 37.4772 327.523 33 322 33H305" stroke="#767676"/>
</svg>
