<svg width="374" height="812" viewBox="0 0 374 812" fill="none" xmlns="http://www.w3.org/2000/svg">
<g clip-path="url(#clip0_227_8773)">
<line x1="-763" y1="7.5" x2="1157" y2="7.5" stroke="#767676" stroke-opacity="0.20"/>
<line x1="-763" y1="18.5" x2="1157" y2="18.5" stroke="#767676" stroke-opacity="0.20"/>
<line x1="-763" y1="29.5" x2="1157" y2="29.5" stroke="#767676" stroke-opacity="0.20"/>
<line x1="-763" y1="40.5" x2="1157" y2="40.5" stroke="#767676" stroke-opacity="0.20"/>
<line x1="-763" y1="51.5" x2="1157" y2="51.5" stroke="#767676" stroke-opacity="0.20"/>
<line x1="-763" y1="62.5" x2="1157" y2="62.5" stroke="#767676" stroke-opacity="0.20"/>
<line x1="-763" y1="73.5" x2="1157" y2="73.5" stroke="#767676" stroke-opacity="0.20"/>
<line x1="-763" y1="84.5" x2="1157" y2="84.5" stroke="#767676" stroke-opacity="0.20"/>
<line x1="-763" y1="95.5" x2="1157" y2="95.5" stroke="#767676" stroke-opacity="0.20"/>
<line x1="-763" y1="106.5" x2="1157" y2="106.5" stroke="#767676" stroke-opacity="0.20"/>
<line x1="-763" y1="117.5" x2="1157" y2="117.5" stroke="#767676" stroke-opacity="0.20"/>
<line x1="-763" y1="128.5" x2="1157" y2="128.5" stroke="#767676" stroke-opacity="0.20"/>
<line x1="-763" y1="139.5" x2="1157" y2="139.5" stroke="#767676" stroke-opacity="0.20"/>
<line x1="-763" y1="150.5" x2="1157" y2="150.5" stroke="#767676" stroke-opacity="0.20"/>
<line x1="-763" y1="161.5" x2="1157" y2="161.5" stroke="#767676" stroke-opacity="0.20"/>
<line x1="-763" y1="172.5" x2="1157" y2="172.5" stroke="#767676" stroke-opacity="0.20"/>
<line x1="-763" y1="183.5" x2="1157" y2="183.5" stroke="#767676" stroke-opacity="0.20"/>
<line x1="-763" y1="194.5" x2="1157" y2="194.5" stroke="#767676" stroke-opacity="0.20"/>
<line x1="-763" y1="205.5" x2="1157" y2="205.5" stroke="#767676" stroke-opacity="0.20"/>
<line x1="-763" y1="216.5" x2="1157" y2="216.5" stroke="#767676" stroke-opacity="0.20"/>
<line x1="-763" y1="227.5" x2="1157" y2="227.5" stroke="#767676" stroke-opacity="0.20"/>
<line x1="-763" y1="238.5" x2="1157" y2="238.5" stroke="#767676" stroke-opacity="0.20"/>
<line x1="-763" y1="249.5" x2="1157" y2="249.5" stroke="#767676" stroke-opacity="0.20"/>
<line x1="-763" y1="260.5" x2="1157" y2="260.5" stroke="#767676" stroke-opacity="0.20"/>
<line x1="-763" y1="271.5" x2="1157" y2="271.5" stroke="#767676" stroke-opacity="0.20"/>
<line x1="-763" y1="282.5" x2="1157" y2="282.5" stroke="#767676" stroke-opacity="0.20"/>
<line x1="-763" y1="293.5" x2="1157" y2="293.5" stroke="#767676" stroke-opacity="0.20"/>
<line x1="-763" y1="304.5" x2="1157" y2="304.5" stroke="#767676" stroke-opacity="0.20"/>
<line x1="-763" y1="315.5" x2="1157" y2="315.5" stroke="#767676" stroke-opacity="0.20"/>
<line x1="-763" y1="326.5" x2="1157" y2="326.5" stroke="#767676" stroke-opacity="0.20"/>
<line x1="-763" y1="337.5" x2="1157" y2="337.5" stroke="#767676" stroke-opacity="0.20"/>
<line x1="-763" y1="348.5" x2="1157" y2="348.5" stroke="#767676" stroke-opacity="0.20"/>
<line x1="-763" y1="359.5" x2="1157" y2="359.5" stroke="#767676" stroke-opacity="0.20"/>
<line x1="-763" y1="370.5" x2="1157" y2="370.5" stroke="#767676" stroke-opacity="0.20"/>
<line x1="-763" y1="381.5" x2="1157" y2="381.5" stroke="#767676" stroke-opacity="0.20"/>
<line x1="-763" y1="392.5" x2="1157" y2="392.5" stroke="#767676" stroke-opacity="0.20"/>
<line x1="-763" y1="403.5" x2="1157" y2="403.5" stroke="#767676" stroke-opacity="0.20"/>
<line x1="-763" y1="414.5" x2="1157" y2="414.5" stroke="#767676" stroke-opacity="0.20"/>
<line x1="-763" y1="425.5" x2="1157" y2="425.5" stroke="#767676" stroke-opacity="0.20"/>
<line x1="-763" y1="436.5" x2="1157" y2="436.5" stroke="#767676" stroke-opacity="0.20"/>
<line x1="-763" y1="447.5" x2="1157" y2="447.5" stroke="#767676" stroke-opacity="0.20"/>
<line x1="-763" y1="458.5" x2="1157" y2="458.5" stroke="#767676" stroke-opacity="0.20"/>
<line x1="-763" y1="469.5" x2="1157" y2="469.5" stroke="#767676" stroke-opacity="0.20"/>
<line x1="-763" y1="480.5" x2="1157" y2="480.5" stroke="#767676" stroke-opacity="0.20"/>
<line x1="-763" y1="491.5" x2="1157" y2="491.5" stroke="#767676" stroke-opacity="0.20"/>
<line x1="-763" y1="502.5" x2="1157" y2="502.5" stroke="#767676" stroke-opacity="0.20"/>
<line x1="-763" y1="513.5" x2="1157" y2="513.5" stroke="#767676" stroke-opacity="0.20"/>
<line x1="-763" y1="524.5" x2="1157" y2="524.5" stroke="#767676" stroke-opacity="0.20"/>
<line x1="-763" y1="535.5" x2="1157" y2="535.5" stroke="#767676" stroke-opacity="0.20"/>
<line x1="-763" y1="546.5" x2="1157" y2="546.5" stroke="#767676" stroke-opacity="0.20"/>
<line x1="-763" y1="557.5" x2="1157" y2="557.5" stroke="#767676" stroke-opacity="0.20"/>
<line x1="-763" y1="568.5" x2="1157" y2="568.5" stroke="#767676" stroke-opacity="0.20"/>
<line x1="-763" y1="579.5" x2="1157" y2="579.5" stroke="#767676" stroke-opacity="0.20"/>
<line x1="-763" y1="590.5" x2="1157" y2="590.5" stroke="#767676" stroke-opacity="0.20"/>
<line x1="-763" y1="601.5" x2="1157" y2="601.5" stroke="#767676" stroke-opacity="0.20"/>
<line x1="-763" y1="612.5" x2="1157" y2="612.5" stroke="#767676" stroke-opacity="0.20"/>
<line x1="-763" y1="623.5" x2="1157" y2="623.5" stroke="#767676" stroke-opacity="0.20"/>
<line x1="-763" y1="634.5" x2="1157" y2="634.5" stroke="#767676" stroke-opacity="0.20"/>
<line x1="-763" y1="645.5" x2="1157" y2="645.5" stroke="#767676" stroke-opacity="0.20"/>
<line x1="-763" y1="656.5" x2="1157" y2="656.5" stroke="#767676" stroke-opacity="0.20"/>
<line x1="-763" y1="667.5" x2="1157" y2="667.5" stroke="#767676" stroke-opacity="0.20"/>
<line x1="-763" y1="678.5" x2="1157" y2="678.5" stroke="#767676" stroke-opacity="0.20"/>
<line x1="-763" y1="689.5" x2="1157" y2="689.5" stroke="#767676" stroke-opacity="0.20"/>
<line x1="-763" y1="700.5" x2="1157" y2="700.5" stroke="#767676" stroke-opacity="0.20"/>
<line x1="-763" y1="711.5" x2="1157" y2="711.5" stroke="#767676" stroke-opacity="0.20"/>
<line x1="-763" y1="722.5" x2="1157" y2="722.5" stroke="#767676" stroke-opacity="0.20"/>
<line x1="-763" y1="733.5" x2="1157" y2="733.5" stroke="#767676" stroke-opacity="0.20"/>
<line x1="-763" y1="744.5" x2="1157" y2="744.5" stroke="#767676" stroke-opacity="0.20"/>
<line x1="-763" y1="755.5" x2="1157" y2="755.5" stroke="#767676" stroke-opacity="0.20"/>
<line x1="-763" y1="766.5" x2="1157" y2="766.5" stroke="#767676" stroke-opacity="0.20"/>
<line x1="-763" y1="777.5" x2="1157" y2="777.5" stroke="#767676" stroke-opacity="0.20"/>
<line x1="-763" y1="788.5" x2="1157" y2="788.5" stroke="#767676" stroke-opacity="0.20"/>
<line x1="-763" y1="799.5" x2="1157" y2="799.5" stroke="#767676" stroke-opacity="0.20"/>
<line x1="-763" y1="810.5" x2="1157" y2="810.5" stroke="#767676" stroke-opacity="0.20"/>
<line x1="31.6719" y1="0.952148" x2="31.6719" y2="878.514" stroke="#767676" stroke-opacity="0.20"/>
<line x1="109.68" y1="0.952148" x2="109.68" y2="878.514" stroke="#767676" stroke-opacity="0.20"/>
<line x1="187.688" y1="0.952148" x2="187.688" y2="878.514" stroke="#767676" stroke-opacity="0.20"/>
<line x1="266.508" y1="0.952148" x2="266.508" y2="878.514" stroke="#767676" stroke-opacity="0.20"/>
<line x1="362.328" y1="0.952148" x2="362.328" y2="878.514" stroke="#767676" stroke-opacity="0.20"/>
<line x1="11.6719" y1="0.952148" x2="11.6719" y2="878.514" stroke="#767676" stroke-opacity="0.20"/>
<line x1="109.68" y1="0.952148" x2="109.68" y2="878.514" stroke="#767676" stroke-opacity="0.20"/>
<line x1="187.688" y1="0.952148" x2="187.688" y2="878.514" stroke="#767676" stroke-opacity="0.20"/>
<line x1="266.508" y1="0.952148" x2="266.508" y2="878.514" stroke="#767676" stroke-opacity="0.20"/>
<line x1="342.328" y1="0.952148" x2="342.328" y2="878.514" stroke="#767676" stroke-opacity="0.20"/>
<circle cx="186.782" cy="133.805" r="116.915" stroke="#767676" stroke-opacity="0.20"/>
<circle cx="186.781" cy="904.11" r="652.39" stroke="#767676" stroke-opacity="0.20"/>
<path d="M641.721 896.797C641.721 1147.15 438.04 1350.11 186.782 1350.11C-64.475 1350.11 -268.156 1147.15 -268.156 896.797C-268.156 646.44 -64.475 443.483 186.782 443.483C438.04 443.483 641.721 646.44 641.721 896.797Z" stroke="#767676" stroke-opacity="0.20"/>
</g>
<defs>
<clipPath id="clip0_227_8773">
<rect width="374" height="812" fill="white"/>
</clipPath>
</defs>
</svg>
