<svg width="374" height="779" viewBox="0 0 374 779" fill="none" xmlns="http://www.w3.org/2000/svg">
<g clip-path="url(#clip0_713_164)">
<line y1="-0.5" x2="1920" y2="-0.5" transform="matrix(1 0 0 -1 -763 771)" stroke="#767676" stroke-opacity="0.15"/>
<line y1="-0.5" x2="1920" y2="-0.5" transform="matrix(1 0 0 -1 -763 760)" stroke="#767676" stroke-opacity="0.15"/>
<line y1="-0.5" x2="1920" y2="-0.5" transform="matrix(1 0 0 -1 -763 749)" stroke="#767676" stroke-opacity="0.15"/>
<line y1="-0.5" x2="1920" y2="-0.5" transform="matrix(1 0 0 -1 -763 738)" stroke="#767676" stroke-opacity="0.15"/>
<line y1="-0.5" x2="1920" y2="-0.5" transform="matrix(1 0 0 -1 -763 727)" stroke="#767676" stroke-opacity="0.15"/>
<line y1="-0.5" x2="1920" y2="-0.5" transform="matrix(1 0 0 -1 -763 716)" stroke="#767676" stroke-opacity="0.15"/>
<line y1="-0.5" x2="1920" y2="-0.5" transform="matrix(1 0 0 -1 -763 705)" stroke="#767676" stroke-opacity="0.15"/>
<line y1="-0.5" x2="1920" y2="-0.5" transform="matrix(1 0 0 -1 -763 694)" stroke="#767676" stroke-opacity="0.15"/>
<line y1="-0.5" x2="1920" y2="-0.5" transform="matrix(1 0 0 -1 -763 683)" stroke="#767676" stroke-opacity="0.15"/>
<line y1="-0.5" x2="1920" y2="-0.5" transform="matrix(1 0 0 -1 -763 672)" stroke="#767676" stroke-opacity="0.15"/>
<line y1="-0.5" x2="1920" y2="-0.5" transform="matrix(1 0 0 -1 -763 661)" stroke="#767676" stroke-opacity="0.15"/>
<line y1="-0.5" x2="1920" y2="-0.5" transform="matrix(1 0 0 -1 -763 650)" stroke="#767676" stroke-opacity="0.15"/>
<line y1="-0.5" x2="1920" y2="-0.5" transform="matrix(1 0 0 -1 -763 639)" stroke="#767676" stroke-opacity="0.15"/>
<line y1="-0.5" x2="1920" y2="-0.5" transform="matrix(1 0 0 -1 -763 628)" stroke="#767676" stroke-opacity="0.15"/>
<line y1="-0.5" x2="1920" y2="-0.5" transform="matrix(1 0 0 -1 -763 617)" stroke="#767676" stroke-opacity="0.15"/>
<line y1="-0.5" x2="1920" y2="-0.5" transform="matrix(1 0 0 -1 -763 606)" stroke="#767676" stroke-opacity="0.15"/>
<line y1="-0.5" x2="1920" y2="-0.5" transform="matrix(1 0 0 -1 -763 595)" stroke="#767676" stroke-opacity="0.15"/>
<line y1="-0.5" x2="1920" y2="-0.5" transform="matrix(1 0 0 -1 -763 584)" stroke="#767676" stroke-opacity="0.15"/>
<line y1="-0.5" x2="1920" y2="-0.5" transform="matrix(1 0 0 -1 -763 573)" stroke="#767676" stroke-opacity="0.15"/>
<line y1="-0.5" x2="1920" y2="-0.5" transform="matrix(1 0 0 -1 -763 562)" stroke="#767676" stroke-opacity="0.15"/>
<line y1="-0.5" x2="1920" y2="-0.5" transform="matrix(1 0 0 -1 -763 551)" stroke="#767676" stroke-opacity="0.15"/>
<line y1="-0.5" x2="1920" y2="-0.5" transform="matrix(1 0 0 -1 -763 540)" stroke="#767676" stroke-opacity="0.15"/>
<line y1="-0.5" x2="1920" y2="-0.5" transform="matrix(1 0 0 -1 -763 529)" stroke="#767676" stroke-opacity="0.15"/>
<line y1="-0.5" x2="1920" y2="-0.5" transform="matrix(1 0 0 -1 -763 518)" stroke="#767676" stroke-opacity="0.15"/>
<line y1="-0.5" x2="1920" y2="-0.5" transform="matrix(1 0 0 -1 -763 507)" stroke="#767676" stroke-opacity="0.15"/>
<line y1="-0.5" x2="1920" y2="-0.5" transform="matrix(1 0 0 -1 -763 496)" stroke="#767676" stroke-opacity="0.15"/>
<line y1="-0.5" x2="1920" y2="-0.5" transform="matrix(1 0 0 -1 -763 485)" stroke="#767676" stroke-opacity="0.15"/>
<line y1="-0.5" x2="1920" y2="-0.5" transform="matrix(1 0 0 -1 -763 474)" stroke="#767676" stroke-opacity="0.15"/>
<line y1="-0.5" x2="1920" y2="-0.5" transform="matrix(1 0 0 -1 -763 463)" stroke="#767676" stroke-opacity="0.15"/>
<line y1="-0.5" x2="1920" y2="-0.5" transform="matrix(1 0 0 -1 -763 452)" stroke="#767676" stroke-opacity="0.15"/>
<line y1="-0.5" x2="1920" y2="-0.5" transform="matrix(1 0 0 -1 -763 441)" stroke="#767676" stroke-opacity="0.15"/>
<line y1="-0.5" x2="1920" y2="-0.5" transform="matrix(1 0 0 -1 -763 430)" stroke="#767676" stroke-opacity="0.15"/>
<line y1="-0.5" x2="1920" y2="-0.5" transform="matrix(1 0 0 -1 -763 419)" stroke="#767676" stroke-opacity="0.15"/>
<line y1="-0.5" x2="1920" y2="-0.5" transform="matrix(1 0 0 -1 -763 408)" stroke="#767676" stroke-opacity="0.15"/>
<line y1="-0.5" x2="1920" y2="-0.5" transform="matrix(1 0 0 -1 -763 397)" stroke="#767676" stroke-opacity="0.15"/>
<line y1="-0.5" x2="1920" y2="-0.5" transform="matrix(1 0 0 -1 -763 386)" stroke="#767676" stroke-opacity="0.15"/>
<line y1="-0.5" x2="1920" y2="-0.5" transform="matrix(1 0 0 -1 -763 375)" stroke="#767676" stroke-opacity="0.15"/>
<line y1="-0.5" x2="1920" y2="-0.5" transform="matrix(1 0 0 -1 -763 364)" stroke="#767676" stroke-opacity="0.15"/>
<line y1="-0.5" x2="1920" y2="-0.5" transform="matrix(1 0 0 -1 -763 353)" stroke="#767676" stroke-opacity="0.15"/>
<line y1="-0.5" x2="1920" y2="-0.5" transform="matrix(1 0 0 -1 -763 342)" stroke="#767676" stroke-opacity="0.15"/>
<line y1="-0.5" x2="1920" y2="-0.5" transform="matrix(1 0 0 -1 -763 331)" stroke="#767676" stroke-opacity="0.15"/>
<line y1="-0.5" x2="1920" y2="-0.5" transform="matrix(1 0 0 -1 -763 320)" stroke="#767676" stroke-opacity="0.15"/>
<line y1="-0.5" x2="1920" y2="-0.5" transform="matrix(1 0 0 -1 -763 309)" stroke="#767676" stroke-opacity="0.15"/>
<line y1="-0.5" x2="1920" y2="-0.5" transform="matrix(1 0 0 -1 -763 298)" stroke="#767676" stroke-opacity="0.15"/>
<line y1="-0.5" x2="1920" y2="-0.5" transform="matrix(1 0 0 -1 -763 287)" stroke="#767676" stroke-opacity="0.15"/>
<line y1="-0.5" x2="1920" y2="-0.5" transform="matrix(1 0 0 -1 -763 276)" stroke="#767676" stroke-opacity="0.15"/>
<line y1="-0.5" x2="1920" y2="-0.5" transform="matrix(1 0 0 -1 -763 265)" stroke="#767676" stroke-opacity="0.15"/>
<line y1="-0.5" x2="1920" y2="-0.5" transform="matrix(1 0 0 -1 -763 254)" stroke="#767676" stroke-opacity="0.15"/>
<line y1="-0.5" x2="1920" y2="-0.5" transform="matrix(1 0 0 -1 -763 243)" stroke="#767676" stroke-opacity="0.15"/>
<line y1="-0.5" x2="1920" y2="-0.5" transform="matrix(1 0 0 -1 -763 232)" stroke="#767676" stroke-opacity="0.15"/>
<line y1="-0.5" x2="1920" y2="-0.5" transform="matrix(1 0 0 -1 -763 221)" stroke="#767676" stroke-opacity="0.15"/>
<line y1="-0.5" x2="1920" y2="-0.5" transform="matrix(1 0 0 -1 -763 210)" stroke="#767676" stroke-opacity="0.15"/>
<line y1="-0.5" x2="1920" y2="-0.5" transform="matrix(1 0 0 -1 -763 199)" stroke="#767676" stroke-opacity="0.15"/>
<line y1="-0.5" x2="1920" y2="-0.5" transform="matrix(1 0 0 -1 -763 188)" stroke="#767676" stroke-opacity="0.15"/>
<line y1="-0.5" x2="1920" y2="-0.5" transform="matrix(1 0 0 -1 -763 177)" stroke="#767676" stroke-opacity="0.15"/>
<line y1="-0.5" x2="1920" y2="-0.5" transform="matrix(1 0 0 -1 -763 166)" stroke="#767676" stroke-opacity="0.15"/>
<line y1="-0.5" x2="1920" y2="-0.5" transform="matrix(1 0 0 -1 -763 155)" stroke="#767676" stroke-opacity="0.15"/>
<line y1="-0.5" x2="1920" y2="-0.5" transform="matrix(1 0 0 -1 -763 144)" stroke="#767676" stroke-opacity="0.15"/>
<line y1="-0.5" x2="1920" y2="-0.5" transform="matrix(1 0 0 -1 -763 133)" stroke="#767676" stroke-opacity="0.15"/>
<line y1="-0.5" x2="1920" y2="-0.5" transform="matrix(1 0 0 -1 -763 122)" stroke="#767676" stroke-opacity="0.15"/>
<line y1="-0.5" x2="1920" y2="-0.5" transform="matrix(1 0 0 -1 -763 111)" stroke="#767676" stroke-opacity="0.15"/>
<line y1="-0.5" x2="1920" y2="-0.5" transform="matrix(1 0 0 -1 -763 100)" stroke="#767676" stroke-opacity="0.15"/>
<line y1="-0.5" x2="1920" y2="-0.5" transform="matrix(1 0 0 -1 -763 89)" stroke="#767676" stroke-opacity="0.15"/>
<line y1="-0.5" x2="1920" y2="-0.5" transform="matrix(1 0 0 -1 -763 78)" stroke="#767676" stroke-opacity="0.15"/>
<line y1="-0.5" x2="1920" y2="-0.5" transform="matrix(1 0 0 -1 -763 67)" stroke="#767676" stroke-opacity="0.15"/>
<line y1="-0.5" x2="1920" y2="-0.5" transform="matrix(1 0 0 -1 -763 56)" stroke="#767676" stroke-opacity="0.15"/>
<line y1="-0.5" x2="1920" y2="-0.5" transform="matrix(1 0 0 -1 -763 45)" stroke="#767676" stroke-opacity="0.15"/>
<line y1="-0.5" x2="1920" y2="-0.5" transform="matrix(1 0 0 -1 -763 34)" stroke="#767676" stroke-opacity="0.15"/>
<line y1="-0.5" x2="1920" y2="-0.5" transform="matrix(1 0 0 -1 -763 23)" stroke="#767676" stroke-opacity="0.15"/>
<line y1="-0.5" x2="1920" y2="-0.5" transform="matrix(1 0 0 -1 -763 12)" stroke="#767676" stroke-opacity="0.15"/>
<line y1="-0.5" x2="1920" y2="-0.5" transform="matrix(1 0 0 -1 -763 1)" stroke="#767676" stroke-opacity="0.15"/>
<line y1="-0.5" x2="877.562" y2="-0.5" transform="matrix(4.37114e-08 -1 -1 -4.37114e-08 31.1758 778.048)" stroke="#767676" stroke-opacity="0.15"/>
<line y1="-0.5" x2="877.562" y2="-0.5" transform="matrix(4.37114e-08 -1 -1 -4.37114e-08 109.18 778.048)" stroke="#767676" stroke-opacity="0.15"/>
<line y1="-0.5" x2="877.562" y2="-0.5" transform="matrix(4.37114e-08 -1 -1 -4.37114e-08 187.188 778.048)" stroke="#767676" stroke-opacity="0.15"/>
<line y1="-0.5" x2="877.562" y2="-0.5" transform="matrix(4.37114e-08 -1 -1 -4.37114e-08 266.008 778.048)" stroke="#767676" stroke-opacity="0.15"/>
<line y1="-0.5" x2="877.562" y2="-0.5" transform="matrix(4.37114e-08 -1 -1 -4.37114e-08 361.824 778.048)" stroke="#767676" stroke-opacity="0.15"/>
<line y1="-0.5" x2="877.562" y2="-0.5" transform="matrix(4.37114e-08 -1 -1 -4.37114e-08 11.1758 778.048)" stroke="#767676" stroke-opacity="0.15"/>
<line y1="-0.5" x2="877.562" y2="-0.5" transform="matrix(4.37114e-08 -1 -1 -4.37114e-08 109.18 778.048)" stroke="#767676" stroke-opacity="0.15"/>
<line y1="-0.5" x2="877.562" y2="-0.5" transform="matrix(4.37114e-08 -1 -1 -4.37114e-08 187.188 778.048)" stroke="#767676" stroke-opacity="0.15"/>
<line y1="-0.5" x2="877.562" y2="-0.5" transform="matrix(4.37114e-08 -1 -1 -4.37114e-08 266.008 778.048)" stroke="#767676" stroke-opacity="0.15"/>
<line y1="-0.5" x2="877.562" y2="-0.5" transform="matrix(4.37114e-08 -1 -1 -4.37114e-08 341.824 778.048)" stroke="#767676" stroke-opacity="0.15"/>
<circle cx="117.415" cy="117.415" r="116.915" transform="matrix(1 0 0 -1 69.3672 762.609)" stroke="#767676" stroke-opacity="0.15"/>
<circle cx="652.89" cy="652.89" r="652.39" transform="matrix(1 0 0 -1 -466.109 527.78)" stroke="#767676" stroke-opacity="0.15"/>
<path d="M641.721 -117.797C641.721 -368.153 438.04 -571.11 186.782 -571.11C-64.475 -571.11 -268.156 -368.153 -268.156 -117.797C-268.156 132.56 -64.475 335.517 186.782 335.517C438.04 335.517 641.721 132.56 641.721 -117.797Z" stroke="#767676" stroke-opacity="0.15"/>
</g>
<defs>
<clipPath id="clip0_713_164">
<rect width="374" height="791" fill="white" transform="matrix(1 0 0 -1 0 779)"/>
</clipPath>
</defs>
</svg>
