<svg width="1920" height="1081" viewBox="0 0 1920 1081" fill="none" xmlns="http://www.w3.org/2000/svg">
<line y1="17.5" x2="1920" y2="17.5" stroke="#767676" stroke-opacity="0.15"/>
<line y1="28.5" x2="1920" y2="28.5" stroke="#767676" stroke-opacity="0.15"/>
<line y1="39.5" x2="1920" y2="39.5" stroke="#767676" stroke-opacity="0.15"/>
<line y1="50.5" x2="1920" y2="50.5" stroke="#767676" stroke-opacity="0.15"/>
<line y1="61.5" x2="1920" y2="61.5" stroke="#767676" stroke-opacity="0.15"/>
<line y1="72.5" x2="1920" y2="72.5" stroke="#767676" stroke-opacity="0.15"/>
<line y1="83.5" x2="1920" y2="83.5" stroke="#767676" stroke-opacity="0.15"/>
<line y1="94.5" x2="1920" y2="94.5" stroke="#767676" stroke-opacity="0.15"/>
<line y1="105.5" x2="1920" y2="105.5" stroke="#767676" stroke-opacity="0.15"/>
<line y1="116.5" x2="1920" y2="116.5" stroke="#767676" stroke-opacity="0.15"/>
<line y1="127.5" x2="1920" y2="127.5" stroke="#767676" stroke-opacity="0.15"/>
<line y1="138.5" x2="1920" y2="138.5" stroke="#767676" stroke-opacity="0.15"/>
<line y1="149.5" x2="1920" y2="149.5" stroke="#767676" stroke-opacity="0.15"/>
<line y1="160.5" x2="1920" y2="160.5" stroke="#767676" stroke-opacity="0.15"/>
<line y1="171.5" x2="1920" y2="171.5" stroke="#767676" stroke-opacity="0.15"/>
<line y1="182.5" x2="1920" y2="182.5" stroke="#767676" stroke-opacity="0.15"/>
<line y1="193.5" x2="1920" y2="193.5" stroke="#767676" stroke-opacity="0.15"/>
<line y1="204.5" x2="1920" y2="204.5" stroke="#767676" stroke-opacity="0.15"/>
<line y1="215.5" x2="1920" y2="215.5" stroke="#767676" stroke-opacity="0.15"/>
<line y1="226.5" x2="1920" y2="226.5" stroke="#767676" stroke-opacity="0.15"/>
<line y1="237.5" x2="1920" y2="237.5" stroke="#767676" stroke-opacity="0.15"/>
<line y1="248.5" x2="1920" y2="248.5" stroke="#767676" stroke-opacity="0.15"/>
<line y1="259.5" x2="1920" y2="259.5" stroke="#767676" stroke-opacity="0.15"/>
<line y1="270.5" x2="1920" y2="270.5" stroke="#767676" stroke-opacity="0.15"/>
<line y1="281.5" x2="1920" y2="281.5" stroke="#767676" stroke-opacity="0.15"/>
<line y1="292.5" x2="1920" y2="292.5" stroke="#767676" stroke-opacity="0.15"/>
<line y1="303.5" x2="1920" y2="303.5" stroke="#767676" stroke-opacity="0.15"/>
<line y1="314.5" x2="1920" y2="314.5" stroke="#767676" stroke-opacity="0.15"/>
<line y1="325.5" x2="1920" y2="325.5" stroke="#767676" stroke-opacity="0.15"/>
<line y1="336.5" x2="1920" y2="336.5" stroke="#767676" stroke-opacity="0.15"/>
<line y1="347.5" x2="1920" y2="347.5" stroke="#767676" stroke-opacity="0.15"/>
<line y1="358.5" x2="1920" y2="358.5" stroke="#767676" stroke-opacity="0.15"/>
<line y1="369.5" x2="1920" y2="369.5" stroke="#767676" stroke-opacity="0.15"/>
<line y1="380.5" x2="1920" y2="380.5" stroke="#767676" stroke-opacity="0.15"/>
<line y1="391.5" x2="1920" y2="391.5" stroke="#767676" stroke-opacity="0.15"/>
<line y1="402.5" x2="1920" y2="402.5" stroke="#767676" stroke-opacity="0.15"/>
<line y1="413.5" x2="1920" y2="413.5" stroke="#767676" stroke-opacity="0.15"/>
<line y1="424.5" x2="1920" y2="424.5" stroke="#767676" stroke-opacity="0.15"/>
<line y1="435.5" x2="1920" y2="435.5" stroke="#767676" stroke-opacity="0.15"/>
<line y1="446.5" x2="1920" y2="446.5" stroke="#767676" stroke-opacity="0.15"/>
<line y1="457.5" x2="1920" y2="457.5" stroke="#767676" stroke-opacity="0.15"/>
<line y1="468.5" x2="1920" y2="468.5" stroke="#767676" stroke-opacity="0.15"/>
<line y1="479.5" x2="1920" y2="479.5" stroke="#767676" stroke-opacity="0.15"/>
<line y1="490.5" x2="1920" y2="490.5" stroke="#767676" stroke-opacity="0.15"/>
<line y1="501.5" x2="1920" y2="501.5" stroke="#767676" stroke-opacity="0.15"/>
<line y1="512.5" x2="1920" y2="512.5" stroke="#767676" stroke-opacity="0.15"/>
<line y1="523.5" x2="1920" y2="523.5" stroke="#767676" stroke-opacity="0.15"/>
<line y1="534.5" x2="1920" y2="534.5" stroke="#767676" stroke-opacity="0.15"/>
<line y1="545.5" x2="1920" y2="545.5" stroke="#767676" stroke-opacity="0.15"/>
<line y1="556.5" x2="1920" y2="556.5" stroke="#767676" stroke-opacity="0.15"/>
<line y1="567.5" x2="1920" y2="567.5" stroke="#767676" stroke-opacity="0.15"/>
<line y1="578.5" x2="1920" y2="578.5" stroke="#767676" stroke-opacity="0.15"/>
<line y1="589.5" x2="1920" y2="589.5" stroke="#767676" stroke-opacity="0.15"/>
<line y1="600.5" x2="1920" y2="600.5" stroke="#767676" stroke-opacity="0.15"/>
<line y1="611.5" x2="1920" y2="611.5" stroke="#767676" stroke-opacity="0.15"/>
<line y1="622.5" x2="1920" y2="622.5" stroke="#767676" stroke-opacity="0.15"/>
<line y1="633.5" x2="1920" y2="633.5" stroke="#767676" stroke-opacity="0.15"/>
<line y1="644.5" x2="1920" y2="644.5" stroke="#767676" stroke-opacity="0.15"/>
<line y1="655.5" x2="1920" y2="655.5" stroke="#767676" stroke-opacity="0.15"/>
<line y1="666.5" x2="1920" y2="666.5" stroke="#767676" stroke-opacity="0.15"/>
<line y1="677.5" x2="1920" y2="677.5" stroke="#767676" stroke-opacity="0.15"/>
<line y1="688.5" x2="1920" y2="688.5" stroke="#767676" stroke-opacity="0.15"/>
<line y1="699.5" x2="1920" y2="699.5" stroke="#767676" stroke-opacity="0.15"/>
<line y1="710.5" x2="1920" y2="710.5" stroke="#767676" stroke-opacity="0.15"/>
<line y1="721.5" x2="1920" y2="721.5" stroke="#767676" stroke-opacity="0.15"/>
<line y1="732.5" x2="1920" y2="732.5" stroke="#767676" stroke-opacity="0.15"/>
<line y1="743.5" x2="1920" y2="743.5" stroke="#767676" stroke-opacity="0.15"/>
<line y1="754.5" x2="1920" y2="754.5" stroke="#767676" stroke-opacity="0.15"/>
<line y1="765.5" x2="1920" y2="765.5" stroke="#767676" stroke-opacity="0.15"/>
<line y1="776.5" x2="1920" y2="776.5" stroke="#767676" stroke-opacity="0.15"/>
<line y1="787.5" x2="1920" y2="787.5" stroke="#767676" stroke-opacity="0.15"/>
<line y1="798.5" x2="1920" y2="798.5" stroke="#767676" stroke-opacity="0.15"/>
<line y1="809.5" x2="1920" y2="809.5" stroke="#767676" stroke-opacity="0.15"/>
<line y1="820.5" x2="1920" y2="820.5" stroke="#767676" stroke-opacity="0.15"/>
<line y1="831.5" x2="1920" y2="831.5" stroke="#767676" stroke-opacity="0.15"/>
<line y1="842.5" x2="1920" y2="842.5" stroke="#767676" stroke-opacity="0.15"/>
<line y1="853.5" x2="1920" y2="853.5" stroke="#767676" stroke-opacity="0.15"/>
<line y1="864.5" x2="1920" y2="864.5" stroke="#767676" stroke-opacity="0.15"/>
<line y1="875.5" x2="1920" y2="875.5" stroke="#767676" stroke-opacity="0.15"/>
<line y1="886.5" x2="1920" y2="886.5" stroke="#767676" stroke-opacity="0.15"/>
<line y1="897.5" x2="1920" y2="897.5" stroke="#767676" stroke-opacity="0.15"/>
<line y1="908.5" x2="1920" y2="908.5" stroke="#767676" stroke-opacity="0.15"/>
<line y1="919.5" x2="1920" y2="919.5" stroke="#767676" stroke-opacity="0.15"/>
<line y1="930.5" x2="1920" y2="930.5" stroke="#767676" stroke-opacity="0.15"/>
<line y1="941.5" x2="1920" y2="941.5" stroke="#767676" stroke-opacity="0.15"/>
<line y1="952.5" x2="1920" y2="952.5" stroke="#767676" stroke-opacity="0.15"/>
<line y1="963.5" x2="1920" y2="963.5" stroke="#767676" stroke-opacity="0.15"/>
<line y1="974.5" x2="1920" y2="974.5" stroke="#767676" stroke-opacity="0.15"/>
<line y1="985.5" x2="1920" y2="985.5" stroke="#767676" stroke-opacity="0.15"/>
<line y1="996.5" x2="1920" y2="996.5" stroke="#767676" stroke-opacity="0.15"/>
<line y1="1007.5" x2="1920" y2="1007.5" stroke="#767676" stroke-opacity="0.15"/>
<line y1="1018.5" x2="1920" y2="1018.5" stroke="#767676" stroke-opacity="0.15"/>
<line y1="1029.5" x2="1920" y2="1029.5" stroke="#767676" stroke-opacity="0.15"/>
<line y1="1040.5" x2="1920" y2="1040.5" stroke="#767676" stroke-opacity="0.15"/>
<line y1="1051.5" x2="1920" y2="1051.5" stroke="#767676" stroke-opacity="0.15"/>
<line y1="1062.5" x2="1920" y2="1062.5" stroke="#767676" stroke-opacity="0.15"/>
<line y1="1073.5" x2="1920" y2="1073.5" stroke="#767676" stroke-opacity="0.15"/>
<line y1="545.5" x2="743" y2="545.5" stroke="#767676" stroke-opacity="0.15"/>
<line x1="1175" y1="545.5" x2="1920" y2="545.5" stroke="#767676" stroke-opacity="0.15"/>
<line x1="93.5" y1="1" x2="93.5" y2="1081" stroke="#767676" stroke-opacity="0.15"/>
<line x1="188.5" y1="1" x2="188.5" y2="1081" stroke="#767676" stroke-opacity="0.15"/>
<line x1="283.5" y1="1" x2="283.5" y2="1081" stroke="#767676" stroke-opacity="0.15"/>
<line x1="381.5" y1="1" x2="381.5" y2="1081" stroke="#767676" stroke-opacity="0.15"/>
<line x1="479.5" y1="1" x2="479.5" y2="1081" stroke="#767676" stroke-opacity="0.15"/>
<line x1="575.5" y1="1" x2="575.5" y2="1081" stroke="#767676" stroke-opacity="0.15"/>
<line x1="671.5" y1="1" x2="671.5" y2="1081" stroke="#767676" stroke-opacity="0.15"/>
<line x1="767.5" y1="1" x2="767.5" y2="1081" stroke="#767676" stroke-opacity="0.15"/>
<line x1="863.5" y1="1" x2="863.5" y2="1081" stroke="#767676" stroke-opacity="0.15"/>
<line x1="959.5" y1="1" x2="959.5" y2="1081" stroke="#767676" stroke-opacity="0.15"/>
<line x1="1056.5" y1="1" x2="1056.5" y2="1081" stroke="#767676" stroke-opacity="0.15"/>
<line x1="1153.5" y1="1" x2="1153.5" y2="1081" stroke="#767676" stroke-opacity="0.15"/>
<line x1="1249.5" y1="1" x2="1249.5" y2="1081" stroke="#767676" stroke-opacity="0.15"/>
<line x1="1345.5" y1="1" x2="1345.5" y2="1081" stroke="#767676" stroke-opacity="0.15"/>
<line x1="1440.5" y1="1" x2="1440.5" y2="1081" stroke="#767676" stroke-opacity="0.15"/>
<line x1="1537.5" y1="1" x2="1537.5" y2="1081" stroke="#767676" stroke-opacity="0.15"/>
<line x1="1632.5" y1="1" x2="1632.5" y2="1081" stroke="#767676" stroke-opacity="0.15"/>
<line x1="1824.5" y1="1" x2="1824.5" y2="1081" stroke="#767676" stroke-opacity="0.15"/>
<line x1="1729.5" y1="1" x2="1729.5" y2="1081" stroke="#767676" stroke-opacity="0.15"/>
<line x1="959.5" y1="1" x2="959.5" y2="325" stroke="#767676" stroke-opacity="0.15"/>
<line x1="959.5" y1="757" x2="959.5" y2="1008" stroke="#767676" stroke-opacity="0.15"/>
<line x1="946" y1="161.5" x2="954" y2="161.5" stroke="white" stroke-opacity="0.15"/>
<line x1="940" y1="171.5" x2="954" y2="171.5" stroke="white" stroke-opacity="0.15"/>
<line x1="949" y1="181.5" x2="954" y2="181.5" stroke="white" stroke-opacity="0.15"/>
<line x1="942" y1="191.5" x2="954" y2="191.5" stroke="white" stroke-opacity="0.15"/>
<line x1="946" y1="101.5" x2="954" y2="101.5" stroke="white" stroke-opacity="0.15"/>
<line x1="940" y1="111.5" x2="954" y2="111.5" stroke="white" stroke-opacity="0.15"/>
<line x1="949" y1="121.5" x2="954" y2="121.5" stroke="white" stroke-opacity="0.15"/>
<line x1="942" y1="131.5" x2="954" y2="131.5" stroke="white" stroke-opacity="0.15"/>
<line x1="951" y1="141.5" x2="954" y2="141.5" stroke="white" stroke-opacity="0.15"/>
<line x1="940" y1="151.5" x2="954" y2="151.5" stroke="white" stroke-opacity="0.15"/>
<line x1="946" y1="41.5" x2="954" y2="41.5" stroke="white" stroke-opacity="0.15"/>
<line x1="940" y1="51.5" x2="954" y2="51.5" stroke="white" stroke-opacity="0.15"/>
<line x1="949" y1="61.5" x2="954" y2="61.5" stroke="white" stroke-opacity="0.15"/>
<line x1="942" y1="71.5" x2="954" y2="71.5" stroke="white" stroke-opacity="0.15"/>
<line x1="951" y1="81.5" x2="954" y2="81.5" stroke="white" stroke-opacity="0.15"/>
<line x1="940" y1="91.5" x2="954" y2="91.5" stroke="white" stroke-opacity="0.15"/>
<line y1="-0.5" x2="8" y2="-0.5" transform="matrix(-1 0 0 1 973 162)" stroke="white" stroke-opacity="0.15"/>
<line y1="-0.5" x2="14" y2="-0.5" transform="matrix(-1 8.74228e-08 8.74228e-08 1 979 172)" stroke="white" stroke-opacity="0.15"/>
<line y1="-0.5" x2="5" y2="-0.5" transform="matrix(-1 8.74228e-08 8.74228e-08 1 970 182)" stroke="white" stroke-opacity="0.15"/>
<line y1="-0.5" x2="12" y2="-0.5" transform="matrix(-1 -8.74228e-08 -8.74228e-08 1 977 192)" stroke="white" stroke-opacity="0.15"/>
<line y1="-0.5" x2="8" y2="-0.5" transform="matrix(-1 0 0 1 973 102)" stroke="white" stroke-opacity="0.15"/>
<line y1="-0.5" x2="14" y2="-0.5" transform="matrix(-1 8.74228e-08 8.74228e-08 1 979 112)" stroke="white" stroke-opacity="0.15"/>
<line y1="-0.5" x2="5" y2="-0.5" transform="matrix(-1 8.74228e-08 8.74228e-08 1 970 122)" stroke="white" stroke-opacity="0.15"/>
<line y1="-0.5" x2="12" y2="-0.5" transform="matrix(-1 -8.74228e-08 -8.74228e-08 1 977 132)" stroke="white" stroke-opacity="0.15"/>
<line y1="-0.5" x2="3" y2="-0.5" transform="matrix(-1 8.74231e-08 8.74231e-08 1 968 142)" stroke="white" stroke-opacity="0.15"/>
<line y1="-0.5" x2="14" y2="-0.5" transform="matrix(-1 -8.74228e-08 -8.74228e-08 1 979 152)" stroke="white" stroke-opacity="0.15"/>
<line y1="-0.5" x2="8" y2="-0.5" transform="matrix(-1 0 0 1 973 42)" stroke="white" stroke-opacity="0.15"/>
<line y1="-0.5" x2="14" y2="-0.5" transform="matrix(-1 8.74228e-08 8.74228e-08 1 979 52)" stroke="white" stroke-opacity="0.15"/>
<line y1="-0.5" x2="5" y2="-0.5" transform="matrix(-1 8.74228e-08 8.74228e-08 1 970 62)" stroke="white" stroke-opacity="0.15"/>
<line y1="-0.5" x2="12" y2="-0.5" transform="matrix(-1 -8.74228e-08 -8.74228e-08 1 977 72)" stroke="white" stroke-opacity="0.15"/>
<line y1="-0.5" x2="3" y2="-0.5" transform="matrix(-1 8.74231e-08 8.74231e-08 1 968 82)" stroke="white" stroke-opacity="0.15"/>
<line y1="-0.5" x2="14" y2="-0.5" transform="matrix(-1 -8.74228e-08 -8.74228e-08 1 979 92)" stroke="white" stroke-opacity="0.15"/>
<line x1="946" y1="1010.5" x2="954" y2="1010.5" stroke="white" stroke-opacity="0.15"/>
<line x1="940" y1="1020.5" x2="954" y2="1020.5" stroke="white" stroke-opacity="0.15"/>
<line x1="949" y1="1030.5" x2="954" y2="1030.5" stroke="white" stroke-opacity="0.15"/>
<line x1="942" y1="1040.5" x2="954" y2="1040.5" stroke="white" stroke-opacity="0.15"/>
<line x1="946" y1="950.5" x2="954" y2="950.5" stroke="white" stroke-opacity="0.15"/>
<line x1="940" y1="960.5" x2="954" y2="960.5" stroke="white" stroke-opacity="0.15"/>
<line x1="949" y1="970.5" x2="954" y2="970.5" stroke="white" stroke-opacity="0.15"/>
<line x1="942" y1="980.5" x2="954" y2="980.5" stroke="white" stroke-opacity="0.15"/>
<line x1="951" y1="990.5" x2="954" y2="990.5" stroke="white" stroke-opacity="0.15"/>
<line x1="940" y1="1000.5" x2="954" y2="1000.5" stroke="white" stroke-opacity="0.15"/>
<line x1="946" y1="890.5" x2="954" y2="890.5" stroke="white" stroke-opacity="0.15"/>
<line x1="940" y1="900.5" x2="954" y2="900.5" stroke="white" stroke-opacity="0.15"/>
<line x1="949" y1="910.5" x2="954" y2="910.5" stroke="white" stroke-opacity="0.15"/>
<line x1="942" y1="920.5" x2="954" y2="920.5" stroke="white" stroke-opacity="0.15"/>
<line x1="951" y1="930.5" x2="954" y2="930.5" stroke="white" stroke-opacity="0.15"/>
<line x1="940" y1="940.5" x2="954" y2="940.5" stroke="white" stroke-opacity="0.15"/>
<line y1="-0.5" x2="8" y2="-0.5" transform="matrix(-1 0 0 1 973 1011)" stroke="white" stroke-opacity="0.15"/>
<line y1="-0.5" x2="14" y2="-0.5" transform="matrix(-1 8.74228e-08 8.74228e-08 1 979 1021)" stroke="white" stroke-opacity="0.15"/>
<line y1="-0.5" x2="5" y2="-0.5" transform="matrix(-1 8.74228e-08 8.74228e-08 1 970 1031)" stroke="white" stroke-opacity="0.15"/>
<line y1="-0.5" x2="12" y2="-0.5" transform="matrix(-1 -8.74228e-08 -8.74228e-08 1 977 1041)" stroke="white" stroke-opacity="0.15"/>
<line y1="-0.5" x2="8" y2="-0.5" transform="matrix(-1 0 0 1 973 951)" stroke="white" stroke-opacity="0.15"/>
<line y1="-0.5" x2="14" y2="-0.5" transform="matrix(-1 8.74228e-08 8.74228e-08 1 979 961)" stroke="white" stroke-opacity="0.15"/>
<line y1="-0.5" x2="5" y2="-0.5" transform="matrix(-1 8.74228e-08 8.74228e-08 1 970 971)" stroke="white" stroke-opacity="0.15"/>
<line y1="-0.5" x2="12" y2="-0.5" transform="matrix(-1 -8.74228e-08 -8.74228e-08 1 977 981)" stroke="white" stroke-opacity="0.15"/>
<line y1="-0.5" x2="3" y2="-0.5" transform="matrix(-1 8.74231e-08 8.74231e-08 1 968 991)" stroke="white" stroke-opacity="0.15"/>
<line y1="-0.5" x2="14" y2="-0.5" transform="matrix(-1 -8.74228e-08 -8.74228e-08 1 979 1001)" stroke="white" stroke-opacity="0.15"/>
<line y1="-0.5" x2="8" y2="-0.5" transform="matrix(-1 0 0 1 973 891)" stroke="white" stroke-opacity="0.15"/>
<line y1="-0.5" x2="14" y2="-0.5" transform="matrix(-1 8.74228e-08 8.74228e-08 1 979 901)" stroke="white" stroke-opacity="0.15"/>
<line y1="-0.5" x2="5" y2="-0.5" transform="matrix(-1 8.74228e-08 8.74228e-08 1 970 911)" stroke="white" stroke-opacity="0.15"/>
<line y1="-0.5" x2="12" y2="-0.5" transform="matrix(-1 -8.74228e-08 -8.74228e-08 1 977 921)" stroke="white" stroke-opacity="0.15"/>
<line y1="-0.5" x2="3" y2="-0.5" transform="matrix(-1 8.74231e-08 8.74231e-08 1 968 931)" stroke="white" stroke-opacity="0.15"/>
<line y1="-0.5" x2="14" y2="-0.5" transform="matrix(-1 -8.74228e-08 -8.74228e-08 1 979 941)" stroke="white" stroke-opacity="0.15"/>
<line x1="1705.5" y1="531" x2="1705.5" y2="539" stroke="white" stroke-opacity="0.15"/>
<line x1="1695.5" y1="525" x2="1695.5" y2="539" stroke="white" stroke-opacity="0.15"/>
<line x1="1685.5" y1="534" x2="1685.5" y2="539" stroke="white" stroke-opacity="0.15"/>
<line x1="1675.5" y1="527" x2="1675.5" y2="539" stroke="white" stroke-opacity="0.15"/>
<line x1="1665.5" y1="536" x2="1665.5" y2="539" stroke="white" stroke-opacity="0.15"/>
<line x1="1655.5" y1="525" x2="1655.5" y2="539" stroke="white" stroke-opacity="0.15"/>
<line x1="1587.5" y1="531" x2="1587.5" y2="539" stroke="white" stroke-opacity="0.15"/>
<line x1="1577.5" y1="525" x2="1577.5" y2="539" stroke="white" stroke-opacity="0.15"/>
<line x1="1567.5" y1="534" x2="1567.5" y2="539" stroke="white" stroke-opacity="0.15"/>
<line x1="1557.5" y1="527" x2="1557.5" y2="539" stroke="white" stroke-opacity="0.15"/>
<line x1="1547.5" y1="536" x2="1547.5" y2="539" stroke="white" stroke-opacity="0.15"/>
<line x1="1537.5" y1="525" x2="1537.5" y2="539" stroke="white" stroke-opacity="0.15"/>
<line x1="1765.5" y1="531" x2="1765.5" y2="539" stroke="white" stroke-opacity="0.15"/>
<line x1="1755.5" y1="525" x2="1755.5" y2="539" stroke="white" stroke-opacity="0.15"/>
<line x1="1745.5" y1="534" x2="1745.5" y2="539" stroke="white" stroke-opacity="0.15"/>
<line x1="1735.5" y1="527" x2="1735.5" y2="539" stroke="white" stroke-opacity="0.15"/>
<line x1="1725.5" y1="536" x2="1725.5" y2="539" stroke="white" stroke-opacity="0.15"/>
<line x1="1715.5" y1="525" x2="1715.5" y2="539" stroke="white" stroke-opacity="0.15"/>
<line x1="1647.5" y1="531" x2="1647.5" y2="539" stroke="white" stroke-opacity="0.15"/>
<line x1="1637.5" y1="525" x2="1637.5" y2="539" stroke="white" stroke-opacity="0.15"/>
<line x1="1627.5" y1="534" x2="1627.5" y2="539" stroke="white" stroke-opacity="0.15"/>
<line x1="1617.5" y1="527" x2="1617.5" y2="539" stroke="white" stroke-opacity="0.15"/>
<line x1="1607.5" y1="536" x2="1607.5" y2="539" stroke="white" stroke-opacity="0.15"/>
<line x1="1597.5" y1="525" x2="1597.5" y2="539" stroke="white" stroke-opacity="0.15"/>
<line x1="1825.5" y1="531" x2="1825.5" y2="539" stroke="white" stroke-opacity="0.15"/>
<line x1="1815.5" y1="525" x2="1815.5" y2="539" stroke="white" stroke-opacity="0.15"/>
<line x1="1805.5" y1="534" x2="1805.5" y2="539" stroke="white" stroke-opacity="0.15"/>
<line x1="1795.5" y1="527" x2="1795.5" y2="539" stroke="white" stroke-opacity="0.15"/>
<line x1="1785.5" y1="536" x2="1785.5" y2="539" stroke="white" stroke-opacity="0.15"/>
<line x1="1775.5" y1="525" x2="1775.5" y2="539" stroke="white" stroke-opacity="0.15"/>
<line y1="-0.5" x2="8" y2="-0.5" transform="matrix(4.37114e-08 -1 -1 -4.37114e-08 1705 558)" stroke="white" stroke-opacity="0.15"/>
<line y1="-0.5" x2="14" y2="-0.5" transform="matrix(-4.37115e-08 -1 -1 4.37115e-08 1695 564)" stroke="white" stroke-opacity="0.15"/>
<line y1="-0.5" x2="5" y2="-0.5" transform="matrix(-4.37114e-08 -1 -1 4.37114e-08 1685 555)" stroke="white" stroke-opacity="0.15"/>
<line y1="-0.5" x2="12" y2="-0.5" transform="matrix(1.31134e-07 -1 -1 -1.31134e-07 1675 562)" stroke="white" stroke-opacity="0.15"/>
<line y1="-0.5" x2="3" y2="-0.5" transform="matrix(-4.37117e-08 -1 -1 4.37117e-08 1665 553)" stroke="white" stroke-opacity="0.15"/>
<line y1="-0.5" x2="14" y2="-0.5" transform="matrix(1.31134e-07 -1 -1 -1.31134e-07 1655 564)" stroke="white" stroke-opacity="0.15"/>
<line y1="-0.5" x2="8" y2="-0.5" transform="matrix(4.37114e-08 -1 -1 -4.37114e-08 1587 558)" stroke="white" stroke-opacity="0.15"/>
<line y1="-0.5" x2="14" y2="-0.5" transform="matrix(-4.37115e-08 -1 -1 4.37115e-08 1577 564)" stroke="white" stroke-opacity="0.15"/>
<line y1="-0.5" x2="5" y2="-0.5" transform="matrix(-4.37114e-08 -1 -1 4.37114e-08 1567 555)" stroke="white" stroke-opacity="0.15"/>
<line y1="-0.5" x2="12" y2="-0.5" transform="matrix(1.31134e-07 -1 -1 -1.31134e-07 1557 562)" stroke="white" stroke-opacity="0.15"/>
<line y1="-0.5" x2="3" y2="-0.5" transform="matrix(-4.37117e-08 -1 -1 4.37117e-08 1547 553)" stroke="white" stroke-opacity="0.15"/>
<line y1="-0.5" x2="14" y2="-0.5" transform="matrix(1.31134e-07 -1 -1 -1.31134e-07 1537 564)" stroke="white" stroke-opacity="0.15"/>
<line y1="-0.5" x2="8" y2="-0.5" transform="matrix(4.37114e-08 -1 -1 -4.37114e-08 1765 558)" stroke="white" stroke-opacity="0.15"/>
<line y1="-0.5" x2="14" y2="-0.5" transform="matrix(-4.37115e-08 -1 -1 4.37115e-08 1755 564)" stroke="white" stroke-opacity="0.15"/>
<line y1="-0.5" x2="5" y2="-0.5" transform="matrix(-4.37114e-08 -1 -1 4.37114e-08 1745 555)" stroke="white" stroke-opacity="0.15"/>
<line y1="-0.5" x2="12" y2="-0.5" transform="matrix(1.31134e-07 -1 -1 -1.31134e-07 1735 562)" stroke="white" stroke-opacity="0.15"/>
<line y1="-0.5" x2="3" y2="-0.5" transform="matrix(-4.37117e-08 -1 -1 4.37117e-08 1725 553)" stroke="white" stroke-opacity="0.15"/>
<line y1="-0.5" x2="14" y2="-0.5" transform="matrix(1.31134e-07 -1 -1 -1.31134e-07 1715 564)" stroke="white" stroke-opacity="0.15"/>
<line y1="-0.5" x2="8" y2="-0.5" transform="matrix(4.37114e-08 -1 -1 -4.37114e-08 1647 558)" stroke="white" stroke-opacity="0.15"/>
<line y1="-0.5" x2="14" y2="-0.5" transform="matrix(-4.37115e-08 -1 -1 4.37115e-08 1637 564)" stroke="white" stroke-opacity="0.15"/>
<line y1="-0.5" x2="5" y2="-0.5" transform="matrix(-4.37114e-08 -1 -1 4.37114e-08 1627 555)" stroke="white" stroke-opacity="0.15"/>
<line y1="-0.5" x2="12" y2="-0.5" transform="matrix(1.31134e-07 -1 -1 -1.31134e-07 1617 562)" stroke="white" stroke-opacity="0.15"/>
<line y1="-0.5" x2="3" y2="-0.5" transform="matrix(-4.37117e-08 -1 -1 4.37117e-08 1607 553)" stroke="white" stroke-opacity="0.15"/>
<line y1="-0.5" x2="14" y2="-0.5" transform="matrix(1.31134e-07 -1 -1 -1.31134e-07 1597 564)" stroke="white" stroke-opacity="0.15"/>
<line y1="-0.5" x2="8" y2="-0.5" transform="matrix(4.37114e-08 -1 -1 -4.37114e-08 1825 558)" stroke="white" stroke-opacity="0.15"/>
<line y1="-0.5" x2="14" y2="-0.5" transform="matrix(-4.37115e-08 -1 -1 4.37115e-08 1815 564)" stroke="white" stroke-opacity="0.15"/>
<line y1="-0.5" x2="5" y2="-0.5" transform="matrix(-4.37114e-08 -1 -1 4.37114e-08 1805 555)" stroke="white" stroke-opacity="0.15"/>
<line y1="-0.5" x2="12" y2="-0.5" transform="matrix(1.31134e-07 -1 -1 -1.31134e-07 1795 562)" stroke="white" stroke-opacity="0.15"/>
<line y1="-0.5" x2="3" y2="-0.5" transform="matrix(-4.37117e-08 -1 -1 4.37117e-08 1785 553)" stroke="white" stroke-opacity="0.15"/>
<line y1="-0.5" x2="14" y2="-0.5" transform="matrix(1.31134e-07 -1 -1 -1.31134e-07 1775 564)" stroke="white" stroke-opacity="0.15"/>
<line x1="261.5" y1="532" x2="261.5" y2="540" stroke="white" stroke-opacity="0.15"/>
<line x1="251.5" y1="526" x2="251.5" y2="540" stroke="white" stroke-opacity="0.15"/>
<line x1="241.5" y1="535" x2="241.5" y2="540" stroke="white" stroke-opacity="0.15"/>
<line x1="231.5" y1="528" x2="231.5" y2="540" stroke="white" stroke-opacity="0.15"/>
<line x1="221.5" y1="537" x2="221.5" y2="540" stroke="white" stroke-opacity="0.15"/>
<line x1="211.5" y1="526" x2="211.5" y2="540" stroke="white" stroke-opacity="0.15"/>
<line x1="143.5" y1="532" x2="143.5" y2="540" stroke="white" stroke-opacity="0.15"/>
<line x1="133.5" y1="526" x2="133.5" y2="540" stroke="white" stroke-opacity="0.15"/>
<line x1="123.5" y1="535" x2="123.5" y2="540" stroke="white" stroke-opacity="0.15"/>
<line x1="113.5" y1="528" x2="113.5" y2="540" stroke="white" stroke-opacity="0.15"/>
<line x1="103.5" y1="537" x2="103.5" y2="540" stroke="white" stroke-opacity="0.15"/>
<line x1="93.5" y1="526" x2="93.5" y2="540" stroke="white" stroke-opacity="0.15"/>
<line x1="321.5" y1="532" x2="321.5" y2="540" stroke="white" stroke-opacity="0.15"/>
<line x1="311.5" y1="526" x2="311.5" y2="540" stroke="white" stroke-opacity="0.15"/>
<line x1="301.5" y1="535" x2="301.5" y2="540" stroke="white" stroke-opacity="0.15"/>
<line x1="291.5" y1="528" x2="291.5" y2="540" stroke="white" stroke-opacity="0.15"/>
<line x1="281.5" y1="537" x2="281.5" y2="540" stroke="white" stroke-opacity="0.15"/>
<line x1="271.5" y1="526" x2="271.5" y2="540" stroke="white" stroke-opacity="0.15"/>
<line x1="203.5" y1="532" x2="203.5" y2="540" stroke="white" stroke-opacity="0.15"/>
<line x1="193.5" y1="526" x2="193.5" y2="540" stroke="white" stroke-opacity="0.15"/>
<line x1="183.5" y1="535" x2="183.5" y2="540" stroke="white" stroke-opacity="0.15"/>
<line x1="173.5" y1="528" x2="173.5" y2="540" stroke="white" stroke-opacity="0.15"/>
<line x1="163.5" y1="537" x2="163.5" y2="540" stroke="white" stroke-opacity="0.15"/>
<line x1="153.5" y1="526" x2="153.5" y2="540" stroke="white" stroke-opacity="0.15"/>
<line x1="381.5" y1="532" x2="381.5" y2="540" stroke="white" stroke-opacity="0.15"/>
<line x1="371.5" y1="526" x2="371.5" y2="540" stroke="white" stroke-opacity="0.15"/>
<line x1="361.5" y1="535" x2="361.5" y2="540" stroke="white" stroke-opacity="0.15"/>
<line x1="351.5" y1="528" x2="351.5" y2="540" stroke="white" stroke-opacity="0.15"/>
<line x1="341.5" y1="537" x2="341.5" y2="540" stroke="white" stroke-opacity="0.15"/>
<line x1="331.5" y1="526" x2="331.5" y2="540" stroke="white" stroke-opacity="0.15"/>
<line y1="-0.5" x2="8" y2="-0.5" transform="matrix(4.37114e-08 -1 -1 -4.37114e-08 261 559)" stroke="white" stroke-opacity="0.15"/>
<line y1="-0.5" x2="14" y2="-0.5" transform="matrix(-4.37115e-08 -1 -1 4.37115e-08 251 565)" stroke="white" stroke-opacity="0.15"/>
<line y1="-0.5" x2="5" y2="-0.5" transform="matrix(-4.37114e-08 -1 -1 4.37114e-08 241 556)" stroke="white" stroke-opacity="0.15"/>
<line y1="-0.5" x2="12" y2="-0.5" transform="matrix(1.31134e-07 -1 -1 -1.31134e-07 231 563)" stroke="white" stroke-opacity="0.15"/>
<line y1="-0.5" x2="3" y2="-0.5" transform="matrix(-4.37117e-08 -1 -1 4.37117e-08 221 554)" stroke="white" stroke-opacity="0.15"/>
<line y1="-0.5" x2="14" y2="-0.5" transform="matrix(1.31134e-07 -1 -1 -1.31134e-07 211 565)" stroke="white" stroke-opacity="0.15"/>
<line y1="-0.5" x2="8" y2="-0.5" transform="matrix(4.37114e-08 -1 -1 -4.37114e-08 143 559)" stroke="white" stroke-opacity="0.15"/>
<line y1="-0.5" x2="14" y2="-0.5" transform="matrix(-4.37115e-08 -1 -1 4.37115e-08 133 565)" stroke="white" stroke-opacity="0.15"/>
<line y1="-0.5" x2="5" y2="-0.5" transform="matrix(-4.37114e-08 -1 -1 4.37114e-08 123 556)" stroke="white" stroke-opacity="0.15"/>
<line y1="-0.5" x2="12" y2="-0.5" transform="matrix(1.31134e-07 -1 -1 -1.31134e-07 113 563)" stroke="white" stroke-opacity="0.15"/>
<line y1="-0.5" x2="3" y2="-0.5" transform="matrix(-4.37117e-08 -1 -1 4.37117e-08 103 554)" stroke="white" stroke-opacity="0.15"/>
<line y1="-0.5" x2="14" y2="-0.5" transform="matrix(1.31134e-07 -1 -1 -1.31134e-07 93 565)" stroke="white" stroke-opacity="0.15"/>
<line y1="-0.5" x2="8" y2="-0.5" transform="matrix(4.37114e-08 -1 -1 -4.37114e-08 321 559)" stroke="white" stroke-opacity="0.15"/>
<line y1="-0.5" x2="14" y2="-0.5" transform="matrix(-4.37115e-08 -1 -1 4.37115e-08 311 565)" stroke="white" stroke-opacity="0.15"/>
<line y1="-0.5" x2="5" y2="-0.5" transform="matrix(-4.37114e-08 -1 -1 4.37114e-08 301 556)" stroke="white" stroke-opacity="0.15"/>
<line y1="-0.5" x2="12" y2="-0.5" transform="matrix(1.31134e-07 -1 -1 -1.31134e-07 291 563)" stroke="white" stroke-opacity="0.15"/>
<line y1="-0.5" x2="3" y2="-0.5" transform="matrix(-4.37117e-08 -1 -1 4.37117e-08 281 554)" stroke="white" stroke-opacity="0.15"/>
<line y1="-0.5" x2="14" y2="-0.5" transform="matrix(1.31134e-07 -1 -1 -1.31134e-07 271 565)" stroke="white" stroke-opacity="0.15"/>
<line y1="-0.5" x2="8" y2="-0.5" transform="matrix(4.37114e-08 -1 -1 -4.37114e-08 203 559)" stroke="white" stroke-opacity="0.15"/>
<line y1="-0.5" x2="14" y2="-0.5" transform="matrix(-4.37115e-08 -1 -1 4.37115e-08 193 565)" stroke="white" stroke-opacity="0.15"/>
<line y1="-0.5" x2="5" y2="-0.5" transform="matrix(-4.37114e-08 -1 -1 4.37114e-08 183 556)" stroke="white" stroke-opacity="0.15"/>
<line y1="-0.5" x2="12" y2="-0.5" transform="matrix(1.31134e-07 -1 -1 -1.31134e-07 173 563)" stroke="white" stroke-opacity="0.15"/>
<line y1="-0.5" x2="3" y2="-0.5" transform="matrix(-4.37117e-08 -1 -1 4.37117e-08 163 554)" stroke="white" stroke-opacity="0.15"/>
<line y1="-0.5" x2="14" y2="-0.5" transform="matrix(1.31134e-07 -1 -1 -1.31134e-07 153 565)" stroke="white" stroke-opacity="0.15"/>
<line y1="-0.5" x2="8" y2="-0.5" transform="matrix(4.37114e-08 -1 -1 -4.37114e-08 381 559)" stroke="white" stroke-opacity="0.15"/>
<line y1="-0.5" x2="14" y2="-0.5" transform="matrix(-4.37115e-08 -1 -1 4.37115e-08 371 565)" stroke="white" stroke-opacity="0.15"/>
<line y1="-0.5" x2="5" y2="-0.5" transform="matrix(-4.37114e-08 -1 -1 4.37114e-08 361 556)" stroke="white" stroke-opacity="0.15"/>
<line y1="-0.5" x2="12" y2="-0.5" transform="matrix(1.31134e-07 -1 -1 -1.31134e-07 351 563)" stroke="white" stroke-opacity="0.15"/>
<line y1="-0.5" x2="3" y2="-0.5" transform="matrix(-4.37117e-08 -1 -1 4.37117e-08 341 554)" stroke="white" stroke-opacity="0.15"/>
<line y1="-0.5" x2="14" y2="-0.5" transform="matrix(1.31134e-07 -1 -1 -1.31134e-07 331 565)" stroke="white" stroke-opacity="0.15"/>
<circle cx="960" cy="541" r="214.5" stroke="#767676" stroke-opacity="0.15"/>
</svg>
