<svg width="375" height="777" viewBox="0 0 375 777" fill="none" xmlns="http://www.w3.org/2000/svg">
<line x1="22.5" y1="-2.18557e-08" x2="22.5" y2="773" stroke="#767676" stroke-opacity="0.15"/>
<line x1="120.5" y1="-2.18557e-08" x2="120.5" y2="773" stroke="#767676" stroke-opacity="0.15"/>
<line x1="198.5" y1="-2.18557e-08" x2="198.5" y2="773" stroke="#767676" stroke-opacity="0.15"/>
<line x1="277.5" y1="-2.18557e-08" x2="277.5" y2="773" stroke="#767676" stroke-opacity="0.15"/>
<line x1="353.5" y1="-2.18557e-08" x2="353.5" y2="773" stroke="#767676" stroke-opacity="0.15"/>
<line y1="6.5" x2="375" y2="6.5" stroke="#767676" stroke-opacity="0.14"/>
<line y1="17.5" x2="375" y2="17.5" stroke="#767676" stroke-opacity="0.14"/>
<line y1="28.5" x2="375" y2="28.5" stroke="#767676" stroke-opacity="0.14"/>
<line y1="39.5" x2="375" y2="39.5" stroke="#767676" stroke-opacity="0.14"/>
<line y1="50.5" x2="375" y2="50.5" stroke="#767676" stroke-opacity="0.14"/>
<line y1="61.5" x2="375" y2="61.5" stroke="#767676" stroke-opacity="0.14"/>
<line y1="72.5" x2="375" y2="72.5" stroke="#767676" stroke-opacity="0.14"/>
<line y1="83.5" x2="375" y2="83.5" stroke="#767676" stroke-opacity="0.14"/>
<line y1="94.5" x2="375" y2="94.5" stroke="#767676" stroke-opacity="0.14"/>
<line y1="105.5" x2="375" y2="105.5" stroke="#767676" stroke-opacity="0.14"/>
<line y1="116.5" x2="375" y2="116.5" stroke="#767676" stroke-opacity="0.14"/>
<line y1="127.5" x2="375" y2="127.5" stroke="#767676" stroke-opacity="0.14"/>
<line y1="138.5" x2="375" y2="138.5" stroke="#767676" stroke-opacity="0.14"/>
<line y1="149.5" x2="375" y2="149.5" stroke="#767676" stroke-opacity="0.14"/>
<line y1="160.5" x2="375" y2="160.5" stroke="#767676" stroke-opacity="0.14"/>
<line y1="171.5" x2="375" y2="171.5" stroke="#767676" stroke-opacity="0.14"/>
<line y1="182.5" x2="375" y2="182.5" stroke="#767676" stroke-opacity="0.14"/>
<line y1="193.5" x2="375" y2="193.5" stroke="#767676" stroke-opacity="0.14"/>
<line y1="204.5" x2="375" y2="204.5" stroke="#767676" stroke-opacity="0.14"/>
<line y1="215.5" x2="375" y2="215.5" stroke="#767676" stroke-opacity="0.14"/>
<line y1="226.5" x2="375" y2="226.5" stroke="#767676" stroke-opacity="0.14"/>
<line y1="237.5" x2="375" y2="237.5" stroke="#767676" stroke-opacity="0.14"/>
<line y1="248.5" x2="375" y2="248.5" stroke="#767676" stroke-opacity="0.14"/>
<line y1="259.5" x2="375" y2="259.5" stroke="#767676" stroke-opacity="0.14"/>
<line y1="270.5" x2="375" y2="270.5" stroke="#767676" stroke-opacity="0.14"/>
<line y1="281.5" x2="375" y2="281.5" stroke="#767676" stroke-opacity="0.14"/>
<line y1="292.5" x2="375" y2="292.5" stroke="#767676" stroke-opacity="0.14"/>
<line y1="303.5" x2="375" y2="303.5" stroke="#767676" stroke-opacity="0.14"/>
<line y1="314.5" x2="375" y2="314.5" stroke="#767676" stroke-opacity="0.14"/>
<line y1="325.5" x2="375" y2="325.5" stroke="#767676" stroke-opacity="0.14"/>
<line y1="336.5" x2="375" y2="336.5" stroke="#767676" stroke-opacity="0.14"/>
<line y1="347.5" x2="375" y2="347.5" stroke="#767676" stroke-opacity="0.14"/>
<line y1="358.5" x2="375" y2="358.5" stroke="#767676" stroke-opacity="0.14"/>
<line y1="369.5" x2="375" y2="369.5" stroke="#767676" stroke-opacity="0.14"/>
<line y1="380.5" x2="375" y2="380.5" stroke="#767676" stroke-opacity="0.14"/>
<line y1="391.5" x2="375" y2="391.5" stroke="#767676" stroke-opacity="0.14"/>
<line y1="402.5" x2="375" y2="402.5" stroke="#767676" stroke-opacity="0.14"/>
<line y1="413.5" x2="375" y2="413.5" stroke="#767676" stroke-opacity="0.14"/>
<line y1="424.5" x2="375" y2="424.5" stroke="#767676" stroke-opacity="0.14"/>
<line y1="435.5" x2="375" y2="435.5" stroke="#767676" stroke-opacity="0.14"/>
<line y1="446.5" x2="375" y2="446.5" stroke="#767676" stroke-opacity="0.14"/>
<line y1="457.5" x2="375" y2="457.5" stroke="#767676" stroke-opacity="0.14"/>
<line y1="468.5" x2="375" y2="468.5" stroke="#767676" stroke-opacity="0.14"/>
<line y1="479.5" x2="375" y2="479.5" stroke="#767676" stroke-opacity="0.14"/>
<line y1="490.5" x2="375" y2="490.5" stroke="#767676" stroke-opacity="0.14"/>
<line y1="501.5" x2="375" y2="501.5" stroke="#767676" stroke-opacity="0.14"/>
<line y1="512.5" x2="375" y2="512.5" stroke="#767676" stroke-opacity="0.14"/>
<line y1="523.5" x2="375" y2="523.5" stroke="#767676" stroke-opacity="0.14"/>
<line y1="534.5" x2="375" y2="534.5" stroke="#767676" stroke-opacity="0.14"/>
<line y1="545.5" x2="375" y2="545.5" stroke="#767676" stroke-opacity="0.14"/>
<line y1="556.5" x2="375" y2="556.5" stroke="#767676" stroke-opacity="0.14"/>
<line y1="567.5" x2="375" y2="567.5" stroke="#767676" stroke-opacity="0.14"/>
<line y1="578.5" x2="375" y2="578.5" stroke="#767676" stroke-opacity="0.14"/>
<line y1="589.5" x2="375" y2="589.5" stroke="#767676" stroke-opacity="0.14"/>
<line y1="600.5" x2="375" y2="600.5" stroke="#767676" stroke-opacity="0.14"/>
<line y1="611.5" x2="375" y2="611.5" stroke="#767676" stroke-opacity="0.14"/>
<line y1="622.5" x2="375" y2="622.5" stroke="#767676" stroke-opacity="0.14"/>
<line y1="633.5" x2="375" y2="633.5" stroke="#767676" stroke-opacity="0.14"/>
<line y1="644.5" x2="375" y2="644.5" stroke="#767676" stroke-opacity="0.14"/>
<line y1="655.5" x2="375" y2="655.5" stroke="#767676" stroke-opacity="0.14"/>
<line y1="666.5" x2="375" y2="666.5" stroke="#767676" stroke-opacity="0.14"/>
<line y1="677.5" x2="375" y2="677.5" stroke="#767676" stroke-opacity="0.14"/>
<line y1="688.5" x2="375" y2="688.5" stroke="#767676" stroke-opacity="0.14"/>
<line y1="699.5" x2="375" y2="699.5" stroke="#767676" stroke-opacity="0.14"/>
<line y1="710.5" x2="375" y2="710.5" stroke="#767676" stroke-opacity="0.14"/>
<line y1="721.5" x2="375" y2="721.5" stroke="#767676" stroke-opacity="0.14"/>
<line y1="732.5" x2="375" y2="732.5" stroke="#767676" stroke-opacity="0.14"/>
<line y1="743.5" x2="375" y2="743.5" stroke="#767676" stroke-opacity="0.14"/>
<line y1="754.5" x2="375" y2="754.5" stroke="#767676" stroke-opacity="0.14"/>
<line y1="765.5" x2="375" y2="765.5" stroke="#767676" stroke-opacity="0.14"/>
<line y1="776.5" x2="375" y2="776.5" stroke="#767676" stroke-opacity="0.14"/>
<circle cx="188" cy="477" r="60.5" stroke="#767676" stroke-opacity="0.15"/>
<line x1="4.37114e-08" y1="479.5" x2="128" y2="479.5" stroke="#767676" stroke-opacity="0.15"/>
<line x1="248" y1="479.5" x2="375" y2="479.5" stroke="#767676" stroke-opacity="0.15"/>
<line x1="44.5" y1="469" x2="44.5" y2="477" stroke="white" stroke-opacity="0.15"/>
<line x1="52.5" y1="466" x2="52.5" y2="477" stroke="white" stroke-opacity="0.15"/>
<line x1="60.5" y1="471" x2="60.5" y2="477" stroke="white" stroke-opacity="0.15"/>
<line x1="68.5" y1="467" x2="68.5" y2="477" stroke="white" stroke-opacity="0.15"/>
<line x1="76.5" y1="473" x2="76.5" y2="477" stroke="white" stroke-opacity="0.15"/>
<line x1="84.5" y1="469" x2="84.5" y2="477" stroke="white" stroke-opacity="0.15"/>
<line y1="-0.5" x2="8" y2="-0.5" transform="matrix(4.37114e-08 -1 -1 -4.37114e-08 44 491)" stroke="white" stroke-opacity="0.15"/>
<line y1="-0.5" x2="11" y2="-0.5" transform="matrix(4.37114e-08 -1 -1 -4.37114e-08 52 494)" stroke="white" stroke-opacity="0.15"/>
<line y1="-0.5" x2="6" y2="-0.5" transform="matrix(4.37114e-08 -1 -1 -4.37114e-08 60 489)" stroke="white" stroke-opacity="0.15"/>
<line y1="-0.5" x2="10" y2="-0.5" transform="matrix(4.37114e-08 -1 -1 -4.37114e-08 68 493)" stroke="white" stroke-opacity="0.15"/>
<line y1="-0.5" x2="4" y2="-0.5" transform="matrix(4.37114e-08 -1 -1 -4.37114e-08 76 487)" stroke="white" stroke-opacity="0.15"/>
<line y1="-0.5" x2="8" y2="-0.5" transform="matrix(4.37114e-08 -1 -1 -4.37114e-08 84 491)" stroke="white" stroke-opacity="0.15"/>
<line x1="291.5" y1="469" x2="291.5" y2="477" stroke="white" stroke-opacity="0.15"/>
<line x1="299.5" y1="466" x2="299.5" y2="477" stroke="white" stroke-opacity="0.15"/>
<line x1="307.5" y1="471" x2="307.5" y2="477" stroke="white" stroke-opacity="0.15"/>
<line x1="315.5" y1="467" x2="315.5" y2="477" stroke="white" stroke-opacity="0.15"/>
<line x1="323.5" y1="473" x2="323.5" y2="477" stroke="white" stroke-opacity="0.15"/>
<line x1="331.5" y1="469" x2="331.5" y2="477" stroke="white" stroke-opacity="0.15"/>
<line y1="-0.5" x2="8" y2="-0.5" transform="matrix(4.37114e-08 -1 -1 -4.37114e-08 291 491)" stroke="white" stroke-opacity="0.15"/>
<line y1="-0.5" x2="11" y2="-0.5" transform="matrix(4.37114e-08 -1 -1 -4.37114e-08 299 494)" stroke="white" stroke-opacity="0.15"/>
<line y1="-0.5" x2="6" y2="-0.5" transform="matrix(4.37114e-08 -1 -1 -4.37114e-08 307 489)" stroke="white" stroke-opacity="0.15"/>
<line y1="-0.5" x2="10" y2="-0.5" transform="matrix(4.37114e-08 -1 -1 -4.37114e-08 315 493)" stroke="white" stroke-opacity="0.15"/>
<line y1="-0.5" x2="4" y2="-0.5" transform="matrix(4.37114e-08 -1 -1 -4.37114e-08 323 487)" stroke="white" stroke-opacity="0.15"/>
<line y1="-0.5" x2="8" y2="-0.5" transform="matrix(4.37114e-08 -1 -1 -4.37114e-08 331 491)" stroke="white" stroke-opacity="0.15"/>
</svg>
