<svg width="113" height="29" viewBox="0 0 113 29" fill="none" xmlns="http://www.w3.org/2000/svg">
<g clip-path="url(#clip0_1_7647)">
<path d="M85.683 14.8239C85.683 14.8239 86.3881 17.0755 89.3713 16.8053C92.3365 16.5351 96.531 15.6705 107.777 3.98047C107.777 3.98047 101.395 12.4643 96.9288 15.8867C93.4213 18.5705 90.872 20.0836 87.7261 19.3811C84.6344 18.6786 85.683 14.8239 85.683 14.8239Z" fill="white"/>
<path d="M103.164 19.2737C103.164 19.2737 102.224 19.2377 102.007 18.0669C101.79 16.8961 101.953 14.8066 105.297 9.25879C105.297 9.25879 101.736 13.0234 100.886 15.1128C100.217 16.7339 99.8914 17.8867 100.506 19.0215C101.103 20.1203 103.164 19.2737 103.164 19.2737Z" fill="white"/>
<path d="M36.2129 28.2796C35.2727 28.6939 33.7902 28.892 32.6873 28.892C29.903 28.892 27.7695 27.9734 27.7695 25.92C27.7695 23.2902 30.8612 21.543 34.6219 21.543C35.797 21.543 36.918 21.7051 37.8401 22.0293L36.8638 23.2902C36.4841 23.11 35.8332 22.9299 35.1823 22.9299C32.8681 22.9299 31.8014 24.461 31.8014 25.8119C31.8014 26.7666 32.5427 27.4871 34.0071 27.4871C34.5857 27.4871 35.2727 27.325 35.6886 27.1448L36.2129 28.2796Z" fill="white"/>
<path d="M43.4078 28.7484L42.0156 25.1099L45.8305 21.6875H49.1211L45.5051 24.6055L47.4939 28.7484H43.4078Z" fill="white"/>
<path d="M73.8565 27.6676C76.0622 27.6676 76.8216 25.1639 76.8216 24.0291C76.8216 23.1645 76.2792 22.7502 75.321 22.7502L74.7966 22.7682L73.079 27.3434C72.9886 27.6136 73.3864 27.6676 73.6034 27.6676H73.8565ZM68.6133 28.7664L71.2349 21.7055L76.4238 21.6875C79.0816 21.6875 80.7992 22.48 80.7992 24.2633C80.7992 27.0732 77.7437 29.0005 73.4406 28.7484H68.6133V28.7664Z" fill="white"/>
<path d="M90.8337 21.6875L86.4222 26.2807L85.482 28.7484H81.6672L82.5531 26.2807L80.7812 21.6875H84.8492L85.5905 24.6235L88.2844 21.6875H90.8337Z" fill="white"/>
<path d="M94.1065 24.8567L92.6601 28.7474H88.8633L91.503 21.6865H95.4625L97.2705 25.5412L98.7169 21.6865H101.555L98.9158 28.7474H95.9868L94.1065 24.8567Z" fill="white"/>
<path d="M18.4223 25.7405C18.3861 28.1362 23.34 27.938 23.3943 24.4076C23.34 22.3001 18.4584 22.5523 18.4223 25.7405ZM14.5532 25.7765C14.4447 24.948 15.6922 21.6517 22.0744 21.5977C26.3052 21.6517 27.2634 23.8132 27.2634 24.6958C27.2815 27.4337 22.7796 28.9467 19.9952 28.7846C15.9092 28.7306 14.5351 27.0554 14.5532 25.7765Z" fill="white"/>
<path d="M3.70703 17.4182L12.6928 9.34863H16.7246L19.2558 17.4182H14.9528C14.5912 15.4548 14.0307 13.5816 13.8861 11.5281L8.10047 17.4182H3.70703Z" fill="white"/>
<path d="M0.144531 13.9956L13.6684 15.7608L18.1703 13.9775L13.596 16.4633L0.144531 13.9956Z" fill="white"/>
<path d="M112.872 0.179688L106.761 6.68217L101.645 7.54677H106.96L112.872 0.179688Z" fill="white"/>
<path d="M20.6836 17.4183L23.269 10.5195H30.8084L30.3745 11.7264H26.5596L25.9991 13.2394H29.6874L29.2535 14.4282H25.5471L24.8782 16.2475H29.3982L28.9823 17.4183H20.6836Z" fill="white"/>
<path d="M63.3359 17.4183L65.9214 10.5195H73.4427L73.0268 11.7264H69.2119L68.6515 13.2394H72.3398L71.9059 14.4282H68.1995L67.5305 16.2655H72.0505L71.6527 17.4183H63.3359Z" fill="white"/>
<path d="M30.9141 17.4173L33.4995 10.5186H39.3032C44.1848 10.6987 43.8955 13.6167 40.0083 14.3552L42.196 17.4173H38.0918L36.103 13.6347H37.4229C38.7065 13.6527 40.4241 12.1937 38.0195 11.7074H36.7901L34.6747 17.4353H30.9141V17.4173Z" fill="white"/>
<path d="M0.578125 28.7651L3.61557 20.6055H10.486C16.2535 20.8216 15.91 24.262 11.3176 25.1446L13.9031 28.7651H9.05764L6.70724 24.28H8.26213C9.78085 24.298 11.8058 22.5868 8.96725 21.9924H7.50277L5.00773 28.7471L0.578125 28.7651Z" fill="white"/>
<path d="M47.6948 14.5174C47.6586 16.8951 52.5764 16.6969 52.6306 13.2025C52.5764 11.0951 47.731 11.3292 47.6948 14.5174ZM43.8618 14.5354C43.7534 13.7249 44.9828 10.4466 51.3289 10.3926C55.5234 10.4466 56.4817 12.5901 56.4817 13.4547C56.4998 16.1746 52.034 17.6696 49.2678 17.5255C45.1998 17.4715 43.8257 15.7963 43.8618 14.5354Z" fill="white"/>
<path d="M59.7534 10.5186H63.4598L61.254 16.3906C60.6212 18.0477 58.3612 19.3086 55.2695 19.2726L55.7035 18.1018C56.5894 17.8676 57.0414 17.6335 57.4934 16.4807L59.7534 10.5186Z" fill="white"/>
<path d="M74.6172 11.7084L75.0511 10.5195H85.9533L85.5194 11.7084H81.9215L79.7881 17.4183H76.0817L78.2151 11.7084H74.6172Z" fill="white"/>
<path d="M48.2188 28.7484L50.8584 21.6875H58.5786L58.1447 22.9123H54.2213L53.6608 24.4794H57.4395L56.9875 25.6863H53.1907L52.5218 27.5596H57.1503L56.7344 28.7484H48.2188Z" fill="white"/>
<path d="M100.109 28.7484L102.749 21.6875H110.469L110.035 22.9123H106.13L105.551 24.4794H109.33L108.878 25.6863H105.081L104.412 27.5596H109.041L108.625 28.7484H100.109Z" fill="white"/>
<path d="M40.6611 28.7484H36.8281L39.4678 21.6875H43.2827L40.6611 28.7484Z" fill="white"/>
<path d="M58.9062 22.9119L59.3402 21.7051H70.4774L70.0254 22.9299H66.3552L64.1675 28.7479H60.3888L62.5765 22.9119H58.9062Z" fill="white"/>
<path d="M0.125 13.9961H18.1327L13.5946 15.7793L0.125 13.9961Z" fill="white"/>
<path d="M112.872 0.180123V0.162109L101.645 7.52919L106.743 7.02484L112.872 0.180123Z" fill="white"/>
</g>
<defs>
<clipPath id="clip0_1_7647">
<rect width="113" height="29" fill="white"/>
</clipPath>
</defs>
</svg>
