<svg width="50" height="21" viewBox="0 0 50 21" fill="none" xmlns="http://www.w3.org/2000/svg">
<path d="M31.8456 5.82357C31.1608 6.47847 31.1608 7.53982 31.8456 8.19472L34.2491 10.4909C34.4043 10.6563 35.0562 11.4259 34.8168 12.4666C34.8046 12.5201 34.8154 12.5784 34.8588 12.6202C34.9235 12.6817 35.0284 12.6817 35.0926 12.6202L35.7852 11.9584L36.6708 11.1118C37.5525 10.2701 37.5525 8.90516 36.6708 8.06303L34.3271 5.82357C33.6419 5.16949 32.5308 5.16949 31.8456 5.82357Z" fill="white"/>
<path d="M46.1541 20.1752C46.8393 19.5211 46.8393 18.4593 46.1541 17.8048L43.7504 15.5086C43.5955 15.3428 42.9438 14.5736 43.1827 13.5325C43.1953 13.479 43.1841 13.4206 43.1406 13.3789C43.076 13.3177 42.9711 13.3177 42.9069 13.3789L42.2148 14.0407L41.3289 14.8877C40.4477 15.729 40.4477 17.094 41.3289 17.9361L43.6727 20.1752C44.3575 20.8301 45.4685 20.8301 46.1541 20.1752Z" fill="white"/>
<path d="M31.8182 17.6962L43.1597 5.84039C43.4886 5.49716 43.9235 5.32765 44.3562 5.33314C44.777 5.33911 45.195 5.5077 45.5136 5.84165C45.8367 6.17898 45.9983 6.62467 45.9987 7.06995C45.9995 7.51732 45.8375 7.96428 45.5132 8.30329L34.1717 20.1591C33.8477 20.4977 33.4211 20.6672 32.9945 20.6663C32.5679 20.6663 32.1409 20.4968 31.8174 20.1586C31.5025 19.8276 31.3401 19.3946 31.3323 18.9594C31.3248 18.5024 31.4868 18.0432 31.8182 17.6962Z" fill="white"/>
<path d="M2.44344 8.76078H1.33859C0.599332 8.76078 0 8.12573 0 7.34271C0 6.55968 0.599332 5.92507 1.33859 5.92507H2.44344V4.85742C2.44344 3.20085 2.84057 1.96594 3.58306 1.17957C4.32474 0.393194 5.35841 0 6.73623 0C7.31332 0 7.7986 0.0448044 8.23132 0.120315C8.86948 0.230938 9.33333 0.823678 9.33333 1.50987C9.33252 2.33481 8.66768 2.98371 7.89162 2.91203C7.75008 2.89943 7.60449 2.89194 7.45203 2.89194C6.23274 2.89194 5.5966 3.59405 5.5966 5.13872V5.95275H7.9814C8.71297 5.95275 9.30624 6.58152 9.30624 7.35699C9.30624 8.13247 8.71297 8.76082 7.9814 8.76082H5.64958V18.9682C5.64958 19.9059 4.93176 20.6667 4.04691 20.6667C3.16126 20.6667 2.44344 19.9059 2.44344 18.9682V8.76078Z" fill="white"/>
<path d="M12.9987 0C13.9191 0 14.6654 0.767041 14.6654 1.71244V18.9538C14.6654 19.8996 13.9191 20.6667 12.9987 20.6667C12.0783 20.6667 11.332 19.8996 11.332 18.9538V1.71244C11.332 0.767041 12.0783 0 12.9987 0Z" fill="white"/>
<path d="M27.8828 11.951C27.9686 11.951 28.0367 11.8741 28.0258 11.7872C27.7612 9.69444 26.5097 8.08048 24.373 8.08048C22.3961 8.08048 20.9924 9.5897 20.6441 11.7822C20.6307 11.8695 20.6993 11.951 20.7862 11.951H27.8828ZM17.332 13.0367V12.8355C17.332 8.2401 21.3938 4.61646 25.8402 5.45399C29.4885 6.14148 31.332 9.46625 31.332 13.2316C31.3316 13.7549 30.9143 14.1781 30.3996 14.1781L20.8172 14.1785C20.7285 14.1785 20.6596 14.2625 20.6754 14.351C21.0844 16.637 22.7264 17.9097 24.8112 17.9097C26.0384 17.9097 26.9972 17.556 27.8912 16.8877C28.4118 16.4974 29.1226 16.5103 29.606 16.9459C30.2185 17.4983 30.219 18.4863 29.5855 19.0125C28.3449 20.0424 26.7714 20.6663 24.7569 20.6663C20.565 20.6663 17.332 17.5752 17.332 13.0367Z" fill="white"/>
<path d="M49.3143 19.0079C49.3143 18.8429 49.2232 18.7602 49.0416 18.7602H48.7177V19.2875H49.029C49.1198 19.2875 49.19 19.2644 49.2394 19.2179C49.2891 19.1714 49.3143 19.1019 49.3143 19.0079ZM49.2959 19.8528C49.2959 19.7438 49.2873 19.662 49.27 19.6065C49.2523 19.5515 49.2232 19.5149 49.1817 19.4933C49.141 19.4721 49.0809 19.4623 49.0027 19.4623H48.7177V20.1075H48.5736V18.5821H49.0733C49.1904 18.5821 49.2837 18.6175 49.3536 18.6888C49.4231 18.7593 49.4581 18.8622 49.4581 18.9976C49.4581 19.0957 49.4408 19.1757 49.4044 19.2386C49.3684 19.3016 49.3158 19.3444 49.2459 19.3684V19.375C49.3158 19.4027 49.3651 19.4473 49.3943 19.508C49.4228 19.5686 49.4372 19.6701 49.4372 19.8115C49.4372 19.9558 49.4498 20.0544 49.4743 20.108H49.3302C49.3194 20.0883 49.3111 20.053 49.305 20.0051C49.2988 19.9571 49.2959 19.9064 49.2959 19.8528ZM49.8562 19.3331C49.8562 19.1259 49.8184 18.9342 49.742 18.7575C49.6667 18.5808 49.563 18.4389 49.4322 18.335C49.301 18.2302 49.1558 18.1781 48.9977 18.1781C48.8438 18.1781 48.7019 18.2294 48.5711 18.3331C48.4399 18.4365 48.3362 18.5766 48.2594 18.7542C48.1827 18.9304 48.1441 19.124 48.1441 19.3331C48.1441 19.5403 48.1819 19.7325 48.2576 19.9097C48.3344 20.0868 48.4374 20.2268 48.5682 20.3321C48.6986 20.436 48.8427 20.4886 49.0002 20.4886C49.1569 20.4886 49.301 20.436 49.4322 20.3321C49.563 20.2269 49.6667 20.0868 49.742 19.9097C49.8184 19.7325 49.8562 19.5403 49.8562 19.3331ZM48 19.3331C48 19.0887 48.0461 18.8642 48.1376 18.6602C48.2291 18.4549 48.3513 18.2941 48.5051 18.1767C48.659 18.0592 48.8251 18 49.0027 18C49.1825 18 49.3489 18.0597 49.5014 18.18C49.6545 18.2989 49.7755 18.461 49.8653 18.6649C49.9553 18.8688 50 19.0911 50 19.3331C50 19.5657 49.9564 19.7847 49.8692 19.99C49.7824 20.1944 49.6628 20.3584 49.5111 20.4825C49.3587 20.6051 49.1893 20.6667 49.0027 20.6667C48.8193 20.6667 48.6514 20.6065 48.4986 20.4867C48.3459 20.3674 48.2248 20.2052 48.1351 20.0004C48.045 19.7955 48 19.5732 48 19.3331Z" fill="white"/>
</svg>
