<svg width="1893" height="1086" viewBox="0 0 1893 1086" fill="none" xmlns="http://www.w3.org/2000/svg">
<path d="M1.93205e-05 9.91602L0 409.729M1.93205e-05 432.254L5.03422e-05 1074.21M1892 432.254V1074.21M1892 9.91602V409.729M1877.5 1L15.5 1M231.5 421.461H15.5M616.5 1085H15.5M1247.5 1085H643.5M1878.5 1085H1273.5M615.5 421.461H262.5M1627.5 421.461H643.5M1878.5 421.461H1658.5M12.3019 10.6432L617.907 1073.06M1878.7 10.6432L1273.09 1073.06M632 431.315V1073.27M1260 431.315V1073.27" stroke="white" stroke-opacity="0.2"/>
<line x1="1872" y1="740.5" x2="1872" y2="862.5" stroke="white" stroke-opacity="0.2"/>
<line x1="1858.5" y1="776" x2="1866.5" y2="776" stroke="white" stroke-opacity="0.2"/>
<line x1="1852.5" y1="786" x2="1866.5" y2="786" stroke="white" stroke-opacity="0.2"/>
<line x1="1861.5" y1="796" x2="1866.5" y2="796" stroke="white" stroke-opacity="0.2"/>
<line x1="1854.5" y1="806" x2="1866.5" y2="806" stroke="white" stroke-opacity="0.2"/>
<line x1="1863.5" y1="816" x2="1866.5" y2="816" stroke="white" stroke-opacity="0.2"/>
<line x1="1852.5" y1="826" x2="1866.5" y2="826" stroke="white" stroke-opacity="0.2"/>
<line y1="-0.5" x2="122" y2="-0.5" transform="matrix(4.37114e-08 1 1 -4.37114e-08 20.5 740.5)" stroke="white" stroke-opacity="0.2"/>
<line y1="-0.5" x2="8" y2="-0.5" transform="matrix(-1 0 0 1 33.5 776.5)" stroke="white" stroke-opacity="0.2"/>
<line y1="-0.5" x2="14" y2="-0.5" transform="matrix(-1 8.74228e-08 8.74228e-08 1 39.5 786.5)" stroke="white" stroke-opacity="0.2"/>
<line y1="-0.5" x2="5" y2="-0.5" transform="matrix(-1 8.74228e-08 8.74228e-08 1 30.5 796.5)" stroke="white" stroke-opacity="0.2"/>
<line y1="-0.5" x2="12" y2="-0.5" transform="matrix(-1 -8.74228e-08 -8.74228e-08 1 37.5 806.5)" stroke="white" stroke-opacity="0.2"/>
<line y1="-0.5" x2="3" y2="-0.5" transform="matrix(-1 8.74231e-08 8.74231e-08 1 28.5 816.5)" stroke="white" stroke-opacity="0.2"/>
<line y1="-0.5" x2="14" y2="-0.5" transform="matrix(-1 -8.74228e-08 -8.74228e-08 1 39.5 826.5)" stroke="white" stroke-opacity="0.2"/>
<line y1="-0.5" x2="122" y2="-0.5" transform="matrix(-1 3.17865e-08 3.17865e-08 1 615.5 469.5)" stroke="white" stroke-opacity="0.2"/>
<line y1="-0.5" x2="8" y2="-0.5" transform="matrix(1.19249e-08 -1 -1 -1.19249e-08 579.5 482.5)" stroke="white" stroke-opacity="0.2"/>
<line y1="-0.5" x2="14" y2="-0.5" transform="matrix(-7.5498e-08 -1 -1 7.5498e-08 569.5 488.5)" stroke="white" stroke-opacity="0.2"/>
<line y1="-0.5" x2="5" y2="-0.5" transform="matrix(-7.54979e-08 -1 -1 7.54979e-08 559.5 479.5)" stroke="white" stroke-opacity="0.2"/>
<line y1="-0.5" x2="12" y2="-0.5" transform="matrix(9.93476e-08 -1 -1 -9.93476e-08 549.5 486.5)" stroke="white" stroke-opacity="0.2"/>
<line y1="-0.5" x2="3" y2="-0.5" transform="matrix(-7.54982e-08 -1 -1 7.54982e-08 539.5 477.5)" stroke="white" stroke-opacity="0.2"/>
<line y1="-0.5" x2="14" y2="-0.5" transform="matrix(9.93477e-08 -1 -1 -9.93477e-08 529.5 488.5)" stroke="white" stroke-opacity="0.2"/>
<line y1="-0.5" x2="122" y2="-0.5" transform="matrix(-1 3.17865e-08 3.17865e-08 1 1399.5 469.5)" stroke="white" stroke-opacity="0.2"/>
<line y1="-0.5" x2="8" y2="-0.5" transform="matrix(1.19249e-08 -1 -1 -1.19249e-08 1363.5 482.5)" stroke="white" stroke-opacity="0.2"/>
<line y1="-0.5" x2="14" y2="-0.5" transform="matrix(-7.5498e-08 -1 -1 7.5498e-08 1353.5 488.5)" stroke="white" stroke-opacity="0.2"/>
<line y1="-0.5" x2="5" y2="-0.5" transform="matrix(-7.54979e-08 -1 -1 7.54979e-08 1343.5 479.5)" stroke="white" stroke-opacity="0.2"/>
<line y1="-0.5" x2="12" y2="-0.5" transform="matrix(9.93476e-08 -1 -1 -9.93476e-08 1333.5 486.5)" stroke="white" stroke-opacity="0.2"/>
<line y1="-0.5" x2="3" y2="-0.5" transform="matrix(-7.54982e-08 -1 -1 7.54982e-08 1323.5 477.5)" stroke="white" stroke-opacity="0.2"/>
<line y1="-0.5" x2="14" y2="-0.5" transform="matrix(9.93477e-08 -1 -1 -9.93477e-08 1313.5 488.5)" stroke="white" stroke-opacity="0.2"/>
</svg>
