<svg width="1607" height="742" viewBox="0 0 1607 742" fill="none" xmlns="http://www.w3.org/2000/svg">
<g clip-path="url(#clip0_1_7922)">
<circle cx="803.5" cy="207.5" r="144" stroke="#767676" stroke-opacity="0.1"/>
<circle cx="803.5" cy="418.5" r="625" stroke="#767676" stroke-opacity="0.1"/>
<circle cx="803.5" cy="1155.5" r="803" stroke="#767676" stroke-opacity="0.1"/>
<path d="M1363.5 1146.5C1363.5 1454.67 1112.78 1704.5 803.5 1704.5C494.219 1704.5 243.5 1454.67 243.5 1146.5C243.5 838.327 494.219 588.5 803.5 588.5C1112.78 588.5 1363.5 838.327 1363.5 1146.5Z" stroke="#767676" stroke-opacity="0.1"/>
<path d="M567.28 206.507C567.662 144.132 592.723 84.4453 636.984 40.4935C681.245 -3.45823 741.106 -28.0999 803.483 -28.0451C865.859 -27.9903 925.677 -3.24347 969.86 40.786C1014.04 84.8154 1039 144.546 1039.27 206.922" stroke="#767676" stroke-opacity="0.1"/>
</g>
<defs>
<clipPath id="clip0_1_7922">
<rect width="1607" height="742" fill="white"/>
</clipPath>
</defs>
</svg>
