<svg width="1920" height="1088" viewBox="0 0 1920 1088" fill="none" xmlns="http://www.w3.org/2000/svg">
<line y1="24.5" x2="1920" y2="24.5" stroke="#767676" stroke-opacity="0.1"/>
<line y1="35.5" x2="1920" y2="35.5" stroke="#767676" stroke-opacity="0.1"/>
<line y1="46.5" x2="1920" y2="46.5" stroke="#767676" stroke-opacity="0.1"/>
<line y1="57.5" x2="1920" y2="57.5" stroke="#767676" stroke-opacity="0.1"/>
<line y1="68.5" x2="1920" y2="68.5" stroke="#767676" stroke-opacity="0.1"/>
<line y1="79.5" x2="1920" y2="79.5" stroke="#767676" stroke-opacity="0.1"/>
<line y1="90.5" x2="1920" y2="90.5" stroke="#767676" stroke-opacity="0.1"/>
<line y1="101.5" x2="1920" y2="101.5" stroke="#767676" stroke-opacity="0.1"/>
<line y1="112.5" x2="1920" y2="112.5" stroke="#767676" stroke-opacity="0.1"/>
<line y1="123.5" x2="1920" y2="123.5" stroke="#767676" stroke-opacity="0.1"/>
<line y1="134.5" x2="1920" y2="134.5" stroke="#767676" stroke-opacity="0.1"/>
<line y1="145.5" x2="1920" y2="145.5" stroke="#767676" stroke-opacity="0.1"/>
<line y1="156.5" x2="1920" y2="156.5" stroke="#767676" stroke-opacity="0.1"/>
<line y1="167.5" x2="1920" y2="167.5" stroke="#767676" stroke-opacity="0.1"/>
<line y1="178.5" x2="1920" y2="178.5" stroke="#767676" stroke-opacity="0.1"/>
<line y1="189.5" x2="1920" y2="189.5" stroke="#767676" stroke-opacity="0.1"/>
<line y1="200.5" x2="1920" y2="200.5" stroke="#767676" stroke-opacity="0.1"/>
<line y1="211.5" x2="1920" y2="211.5" stroke="#767676" stroke-opacity="0.1"/>
<line y1="222.5" x2="1920" y2="222.5" stroke="#767676" stroke-opacity="0.1"/>
<line y1="233.5" x2="1920" y2="233.5" stroke="#767676" stroke-opacity="0.1"/>
<line y1="244.5" x2="1920" y2="244.5" stroke="#767676" stroke-opacity="0.1"/>
<line y1="255.5" x2="1920" y2="255.5" stroke="#767676" stroke-opacity="0.1"/>
<line y1="266.5" x2="1920" y2="266.5" stroke="#767676" stroke-opacity="0.1"/>
<line y1="277.5" x2="1920" y2="277.5" stroke="#767676" stroke-opacity="0.1"/>
<line y1="288.5" x2="1920" y2="288.5" stroke="#767676" stroke-opacity="0.1"/>
<line y1="299.5" x2="1920" y2="299.5" stroke="#767676" stroke-opacity="0.1"/>
<line y1="310.5" x2="1920" y2="310.5" stroke="#767676" stroke-opacity="0.1"/>
<line y1="321.5" x2="1920" y2="321.5" stroke="#767676" stroke-opacity="0.1"/>
<line y1="332.5" x2="1920" y2="332.5" stroke="#767676" stroke-opacity="0.1"/>
<line y1="343.5" x2="1920" y2="343.5" stroke="#767676" stroke-opacity="0.1"/>
<line y1="354.5" x2="1920" y2="354.5" stroke="#767676" stroke-opacity="0.1"/>
<line y1="365.5" x2="1920" y2="365.5" stroke="#767676" stroke-opacity="0.1"/>
<line y1="376.5" x2="1920" y2="376.5" stroke="#767676" stroke-opacity="0.1"/>
<line y1="387.5" x2="1920" y2="387.5" stroke="#767676" stroke-opacity="0.1"/>
<line y1="398.5" x2="1920" y2="398.5" stroke="#767676" stroke-opacity="0.1"/>
<line y1="409.5" x2="1920" y2="409.5" stroke="#767676" stroke-opacity="0.1"/>
<line y1="420.5" x2="1920" y2="420.5" stroke="#767676" stroke-opacity="0.1"/>
<line y1="431.5" x2="1920" y2="431.5" stroke="#767676" stroke-opacity="0.1"/>
<line y1="442.5" x2="1920" y2="442.5" stroke="#767676" stroke-opacity="0.1"/>
<line y1="453.5" x2="1920" y2="453.5" stroke="#767676" stroke-opacity="0.1"/>
<line y1="464.5" x2="1920" y2="464.5" stroke="#767676" stroke-opacity="0.1"/>
<line y1="475.5" x2="1920" y2="475.5" stroke="#767676" stroke-opacity="0.1"/>
<line y1="486.5" x2="1920" y2="486.5" stroke="#767676" stroke-opacity="0.1"/>
<line y1="497.5" x2="1920" y2="497.5" stroke="#767676" stroke-opacity="0.1"/>
<line y1="508.5" x2="1920" y2="508.5" stroke="#767676" stroke-opacity="0.1"/>
<line y1="519.5" x2="1920" y2="519.5" stroke="#767676" stroke-opacity="0.1"/>
<line y1="530.5" x2="1920" y2="530.5" stroke="#767676" stroke-opacity="0.1"/>
<line y1="541.5" x2="1920" y2="541.5" stroke="#767676" stroke-opacity="0.1"/>
<line y1="552.5" x2="1920" y2="552.5" stroke="#767676" stroke-opacity="0.1"/>
<line y1="563.5" x2="1920" y2="563.5" stroke="#767676" stroke-opacity="0.1"/>
<line y1="574.5" x2="1920" y2="574.5" stroke="#767676" stroke-opacity="0.1"/>
<line y1="585.5" x2="1920" y2="585.5" stroke="#767676" stroke-opacity="0.1"/>
<line y1="596.5" x2="1920" y2="596.5" stroke="#767676" stroke-opacity="0.1"/>
<line y1="607.5" x2="1920" y2="607.5" stroke="#767676" stroke-opacity="0.1"/>
<line y1="618.5" x2="1920" y2="618.5" stroke="#767676" stroke-opacity="0.1"/>
<line y1="629.5" x2="1920" y2="629.5" stroke="#767676" stroke-opacity="0.1"/>
<line y1="640.5" x2="1920" y2="640.5" stroke="#767676" stroke-opacity="0.1"/>
<line y1="651.5" x2="1920" y2="651.5" stroke="#767676" stroke-opacity="0.1"/>
<line y1="662.5" x2="1920" y2="662.5" stroke="#767676" stroke-opacity="0.1"/>
<line y1="673.5" x2="1920" y2="673.5" stroke="#767676" stroke-opacity="0.1"/>
<line y1="684.5" x2="1920" y2="684.5" stroke="#767676" stroke-opacity="0.1"/>
<line y1="695.5" x2="1920" y2="695.5" stroke="#767676" stroke-opacity="0.1"/>
<line y1="706.5" x2="1920" y2="706.5" stroke="#767676" stroke-opacity="0.1"/>
<line y1="717.5" x2="1920" y2="717.5" stroke="#767676" stroke-opacity="0.1"/>
<line y1="728.5" x2="1920" y2="728.5" stroke="#767676" stroke-opacity="0.1"/>
<line y1="739.5" x2="1920" y2="739.5" stroke="#767676" stroke-opacity="0.1"/>
<line y1="750.5" x2="1920" y2="750.5" stroke="#767676" stroke-opacity="0.1"/>
<line y1="761.5" x2="1920" y2="761.5" stroke="#767676" stroke-opacity="0.1"/>
<line y1="772.5" x2="1920" y2="772.5" stroke="#767676" stroke-opacity="0.1"/>
<line y1="783.5" x2="1920" y2="783.5" stroke="#767676" stroke-opacity="0.1"/>
<line y1="794.5" x2="1920" y2="794.5" stroke="#767676" stroke-opacity="0.1"/>
<line y1="805.5" x2="1920" y2="805.5" stroke="#767676" stroke-opacity="0.1"/>
<line y1="816.5" x2="1920" y2="816.5" stroke="#767676" stroke-opacity="0.1"/>
<line y1="827.5" x2="1920" y2="827.5" stroke="#767676" stroke-opacity="0.1"/>
<line y1="838.5" x2="1920" y2="838.5" stroke="#767676" stroke-opacity="0.1"/>
<line y1="849.5" x2="1920" y2="849.5" stroke="#767676" stroke-opacity="0.1"/>
<line y1="860.5" x2="1920" y2="860.5" stroke="#767676" stroke-opacity="0.1"/>
<line y1="871.5" x2="1920" y2="871.5" stroke="#767676" stroke-opacity="0.1"/>
<line y1="882.5" x2="1920" y2="882.5" stroke="#767676" stroke-opacity="0.1"/>
<line y1="893.5" x2="1920" y2="893.5" stroke="#767676" stroke-opacity="0.1"/>
<line y1="904.5" x2="1920" y2="904.5" stroke="#767676" stroke-opacity="0.1"/>
<line y1="915.5" x2="1920" y2="915.5" stroke="#767676" stroke-opacity="0.1"/>
<line y1="926.5" x2="1920" y2="926.5" stroke="#767676" stroke-opacity="0.1"/>
<line y1="937.5" x2="1920" y2="937.5" stroke="#767676" stroke-opacity="0.1"/>
<line y1="948.5" x2="1920" y2="948.5" stroke="#767676" stroke-opacity="0.1"/>
<line y1="959.5" x2="1920" y2="959.5" stroke="#767676" stroke-opacity="0.1"/>
<line y1="970.5" x2="1920" y2="970.5" stroke="#767676" stroke-opacity="0.1"/>
<line y1="981.5" x2="1920" y2="981.5" stroke="#767676" stroke-opacity="0.1"/>
<line y1="992.5" x2="1920" y2="992.5" stroke="#767676" stroke-opacity="0.1"/>
<line y1="1003.5" x2="1920" y2="1003.5" stroke="#767676" stroke-opacity="0.1"/>
<line y1="1014.5" x2="1920" y2="1014.5" stroke="#767676" stroke-opacity="0.1"/>
<line y1="1025.5" x2="1920" y2="1025.5" stroke="#767676" stroke-opacity="0.1"/>
<line y1="1036.5" x2="1920" y2="1036.5" stroke="#767676" stroke-opacity="0.1"/>
<line y1="1047.5" x2="1920" y2="1047.5" stroke="#767676" stroke-opacity="0.1"/>
<line y1="1058.5" x2="1920" y2="1058.5" stroke="#767676" stroke-opacity="0.1"/>
<line y1="1069.5" x2="1920" y2="1069.5" stroke="#767676" stroke-opacity="0.1"/>
<line y1="1080.5" x2="1920" y2="1080.5" stroke="#767676" stroke-opacity="0.1"/>
<line y1="552.5" x2="905" y2="552.5" stroke="#767676" stroke-opacity="0.1"/>
<line x1="959.5" y1="608" x2="959.5" y2="1088" stroke="#767676" stroke-opacity="0.1"/>
<line x1="1015" y1="552.5" x2="1920" y2="552.5" stroke="#767676" stroke-opacity="0.1"/>
<line x1="959.5" y1="8" x2="959.5" y2="497" stroke="#767676" stroke-opacity="0.1"/>
</svg>
